%FSLAX25Y25*%
%MOIN*%
G70*
G01*
G75*
%ADD10C,0.01000*%
%ADD11C,0.02000*%
%ADD12C,0.00800*%
%ADD13R,0.01969X0.02000*%
%ADD14R,0.03000X0.03000*%
%ADD15R,0.02000X0.01969*%
%ADD16R,0.03150X0.00984*%
%ADD17R,0.00984X0.03150*%
%ADD18R,0.00984X0.03150*%
%ADD19R,0.05906X0.05906*%
%ADD20O,0.03150X0.00984*%
%ADD21C,0.00800*%
%ADD22R,0.05906X0.05118*%
%ADD23R,0.02000X0.03150*%
%ADD24R,0.05118X0.05906*%
%ADD25R,0.02756X0.00984*%
%ADD26R,0.00984X0.02756*%
%ADD27R,0.06299X0.06299*%
%ADD28C,0.00700*%
%ADD29C,0.01500*%
%ADD30C,0.02900*%
%ADD31C,0.00600*%
%ADD32C,0.03000*%
%ADD33R,0.00900X0.00700*%
%ADD34R,0.03000X0.02247*%
%ADD35R,0.01600X0.02900*%
%ADD36R,0.07500X0.07700*%
%ADD37R,0.04500X0.03500*%
%ADD38R,0.03900X0.03000*%
%ADD39R,0.07700X0.04600*%
%ADD40R,0.02078X0.02277*%
%ADD41R,0.04100X0.02700*%
%ADD42R,0.04000X0.03000*%
%ADD43R,0.02300X0.04800*%
%ADD44C,0.04724*%
%ADD45C,0.06000*%
%ADD46O,0.09000X0.04500*%
%ADD47C,0.04331*%
%ADD48C,0.01500*%
%ADD49C,0.06200*%
%ADD50R,0.06200X0.06200*%
%ADD51R,0.06000X0.06000*%
%ADD52C,0.02200*%
%ADD53C,0.02400*%
%ADD54C,0.02000*%
%ADD55R,0.08026X0.06000*%
%ADD56R,0.08126X0.05900*%
%ADD57R,0.07700X0.06100*%
%ADD58R,0.05600X0.04400*%
%ADD59R,0.06200X0.05400*%
%ADD60C,0.01200*%
%ADD61R,0.08100X0.04600*%
%ADD62C,0.08661*%
%ADD63C,0.00394*%
%ADD64C,0.00500*%
%ADD65C,0.00787*%
%ADD66C,0.00300*%
%ADD67R,0.03000X0.05500*%
%ADD68R,0.03000X0.05000*%
%ADD69R,0.03000X0.06000*%
%ADD70R,0.03000X0.07000*%
%ADD71R,0.01800X0.07000*%
%ADD72R,0.01800X0.19500*%
%ADD73R,0.19500X0.01800*%
%ADD74R,0.01800X0.19500*%
%ADD75R,0.19500X0.01800*%
%ADD76R,0.07654X0.02619*%
%ADD77R,0.14800X0.14700*%
%ADD78C,0.05500*%
%ADD79C,0.06000*%
%ADD80R,0.06800X0.06800*%
%ADD81R,0.04600X0.76500*%
%ADD82R,0.04900X0.06100*%
%ADD83R,0.04300X0.06500*%
%ADD84R,0.04600X0.06700*%
%ADD85R,0.04300X0.06500*%
%ADD86R,0.07600X0.05100*%
%ADD87R,0.15900X0.08900*%
%ADD88R,0.11700X0.10600*%
%ADD89R,0.11300X0.14000*%
%ADD90R,0.14500X0.14500*%
%ADD91R,0.09300X0.05100*%
%ADD92R,0.01900X0.00800*%
%ADD93R,0.04500X0.03000*%
%ADD94R,0.02768X0.02800*%
%ADD95R,0.03800X0.03800*%
%ADD96R,0.02800X0.02768*%
%ADD97R,0.03950X0.01784*%
%ADD98R,0.01784X0.03950*%
%ADD99R,0.01784X0.03950*%
%ADD100R,0.06706X0.06706*%
%ADD101O,0.03950X0.01784*%
%ADD102C,0.01600*%
%ADD103R,0.06706X0.05918*%
%ADD104R,0.02800X0.03950*%
%ADD105R,0.05918X0.06706*%
%ADD106R,0.03556X0.01784*%
%ADD107R,0.01784X0.03556*%
%ADD108C,0.05524*%
%ADD109C,0.06800*%
%ADD110O,0.09800X0.05300*%
%ADD111C,0.05131*%
%ADD112C,0.07000*%
%ADD113R,0.07000X0.07000*%
%ADD114R,0.06800X0.06800*%
%ADD115R,0.08800X0.05000*%
%ADD116R,0.16500X0.10700*%
%ADD117R,0.16600X0.13300*%
%ADD118R,0.09900X0.05200*%
%ADD119C,0.09461*%
%ADD120C,0.00100*%
%ADD121C,0.00200*%
%ADD122R,0.01000X0.02000*%
%ADD123R,0.02000X0.03500*%
%ADD124R,0.02000X0.04500*%
%ADD125R,0.02500X0.04000*%
%ADD126C,0.00667*%
%ADD127C,0.00400*%
D120*
X956526Y804184D02*
Y808184D01*
X960526D01*
Y804184D01*
X956526D01*
X1076000Y809700D02*
Y813700D01*
X1080000D01*
Y809700D01*
X1076000D01*
X956500Y888200D02*
Y892200D01*
X960500D01*
Y888200D01*
X956500D01*
X1091984Y872674D02*
X1089984Y876674D01*
X1093984D01*
X1091984Y872674D01*
X1070000Y822700D02*
X1071000Y823700D01*
X1072000D01*
X1071000Y824700D01*
X1072000Y825700D01*
X1071000D01*
X1070000Y826700D01*
X1069000Y825700D01*
X1068000D01*
X1069000Y824700D01*
X1068000Y823700D01*
X1069000D01*
X1070000Y822700D01*
Y841913D02*
X1071000Y842913D01*
X1072000D01*
X1071000Y843913D01*
X1072000Y844913D01*
X1071000D01*
X1070000Y845913D01*
X1069000Y844913D01*
X1068000D01*
X1069000Y843913D01*
X1068000Y842913D01*
X1069000D01*
X1070000Y841913D01*
X1054474Y867231D02*
X1055474Y869231D01*
X1054474Y871231D01*
X1056474Y870231D01*
X1058474Y871231D01*
X1057474Y869231D01*
X1058474Y867231D01*
X1056474Y868231D01*
X1054474Y867231D01*
X1052112D02*
X1053112Y869231D01*
X1052112Y871231D01*
X1054112Y870231D01*
X1056112Y871231D01*
X1055112Y869231D01*
X1056112Y867231D01*
X1054112Y868231D01*
X1052112Y867231D01*
X1049750D02*
X1050750Y869231D01*
X1049750Y871231D01*
X1051750Y870231D01*
X1053750Y871231D01*
X1052750Y869231D01*
X1053750Y867231D01*
X1051750Y868231D01*
X1049750Y867231D01*
X1049750Y869593D02*
X1050750Y871593D01*
X1049750Y873593D01*
X1051750Y872593D01*
X1053750Y873593D01*
X1052750Y871593D01*
X1053750Y869593D01*
X1051750Y870593D01*
X1049750Y869593D01*
X1054474D02*
X1055474Y871593D01*
X1054474Y873593D01*
X1056474Y872593D01*
X1058474Y873593D01*
X1057474Y871593D01*
X1058474Y869593D01*
X1056474Y870593D01*
X1054474Y869593D01*
Y871955D02*
X1055474Y873955D01*
X1054474Y875955D01*
X1056474Y874955D01*
X1058474Y875955D01*
X1057474Y873955D01*
X1058474Y871955D01*
X1056474Y872955D01*
X1054474Y871955D01*
X1052112D02*
X1053112Y873955D01*
X1052112Y875955D01*
X1054112Y874955D01*
X1056112Y875955D01*
X1055112Y873955D01*
X1056112Y871955D01*
X1054112Y872955D01*
X1052112Y871955D01*
X1049750D02*
X1050750Y873955D01*
X1049750Y875955D01*
X1051750Y874955D01*
X1053750Y875955D01*
X1052750Y873955D01*
X1053750Y871955D01*
X1051750Y872955D01*
X1049750Y871955D01*
X948500Y871700D02*
Y870700D01*
X950500D01*
Y871700D01*
X951500D01*
Y873700D01*
X950500D01*
Y874700D01*
X948500D01*
Y873700D01*
X947500D01*
Y871700D01*
X948500D01*
Y881700D02*
Y880700D01*
X950500D01*
Y881700D01*
X951500D01*
Y883700D01*
X950500D01*
Y884700D01*
X948500D01*
Y883700D01*
X947500D01*
Y881700D01*
X948500D01*
Y831700D02*
Y830700D01*
X950500D01*
Y831700D01*
X951500D01*
Y833700D01*
X950500D01*
Y834700D01*
X948500D01*
Y833700D01*
X947500D01*
Y831700D01*
X948500D01*
Y821700D02*
Y820700D01*
X950500D01*
Y821700D01*
X951500D01*
Y823700D01*
X950500D01*
Y824700D01*
X948500D01*
Y823700D01*
X947500D01*
Y821700D01*
X948500D01*
Y841700D02*
Y840700D01*
X950500D01*
Y841700D01*
X951500D01*
Y843700D01*
X950500D01*
Y844700D01*
X948500D01*
Y843700D01*
X947500D01*
Y841700D01*
X948500D01*
Y801700D02*
Y800700D01*
X950500D01*
Y801700D01*
X951500D01*
Y803700D01*
X950500D01*
Y804700D01*
X948500D01*
Y803700D01*
X947500D01*
Y801700D01*
X948500D01*
Y811700D02*
Y810700D01*
X950500D01*
Y811700D01*
X951500D01*
Y813700D01*
X950500D01*
Y814700D01*
X948500D01*
Y813700D01*
X947500D01*
Y811700D01*
X948500D01*
Y861700D02*
Y860700D01*
X950500D01*
Y861700D01*
X951500D01*
Y863700D01*
X950500D01*
Y864700D01*
X948500D01*
Y863700D01*
X947500D01*
Y861700D01*
X948500D01*
Y891700D02*
Y890700D01*
X950500D01*
Y891700D01*
X951500D01*
Y893700D01*
X950500D01*
Y894700D01*
X948500D01*
Y893700D01*
X947500D01*
Y891700D01*
X948500D01*
Y851700D02*
Y850700D01*
X950500D01*
Y851700D01*
X951500D01*
Y853700D01*
X950500D01*
Y854700D01*
X948500D01*
Y853700D01*
X947500D01*
Y851700D01*
X948500D01*
X965484Y873492D02*
X966484D01*
X967484Y874492D01*
X968484Y873492D01*
X969484D01*
Y874492D01*
X968484Y875492D01*
X969484Y876492D01*
Y877492D01*
X968484D01*
X967484Y876492D01*
X966484Y877492D01*
X965484D01*
Y876492D01*
X966484Y875492D01*
X965484Y874492D01*
Y873492D01*
Y865618D02*
X966484D01*
X967484Y866618D01*
X968484Y865618D01*
X969484D01*
Y866618D01*
X968484Y867618D01*
X969484Y868618D01*
Y869618D01*
X968484D01*
X967484Y868618D01*
X966484Y869618D01*
X965484D01*
Y868618D01*
X966484Y867618D01*
X965484Y866618D01*
Y865618D01*
Y857744D02*
X966484D01*
X967484Y858744D01*
X968484Y857744D01*
X969484D01*
Y858744D01*
X968484Y859744D01*
X969484Y860744D01*
Y861744D01*
X968484D01*
X967484Y860744D01*
X966484Y861744D01*
X965484D01*
Y860744D01*
X966484Y859744D01*
X965484Y858744D01*
Y857744D01*
Y834122D02*
X966484D01*
X967484Y835122D01*
X968484Y834122D01*
X969484D01*
Y835122D01*
X968484Y836122D01*
X969484Y837122D01*
Y838122D01*
X968484D01*
X967484Y837122D01*
X966484Y838122D01*
X965484D01*
Y837122D01*
X966484Y836122D01*
X965484Y835122D01*
Y834122D01*
Y826248D02*
X966484D01*
X967484Y827248D01*
X968484Y826248D01*
X969484D01*
Y827248D01*
X968484Y828248D01*
X969484Y829248D01*
Y830248D01*
X968484D01*
X967484Y829248D01*
X966484Y830248D01*
X965484D01*
Y829248D01*
X966484Y828248D01*
X965484Y827248D01*
Y826248D01*
Y889240D02*
X966484D01*
X967484Y890240D01*
X968484Y889240D01*
X969484D01*
Y890240D01*
X968484Y891240D01*
X969484Y892240D01*
Y893240D01*
X968484D01*
X967484Y892240D01*
X966484Y893240D01*
X965484D01*
Y892240D01*
X966484Y891240D01*
X965484Y890240D01*
Y889240D01*
Y802626D02*
X966484D01*
X967484Y803626D01*
X968484Y802626D01*
X969484D01*
Y803626D01*
X968484Y804626D01*
X969484Y805626D01*
Y806626D01*
X968484D01*
X967484Y805626D01*
X966484Y806626D01*
X965484D01*
Y805626D01*
X966484Y804626D01*
X965484Y803626D01*
Y802626D01*
Y881366D02*
X966484D01*
X967484Y882366D01*
X968484Y881366D01*
X969484D01*
Y882366D01*
X968484Y883366D01*
X969484Y884366D01*
Y885366D01*
X968484D01*
X967484Y884366D01*
X966484Y885366D01*
X965484D01*
Y884366D01*
X966484Y883366D01*
X965484Y882366D01*
Y881366D01*
Y810500D02*
X966484D01*
X967484Y811500D01*
X968484Y810500D01*
X969484D01*
Y811500D01*
X968484Y812500D01*
X969484Y813500D01*
Y814500D01*
X968484D01*
X967484Y813500D01*
X966484Y814500D01*
X965484D01*
Y813500D01*
X966484Y812500D01*
X965484Y811500D01*
Y810500D01*
Y818374D02*
X966484D01*
X967484Y819374D01*
X968484Y818374D01*
X969484D01*
Y819374D01*
X968484Y820374D01*
X969484Y821374D01*
Y822374D01*
X968484D01*
X967484Y821374D01*
X966484Y822374D01*
X965484D01*
Y821374D01*
X966484Y820374D01*
X965484Y819374D01*
Y818374D01*
X965484Y849870D02*
X966484D01*
X967484Y850870D01*
X968484Y849870D01*
X969484D01*
Y850870D01*
X968484Y851870D01*
X969484Y852870D01*
Y853870D01*
X968484D01*
X967484Y852870D01*
X966484Y853870D01*
X965484D01*
Y852870D01*
X966484Y851870D01*
X965484Y850870D01*
Y849870D01*
X965484Y841996D02*
X966484D01*
X967484Y842996D01*
X968484Y841996D01*
X969484D01*
Y842996D01*
X968484Y843996D01*
X969484Y844996D01*
Y845996D01*
X968484D01*
X967484Y844996D01*
X966484Y845996D01*
X965484D01*
Y844996D01*
X966484Y843996D01*
X965484Y842996D01*
Y841996D01*
X1017500Y821900D02*
X1018500Y823900D01*
X1017500Y825900D01*
X1019500Y824900D01*
X1021500Y825900D01*
X1020500Y823900D01*
X1021500Y821900D01*
X1019500Y822900D01*
X1017500Y821900D01*
X1097974Y816516D02*
X1099974Y818516D01*
X1101974Y816516D01*
X1099974Y814516D01*
X1097974Y816516D01*
Y812916D02*
X1099974Y814916D01*
X1101974Y812916D01*
X1099974Y810916D01*
X1097974Y812916D01*
Y814716D02*
X1099974Y816716D01*
X1101974Y814716D01*
X1099974Y812716D01*
X1097974Y814716D01*
Y815616D02*
X1099974Y817616D01*
X1101974Y815616D01*
X1099974Y813616D01*
X1097974Y815616D01*
Y813816D02*
X1099974Y815816D01*
X1101974Y813816D01*
X1099974Y811816D01*
X1097974Y813816D01*
Y826516D02*
X1099974Y828516D01*
X1101974Y826516D01*
X1099974Y824516D01*
X1097974Y826516D01*
X1097974Y822916D02*
X1099974Y824916D01*
X1101974Y822916D01*
X1099974Y820916D01*
X1097974Y822916D01*
X1097974Y824716D02*
X1099974Y826716D01*
X1101974Y824716D01*
X1099974Y822716D01*
X1097974Y824716D01*
Y825616D02*
X1099974Y827616D01*
X1101974Y825616D01*
X1099974Y823616D01*
X1097974Y825616D01*
Y823816D02*
X1099974Y825816D01*
X1101974Y823816D01*
X1099974Y821816D01*
X1097974Y823816D01*
Y886516D02*
X1099974Y888516D01*
X1101974Y886516D01*
X1099974Y884516D01*
X1097974Y886516D01*
Y882916D02*
X1099974Y884916D01*
X1101974Y882916D01*
X1099974Y880916D01*
X1097974Y882916D01*
Y884716D02*
X1099974Y886716D01*
X1101974Y884716D01*
X1099974Y882716D01*
X1097974Y884716D01*
Y885616D02*
X1099974Y887616D01*
X1101974Y885616D01*
X1099974Y883616D01*
X1097974Y885616D01*
Y883816D02*
X1099974Y885816D01*
X1101974Y883816D01*
X1099974Y881816D01*
X1097974Y883816D01*
Y866516D02*
X1099974Y868516D01*
X1101974Y866516D01*
X1099974Y864516D01*
X1097974Y866516D01*
Y862916D02*
X1099974Y864916D01*
X1101974Y862916D01*
X1099974Y860916D01*
X1097974Y862916D01*
Y864716D02*
X1099974Y866716D01*
X1101974Y864716D01*
X1099974Y862716D01*
X1097974Y864716D01*
Y865616D02*
X1099974Y867616D01*
X1101974Y865616D01*
X1099974Y863616D01*
X1097974Y865616D01*
Y863816D02*
X1099974Y865816D01*
X1101974Y863816D01*
X1099974Y861816D01*
X1097974Y863816D01*
Y876516D02*
X1099974Y878516D01*
X1101974Y876516D01*
X1099974Y874516D01*
X1097974Y876516D01*
Y872916D02*
X1099974Y874916D01*
X1101974Y872916D01*
X1099974Y870916D01*
X1097974Y872916D01*
Y874716D02*
X1099974Y876716D01*
X1101974Y874716D01*
X1099974Y872716D01*
X1097974Y874716D01*
Y875616D02*
X1099974Y877616D01*
X1101974Y875616D01*
X1099974Y873616D01*
X1097974Y875616D01*
Y873816D02*
X1099974Y875816D01*
X1101974Y873816D01*
X1099974Y871816D01*
X1097974Y873816D01*
X941974Y894516D02*
X943974Y896516D01*
X945974Y894516D01*
X943974Y892516D01*
X941974Y894516D01*
Y890916D02*
X943974Y892916D01*
X945974Y890916D01*
X943974Y888916D01*
X941974Y890916D01*
Y892716D02*
X943974Y894716D01*
X945974Y892716D01*
X943974Y890716D01*
X941974Y892716D01*
Y893616D02*
X943974Y895616D01*
X945974Y893616D01*
X943974Y891616D01*
X941974Y893616D01*
Y891816D02*
X943974Y893816D01*
X945974Y891816D01*
X943974Y889816D01*
X941974Y891816D01*
Y884516D02*
X943974Y886516D01*
X945974Y884516D01*
X943974Y882516D01*
X941974Y884516D01*
Y880916D02*
X943974Y882916D01*
X945974Y880916D01*
X943974Y878916D01*
X941974Y880916D01*
Y882716D02*
X943974Y884716D01*
X945974Y882716D01*
X943974Y880716D01*
X941974Y882716D01*
Y883616D02*
X943974Y885616D01*
X945974Y883616D01*
X943974Y881616D01*
X941974Y883616D01*
Y881816D02*
X943974Y883816D01*
X945974Y881816D01*
X943974Y879816D01*
X941974Y881816D01*
Y874616D02*
X943974Y876616D01*
X945974Y874616D01*
X943974Y872616D01*
X941974Y874616D01*
Y871016D02*
X943974Y873016D01*
X945974Y871016D01*
X943974Y869016D01*
X941974Y871016D01*
Y872816D02*
X943974Y874816D01*
X945974Y872816D01*
X943974Y870816D01*
X941974Y872816D01*
Y873716D02*
X943974Y875716D01*
X945974Y873716D01*
X943974Y871716D01*
X941974Y873716D01*
Y871916D02*
X943974Y873916D01*
X945974Y871916D01*
X943974Y869916D01*
X941974Y871916D01*
Y864516D02*
X943974Y866516D01*
X945974Y864516D01*
X943974Y862516D01*
X941974Y864516D01*
Y860916D02*
X943974Y862916D01*
X945974Y860916D01*
X943974Y858916D01*
X941974Y860916D01*
Y862716D02*
X943974Y864716D01*
X945974Y862716D01*
X943974Y860716D01*
X941974Y862716D01*
Y863616D02*
X943974Y865616D01*
X945974Y863616D01*
X943974Y861616D01*
X941974Y863616D01*
Y861816D02*
X943974Y863816D01*
X945974Y861816D01*
X943974Y859816D01*
X941974Y861816D01*
Y854516D02*
X943974Y856516D01*
X945974Y854516D01*
X943974Y852516D01*
X941974Y854516D01*
Y850916D02*
X943974Y852916D01*
X945974Y850916D01*
X943974Y848916D01*
X941974Y850916D01*
Y852716D02*
X943974Y854716D01*
X945974Y852716D01*
X943974Y850716D01*
X941974Y852716D01*
Y853616D02*
X943974Y855616D01*
X945974Y853616D01*
X943974Y851616D01*
X941974Y853616D01*
Y851816D02*
X943974Y853816D01*
X945974Y851816D01*
X943974Y849816D01*
X941974Y851816D01*
Y844516D02*
X943974Y846516D01*
X945974Y844516D01*
X943974Y842516D01*
X941974Y844516D01*
Y840916D02*
X943974Y842916D01*
X945974Y840916D01*
X943974Y838916D01*
X941974Y840916D01*
Y842716D02*
X943974Y844716D01*
X945974Y842716D01*
X943974Y840716D01*
X941974Y842716D01*
Y843616D02*
X943974Y845616D01*
X945974Y843616D01*
X943974Y841616D01*
X941974Y843616D01*
Y841816D02*
X943974Y843816D01*
X945974Y841816D01*
X943974Y839816D01*
X941974Y841816D01*
Y834516D02*
X943974Y836516D01*
X945974Y834516D01*
X943974Y832516D01*
X941974Y834516D01*
Y830916D02*
X943974Y832916D01*
X945974Y830916D01*
X943974Y828916D01*
X941974Y830916D01*
Y832716D02*
X943974Y834716D01*
X945974Y832716D01*
X943974Y830716D01*
X941974Y832716D01*
Y833616D02*
X943974Y835616D01*
X945974Y833616D01*
X943974Y831616D01*
X941974Y833616D01*
Y831816D02*
X943974Y833816D01*
X945974Y831816D01*
X943974Y829816D01*
X941974Y831816D01*
Y824516D02*
X943974Y826516D01*
X945974Y824516D01*
X943974Y822516D01*
X941974Y824516D01*
Y820916D02*
X943974Y822916D01*
X945974Y820916D01*
X943974Y818916D01*
X941974Y820916D01*
Y822716D02*
X943974Y824716D01*
X945974Y822716D01*
X943974Y820716D01*
X941974Y822716D01*
Y823616D02*
X943974Y825616D01*
X945974Y823616D01*
X943974Y821616D01*
X941974Y823616D01*
Y821816D02*
X943974Y823816D01*
X945974Y821816D01*
X943974Y819816D01*
X941974Y821816D01*
Y814516D02*
X943974Y816516D01*
X945974Y814516D01*
X943974Y812516D01*
X941974Y814516D01*
Y810916D02*
X943974Y812916D01*
X945974Y810916D01*
X943974Y808916D01*
X941974Y810916D01*
Y812716D02*
X943974Y814716D01*
X945974Y812716D01*
X943974Y810716D01*
X941974Y812716D01*
Y813616D02*
X943974Y815616D01*
X945974Y813616D01*
X943974Y811616D01*
X941974Y813616D01*
Y811816D02*
X943974Y813816D01*
X945974Y811816D01*
X943974Y809816D01*
X941974Y811816D01*
Y804516D02*
X943974Y806516D01*
X945974Y804516D01*
X943974Y802516D01*
X941974Y804516D01*
Y800916D02*
X943974Y802916D01*
X945974Y800916D01*
X943974Y798916D01*
X941974Y800916D01*
Y802716D02*
X943974Y804716D01*
X945974Y802716D01*
X943974Y800716D01*
X941974Y802716D01*
Y803616D02*
X943974Y805616D01*
X945974Y803616D01*
X943974Y801616D01*
X941974Y803616D01*
Y801816D02*
X943974Y803816D01*
X945974Y801816D01*
X943974Y799816D01*
X941974Y801816D01*
X955100Y839100D02*
X956100Y841100D01*
X955100Y843100D01*
X957100Y842100D01*
X959100Y843100D01*
X958100Y841100D01*
X959100Y839100D01*
X957100Y840100D01*
X955100Y839100D01*
X1008000Y822200D02*
X1009000Y824200D01*
X1008000Y826200D01*
X1010000Y825200D01*
X1012000Y826200D01*
X1011000Y824200D01*
X1012000Y822200D01*
X1010000Y823200D01*
X1008000Y822200D01*
X1009700Y824000D02*
X1010700Y826000D01*
X1009700Y828000D01*
X1011700Y827000D01*
X1013700Y828000D01*
X1012700Y826000D01*
X1013700Y824000D01*
X1011700Y825000D01*
X1009700Y824000D01*
X1058700Y849600D02*
Y853600D01*
X1062700D01*
Y849600D01*
X1058700D01*
X1059500Y850400D02*
Y852800D01*
X1061900D01*
Y850400D01*
X1059500D01*
X1038700Y849900D02*
Y853900D01*
X1042700D01*
Y849900D01*
X1038700D01*
X1039500Y850700D02*
Y853100D01*
X1041900D01*
Y850700D01*
X1039500D01*
X1053700Y847200D02*
X1054700Y849200D01*
X1053700Y851200D01*
X1055700Y850200D01*
X1057700Y851200D01*
X1056700Y849200D01*
X1057700Y847200D01*
X1055700Y848200D01*
X1053700Y847200D01*
X1025600Y861300D02*
X1026600Y863300D01*
X1025600Y865300D01*
X1027600Y864300D01*
X1029600Y865300D01*
X1028600Y863300D01*
X1029600Y861300D01*
X1027600Y862300D01*
X1025600Y861300D01*
X999000Y877300D02*
X1000000Y879300D01*
X999000Y881300D01*
X1001000Y880300D01*
X1003000Y881300D01*
X1002000Y879300D01*
X1003000Y877300D01*
X1001000Y878300D01*
X999000Y877300D01*
X1007100Y865200D02*
X1008100Y867200D01*
X1007100Y869200D01*
X1009100Y868200D01*
X1011100Y869200D01*
X1010100Y867200D01*
X1011100Y865200D01*
X1009100Y866200D01*
X1007100Y865200D01*
X1007800Y841200D02*
X1008800Y843200D01*
X1007800Y845200D01*
X1009800Y844200D01*
X1011800Y845200D01*
X1010800Y843200D01*
X1011800Y841200D01*
X1009800Y842200D01*
X1007800Y841200D01*
X989100Y816000D02*
X990100Y818000D01*
X989100Y820000D01*
X991100Y819000D01*
X993100Y820000D01*
X992100Y818000D01*
X993100Y816000D01*
X991100Y817000D01*
X989100Y816000D01*
X1026300Y812100D02*
X1027300Y814100D01*
X1026300Y816100D01*
X1028300Y815100D01*
X1030300Y816100D01*
X1029300Y814100D01*
X1030300Y812100D01*
X1028300Y813100D01*
X1026300Y812100D01*
X1037600Y819900D02*
X1038600Y821900D01*
X1037600Y823900D01*
X1039600Y822900D01*
X1041600Y823900D01*
X1040600Y821900D01*
X1041600Y819900D01*
X1039600Y820900D01*
X1037600Y819900D01*
X1047500Y808300D02*
X1048500Y810300D01*
X1047500Y812300D01*
X1049500Y811300D01*
X1051500Y812300D01*
X1050500Y810300D01*
X1051500Y808300D01*
X1049500Y809300D01*
X1047500Y808300D01*
X1052274Y807700D02*
X1053274Y809700D01*
X1052274Y811700D01*
X1054274Y810700D01*
X1056274Y811700D01*
X1055274Y809700D01*
X1056274Y807700D01*
X1054274Y808700D01*
X1052274Y807700D01*
X1055700Y811800D02*
X1056700Y813800D01*
X1055700Y815800D01*
X1057700Y814800D01*
X1059700Y815800D01*
X1058700Y813800D01*
X1059700Y811800D01*
X1057700Y812800D01*
X1055700Y811800D01*
X982700Y852500D02*
X983700Y854500D01*
X982700Y856500D01*
X984700Y855500D01*
X986700Y856500D01*
X985700Y854500D01*
X986700Y852500D01*
X984700Y853500D01*
X982700Y852500D01*
X1006300Y836900D02*
X1007300Y838900D01*
X1006300Y840900D01*
X1008300Y839900D01*
X1010300Y840900D01*
X1009300Y838900D01*
X1010300Y836900D01*
X1008300Y837900D01*
X1006300Y836900D01*
X990900Y839200D02*
X991900Y841200D01*
X990900Y843200D01*
X992900Y842200D01*
X994900Y843200D01*
X993900Y841200D01*
X994900Y839200D01*
X992900Y840200D01*
X990900Y839200D01*
X987300Y837100D02*
X988300Y839100D01*
X987300Y841100D01*
X989300Y840100D01*
X991300Y841100D01*
X990300Y839100D01*
X991300Y837100D01*
X989300Y838100D01*
X987300Y837100D01*
X1013800Y880000D02*
X1014800Y882000D01*
X1013800Y884000D01*
X1015800Y883000D01*
X1017800Y884000D01*
X1016800Y882000D01*
X1017800Y880000D01*
X1015800Y881000D01*
X1013800Y880000D01*
X1054200Y835800D02*
X1055200Y837800D01*
X1054200Y839800D01*
X1056200Y838800D01*
X1058200Y839800D01*
X1057200Y837800D01*
X1058200Y835800D01*
X1056200Y836800D01*
X1054200Y835800D01*
X1052400Y838400D02*
X1053400Y840400D01*
X1052400Y842400D01*
X1054400Y841400D01*
X1056400Y842400D01*
X1055400Y840400D01*
X1056400Y838400D01*
X1054400Y839400D01*
X1052400Y838400D01*
X1034500Y860800D02*
X1035500Y862800D01*
X1034500Y864800D01*
X1036500Y863800D01*
X1038500Y864800D01*
X1037500Y862800D01*
X1038500Y860800D01*
X1036500Y861800D01*
X1034500Y860800D01*
X1025700Y864800D02*
X1026700Y866800D01*
X1025700Y868800D01*
X1027700Y867800D01*
X1029700Y868800D01*
X1028700Y866800D01*
X1029700Y864800D01*
X1027700Y865800D01*
X1025700Y864800D01*
X983300Y871900D02*
X984300Y873900D01*
X983300Y875900D01*
X985300Y874900D01*
X987300Y875900D01*
X986300Y873900D01*
X987300Y871900D01*
X985300Y872900D01*
X983300Y871900D01*
X999900Y866200D02*
X1000900Y868200D01*
X999900Y870200D01*
X1001900Y869200D01*
X1003900Y870200D01*
X1002900Y868200D01*
X1003900Y866200D01*
X1001900Y867200D01*
X999900Y866200D01*
X986700Y869200D02*
X987700Y871200D01*
X986700Y873200D01*
X988700Y872200D01*
X990700Y873200D01*
X989700Y871200D01*
X990700Y869200D01*
X988700Y870200D01*
X986700Y869200D01*
X989200Y845000D02*
X990200Y847000D01*
X989200Y849000D01*
X991200Y848000D01*
X993200Y849000D01*
X992200Y847000D01*
X993200Y845000D01*
X991200Y846000D01*
X989200Y845000D01*
X1070700Y854500D02*
X1071700Y856500D01*
X1070700Y858500D01*
X1072700Y857500D01*
X1074700Y858500D01*
X1073700Y856500D01*
X1074700Y854500D01*
X1072700Y855500D01*
X1070700Y854500D01*
X1073800Y857100D02*
X1074800Y859100D01*
X1073800Y861100D01*
X1075800Y860100D01*
X1077800Y861100D01*
X1076800Y859100D01*
X1077800Y857100D01*
X1075800Y858100D01*
X1073800Y857100D01*
X1057600Y822700D02*
X1058600Y824700D01*
X1057600Y826700D01*
X1059600Y825700D01*
X1061600Y826700D01*
X1060600Y824700D01*
X1061600Y822700D01*
X1059600Y823700D01*
X1057600Y822700D01*
X991200Y873000D02*
X992200Y875000D01*
X991200Y877000D01*
X993200Y876000D01*
X995200Y877000D01*
X994200Y875000D01*
X995200Y873000D01*
X993200Y874000D01*
X991200Y873000D01*
X991100Y811400D02*
X992100Y813400D01*
X991100Y815400D01*
X993100Y814400D01*
X995100Y815400D01*
X994100Y813400D01*
X995100Y811400D01*
X993100Y812400D01*
X991100Y811400D01*
X987800Y813500D02*
X988800Y815500D01*
X987800Y817500D01*
X989800Y816500D01*
X991800Y817500D01*
X990800Y815500D01*
X991800Y813500D01*
X989800Y814500D01*
X987800Y813500D01*
X1030274Y845300D02*
X1031274Y847300D01*
X1030274Y849300D01*
X1032274Y848300D01*
X1034274Y849300D01*
X1033274Y847300D01*
X1034274Y845300D01*
X1032274Y846300D01*
X1030274Y845300D01*
X1026000Y849200D02*
X1027000Y851200D01*
X1026000Y853200D01*
X1028000Y852200D01*
X1030000Y853200D01*
X1029000Y851200D01*
X1030000Y849200D01*
X1028000Y850200D01*
X1026000Y849200D01*
X1034000D02*
X1035000Y851200D01*
X1034000Y853200D01*
X1036000Y852200D01*
X1038000Y853200D01*
X1037000Y851200D01*
X1038000Y849200D01*
X1036000Y850200D01*
X1034000Y849200D01*
Y841200D02*
X1035000Y843200D01*
X1034000Y845200D01*
X1036000Y844200D01*
X1038000Y845200D01*
X1037000Y843200D01*
X1038000Y841200D01*
X1036000Y842200D01*
X1034000Y841200D01*
X1026000D02*
X1027000Y843200D01*
X1026000Y845200D01*
X1028000Y844200D01*
X1030000Y845200D01*
X1029000Y843200D01*
X1030000Y841200D01*
X1028000Y842200D01*
X1026000Y841200D01*
X1025900Y845300D02*
X1026900Y847300D01*
X1025900Y849300D01*
X1027900Y848300D01*
X1029900Y849300D01*
X1028900Y847300D01*
X1029900Y845300D01*
X1027900Y846300D01*
X1025900Y845300D01*
X1030300Y849200D02*
X1031300Y851200D01*
X1030300Y853200D01*
X1032300Y852200D01*
X1034300Y853200D01*
X1033300Y851200D01*
X1034300Y849200D01*
X1032300Y850200D01*
X1030300Y849200D01*
Y841200D02*
X1031300Y843200D01*
X1030300Y845200D01*
X1032300Y844200D01*
X1034300Y845200D01*
X1033300Y843200D01*
X1034300Y841200D01*
X1032300Y842200D01*
X1030300Y841200D01*
X1033900Y845200D02*
X1034900Y847200D01*
X1033900Y849200D01*
X1035900Y848200D01*
X1037900Y849200D01*
X1036900Y847200D01*
X1037900Y845200D01*
X1035900Y846200D01*
X1033900Y845200D01*
X975500Y834300D02*
X976500Y836300D01*
X975500Y838300D01*
X977500Y837300D01*
X979500Y838300D01*
X978500Y836300D01*
X979500Y834300D01*
X977500Y835300D01*
X975500Y834300D01*
Y829900D02*
X976500Y831900D01*
X975500Y833900D01*
X977500Y832900D01*
X979500Y833900D01*
X978500Y831900D01*
X979500Y829900D01*
X977500Y830900D01*
X975500Y829900D01*
Y825100D02*
X976500Y827100D01*
X975500Y829100D01*
X977500Y828100D01*
X979500Y829100D01*
X978500Y827100D01*
X979500Y825100D01*
X977500Y826100D01*
X975500Y825100D01*
X975400Y858700D02*
X976400Y860700D01*
X975400Y862700D01*
X977400Y861700D01*
X979400Y862700D01*
X978400Y860700D01*
X979400Y858700D01*
X977400Y859700D01*
X975400Y858700D01*
X975300Y874500D02*
X976300Y876500D01*
X975300Y878500D01*
X977300Y877500D01*
X979300Y878500D01*
X978300Y876500D01*
X979300Y874500D01*
X977300Y875500D01*
X975300Y874500D01*
X975400Y868600D02*
X976400Y870600D01*
X975400Y872600D01*
X977400Y871600D01*
X979400Y872600D01*
X978400Y870600D01*
X979400Y868600D01*
X977400Y869600D01*
X975400Y868600D01*
Y855400D02*
X976400Y857400D01*
X975400Y859400D01*
X977400Y858400D01*
X979400Y859400D01*
X978400Y857400D01*
X979400Y855400D01*
X977400Y856400D01*
X975400Y855400D01*
Y852400D02*
X976400Y854400D01*
X975400Y856400D01*
X977400Y855400D01*
X979400Y856400D01*
X978400Y854400D01*
X979400Y852400D01*
X977400Y853400D01*
X975400Y852400D01*
X975600Y813200D02*
X976600Y815200D01*
X975600Y817200D01*
X977600Y816200D01*
X979600Y817200D01*
X978600Y815200D01*
X979600Y813200D01*
X977600Y814200D01*
X975600Y813200D01*
Y809200D02*
X976600Y811200D01*
X975600Y813200D01*
X977600Y812200D01*
X979600Y813200D01*
X978600Y811200D01*
X979600Y809200D01*
X977600Y810200D01*
X975600Y809200D01*
X975500Y805400D02*
X976500Y807400D01*
X975500Y809400D01*
X977500Y808400D01*
X979500Y809400D01*
X978500Y807400D01*
X979500Y805400D01*
X977500Y806400D01*
X975500Y805400D01*
Y802100D02*
X976500Y804100D01*
X975500Y806100D01*
X977500Y805100D01*
X979500Y806100D01*
X978500Y804100D01*
X979500Y802100D01*
X977500Y803100D01*
X975500Y802100D01*
X981000D02*
X982000Y804100D01*
X981000Y806100D01*
X983000Y805100D01*
X985000Y806100D01*
X984000Y804100D01*
X985000Y802100D01*
X983000Y803100D01*
X981000Y802100D01*
X985300D02*
X986300Y804100D01*
X985300Y806100D01*
X987300Y805100D01*
X989300Y806100D01*
X988300Y804100D01*
X989300Y802100D01*
X987300Y803100D01*
X985300Y802100D01*
X989500D02*
X990500Y804100D01*
X989500Y806100D01*
X991500Y805100D01*
X993500Y806100D01*
X992500Y804100D01*
X993500Y802100D01*
X991500Y803100D01*
X989500Y802100D01*
X994100D02*
X995100Y804100D01*
X994100Y806100D01*
X996100Y805100D01*
X998100Y806100D01*
X997100Y804100D01*
X998100Y802100D01*
X996100Y803100D01*
X994100Y802100D01*
X998500D02*
X999500Y804100D01*
X998500Y806100D01*
X1000500Y805100D01*
X1002500Y806100D01*
X1001500Y804100D01*
X1002500Y802100D01*
X1000500Y803100D01*
X998500Y802100D01*
X1002300D02*
X1003300Y804100D01*
X1002300Y806100D01*
X1004300Y805100D01*
X1006300Y806100D01*
X1005300Y804100D01*
X1006300Y802100D01*
X1004300Y803100D01*
X1002300Y802100D01*
X1006400Y802200D02*
X1007400Y804200D01*
X1006400Y806200D01*
X1008400Y805200D01*
X1010400Y806200D01*
X1009400Y804200D01*
X1010400Y802200D01*
X1008400Y803200D01*
X1006400Y802200D01*
X1011200D02*
X1012200Y804200D01*
X1011200Y806200D01*
X1013200Y805200D01*
X1015200Y806200D01*
X1014200Y804200D01*
X1015200Y802200D01*
X1013200Y803200D01*
X1011200Y802200D01*
X1015800Y802300D02*
X1016800Y804300D01*
X1015800Y806300D01*
X1017800Y805300D01*
X1019800Y806300D01*
X1018800Y804300D01*
X1019800Y802300D01*
X1017800Y803300D01*
X1015800Y802300D01*
X1020700Y802200D02*
X1021700Y804200D01*
X1020700Y806200D01*
X1022700Y805200D01*
X1024700Y806200D01*
X1023700Y804200D01*
X1024700Y802200D01*
X1022700Y803200D01*
X1020700Y802200D01*
X1035500Y802300D02*
X1036500Y804300D01*
X1035500Y806300D01*
X1037500Y805300D01*
X1039500Y806300D01*
X1038500Y804300D01*
X1039500Y802300D01*
X1037500Y803300D01*
X1035500Y802300D01*
X1040300Y802200D02*
X1041300Y804200D01*
X1040300Y806200D01*
X1042300Y805200D01*
X1044300Y806200D01*
X1043300Y804200D01*
X1044300Y802200D01*
X1042300Y803200D01*
X1040300Y802200D01*
X1045000D02*
X1046000Y804200D01*
X1045000Y806200D01*
X1047000Y805200D01*
X1049000Y806200D01*
X1048000Y804200D01*
X1049000Y802200D01*
X1047000Y803200D01*
X1045000Y802200D01*
X1049600D02*
X1050600Y804200D01*
X1049600Y806200D01*
X1051600Y805200D01*
X1053600Y806200D01*
X1052600Y804200D01*
X1053600Y802200D01*
X1051600Y803200D01*
X1049600Y802200D01*
X1055900D02*
X1056900Y804200D01*
X1055900Y806200D01*
X1057900Y805200D01*
X1059900Y806200D01*
X1058900Y804200D01*
X1059900Y802200D01*
X1057900Y803200D01*
X1055900Y802200D01*
X1061100Y802300D02*
X1062100Y804300D01*
X1061100Y806300D01*
X1063100Y805300D01*
X1065100Y806300D01*
X1064100Y804300D01*
X1065100Y802300D01*
X1063100Y803300D01*
X1061100Y802300D01*
X1067000D02*
X1068000Y804300D01*
X1067000Y806300D01*
X1069000Y805300D01*
X1071000Y806300D01*
X1070000Y804300D01*
X1071000Y802300D01*
X1069000Y803300D01*
X1067000Y802300D01*
X1073000D02*
X1074000Y804300D01*
X1073000Y806300D01*
X1075000Y805300D01*
X1077000Y806300D01*
X1076000Y804300D01*
X1077000Y802300D01*
X1075000Y803300D01*
X1073000Y802300D01*
X1078000Y802400D02*
X1079000Y804400D01*
X1078000Y806400D01*
X1080000Y805400D01*
X1082000Y806400D01*
X1081000Y804400D01*
X1082000Y802400D01*
X1080000Y803400D01*
X1078000Y802400D01*
X1081700Y802500D02*
X1082700Y804500D01*
X1081700Y806500D01*
X1083700Y805500D01*
X1085700Y806500D01*
X1084700Y804500D01*
X1085700Y802500D01*
X1083700Y803500D01*
X1081700Y802500D01*
X1082000Y806500D02*
X1083000Y808500D01*
X1082000Y810500D01*
X1084000Y809500D01*
X1086000Y810500D01*
X1085000Y808500D01*
X1086000Y806500D01*
X1084000Y807500D01*
X1082000Y806500D01*
Y818200D02*
X1083000Y820200D01*
X1082000Y822200D01*
X1084000Y821200D01*
X1086000Y822200D01*
X1085000Y820200D01*
X1086000Y818200D01*
X1084000Y819200D01*
X1082000Y818200D01*
Y823200D02*
X1083000Y825200D01*
X1082000Y827200D01*
X1084000Y826200D01*
X1086000Y827200D01*
X1085000Y825200D01*
X1086000Y823200D01*
X1084000Y824200D01*
X1082000Y823200D01*
Y834800D02*
X1083000Y836800D01*
X1082000Y838800D01*
X1084000Y837800D01*
X1086000Y838800D01*
X1085000Y836800D01*
X1086000Y834800D01*
X1084000Y835800D01*
X1082000Y834800D01*
Y840200D02*
X1083000Y842200D01*
X1082000Y844200D01*
X1084000Y843200D01*
X1086000Y844200D01*
X1085000Y842200D01*
X1086000Y840200D01*
X1084000Y841200D01*
X1082000Y840200D01*
X975000Y885500D02*
X976000Y887500D01*
X975000Y889500D01*
X977000Y888500D01*
X979000Y889500D01*
X978000Y887500D01*
X979000Y885500D01*
X977000Y886500D01*
X975000Y885500D01*
Y889300D02*
X976000Y891300D01*
X975000Y893300D01*
X977000Y892300D01*
X979000Y893300D01*
X978000Y891300D01*
X979000Y889300D01*
X977000Y890300D01*
X975000Y889300D01*
X980000D02*
X981000Y891300D01*
X980000Y893300D01*
X982000Y892300D01*
X984000Y893300D01*
X983000Y891300D01*
X984000Y889300D01*
X982000Y890300D01*
X980000Y889300D01*
X985800D02*
X986800Y891300D01*
X985800Y893300D01*
X987800Y892300D01*
X989800Y893300D01*
X988800Y891300D01*
X989800Y889300D01*
X987800Y890300D01*
X985800Y889300D01*
X990800D02*
X991800Y891300D01*
X990800Y893300D01*
X992800Y892300D01*
X994800Y893300D01*
X993800Y891300D01*
X994800Y889300D01*
X992800Y890300D01*
X990800Y889300D01*
X995900D02*
X996900Y891300D01*
X995900Y893300D01*
X997900Y892300D01*
X999900Y893300D01*
X998900Y891300D01*
X999900Y889300D01*
X997900Y890300D01*
X995900Y889300D01*
X1002100D02*
X1003100Y891300D01*
X1002100Y893300D01*
X1004100Y892300D01*
X1006100Y893300D01*
X1005100Y891300D01*
X1006100Y889300D01*
X1004100Y890300D01*
X1002100Y889300D01*
X1008600D02*
X1009600Y891300D01*
X1008600Y893300D01*
X1010600Y892300D01*
X1012600Y893300D01*
X1011600Y891300D01*
X1012600Y889300D01*
X1010600Y890300D01*
X1008600Y889300D01*
X1014800D02*
X1015800Y891300D01*
X1014800Y893300D01*
X1016800Y892300D01*
X1018800Y893300D01*
X1017800Y891300D01*
X1018800Y889300D01*
X1016800Y890300D01*
X1014800Y889300D01*
X1019600D02*
X1020600Y891300D01*
X1019600Y893300D01*
X1021600Y892300D01*
X1023600Y893300D01*
X1022600Y891300D01*
X1023600Y889300D01*
X1021600Y890300D01*
X1019600Y889300D01*
X1035500Y889200D02*
X1036500Y891200D01*
X1035500Y893200D01*
X1037500Y892200D01*
X1039500Y893200D01*
X1038500Y891200D01*
X1039500Y889200D01*
X1037500Y890200D01*
X1035500Y889200D01*
X1040400D02*
X1041400Y891200D01*
X1040400Y893200D01*
X1042400Y892200D01*
X1044400Y893200D01*
X1043400Y891200D01*
X1044400Y889200D01*
X1042400Y890200D01*
X1040400Y889200D01*
X1045000D02*
X1046000Y891200D01*
X1045000Y893200D01*
X1047000Y892200D01*
X1049000Y893200D01*
X1048000Y891200D01*
X1049000Y889200D01*
X1047000Y890200D01*
X1045000Y889200D01*
X1050300D02*
X1051300Y891200D01*
X1050300Y893200D01*
X1052300Y892200D01*
X1054300Y893200D01*
X1053300Y891200D01*
X1054300Y889200D01*
X1052300Y890200D01*
X1050300Y889200D01*
X1057100D02*
X1058100Y891200D01*
X1057100Y893200D01*
X1059100Y892200D01*
X1061100Y893200D01*
X1060100Y891200D01*
X1061100Y889200D01*
X1059100Y890200D01*
X1057100Y889200D01*
X1062400D02*
X1063400Y891200D01*
X1062400Y893200D01*
X1064400Y892200D01*
X1066400Y893200D01*
X1065400Y891200D01*
X1066400Y889200D01*
X1064400Y890200D01*
X1062400Y889200D01*
X1068200D02*
X1069200Y891200D01*
X1068200Y893200D01*
X1070200Y892200D01*
X1072200Y893200D01*
X1071200Y891200D01*
X1072200Y889200D01*
X1070200Y890200D01*
X1068200Y889200D01*
X1074000D02*
X1075000Y891200D01*
X1074000Y893200D01*
X1076000Y892200D01*
X1078000Y893200D01*
X1077000Y891200D01*
X1078000Y889200D01*
X1076000Y890200D01*
X1074000Y889200D01*
X1078300D02*
X1079300Y891200D01*
X1078300Y893200D01*
X1080300Y892200D01*
X1082300Y893200D01*
X1081300Y891200D01*
X1082300Y889200D01*
X1080300Y890200D01*
X1078300Y889200D01*
X1082000D02*
X1083000Y891200D01*
X1082000Y893200D01*
X1084000Y892200D01*
X1086000Y893200D01*
X1085000Y891200D01*
X1086000Y889200D01*
X1084000Y890200D01*
X1082000Y889200D01*
Y883800D02*
X1083000Y885800D01*
X1082000Y887800D01*
X1084000Y886800D01*
X1086000Y887800D01*
X1085000Y885800D01*
X1086000Y883800D01*
X1084000Y884800D01*
X1082000Y883800D01*
Y880400D02*
X1083000Y882400D01*
X1082000Y884400D01*
X1084000Y883400D01*
X1086000Y884400D01*
X1085000Y882400D01*
X1086000Y880400D01*
X1084000Y881400D01*
X1082000Y880400D01*
Y866200D02*
X1083000Y868200D01*
X1082000Y870200D01*
X1084000Y869200D01*
X1086000Y870200D01*
X1085000Y868200D01*
X1086000Y866200D01*
X1084000Y867200D01*
X1082000Y866200D01*
Y862700D02*
X1083000Y864700D01*
X1082000Y866700D01*
X1084000Y865700D01*
X1086000Y866700D01*
X1085000Y864700D01*
X1086000Y862700D01*
X1084000Y863700D01*
X1082000Y862700D01*
Y858300D02*
X1083000Y860300D01*
X1082000Y862300D01*
X1084000Y861300D01*
X1086000Y862300D01*
X1085000Y860300D01*
X1086000Y858300D01*
X1084000Y859300D01*
X1082000Y858300D01*
X1069400Y874816D02*
X1070400Y876816D01*
X1069400Y878816D01*
X1071400Y877816D01*
X1073400Y878816D01*
X1072400Y876816D01*
X1073400Y874816D01*
X1071400Y875816D01*
X1069400Y874816D01*
X1062600Y851200D02*
X1063600Y853200D01*
X1062600Y855200D01*
X1064600Y854200D01*
X1066600Y855200D01*
X1065600Y853200D01*
X1066600Y851200D01*
X1064600Y852200D01*
X1062600Y851200D01*
X1060000Y864900D02*
X1058000Y868900D01*
X1062000D01*
X1060000Y864900D01*
Y865700D02*
X1058800Y868100D01*
X1061200D01*
X1060000Y865700D01*
X1065700Y809100D02*
X1066700Y811100D01*
X1065700Y813100D01*
X1067700Y812100D01*
X1069700Y813100D01*
X1068700Y811100D01*
X1069700Y809100D01*
X1067700Y810100D01*
X1065700Y809100D01*
X1061300Y810300D02*
X1062300Y812300D01*
X1061300Y814300D01*
X1063300Y813300D01*
X1065300Y814300D01*
X1064300Y812300D01*
X1065300Y810300D01*
X1063300Y811300D01*
X1061300Y810300D01*
X1056800Y833700D02*
X1057800Y835700D01*
X1056800Y837700D01*
X1058800Y836700D01*
X1060800Y837700D01*
X1059800Y835700D01*
X1060800Y833700D01*
X1058800Y834700D01*
X1056800Y833700D01*
X1059200Y825200D02*
X1060200Y827200D01*
X1059200Y829200D01*
X1061200Y828200D01*
X1063200Y829200D01*
X1062200Y827200D01*
X1063200Y825200D01*
X1061200Y826200D01*
X1059200Y825200D01*
X1072600Y877500D02*
X1073600Y879500D01*
X1072600Y881500D01*
X1074600Y880500D01*
X1076600Y881500D01*
X1075600Y879500D01*
X1076600Y877500D01*
X1074600Y878500D01*
X1072600Y877500D01*
X980500Y873800D02*
X981500Y875800D01*
X980500Y877800D01*
X982500Y876800D01*
X984500Y877800D01*
X983500Y875800D01*
X984500Y873800D01*
X982500Y874800D01*
X980500Y873800D01*
X989000Y863700D02*
X990000Y865700D01*
X989000Y867700D01*
X991000Y866700D01*
X993000Y867700D01*
X992000Y865700D01*
X993000Y863700D01*
X991000Y864700D01*
X989000Y863700D01*
X1013700Y858716D02*
X1014700Y860716D01*
X1013700Y862716D01*
X1015700Y861716D01*
X1017700Y862716D01*
X1016700Y860716D01*
X1017700Y858716D01*
X1015700Y859716D01*
X1013700Y858716D01*
X1049400Y863700D02*
X1047400Y867700D01*
X1051400D01*
X1049400Y863700D01*
Y864500D02*
X1048200Y866900D01*
X1050600D01*
X1049400Y864500D01*
X1082000Y862700D02*
X1083000Y864700D01*
X1082000Y866700D01*
X1084000Y865700D01*
X1086000Y866700D01*
X1085000Y864700D01*
X1086000Y862700D01*
X1084000Y863700D01*
X1082000Y862700D01*
Y880400D02*
X1083000Y882400D01*
X1082000Y884400D01*
X1084000Y883400D01*
X1086000Y884400D01*
X1085000Y882400D01*
X1086000Y880400D01*
X1084000Y881400D01*
X1082000Y880400D01*
Y883800D02*
X1083000Y885800D01*
X1082000Y887800D01*
X1084000Y886800D01*
X1086000Y887800D01*
X1085000Y885800D01*
X1086000Y883800D01*
X1084000Y884800D01*
X1082000Y883800D01*
X1046100Y873600D02*
X1044100Y877600D01*
X1048100D01*
X1046100Y873600D01*
Y874400D02*
X1044900Y876800D01*
X1047300D01*
X1046100Y874400D01*
X1041300Y879400D02*
X1042300Y881400D01*
X1041300Y883400D01*
X1043300Y882400D01*
X1045300Y883400D01*
X1044300Y881400D01*
X1045300Y879400D01*
X1043300Y880400D01*
X1041300Y879400D01*
X1066700Y863500D02*
X1067700Y865500D01*
X1066700Y867500D01*
X1068700Y866500D01*
X1070700Y867500D01*
X1069700Y865500D01*
X1070700Y863500D01*
X1068700Y864500D01*
X1066700Y863500D01*
X1063000Y863400D02*
X1064000Y865400D01*
X1063000Y867400D01*
X1065000Y866400D01*
X1067000Y867400D01*
X1066000Y865400D01*
X1067000Y863400D01*
X1065000Y864400D01*
X1063000Y863400D01*
X1070600Y860900D02*
X1071600Y862900D01*
X1070600Y864900D01*
X1072600Y863900D01*
X1074600Y864900D01*
X1073600Y862900D01*
X1074600Y860900D01*
X1072600Y861900D01*
X1070600Y860900D01*
X1033500Y874400D02*
X1034500Y876400D01*
X1033500Y878400D01*
X1035500Y877400D01*
X1037500Y878400D01*
X1036500Y876400D01*
X1037500Y874400D01*
X1035500Y875400D01*
X1033500Y874400D01*
X998100Y861500D02*
X999100Y863500D01*
X998100Y865500D01*
X1000100Y864500D01*
X1002100Y865500D01*
X1001100Y863500D01*
X1002100Y861500D01*
X1000100Y862500D01*
X998100Y861500D01*
X1052100Y869600D02*
X1053100Y871600D01*
X1052100Y873600D01*
X1054100Y872600D01*
X1056100Y873600D01*
X1055100Y871600D01*
X1056100Y869600D01*
X1054100Y870600D01*
X1052100Y869600D01*
X1068100Y825400D02*
X1069100Y827400D01*
X1068100Y829400D01*
X1070100Y828400D01*
X1072100Y829400D01*
X1071100Y827400D01*
X1072100Y825400D01*
X1070100Y826400D01*
X1068100Y825400D01*
X1065900Y843100D02*
X1066900Y845100D01*
X1065900Y847100D01*
X1067900Y846100D01*
X1069900Y847100D01*
X1068900Y845100D01*
X1069900Y843100D01*
X1067900Y844100D01*
X1065900Y843100D01*
X1043500Y877400D02*
X1044500Y879400D01*
X1043500Y881400D01*
X1045500Y880400D01*
X1047500Y881400D01*
X1046500Y879400D01*
X1047500Y877400D01*
X1045500Y878400D01*
X1043500Y877400D01*
X1059900Y863400D02*
X1060900Y865400D01*
X1059900Y867400D01*
X1061900Y866400D01*
X1063900Y867400D01*
X1062900Y865400D01*
X1063900Y863400D01*
X1061900Y864400D01*
X1059900Y863400D01*
X1051100Y877900D02*
X1052100Y879900D01*
X1051100Y881900D01*
X1053100Y880900D01*
X1055100Y881900D01*
X1054100Y879900D01*
X1055100Y877900D01*
X1053100Y878900D01*
X1051100Y877900D01*
X1060400Y860200D02*
X1058400Y864200D01*
X1062400D01*
X1060400Y860200D01*
Y861000D02*
X1059200Y863400D01*
X1061600D01*
X1060400Y861000D01*
X1072100Y864000D02*
X1070100Y868000D01*
X1074100D01*
X1072100Y864000D01*
Y864800D02*
X1070900Y867200D01*
X1073300D01*
X1072100Y864800D01*
X1074800Y873416D02*
X1072800Y877416D01*
X1076800D01*
X1074800Y873416D01*
Y874216D02*
X1073600Y876616D01*
X1076000D01*
X1074800Y874216D01*
X1047074Y863200D02*
X1045074Y867200D01*
X1049074D01*
X1047074Y863200D01*
Y864000D02*
X1045874Y866400D01*
X1048274D01*
X1047074Y864000D01*
X1032600Y876400D02*
X1030600Y880400D01*
X1034600D01*
X1032600Y876400D01*
Y877200D02*
X1031400Y879600D01*
X1033800D01*
X1032600Y877200D01*
X1024500D02*
X1022500Y881200D01*
X1026500D01*
X1024500Y877200D01*
Y878000D02*
X1023300Y880400D01*
X1025700D01*
X1024500Y878000D01*
X1019600Y878500D02*
X1017600Y882500D01*
X1021600D01*
X1019600Y878500D01*
Y879300D02*
X1018400Y881700D01*
X1020800D01*
X1019600Y879300D01*
X1013100Y877800D02*
X1011100Y881800D01*
X1015100D01*
X1013100Y877800D01*
Y878600D02*
X1011900Y881000D01*
X1014300D01*
X1013100Y878600D01*
X996500Y862300D02*
X994500Y866300D01*
X998500D01*
X996500Y862300D01*
Y863100D02*
X995300Y865500D01*
X997700D01*
X996500Y863100D01*
X1058900Y876200D02*
X1056900Y880200D01*
X1060900D01*
X1058900Y876200D01*
Y877000D02*
X1057700Y879400D01*
X1060100D01*
X1058900Y877000D01*
D126*
X1093984Y844674D02*
X1093755Y845603D01*
X1093120Y846320D01*
X1092225Y846659D01*
X1091275Y846544D01*
X1090487Y846000D01*
X1090042Y845153D01*
Y844195D01*
X1090487Y843348D01*
X1091275Y842804D01*
X1092225Y842689D01*
X1093120Y843028D01*
X1093755Y843745D01*
X1093984Y844674D01*
Y834674D02*
X1093755Y835603D01*
X1093120Y836320D01*
X1092225Y836659D01*
X1091275Y836544D01*
X1090487Y836000D01*
X1090042Y835153D01*
Y834195D01*
X1090487Y833348D01*
X1091275Y832804D01*
X1092225Y832689D01*
X1093120Y833028D01*
X1093755Y833745D01*
X1093984Y834674D01*
Y884674D02*
X1093755Y885603D01*
X1093120Y886320D01*
X1092225Y886659D01*
X1091275Y886544D01*
X1090487Y886000D01*
X1090042Y885153D01*
Y884195D01*
X1090487Y883348D01*
X1091275Y882804D01*
X1092225Y882689D01*
X1093120Y883028D01*
X1093755Y883745D01*
X1093984Y884674D01*
Y814674D02*
X1093755Y815603D01*
X1093120Y816320D01*
X1092225Y816659D01*
X1091275Y816544D01*
X1090487Y816000D01*
X1090042Y815152D01*
Y814195D01*
X1090487Y813348D01*
X1091275Y812804D01*
X1092225Y812689D01*
X1093120Y813028D01*
X1093755Y813745D01*
X1093984Y814674D01*
Y824674D02*
X1093755Y825603D01*
X1093120Y826320D01*
X1092225Y826659D01*
X1091275Y826544D01*
X1090487Y826000D01*
X1090042Y825152D01*
Y824195D01*
X1090487Y823348D01*
X1091275Y822804D01*
X1092225Y822688D01*
X1093120Y823028D01*
X1093755Y823744D01*
X1093984Y824674D01*
Y854674D02*
X1093755Y855603D01*
X1093120Y856320D01*
X1092225Y856659D01*
X1091275Y856544D01*
X1090487Y856000D01*
X1090042Y855153D01*
Y854195D01*
X1090487Y853348D01*
X1091275Y852804D01*
X1092225Y852689D01*
X1093120Y853028D01*
X1093755Y853745D01*
X1093984Y854674D01*
Y864674D02*
X1093755Y865603D01*
X1093120Y866320D01*
X1092225Y866659D01*
X1091275Y866544D01*
X1090487Y866000D01*
X1090042Y865153D01*
Y864195D01*
X1090487Y863348D01*
X1091275Y862804D01*
X1092225Y862689D01*
X1093120Y863028D01*
X1093755Y863745D01*
X1093984Y864674D01*
X1085500Y846000D02*
X1085271Y846929D01*
X1084636Y847646D01*
X1083741Y847985D01*
X1082791Y847870D01*
X1082003Y847326D01*
X1081558Y846479D01*
Y845521D01*
X1082003Y844674D01*
X1082791Y844130D01*
X1083741Y844015D01*
X1084636Y844354D01*
X1085271Y845071D01*
X1085500Y846000D01*
Y846800D02*
X1085271Y847729D01*
X1084636Y848446D01*
X1083741Y848785D01*
X1082791Y848670D01*
X1082003Y848126D01*
X1081558Y847279D01*
Y846321D01*
X1082003Y845474D01*
X1082791Y844930D01*
X1083741Y844815D01*
X1084636Y845154D01*
X1085271Y845871D01*
X1085500Y846800D01*
Y847600D02*
X1085271Y848529D01*
X1084636Y849246D01*
X1083741Y849585D01*
X1082791Y849470D01*
X1082003Y848926D01*
X1081558Y848079D01*
Y847121D01*
X1082003Y846274D01*
X1082791Y845730D01*
X1083741Y845615D01*
X1084636Y845954D01*
X1085271Y846671D01*
X1085500Y847600D01*
Y848500D02*
X1085271Y849429D01*
X1084636Y850146D01*
X1083741Y850485D01*
X1082791Y850370D01*
X1082003Y849826D01*
X1081558Y848979D01*
Y848021D01*
X1082003Y847174D01*
X1082791Y846630D01*
X1083741Y846515D01*
X1084636Y846854D01*
X1085271Y847571D01*
X1085500Y848500D01*
Y849300D02*
X1085271Y850229D01*
X1084636Y850946D01*
X1083741Y851285D01*
X1082791Y851170D01*
X1082003Y850626D01*
X1081558Y849779D01*
Y848821D01*
X1082003Y847974D01*
X1082791Y847430D01*
X1083741Y847315D01*
X1084636Y847654D01*
X1085271Y848371D01*
X1085500Y849300D01*
Y850100D02*
X1085271Y851029D01*
X1084636Y851746D01*
X1083741Y852085D01*
X1082791Y851970D01*
X1082003Y851426D01*
X1081558Y850579D01*
Y849621D01*
X1082003Y848774D01*
X1082791Y848230D01*
X1083741Y848115D01*
X1084636Y848454D01*
X1085271Y849171D01*
X1085500Y850100D01*
Y850800D02*
X1085271Y851729D01*
X1084636Y852446D01*
X1083741Y852785D01*
X1082791Y852670D01*
X1082003Y852126D01*
X1081558Y851279D01*
Y850321D01*
X1082003Y849474D01*
X1082791Y848930D01*
X1083741Y848815D01*
X1084636Y849154D01*
X1085271Y849871D01*
X1085500Y850800D01*
X979500Y851000D02*
X979271Y851929D01*
X978636Y852646D01*
X977741Y852985D01*
X976791Y852870D01*
X976003Y852326D01*
X975558Y851479D01*
Y850521D01*
X976003Y849674D01*
X976791Y849130D01*
X977741Y849015D01*
X978636Y849354D01*
X979271Y850071D01*
X979500Y851000D01*
Y850300D02*
X979271Y851229D01*
X978636Y851946D01*
X977741Y852285D01*
X976791Y852170D01*
X976003Y851626D01*
X975558Y850779D01*
Y849821D01*
X976003Y848974D01*
X976791Y848430D01*
X977741Y848315D01*
X978636Y848654D01*
X979271Y849371D01*
X979500Y850300D01*
Y849600D02*
X979271Y850529D01*
X978636Y851246D01*
X977741Y851585D01*
X976791Y851470D01*
X976003Y850926D01*
X975558Y850079D01*
Y849121D01*
X976003Y848274D01*
X976791Y847730D01*
X977741Y847615D01*
X978636Y847954D01*
X979271Y848671D01*
X979500Y849600D01*
Y849000D02*
X979271Y849929D01*
X978636Y850646D01*
X977741Y850985D01*
X976791Y850870D01*
X976003Y850326D01*
X975558Y849479D01*
Y848521D01*
X976003Y847674D01*
X976791Y847130D01*
X977741Y847015D01*
X978636Y847354D01*
X979271Y848071D01*
X979500Y849000D01*
Y848400D02*
X979271Y849329D01*
X978636Y850046D01*
X977741Y850385D01*
X976791Y850270D01*
X976003Y849726D01*
X975558Y848879D01*
Y847921D01*
X976003Y847074D01*
X976791Y846530D01*
X977741Y846415D01*
X978636Y846754D01*
X979271Y847471D01*
X979500Y848400D01*
Y847800D02*
X979271Y848729D01*
X978636Y849446D01*
X977741Y849785D01*
X976791Y849670D01*
X976003Y849126D01*
X975558Y848279D01*
Y847321D01*
X976003Y846474D01*
X976791Y845930D01*
X977741Y845815D01*
X978636Y846154D01*
X979271Y846871D01*
X979500Y847800D01*
Y847100D02*
X979271Y848029D01*
X978636Y848746D01*
X977741Y849085D01*
X976791Y848970D01*
X976003Y848426D01*
X975558Y847579D01*
Y846621D01*
X976003Y845774D01*
X976791Y845230D01*
X977741Y845115D01*
X978636Y845454D01*
X979271Y846171D01*
X979500Y847100D01*
Y846500D02*
X979271Y847429D01*
X978636Y848146D01*
X977741Y848485D01*
X976791Y848370D01*
X976003Y847826D01*
X975558Y846979D01*
Y846021D01*
X976003Y845174D01*
X976791Y844630D01*
X977741Y844515D01*
X978636Y844854D01*
X979271Y845571D01*
X979500Y846500D01*
X1029800Y890800D02*
X1029571Y891729D01*
X1028936Y892446D01*
X1028041Y892785D01*
X1027091Y892670D01*
X1026303Y892126D01*
X1025858Y891279D01*
Y890321D01*
X1026303Y889474D01*
X1027091Y888930D01*
X1028041Y888815D01*
X1028936Y889154D01*
X1029571Y889871D01*
X1029800Y890800D01*
X1030400D02*
X1030171Y891729D01*
X1029536Y892446D01*
X1028641Y892785D01*
X1027691Y892670D01*
X1026903Y892126D01*
X1026458Y891279D01*
Y890321D01*
X1026903Y889474D01*
X1027691Y888930D01*
X1028641Y888815D01*
X1029536Y889154D01*
X1030171Y889871D01*
X1030400Y890800D01*
X1031000D02*
X1030771Y891729D01*
X1030136Y892446D01*
X1029241Y892785D01*
X1028291Y892670D01*
X1027503Y892126D01*
X1027058Y891279D01*
Y890321D01*
X1027503Y889474D01*
X1028291Y888930D01*
X1029241Y888815D01*
X1030136Y889154D01*
X1030771Y889871D01*
X1031000Y890800D01*
X1031700D02*
X1031471Y891729D01*
X1030836Y892446D01*
X1029941Y892785D01*
X1028991Y892670D01*
X1028203Y892126D01*
X1027758Y891279D01*
Y890321D01*
X1028203Y889474D01*
X1028991Y888930D01*
X1029941Y888815D01*
X1030836Y889154D01*
X1031471Y889871D01*
X1031700Y890800D01*
X1032400D02*
X1032171Y891729D01*
X1031536Y892446D01*
X1030641Y892785D01*
X1029691Y892670D01*
X1028903Y892126D01*
X1028458Y891279D01*
Y890321D01*
X1028903Y889474D01*
X1029691Y888930D01*
X1030641Y888815D01*
X1031536Y889154D01*
X1032171Y889871D01*
X1032400Y890800D01*
X1033100D02*
X1032871Y891729D01*
X1032236Y892446D01*
X1031341Y892785D01*
X1030391Y892670D01*
X1029603Y892126D01*
X1029158Y891279D01*
Y890321D01*
X1029603Y889474D01*
X1030391Y888930D01*
X1031341Y888815D01*
X1032236Y889154D01*
X1032871Y889871D01*
X1033100Y890800D01*
X1033800D02*
X1033571Y891729D01*
X1032936Y892446D01*
X1032041Y892785D01*
X1031091Y892670D01*
X1030303Y892126D01*
X1029858Y891279D01*
Y890321D01*
X1030303Y889474D01*
X1031091Y888930D01*
X1032041Y888815D01*
X1032936Y889154D01*
X1033571Y889871D01*
X1033800Y890800D01*
X1034500D02*
X1034271Y891729D01*
X1033636Y892446D01*
X1032741Y892785D01*
X1031791Y892670D01*
X1031003Y892126D01*
X1030558Y891279D01*
Y890321D01*
X1031003Y889474D01*
X1031791Y888930D01*
X1032741Y888815D01*
X1033636Y889154D01*
X1034271Y889871D01*
X1034500Y890800D01*
X1029600Y805700D02*
X1029371Y806629D01*
X1028736Y807346D01*
X1027841Y807685D01*
X1026891Y807570D01*
X1026103Y807026D01*
X1025658Y806179D01*
Y805221D01*
X1026103Y804374D01*
X1026891Y803830D01*
X1027841Y803715D01*
X1028736Y804054D01*
X1029371Y804771D01*
X1029600Y805700D01*
X1030400D02*
X1030171Y806629D01*
X1029536Y807346D01*
X1028641Y807685D01*
X1027691Y807570D01*
X1026903Y807026D01*
X1026458Y806179D01*
Y805221D01*
X1026903Y804374D01*
X1027691Y803830D01*
X1028641Y803715D01*
X1029536Y804054D01*
X1030171Y804771D01*
X1030400Y805700D01*
X1031200D02*
X1030971Y806629D01*
X1030336Y807346D01*
X1029441Y807685D01*
X1028491Y807570D01*
X1027703Y807026D01*
X1027258Y806179D01*
Y805221D01*
X1027703Y804374D01*
X1028491Y803830D01*
X1029441Y803715D01*
X1030336Y804054D01*
X1030971Y804771D01*
X1031200Y805700D01*
X1032100D02*
X1031871Y806629D01*
X1031236Y807346D01*
X1030341Y807685D01*
X1029391Y807570D01*
X1028603Y807026D01*
X1028158Y806179D01*
Y805221D01*
X1028603Y804374D01*
X1029391Y803830D01*
X1030341Y803715D01*
X1031236Y804054D01*
X1031871Y804771D01*
X1032100Y805700D01*
X1033000D02*
X1032771Y806629D01*
X1032136Y807346D01*
X1031241Y807685D01*
X1030291Y807570D01*
X1029503Y807026D01*
X1029058Y806179D01*
Y805221D01*
X1029503Y804374D01*
X1030291Y803830D01*
X1031241Y803715D01*
X1032136Y804054D01*
X1032771Y804771D01*
X1033000Y805700D01*
X1033900D02*
X1033671Y806629D01*
X1033036Y807346D01*
X1032141Y807685D01*
X1031191Y807570D01*
X1030403Y807026D01*
X1029958Y806179D01*
Y805221D01*
X1030403Y804374D01*
X1031191Y803830D01*
X1032141Y803715D01*
X1033036Y804054D01*
X1033671Y804771D01*
X1033900Y805700D01*
X1034600D02*
X1034371Y806629D01*
X1033736Y807346D01*
X1032841Y807685D01*
X1031891Y807570D01*
X1031103Y807026D01*
X1030658Y806179D01*
Y805221D01*
X1031103Y804374D01*
X1031891Y803830D01*
X1032841Y803715D01*
X1033736Y804054D01*
X1034371Y804771D01*
X1034600Y805700D01*
X1035200D02*
X1034971Y806629D01*
X1034336Y807346D01*
X1033441Y807685D01*
X1032491Y807570D01*
X1031703Y807026D01*
X1031258Y806179D01*
Y805221D01*
X1031703Y804374D01*
X1032491Y803830D01*
X1033441Y803715D01*
X1034336Y804054D01*
X1034971Y804771D01*
X1035200Y805700D01*
D127*
X1084700Y846000D02*
X1084348Y846848D01*
X1083500Y847200D01*
X1082652Y846848D01*
X1082300Y846000D01*
X1082652Y845152D01*
X1083500Y844800D01*
X1084348Y845152D01*
X1084700Y846000D01*
Y846800D02*
X1084348Y847649D01*
X1083500Y848000D01*
X1082652Y847649D01*
X1082300Y846800D01*
X1082652Y845951D01*
X1083500Y845600D01*
X1084348Y845951D01*
X1084700Y846800D01*
Y847600D02*
X1084348Y848448D01*
X1083500Y848800D01*
X1082652Y848448D01*
X1082300Y847600D01*
X1082652Y846751D01*
X1083500Y846400D01*
X1084348Y846751D01*
X1084700Y847600D01*
Y848500D02*
X1084348Y849349D01*
X1083500Y849700D01*
X1082652Y849349D01*
X1082300Y848500D01*
X1082652Y847651D01*
X1083500Y847300D01*
X1084348Y847651D01*
X1084700Y848500D01*
Y849300D02*
X1084348Y850148D01*
X1083500Y850500D01*
X1082652Y850148D01*
X1082300Y849300D01*
X1082652Y848452D01*
X1083500Y848100D01*
X1084348Y848452D01*
X1084700Y849300D01*
Y850100D02*
X1084348Y850949D01*
X1083500Y851300D01*
X1082652Y850949D01*
X1082300Y850100D01*
X1082652Y849251D01*
X1083500Y848900D01*
X1084348Y849251D01*
X1084700Y850100D01*
Y850800D02*
X1084348Y851649D01*
X1083500Y852000D01*
X1082652Y851649D01*
X1082300Y850800D01*
X1082652Y849951D01*
X1083500Y849600D01*
X1084348Y849951D01*
X1084700Y850800D01*
X978700Y851000D02*
X978349Y851849D01*
X977500Y852200D01*
X976651Y851849D01*
X976300Y851000D01*
X976651Y850152D01*
X977500Y849800D01*
X978349Y850152D01*
X978700Y851000D01*
Y850300D02*
X978349Y851149D01*
X977500Y851500D01*
X976651Y851149D01*
X976300Y850300D01*
X976651Y849452D01*
X977500Y849100D01*
X978349Y849452D01*
X978700Y850300D01*
Y849600D02*
X978349Y850449D01*
X977500Y850800D01*
X976651Y850449D01*
X976300Y849600D01*
X976651Y848752D01*
X977500Y848400D01*
X978349Y848752D01*
X978700Y849600D01*
Y849000D02*
X978349Y849848D01*
X977500Y850200D01*
X976651Y849848D01*
X976300Y849000D01*
X976651Y848151D01*
X977500Y847800D01*
X978349Y848151D01*
X978700Y849000D01*
Y848400D02*
X978349Y849249D01*
X977500Y849600D01*
X976651Y849249D01*
X976300Y848400D01*
X976651Y847552D01*
X977500Y847200D01*
X978349Y847552D01*
X978700Y848400D01*
Y847800D02*
X978349Y848648D01*
X977500Y849000D01*
X976651Y848648D01*
X976300Y847800D01*
X976651Y846951D01*
X977500Y846600D01*
X978349Y846951D01*
X978700Y847800D01*
Y847100D02*
X978349Y847948D01*
X977500Y848300D01*
X976651Y847948D01*
X976300Y847100D01*
X976651Y846251D01*
X977500Y845900D01*
X978349Y846251D01*
X978700Y847100D01*
Y846500D02*
X978349Y847348D01*
X977500Y847700D01*
X976651Y847348D01*
X976300Y846500D01*
X976651Y845652D01*
X977500Y845300D01*
X978349Y845652D01*
X978700Y846500D01*
X1029000Y890800D02*
X1028648Y891648D01*
X1027800Y892000D01*
X1026952Y891648D01*
X1026600Y890800D01*
X1026952Y889952D01*
X1027800Y889600D01*
X1028648Y889952D01*
X1029000Y890800D01*
X1029600D02*
X1029249Y891648D01*
X1028400Y892000D01*
X1027551Y891648D01*
X1027200Y890800D01*
X1027551Y889952D01*
X1028400Y889600D01*
X1029249Y889952D01*
X1029600Y890800D01*
X1030200D02*
X1029848Y891648D01*
X1029000Y892000D01*
X1028152Y891648D01*
X1027800Y890800D01*
X1028152Y889952D01*
X1029000Y889600D01*
X1029848Y889952D01*
X1030200Y890800D01*
X1030900D02*
X1030548Y891648D01*
X1029700Y892000D01*
X1028852Y891648D01*
X1028500Y890800D01*
X1028852Y889952D01*
X1029700Y889600D01*
X1030548Y889952D01*
X1030900Y890800D01*
X1031600D02*
X1031248Y891648D01*
X1030400Y892000D01*
X1029552Y891648D01*
X1029200Y890800D01*
X1029552Y889952D01*
X1030400Y889600D01*
X1031248Y889952D01*
X1031600Y890800D01*
X1032300D02*
X1031948Y891648D01*
X1031100Y892000D01*
X1030252Y891648D01*
X1029900Y890800D01*
X1030252Y889952D01*
X1031100Y889600D01*
X1031948Y889952D01*
X1032300Y890800D01*
X1033000D02*
X1032648Y891648D01*
X1031800Y892000D01*
X1030951Y891648D01*
X1030600Y890800D01*
X1030951Y889952D01*
X1031800Y889600D01*
X1032648Y889952D01*
X1033000Y890800D01*
X1033700D02*
X1033348Y891648D01*
X1032500Y892000D01*
X1031651Y891648D01*
X1031300Y890800D01*
X1031651Y889952D01*
X1032500Y889600D01*
X1033348Y889952D01*
X1033700Y890800D01*
X1028800Y805700D02*
X1028448Y806549D01*
X1027600Y806900D01*
X1026752Y806549D01*
X1026400Y805700D01*
X1026752Y804852D01*
X1027600Y804500D01*
X1028448Y804852D01*
X1028800Y805700D01*
X1029600D02*
X1029249Y806549D01*
X1028400Y806900D01*
X1027551Y806549D01*
X1027200Y805700D01*
X1027551Y804852D01*
X1028400Y804500D01*
X1029249Y804852D01*
X1029600Y805700D01*
X1030400D02*
X1030048Y806549D01*
X1029200Y806900D01*
X1028351Y806549D01*
X1028000Y805700D01*
X1028351Y804852D01*
X1029200Y804500D01*
X1030048Y804852D01*
X1030400Y805700D01*
X1031300D02*
X1030949Y806549D01*
X1030100Y806900D01*
X1029251Y806549D01*
X1028900Y805700D01*
X1029251Y804852D01*
X1030100Y804500D01*
X1030949Y804852D01*
X1031300Y805700D01*
X1032200D02*
X1031849Y806549D01*
X1031000Y806900D01*
X1030151Y806549D01*
X1029800Y805700D01*
X1030151Y804852D01*
X1031000Y804500D01*
X1031849Y804852D01*
X1032200Y805700D01*
X1033100D02*
X1032749Y806549D01*
X1031900Y806900D01*
X1031052Y806549D01*
X1030700Y805700D01*
X1031052Y804852D01*
X1031900Y804500D01*
X1032749Y804852D01*
X1033100Y805700D01*
X1033800D02*
X1033449Y806549D01*
X1032600Y806900D01*
X1031752Y806549D01*
X1031400Y805700D01*
X1031752Y804852D01*
X1032600Y804500D01*
X1033449Y804852D01*
X1033800Y805700D01*
X1034400D02*
X1034048Y806549D01*
X1033200Y806900D01*
X1032351Y806549D01*
X1032000Y805700D01*
X1032351Y804852D01*
X1033200Y804500D01*
X1034048Y804852D01*
X1034400Y805700D01*
M02*
