%FSLAX25Y25*%
%MOIN*%
G70*
G01*
G75*
%ADD10C,0.01000*%
%ADD11C,0.02000*%
%ADD12C,0.00800*%
%ADD13R,0.01969X0.02000*%
%ADD14R,0.03000X0.03000*%
%ADD15R,0.02000X0.01969*%
%ADD16R,0.03150X0.00984*%
%ADD17R,0.00984X0.03150*%
%ADD18R,0.00984X0.03150*%
%ADD19R,0.05906X0.05906*%
%ADD20O,0.03150X0.00984*%
%ADD21C,0.00800*%
%ADD22R,0.05906X0.05118*%
%ADD23R,0.02000X0.03150*%
%ADD24R,0.05118X0.05906*%
%ADD25R,0.02756X0.00984*%
%ADD26R,0.00984X0.02756*%
%ADD27R,0.06299X0.06299*%
%ADD28C,0.00700*%
%ADD29C,0.01500*%
%ADD30C,0.02900*%
%ADD31C,0.00600*%
%ADD32C,0.03000*%
%ADD33R,0.00900X0.00700*%
%ADD34R,0.03000X0.02247*%
%ADD35R,0.01600X0.02900*%
%ADD36R,0.07500X0.07700*%
%ADD37R,0.04500X0.03500*%
%ADD38R,0.03900X0.03000*%
%ADD39R,0.07700X0.04600*%
%ADD40R,0.02078X0.02277*%
%ADD41R,0.04100X0.02700*%
%ADD42R,0.04000X0.03000*%
%ADD43R,0.02300X0.04800*%
%ADD44C,0.04724*%
%ADD45C,0.06000*%
%ADD46O,0.09000X0.04500*%
%ADD47C,0.04331*%
%ADD48C,0.01500*%
%ADD49C,0.06200*%
%ADD50R,0.06200X0.06200*%
%ADD51R,0.06000X0.06000*%
%ADD52C,0.02200*%
%ADD53C,0.02400*%
%ADD54C,0.02000*%
%ADD55R,0.08026X0.06000*%
%ADD56R,0.08126X0.05900*%
%ADD57R,0.07700X0.06100*%
%ADD58R,0.05600X0.04400*%
%ADD59R,0.06200X0.05400*%
%ADD60C,0.01200*%
%ADD61R,0.08100X0.04600*%
%ADD62C,0.08661*%
%ADD63C,0.00394*%
%ADD64C,0.00500*%
%ADD65C,0.00787*%
%ADD66C,0.00300*%
%ADD67R,0.03000X0.05500*%
%ADD68R,0.03000X0.05000*%
%ADD69R,0.03000X0.06000*%
%ADD70R,0.03000X0.07000*%
%ADD71R,0.01800X0.07000*%
%ADD72R,0.01800X0.19500*%
%ADD73R,0.19500X0.01800*%
%ADD74R,0.01800X0.19500*%
%ADD75R,0.19500X0.01800*%
%ADD76R,0.07654X0.02619*%
%ADD77R,0.14800X0.14700*%
%ADD78C,0.05500*%
%ADD79C,0.06000*%
%ADD80R,0.06800X0.06800*%
%ADD81R,0.04600X0.76500*%
%ADD82R,0.04900X0.06100*%
%ADD83R,0.04300X0.06500*%
%ADD84R,0.04600X0.06700*%
%ADD85R,0.04300X0.06500*%
%ADD86R,0.07600X0.05100*%
%ADD87R,0.15900X0.08900*%
%ADD88R,0.11700X0.10600*%
%ADD89R,0.11300X0.14000*%
%ADD90R,0.14500X0.14500*%
%ADD91R,0.09300X0.05100*%
%ADD92R,0.01900X0.00800*%
%ADD93R,0.04500X0.03000*%
%ADD94R,0.02768X0.02800*%
%ADD95R,0.03800X0.03800*%
%ADD96R,0.02800X0.02768*%
%ADD97R,0.03950X0.01784*%
%ADD98R,0.01784X0.03950*%
%ADD99R,0.01784X0.03950*%
%ADD100R,0.06706X0.06706*%
%ADD101O,0.03950X0.01784*%
%ADD102C,0.01600*%
%ADD103R,0.06706X0.05918*%
%ADD104R,0.02800X0.03950*%
%ADD105R,0.05918X0.06706*%
%ADD106R,0.03556X0.01784*%
%ADD107R,0.01784X0.03556*%
%ADD108C,0.05524*%
%ADD109C,0.06800*%
%ADD110O,0.09800X0.05300*%
%ADD111C,0.05131*%
%ADD112C,0.07000*%
%ADD113R,0.07000X0.07000*%
%ADD114R,0.06800X0.06800*%
%ADD115R,0.08800X0.05000*%
%ADD116R,0.16500X0.10700*%
%ADD117R,0.16600X0.13300*%
%ADD118R,0.09900X0.05200*%
%ADD119C,0.09461*%
%ADD120C,0.00100*%
%ADD121C,0.00200*%
%ADD122R,0.01000X0.02000*%
%ADD123R,0.02000X0.03500*%
%ADD124R,0.02000X0.04500*%
%ADD125R,0.02500X0.04000*%
D44*
X958526Y806184D02*
D03*
X1078000Y811700D02*
D03*
X958500Y890200D02*
D03*
D45*
X1091984Y844674D02*
D03*
Y834674D02*
D03*
Y884674D02*
D03*
Y814674D02*
D03*
Y824674D02*
D03*
Y854674D02*
D03*
Y864674D02*
D03*
X967484Y875492D02*
D03*
Y867618D02*
D03*
Y859744D02*
D03*
Y836122D02*
D03*
Y828248D02*
D03*
Y891240D02*
D03*
Y883366D02*
D03*
Y812500D02*
D03*
Y820374D02*
D03*
X967484Y851870D02*
D03*
X967484Y843996D02*
D03*
D46*
X1091984Y874674D02*
D03*
D48*
X1056474Y869231D02*
D03*
X1054112D02*
D03*
X1051750D02*
D03*
X1051750Y871593D02*
D03*
X1056474D02*
D03*
Y873955D02*
D03*
X1054112D02*
D03*
X1051750D02*
D03*
D49*
X949500Y872700D02*
D03*
Y882700D02*
D03*
Y832700D02*
D03*
Y822700D02*
D03*
Y842700D02*
D03*
Y812700D02*
D03*
Y862700D02*
D03*
Y892700D02*
D03*
Y852700D02*
D03*
D50*
Y802700D02*
D03*
D51*
X967484Y804626D02*
D03*
D62*
X1070000Y824700D02*
D03*
Y843913D02*
D03*
M02*
