%FSLAX25Y25*%
%MOIN*%
G70*
G01*
G75*
%ADD10C,0.01000*%
%ADD11C,0.02000*%
%ADD12C,0.00800*%
%ADD13R,0.01969X0.02000*%
%ADD14R,0.03000X0.03000*%
%ADD15R,0.02000X0.01969*%
%ADD16R,0.03150X0.00984*%
%ADD17R,0.00984X0.03150*%
%ADD18R,0.00984X0.03150*%
%ADD19R,0.05906X0.05906*%
%ADD20O,0.03150X0.00984*%
%ADD21C,0.00800*%
%ADD22R,0.05906X0.05118*%
%ADD23R,0.02000X0.03150*%
%ADD24R,0.05118X0.05906*%
%ADD25R,0.02756X0.00984*%
%ADD26R,0.00984X0.02756*%
%ADD27R,0.06299X0.06299*%
%ADD28C,0.00700*%
%ADD29C,0.01500*%
%ADD30C,0.02900*%
%ADD31C,0.00600*%
%ADD32C,0.03000*%
%ADD33R,0.00900X0.00700*%
%ADD34R,0.03000X0.02247*%
%ADD35R,0.01600X0.02900*%
%ADD36R,0.07500X0.07700*%
%ADD37R,0.04500X0.03500*%
%ADD38R,0.03900X0.03000*%
%ADD39R,0.07700X0.04600*%
%ADD40R,0.02078X0.02277*%
%ADD41R,0.04100X0.02700*%
%ADD42R,0.04000X0.03000*%
%ADD43R,0.02300X0.04800*%
%ADD44C,0.04724*%
%ADD45C,0.06000*%
%ADD46O,0.09000X0.04500*%
%ADD47C,0.04331*%
%ADD48C,0.01500*%
%ADD49C,0.06200*%
%ADD50R,0.06200X0.06200*%
%ADD51R,0.06000X0.06000*%
%ADD52C,0.02200*%
%ADD53C,0.02400*%
%ADD54C,0.02000*%
%ADD55R,0.08026X0.06000*%
%ADD56R,0.08126X0.05900*%
%ADD57R,0.07700X0.06100*%
%ADD58R,0.05600X0.04400*%
%ADD59R,0.06200X0.05400*%
%ADD60C,0.01200*%
%ADD61R,0.08100X0.04600*%
%ADD62C,0.08661*%
%ADD63C,0.00394*%
%ADD64C,0.00500*%
%ADD65C,0.00787*%
%ADD66C,0.00300*%
%ADD67R,0.03000X0.05500*%
%ADD68R,0.03000X0.05000*%
%ADD69R,0.03000X0.06000*%
%ADD70R,0.03000X0.07000*%
%ADD71R,0.01800X0.07000*%
%ADD72R,0.01800X0.19500*%
%ADD73R,0.19500X0.01800*%
%ADD74R,0.01800X0.19500*%
%ADD75R,0.19500X0.01800*%
%ADD76R,0.07654X0.02619*%
D10*
X1065974Y863400D02*
X1065650Y864303D01*
X1064890Y864888D01*
X1063935Y864969D01*
X1063087Y864521D01*
X1062615Y863685D01*
X1062670Y862728D01*
X1063233Y861952D01*
X1064127Y861603D01*
X1065067Y861793D01*
X1065756Y862461D01*
X1065974Y863395D01*
X1060800Y820900D02*
X1060364Y821781D01*
X1059438Y822113D01*
X1058541Y821711D01*
X1058173Y820799D01*
X1058541Y819887D01*
X1059438Y819485D01*
X1060364Y819817D01*
X1060800Y820698D01*
X1011000Y811600D02*
X1010503Y812423D01*
X1009578Y812682D01*
X1008726Y812236D01*
X1008411Y811328D01*
X1008805Y810451D01*
X1009693Y810082D01*
X1010592Y810422D01*
X1011014Y811286D01*
X995476Y873984D02*
Y879984D01*
X1006476Y873984D02*
Y879984D01*
D12*
X1098716Y807516D02*
X1099200D01*
X1098016Y806816D02*
X1099200D01*
X1097316Y806116D02*
X1099200D01*
X1096616Y805416D02*
X1099200D01*
Y800000D02*
Y808000D01*
X1095916Y804716D02*
X1099200D01*
X1095216Y804016D02*
X1099200D01*
X1098874Y800000D02*
Y807674D01*
X1098174Y800000D02*
Y806974D01*
X1097474Y800000D02*
Y806274D01*
X1096774Y800000D02*
Y805574D01*
X1096074Y800000D02*
Y804874D01*
X1095374Y800000D02*
Y804174D01*
X1094516Y803316D02*
X1099200D01*
X1093816Y802616D02*
X1099200D01*
X1093116Y801916D02*
X1099200D01*
X1092416Y801216D02*
X1099200D01*
X1094674Y800000D02*
Y803474D01*
X1093974Y800000D02*
Y802774D01*
X1091716Y800516D02*
X1099200D01*
X1093274Y800000D02*
Y802074D01*
X1091300Y800100D02*
X1099200Y808000D01*
X1091200Y800000D02*
X1099200D01*
X1092574D02*
Y801374D01*
X1091874Y800000D02*
Y800674D01*
X1091200Y800000D02*
X1091300Y800100D01*
D31*
X1018800Y859200D02*
X1018247Y859961D01*
X1017353Y859670D01*
Y858730D01*
X1018247Y858439D01*
X1018800Y859200D01*
X1048403Y877892D02*
X1047850Y878653D01*
X1046956Y878362D01*
Y877422D01*
X1047850Y877131D01*
X1048403Y877892D01*
D60*
X1000226Y871484D02*
X1001726D01*
D63*
X1060551Y821511D02*
X1060603Y820523D01*
X1060758Y819547D01*
X1061014Y818591D01*
X1061368Y817668D01*
X1061817Y816787D01*
X1062356Y815957D01*
X1062978Y815189D01*
X1063678Y814489D01*
X1064446Y813867D01*
X1065276Y813328D01*
X1066157Y812879D01*
X1067080Y812525D01*
X1068036Y812269D01*
X1069012Y812114D01*
X1070000Y812062D01*
X1079449Y847102D02*
X1079395Y848111D01*
X1079233Y849109D01*
X1078966Y850084D01*
X1078596Y851025D01*
X1078127Y851921D01*
X1077566Y852762D01*
X1076918Y853538D01*
X1076191Y854240D01*
X1075393Y854860D01*
X1074533Y855392D01*
X1073621Y855829D01*
X1072668Y856166D01*
X1071684Y856399D01*
X1070681Y856526D01*
X1069670Y856545D01*
X1070000Y856550D02*
X1069012Y856499D01*
X1068036Y856344D01*
X1067080Y856088D01*
X1066157Y855733D01*
X1065276Y855285D01*
X1064446Y854746D01*
X1063678Y854123D01*
X1062978Y853424D01*
X1062356Y852655D01*
X1061817Y851826D01*
X1061368Y850945D01*
X1061014Y850021D01*
X1060758Y849066D01*
X1060603Y848089D01*
X1060551Y847102D01*
X1070000Y812062D02*
X1070988Y812114D01*
X1071964Y812269D01*
X1072920Y812525D01*
X1073843Y812879D01*
X1074724Y813328D01*
X1075554Y813867D01*
X1076322Y814489D01*
X1077022Y815189D01*
X1077644Y815957D01*
X1078183Y816787D01*
X1078632Y817668D01*
X1078986Y818591D01*
X1079242Y819547D01*
X1079397Y820523D01*
X1079449Y821511D01*
X1079449D02*
X1079449Y847102D01*
X1060551Y821511D02*
X1060551Y847101D01*
D64*
X1020540Y869505D02*
X1021839D01*
X1025855Y866119D02*
X1027548D01*
Y869505D01*
X1025855D02*
X1027548D01*
X1020146Y866119D02*
X1021839D01*
X1020146D02*
Y869505D01*
X1020540D01*
X1065233Y877477D02*
Y879277D01*
Y877177D02*
Y877477D01*
Y877177D02*
X1069933D01*
Y879377D01*
X1065233Y886177D02*
Y887377D01*
X1069933D01*
Y885077D02*
Y887377D01*
X1065233Y885077D02*
Y886177D01*
X1065000Y871100D02*
Y872800D01*
Y873200D01*
X1062000Y873200D02*
X1065000Y873200D01*
X1062000Y871100D02*
X1062000Y873200D01*
X1065000Y867700D02*
X1065000Y865800D01*
X1061900Y865800D02*
X1065000Y865800D01*
X1061900Y865800D02*
Y867700D01*
X1065200Y865800D02*
Y867700D01*
Y865800D02*
X1068300Y865800D01*
X1068300Y867700D02*
X1068300Y865800D01*
X1065300Y871100D02*
X1065300Y873200D01*
X1068300Y873200D01*
Y872800D02*
Y873200D01*
Y871100D02*
Y872800D01*
X982646Y866505D02*
X983040D01*
X982646Y863119D02*
Y866505D01*
Y863119D02*
X984339D01*
X988355Y866505D02*
X990048D01*
Y863119D02*
Y866505D01*
X988355Y863119D02*
X990048D01*
X983040Y866505D02*
X984339D01*
X1048940Y858405D02*
X1050239D01*
X1054255Y855019D02*
X1055948D01*
Y858405D01*
X1054255D02*
X1055948D01*
X1048547Y855019D02*
X1050239D01*
X1048547D02*
Y858405D01*
X1048940D01*
X1060005Y843460D02*
Y843853D01*
X1056619D02*
X1060005D01*
X1056619Y842161D02*
Y843853D01*
X1060005Y836452D02*
Y838145D01*
X1056619Y836452D02*
X1060005D01*
X1056619D02*
Y838145D01*
X1060005Y842161D02*
Y843460D01*
X1048647Y843905D02*
X1049040D01*
X1048647Y840519D02*
Y843905D01*
Y840519D02*
X1050339D01*
X1054355Y843905D02*
X1056048D01*
Y840519D02*
Y843905D01*
X1054355Y840519D02*
X1056048D01*
X1049040Y843905D02*
X1050339D01*
X1015761Y862511D02*
X1017060D01*
X1010052Y865897D02*
X1011745D01*
X1010052Y862511D02*
Y865897D01*
Y862511D02*
X1011745D01*
X1015761Y865897D02*
X1017453D01*
Y862511D02*
Y865897D01*
X1017060Y862511D02*
X1017453D01*
X1041295Y822546D02*
Y822940D01*
Y822546D02*
X1044681D01*
Y824239D01*
X1041295Y828255D02*
Y829948D01*
X1044681D01*
Y828255D02*
Y829948D01*
X1041295Y822940D02*
Y824239D01*
X1034240Y825905D02*
X1035539D01*
X1039555Y822519D02*
X1041248D01*
Y825905D01*
X1039555D02*
X1041248D01*
X1033846Y822519D02*
X1035539D01*
X1033846D02*
Y825905D01*
X1034240D01*
X1024960Y824595D02*
X1025354D01*
Y827981D01*
X1023661D02*
X1025354D01*
X1017952Y824595D02*
X1019645D01*
X1017952D02*
Y827981D01*
X1019645D01*
X1023661Y824595D02*
X1024960D01*
X1019695Y873647D02*
Y874040D01*
Y873647D02*
X1023081D01*
Y875339D01*
X1019695Y879355D02*
Y881048D01*
X1023081D01*
Y879355D02*
Y881048D01*
X1019695Y874040D02*
Y875339D01*
X1013760Y839495D02*
X1014153D01*
Y842881D01*
X1012461D02*
X1014153D01*
X1006752Y839495D02*
X1008445D01*
X1006752D02*
Y842881D01*
X1008445D01*
X1012461Y839495D02*
X1013760D01*
X993740Y821405D02*
X995039D01*
X999055Y818019D02*
X1000748D01*
Y821405D01*
X999055D02*
X1000748D01*
X993347Y818019D02*
X995039D01*
X993347D02*
Y821405D01*
X993740D01*
X1045316Y824576D02*
Y825676D01*
X1050016Y824576D02*
Y826876D01*
X1045316D02*
X1050016D01*
X1045316Y825676D02*
Y826876D01*
X1050016Y816676D02*
Y818876D01*
X1045316Y816676D02*
X1050016D01*
X1045316D02*
Y816976D01*
Y818776D01*
X1064876Y861984D02*
X1066676D01*
X1064576D02*
X1064876D01*
X1064576Y857284D02*
Y861984D01*
Y857284D02*
X1066776D01*
X1073576Y861984D02*
X1074776D01*
Y857284D02*
Y861984D01*
X1072476Y857284D02*
X1074776D01*
X1072476Y861984D02*
X1073576D01*
X996805Y850560D02*
Y850953D01*
X993419D02*
X996805D01*
X993419Y849261D02*
Y850953D01*
X996805Y843552D02*
Y845245D01*
X993419Y843552D02*
X996805D01*
X993419D02*
Y845245D01*
X996805Y849261D02*
Y850560D01*
X984605Y860860D02*
Y861254D01*
X981219D02*
X984605D01*
X981219Y859561D02*
Y861254D01*
X984605Y853852D02*
Y855545D01*
X981219Y853852D02*
X984605D01*
X981219D02*
Y855545D01*
X984605Y859561D02*
Y860860D01*
X1010246Y825505D02*
X1010640D01*
X1010246Y822119D02*
Y825505D01*
Y822119D02*
X1011939D01*
X1015955Y825505D02*
X1017648D01*
Y822119D02*
Y825505D01*
X1015955Y822119D02*
X1017648D01*
X1010640Y825505D02*
X1011939D01*
X985740Y844405D02*
X987039D01*
X991055Y841019D02*
X992748D01*
Y844405D01*
X991055D02*
X992748D01*
X985347Y841019D02*
X987039D01*
X985347D02*
Y844405D01*
X985740D01*
X1009376Y821984D02*
X1010476D01*
X1009376Y817284D02*
X1011676D01*
Y821984D01*
X1010476D02*
X1011676D01*
X1001476Y817284D02*
X1003676D01*
X1001476D02*
Y821984D01*
X1001776D01*
X1003576D01*
X1012346Y815905D02*
X1012740D01*
X1012346Y812519D02*
Y815905D01*
Y812519D02*
X1014039D01*
X1018055Y815905D02*
X1019748D01*
Y812519D02*
Y815905D01*
X1018055Y812519D02*
X1019748D01*
X1012740Y815905D02*
X1014039D01*
X1008061Y822595D02*
X1009360D01*
X1002352Y825981D02*
X1004045D01*
X1002352Y822595D02*
Y825981D01*
Y822595D02*
X1004045D01*
X1008061Y825981D02*
X1009754D01*
Y822595D02*
Y825981D01*
X1009360Y822595D02*
X1009754D01*
X1054261Y851095D02*
X1055560D01*
X1048552Y854481D02*
X1050245D01*
X1048552Y851095D02*
Y854481D01*
Y851095D02*
X1050245D01*
X1054261Y854481D02*
X1055954D01*
Y851095D02*
Y854481D01*
X1055560Y851095D02*
X1055954D01*
X1048547Y850505D02*
X1048940D01*
X1048547Y847119D02*
Y850505D01*
Y847119D02*
X1050239D01*
X1054255Y850505D02*
X1055948D01*
Y847119D02*
Y850505D01*
X1054255Y847119D02*
X1055948D01*
X1048940Y850505D02*
X1050239D01*
X1056347Y859905D02*
X1056740D01*
X1056347Y856519D02*
Y859905D01*
Y856519D02*
X1058039D01*
X1062055Y859905D02*
X1063748D01*
Y856519D02*
Y859905D01*
X1062055Y856519D02*
X1063748D01*
X1056740Y859905D02*
X1058039D01*
X1025205Y822161D02*
Y823460D01*
X1021819Y816452D02*
Y818145D01*
Y816452D02*
X1025205D01*
Y818145D01*
X1021819Y822161D02*
Y823853D01*
X1025205D01*
Y823460D02*
Y823853D01*
X1004846Y846405D02*
X1005240D01*
X1004846Y843019D02*
Y846405D01*
Y843019D02*
X1006539D01*
X1010555Y846405D02*
X1012248D01*
Y843019D02*
Y846405D01*
X1010555Y843019D02*
X1012248D01*
X1005240Y846405D02*
X1006539D01*
X1002740Y829905D02*
X1004039D01*
X1008055Y826519D02*
X1009748D01*
Y829905D01*
X1008055D02*
X1009748D01*
X1002347Y826519D02*
X1004039D01*
X1002347D02*
Y829905D01*
X1002740D01*
X997346Y844405D02*
X997740D01*
X997346Y841019D02*
Y844405D01*
Y841019D02*
X999039D01*
X1003055Y844405D02*
X1004748D01*
Y841019D02*
Y844405D01*
X1003055Y841019D02*
X1004748D01*
X997740Y844405D02*
X999039D01*
X998461Y837495D02*
X999760D01*
X992752Y840881D02*
X994445D01*
X992752Y837495D02*
Y840881D01*
Y837495D02*
X994445D01*
X998461Y840881D02*
X1000154D01*
Y837495D02*
Y840881D01*
X999760Y837495D02*
X1000154D01*
X1042346Y815905D02*
X1042740D01*
X1042346Y812519D02*
Y815905D01*
Y812519D02*
X1044039D01*
X1048055Y815905D02*
X1049748D01*
Y812519D02*
Y815905D01*
X1048055Y812519D02*
X1049748D01*
X1042740Y815905D02*
X1044039D01*
X1012740Y820905D02*
X1014039D01*
X1018055Y817519D02*
X1019748D01*
Y820905D01*
X1018055D02*
X1019748D01*
X1012346Y817519D02*
X1014039D01*
X1012346D02*
Y820905D01*
X1012740D01*
X1049260Y808995D02*
X1049654D01*
Y812381D01*
X1047961D02*
X1049654D01*
X1042252Y808995D02*
X1043945D01*
X1042252D02*
Y812381D01*
X1043945D01*
X1047961Y808995D02*
X1049260D01*
X999776Y830584D02*
X1000876D01*
X999776Y825884D02*
X1002076D01*
Y830584D01*
X1000876D02*
X1002076D01*
X991876Y825884D02*
X994076D01*
X991876D02*
Y830584D01*
X992176D01*
X993976D01*
X981676D02*
X983476D01*
X981376D02*
X981676D01*
X981376Y825884D02*
Y830584D01*
Y825884D02*
X983576D01*
X990376Y830584D02*
X991576D01*
Y825884D02*
Y830584D01*
X989276Y825884D02*
X991576D01*
X989276Y830584D02*
X990376D01*
X993740Y825305D02*
X995039D01*
X999055Y821919D02*
X1000748D01*
Y825305D01*
X999055D02*
X1000748D01*
X993347Y821919D02*
X995039D01*
X993347D02*
Y825305D01*
X993740D01*
X1056595Y845146D02*
Y845540D01*
Y845146D02*
X1059981D01*
Y846839D01*
X1056595Y850855D02*
Y852548D01*
X1059981D01*
Y850855D02*
Y852548D01*
X1056595Y845540D02*
Y846839D01*
X1049040Y840405D02*
X1050339D01*
X1054355Y837019D02*
X1056048D01*
Y840405D01*
X1054355D02*
X1056048D01*
X1048647Y837019D02*
X1050339D01*
X1048647D02*
Y840405D01*
X1049040D01*
X1056347Y856605D02*
X1056740D01*
X1056347Y853219D02*
Y856605D01*
Y853219D02*
X1058039D01*
X1062055Y856605D02*
X1063748D01*
Y853219D02*
Y856605D01*
X1062055Y853219D02*
X1063748D01*
X1056740Y856605D02*
X1058039D01*
X1036060Y864616D02*
X1037860D01*
X1038160D01*
Y869316D01*
X1035960D02*
X1038160D01*
X1027960Y864616D02*
X1029160D01*
X1027960D02*
Y869316D01*
X1030260D01*
X1029160Y864616D02*
X1030260D01*
X1060005Y830961D02*
Y832260D01*
X1056619Y825252D02*
Y826945D01*
Y825252D02*
X1060005D01*
Y826945D01*
X1056619Y830961D02*
Y832654D01*
X1060005D01*
Y832260D02*
Y832654D01*
X1005884Y838724D02*
Y840524D01*
Y840824D01*
X1001184D02*
X1005884D01*
X1001184Y838624D02*
Y840824D01*
X1005884Y830624D02*
Y831824D01*
X1001184Y830624D02*
X1005884D01*
X1001184D02*
Y832924D01*
X1005884Y831824D02*
Y832924D01*
X997740Y847905D02*
X999039D01*
X1003055Y844519D02*
X1004748D01*
Y847905D01*
X1003055D02*
X1004748D01*
X997346Y844519D02*
X999039D01*
X997346D02*
Y847905D01*
X997740D01*
X992846Y837405D02*
X993240D01*
X992846Y834019D02*
Y837405D01*
Y834019D02*
X994539D01*
X998555Y837405D02*
X1000248D01*
Y834019D02*
Y837405D01*
X998555Y834019D02*
X1000248D01*
X993240Y837405D02*
X994539D01*
X993240Y833905D02*
X994539D01*
X998555Y830519D02*
X1000248D01*
Y833905D01*
X998555D02*
X1000248D01*
X992846Y830519D02*
X994539D01*
X992846D02*
Y833905D01*
X993240D01*
X985246Y821605D02*
X985640D01*
X985246Y818219D02*
Y821605D01*
Y818219D02*
X986939D01*
X990955Y821605D02*
X992648D01*
Y818219D02*
Y821605D01*
X990955Y818219D02*
X992648D01*
X985640Y821605D02*
X986939D01*
X982240Y840905D02*
X983539D01*
X987555Y837519D02*
X989248D01*
Y840905D01*
X987555D02*
X989248D01*
X981847Y837519D02*
X983539D01*
X981847D02*
Y840905D01*
X982240D01*
X989295Y833547D02*
Y833940D01*
Y833547D02*
X992681D01*
Y835239D01*
X989295Y839255D02*
Y840948D01*
X992681D01*
Y839255D02*
Y840948D01*
X989295Y833940D02*
Y835239D01*
X981847Y833905D02*
X982240D01*
X981847Y830519D02*
Y833905D01*
Y830519D02*
X983539D01*
X987555Y833905D02*
X989248D01*
Y830519D02*
Y833905D01*
X987555Y830519D02*
X989248D01*
X982240Y833905D02*
X983539D01*
X985347Y848505D02*
X985740D01*
X985347Y845119D02*
Y848505D01*
Y845119D02*
X987039D01*
X991055Y848505D02*
X992748D01*
Y845119D02*
Y848505D01*
X991055Y845119D02*
X992748D01*
X985740Y848505D02*
X987039D01*
X1050961Y827495D02*
X1052260D01*
X1045252Y830881D02*
X1046945D01*
X1045252Y827495D02*
Y830881D01*
Y827495D02*
X1046945D01*
X1050961Y830881D02*
X1052654D01*
Y827495D02*
Y830881D01*
X1052260Y827495D02*
X1052654D01*
X1026295Y816547D02*
Y816940D01*
Y816547D02*
X1029681D01*
Y818239D01*
X1026295Y822255D02*
Y823948D01*
X1029681D01*
Y822255D02*
Y823948D01*
X1026295Y816940D02*
Y818239D01*
X1007260Y850495D02*
X1007654D01*
Y853881D01*
X1005961D02*
X1007654D01*
X1000252Y850495D02*
X1001945D01*
X1000252D02*
Y853881D01*
X1001945D01*
X1005961Y850495D02*
X1007260D01*
X998960Y852995D02*
X999354D01*
Y856381D01*
X997661D02*
X999354D01*
X991952Y852995D02*
X993645D01*
X991952D02*
Y856381D01*
X993645D01*
X997661Y852995D02*
X998960D01*
X1005961Y855495D02*
X1007260D01*
X1000252Y858881D02*
X1001945D01*
X1000252Y855495D02*
Y858881D01*
Y855495D02*
X1001945D01*
X1005961Y858881D02*
X1007654D01*
Y855495D02*
Y858881D01*
X1007260Y855495D02*
X1007654D01*
X995705Y869260D02*
Y869654D01*
X992319D02*
X995705D01*
X992319Y867961D02*
Y869654D01*
X995705Y862252D02*
Y863945D01*
X992319Y862252D02*
X995705D01*
X992319D02*
Y863945D01*
X995705Y867961D02*
Y869260D01*
X988505Y854561D02*
Y855860D01*
X985119Y848852D02*
Y850545D01*
Y848852D02*
X988505D01*
Y850545D01*
X985119Y854561D02*
Y856254D01*
X988505D01*
Y855860D02*
Y856254D01*
X1030295Y822546D02*
Y822940D01*
Y822546D02*
X1033681D01*
Y824239D01*
X1030295Y828255D02*
Y829948D01*
X1033681D01*
Y828255D02*
Y829948D01*
X1030295Y822940D02*
Y824239D01*
X981847Y837405D02*
X982240D01*
X981847Y834019D02*
Y837405D01*
Y834019D02*
X983539D01*
X987555Y837405D02*
X989248D01*
Y834019D02*
Y837405D01*
X987555Y834019D02*
X989248D01*
X982240Y837405D02*
X983539D01*
X1048647Y836605D02*
X1049040D01*
X1048647Y833219D02*
Y836605D01*
Y833219D02*
X1050339D01*
X1054355Y836605D02*
X1056048D01*
Y833219D02*
Y836605D01*
X1054355Y833219D02*
X1056048D01*
X1049040Y836605D02*
X1050339D01*
X1018140Y865905D02*
X1019439D01*
X1023455Y862519D02*
X1025148D01*
Y865905D01*
X1023455D02*
X1025148D01*
X1017747Y862519D02*
X1019439D01*
X1017747D02*
Y865905D01*
X1018140D01*
X1030295Y814246D02*
Y814640D01*
Y814246D02*
X1033681D01*
Y815939D01*
X1030295Y819955D02*
Y821648D01*
X1033681D01*
Y819955D02*
Y821648D01*
X1030295Y814640D02*
Y815939D01*
X1037340Y820005D02*
X1038639D01*
X1042655Y816619D02*
X1044348D01*
Y820005D01*
X1042655D02*
X1044348D01*
X1036946Y816619D02*
X1038639D01*
X1036946D02*
Y820005D01*
X1037340D01*
X1017805Y832760D02*
Y833154D01*
X1014419D02*
X1017805D01*
X1014419Y831461D02*
Y833154D01*
X1017805Y825752D02*
Y827445D01*
X1014419Y825752D02*
X1017805D01*
X1014419D02*
Y827445D01*
X1017805Y831461D02*
Y832760D01*
X985640Y825305D02*
X986939D01*
X990955Y821919D02*
X992648D01*
Y825305D01*
X990955D02*
X992648D01*
X985246Y821919D02*
X986939D01*
X985246D02*
Y825305D01*
X985640D01*
X981847Y813305D02*
X982240D01*
X981847Y809919D02*
Y813305D01*
Y809919D02*
X983539D01*
X987555Y813305D02*
X989248D01*
Y809919D02*
Y813305D01*
X987555Y809919D02*
X989248D01*
X982240Y813305D02*
X983539D01*
X1034240Y812405D02*
X1035539D01*
X1039555Y809019D02*
X1041248D01*
Y812405D01*
X1039555D02*
X1041248D01*
X1033846Y809019D02*
X1035539D01*
X1033846D02*
Y812405D01*
X1034240D01*
X980995Y876046D02*
Y876440D01*
Y876046D02*
X984381D01*
Y877739D01*
X980995Y881755D02*
Y883448D01*
X984381D01*
Y881755D02*
Y883448D01*
X980995Y876440D02*
Y877739D01*
X1034760Y873295D02*
X1035153D01*
Y876681D01*
X1033461D02*
X1035153D01*
X1027752Y873295D02*
X1029445D01*
X1027752D02*
Y876681D01*
X1029445D01*
X1033461Y873295D02*
X1034760D01*
X1019746Y873305D02*
X1020140D01*
X1019746Y869919D02*
Y873305D01*
Y869919D02*
X1021439D01*
X1025455Y873305D02*
X1027148D01*
Y869919D02*
Y873305D01*
X1025455Y869919D02*
X1027148D01*
X1020140Y873305D02*
X1021439D01*
X1006161Y861495D02*
X1007460D01*
X1000452Y864881D02*
X1002145D01*
X1000452Y861495D02*
Y864881D01*
Y861495D02*
X1002145D01*
X1006161Y864881D02*
X1007854D01*
Y861495D02*
Y864881D01*
X1007460Y861495D02*
X1007854D01*
X997661Y858495D02*
X998960D01*
X991952Y861881D02*
X993645D01*
X991952Y858495D02*
Y861881D01*
Y858495D02*
X993645D01*
X997661Y861881D02*
X999354D01*
Y858495D02*
Y861881D01*
X998960Y858495D02*
X999354D01*
X1010795Y832047D02*
Y832440D01*
Y832047D02*
X1014181D01*
Y833739D01*
X1010795Y837755D02*
Y839448D01*
X1014181D01*
Y837755D02*
Y839448D01*
X1010795Y832440D02*
Y833739D01*
X1006295Y830940D02*
Y832239D01*
X1009681Y836255D02*
Y837948D01*
X1006295D02*
X1009681D01*
X1006295Y836255D02*
Y837948D01*
X1009681Y830546D02*
Y832239D01*
X1006295Y830546D02*
X1009681D01*
X1006295D02*
Y830940D01*
X1019246Y831605D02*
X1019640D01*
X1019246Y828219D02*
Y831605D01*
Y828219D02*
X1020939D01*
X1024955Y831605D02*
X1026648D01*
Y828219D02*
Y831605D01*
X1024955Y828219D02*
X1026648D01*
X1019640Y831605D02*
X1020939D01*
X1039461Y826495D02*
X1040760D01*
X1033752Y829881D02*
X1035445D01*
X1033752Y826495D02*
Y829881D01*
Y826495D02*
X1035445D01*
X1039461Y829881D02*
X1041154D01*
Y826495D02*
Y829881D01*
X1040760Y826495D02*
X1041154D01*
X982240Y817405D02*
X983539D01*
X987555Y814019D02*
X989248D01*
Y817405D01*
X987555D02*
X989248D01*
X981847Y814019D02*
X983539D01*
X981847D02*
Y817405D01*
X982240D01*
X1033846Y815905D02*
X1034240D01*
X1033846Y812519D02*
Y815905D01*
Y812519D02*
X1035539D01*
X1039555Y815905D02*
X1041248D01*
Y812519D02*
Y815905D01*
X1039555Y812519D02*
X1041248D01*
X1034240Y815905D02*
X1035539D01*
X1021140D02*
X1022439D01*
X1026455Y812519D02*
X1028148D01*
Y815905D01*
X1026455D02*
X1028148D01*
X1020747Y812519D02*
X1022439D01*
X1020747D02*
Y815905D01*
X1021140D01*
X1052895Y825640D02*
Y826939D01*
X1056281Y830955D02*
Y832648D01*
X1052895D02*
X1056281D01*
X1052895Y830955D02*
Y832648D01*
X1056281Y825247D02*
Y826939D01*
X1052895Y825247D02*
X1056281D01*
X1052895D02*
Y825640D01*
X1033461Y869695D02*
X1034760D01*
X1027752Y873081D02*
X1029445D01*
X1027752Y869695D02*
Y873081D01*
Y869695D02*
X1029445D01*
X1033461Y873081D02*
X1035153D01*
Y869695D02*
Y873081D01*
X1034760Y869695D02*
X1035153D01*
X1043861Y866295D02*
X1045160D01*
X1038152Y869681D02*
X1039845D01*
X1038152Y866295D02*
Y869681D01*
Y866295D02*
X1039845D01*
X1043861Y869681D02*
X1045553D01*
Y866295D02*
Y869681D01*
X1045160Y866295D02*
X1045553D01*
X1060533Y877477D02*
Y879277D01*
Y877177D02*
Y877477D01*
Y877177D02*
X1065233D01*
Y879377D01*
X1060533Y886177D02*
Y887377D01*
X1065233D01*
Y885077D02*
Y887377D01*
X1060533Y885077D02*
Y886177D01*
X1055395Y880046D02*
Y880440D01*
Y880046D02*
X1058781D01*
Y881739D01*
X1055395Y885755D02*
Y887448D01*
X1058781D01*
Y885755D02*
Y887448D01*
X1055395Y880440D02*
Y881739D01*
X1047695Y880046D02*
Y880440D01*
Y880046D02*
X1051081D01*
Y881739D01*
X1047695Y885755D02*
Y887448D01*
X1051081D01*
Y885755D02*
Y887448D01*
X1047695Y880440D02*
Y881739D01*
X1043895Y880440D02*
Y881739D01*
X1047281Y885755D02*
Y887448D01*
X1043895D02*
X1047281D01*
X1043895Y885755D02*
Y887448D01*
X1047281Y880046D02*
Y881739D01*
X1043895Y880046D02*
X1047281D01*
X1043895D02*
Y880440D01*
X1072746Y873205D02*
X1073140D01*
X1072746Y869819D02*
Y873205D01*
Y869819D02*
X1074439D01*
X1078455Y873205D02*
X1080148D01*
Y869819D02*
Y873205D01*
X1078455Y869819D02*
X1080148D01*
X1073140Y873205D02*
X1074439D01*
X1054905Y885761D02*
Y887060D01*
X1051519Y880052D02*
Y881745D01*
Y880052D02*
X1054905D01*
Y881745D01*
X1051519Y885761D02*
Y887453D01*
X1054905D01*
Y887060D02*
Y887453D01*
X1049191Y877498D02*
X1050012Y877493D01*
X1048212Y865693D02*
X1050012D01*
X1048212D02*
Y867493D01*
X1058212Y865693D02*
X1060012D01*
Y867493D01*
Y875693D02*
Y877493D01*
X1058212D02*
X1060012D01*
X1048206Y876514D02*
X1048212Y875693D01*
X1048206Y876514D02*
X1049191Y877498D01*
X1074667Y878323D02*
Y879423D01*
X1069967Y877123D02*
Y879423D01*
Y877123D02*
X1074667D01*
Y878323D01*
X1069967Y885123D02*
Y887323D01*
X1074667D01*
Y887023D02*
Y887323D01*
Y885223D02*
Y887023D01*
X1038540Y873205D02*
X1039839D01*
X1043855Y869819D02*
X1045548D01*
Y873205D01*
X1043855D02*
X1045548D01*
X1038146Y869819D02*
X1039839D01*
X1038146D02*
Y873205D01*
X1038540D01*
X1060134Y859895D02*
X1060528D01*
Y863281D01*
X1058835D02*
X1060528D01*
X1053126Y859895D02*
X1054819D01*
X1053126D02*
Y863281D01*
X1054819D01*
X1058835Y859895D02*
X1060134D01*
X1071400Y871100D02*
Y872800D01*
Y873200D01*
X1068400Y873200D02*
X1071400Y873200D01*
X1068400Y871100D02*
X1068400Y873200D01*
X1071400Y867700D02*
X1071400Y865800D01*
X1068300Y865800D02*
X1071400Y865800D01*
X1068300Y865800D02*
Y867700D01*
X1002803Y888451D02*
X1004603D01*
X1002503D02*
X1002803D01*
X1002503Y883751D02*
Y888451D01*
Y883751D02*
X1004703D01*
X1011503Y888451D02*
X1012703D01*
Y883751D02*
Y888451D01*
X1010403Y883751D02*
X1012703D01*
X1010403Y888451D02*
X1011503D01*
X1007349Y878003D02*
Y879103D01*
X1012049Y878003D02*
Y880303D01*
X1007349D02*
X1012049D01*
X1007349Y879103D02*
Y880303D01*
X1012049Y870103D02*
Y872303D01*
X1007349Y870103D02*
X1012049D01*
X1007349D02*
Y870403D01*
Y872203D01*
X1049874Y860216D02*
X1051574D01*
X1051974D01*
X1051974Y863216D01*
X1049874Y863216D02*
X1051974Y863216D01*
X1044574Y860216D02*
X1046474Y860216D01*
X1044574Y863316D02*
X1044574Y860216D01*
X1044574Y863316D02*
X1046474D01*
D65*
X1019821Y857421D02*
Y858602D01*
Y834980D02*
Y836948D01*
Y834980D02*
X1021790D01*
X1042262D02*
X1044231D01*
Y836948D01*
Y857421D02*
Y859389D01*
X1042262D02*
X1044231D01*
X1020609D02*
X1021790D01*
X1019821Y858602D02*
X1020609Y859389D01*
D66*
X1050400Y809900D02*
Y815700D01*
Y809900D02*
X1057500D01*
Y815700D01*
Y818300D02*
Y822400D01*
X1050400Y818400D02*
Y824200D01*
X1057500D01*
Y822400D02*
Y824200D01*
X993000Y880000D02*
Y885800D01*
X985900D02*
X993000D01*
X985900Y880000D02*
Y885800D01*
Y873300D02*
Y877400D01*
X993000Y871500D02*
Y877300D01*
X985900Y871500D02*
X993000D01*
X985900D02*
Y873300D01*
X1011900Y868300D02*
Y870100D01*
Y868300D02*
X1019000D01*
Y874100D01*
X1011900Y870100D02*
Y874200D01*
Y876800D02*
Y882600D01*
X1019000D01*
Y876800D02*
Y882600D01*
X1006000Y809900D02*
X1007800D01*
Y817000D01*
X1002000D02*
X1007800D01*
X1001900Y809900D02*
X1006000D01*
X993500D02*
X999300D01*
X993500D02*
Y817000D01*
X999300D01*
D67*
X1083500Y830950D02*
D03*
X977500Y865450D02*
D03*
D68*
X1083500Y814700D02*
D03*
X977500Y881700D02*
D03*
D69*
X1083500Y855200D02*
D03*
X977500Y841200D02*
D03*
D70*
Y821700D02*
D03*
D71*
X1084900Y874700D02*
D03*
D72*
X1023200Y847150D02*
D03*
D73*
X1032050Y838300D02*
D03*
D74*
X1040900Y847150D02*
D03*
D75*
X1032050Y856000D02*
D03*
D76*
X1004027Y866191D02*
D03*
M02*
