%FSLAX25Y25*%
%MOIN*%
G70*
G01*
G75*
%ADD10C,0.01000*%
%ADD11C,0.02000*%
%ADD12C,0.00800*%
%ADD13R,0.01969X0.02000*%
%ADD14R,0.03000X0.03000*%
%ADD15R,0.02000X0.01969*%
%ADD16R,0.03150X0.00984*%
%ADD17R,0.00984X0.03150*%
%ADD18R,0.00984X0.03150*%
%ADD19R,0.05906X0.05906*%
%ADD20O,0.03150X0.00984*%
%ADD21C,0.00800*%
%ADD22R,0.05906X0.05118*%
%ADD23R,0.02000X0.03150*%
%ADD24R,0.05118X0.05906*%
%ADD25R,0.02756X0.00984*%
%ADD26R,0.00984X0.02756*%
%ADD27R,0.06299X0.06299*%
%ADD28C,0.00700*%
%ADD29C,0.01500*%
%ADD30C,0.02900*%
%ADD31C,0.00600*%
%ADD32C,0.03000*%
%ADD33R,0.00900X0.00700*%
%ADD34R,0.03000X0.02247*%
%ADD35R,0.01600X0.02900*%
%ADD36R,0.07500X0.07700*%
%ADD37R,0.04500X0.03500*%
%ADD38R,0.03900X0.03000*%
%ADD39R,0.07700X0.04600*%
%ADD40R,0.02078X0.02277*%
%ADD41R,0.04100X0.02700*%
%ADD42R,0.04000X0.03000*%
%ADD43R,0.02300X0.04800*%
%ADD44C,0.04724*%
%ADD45C,0.06000*%
%ADD46O,0.09000X0.04500*%
%ADD47C,0.04331*%
%ADD48C,0.01500*%
%ADD49C,0.06200*%
%ADD50R,0.06200X0.06200*%
%ADD51R,0.06000X0.06000*%
%ADD52C,0.02200*%
%ADD53C,0.02400*%
%ADD54C,0.02000*%
%ADD55R,0.08026X0.06000*%
%ADD56R,0.08126X0.05900*%
%ADD57R,0.07700X0.06100*%
%ADD58R,0.05600X0.04400*%
%ADD59R,0.06200X0.05400*%
%ADD60C,0.01200*%
%ADD61R,0.08100X0.04600*%
%ADD62C,0.08661*%
%ADD63C,0.00394*%
%ADD64C,0.00500*%
%ADD65C,0.00787*%
%ADD66C,0.00300*%
%ADD67R,0.03000X0.05500*%
%ADD68R,0.03000X0.05000*%
%ADD69R,0.03000X0.06000*%
%ADD70R,0.03000X0.07000*%
%ADD71R,0.01800X0.07000*%
%ADD72R,0.01800X0.19500*%
%ADD73R,0.19500X0.01800*%
%ADD74R,0.01800X0.19500*%
%ADD75R,0.19500X0.01800*%
%ADD76R,0.07654X0.02619*%
%ADD77R,0.14800X0.14700*%
D10*
X944500Y807700D02*
X954500D01*
X944500Y797700D02*
X954500D01*
X944500Y897700D02*
X954500D01*
Y797700D02*
Y897700D01*
X963500Y895600D02*
X971500D01*
X963500Y800600D02*
Y895100D01*
X971500Y800600D02*
Y895600D01*
X963500Y800600D02*
X971500D01*
D66*
X1087000Y809700D02*
Y854700D01*
X1097000Y809700D02*
Y854700D01*
X1087000Y809700D02*
X1097000D01*
X957300Y830523D02*
X959300Y829762D01*
X957300Y829000D01*
X957967Y829286D02*
Y830238D01*
X959014Y832133D02*
X959204Y832037D01*
X959300Y831752D01*
Y831561D01*
X959204Y831276D01*
X958919Y831085D01*
X958443Y830990D01*
X957967D01*
X957586Y831085D01*
X957395Y831276D01*
X957300Y831561D01*
Y831657D01*
X957395Y831942D01*
X957586Y832133D01*
X957871Y832228D01*
X957967D01*
X958252Y832133D01*
X958443Y831942D01*
X958538Y831657D01*
Y831561D01*
X958443Y831276D01*
X958252Y831085D01*
X957967Y830990D01*
X957490Y832761D02*
X957395Y832666D01*
X957300Y832761D01*
X957395Y832856D01*
X957490Y832761D01*
X959300Y833866D02*
X959204Y833580D01*
X958919Y833389D01*
X958443Y833294D01*
X958157D01*
X957681Y833389D01*
X957395Y833580D01*
X957300Y833866D01*
Y834056D01*
X957395Y834342D01*
X957681Y834532D01*
X958157Y834627D01*
X958443D01*
X958919Y834532D01*
X959204Y834342D01*
X959300Y834056D01*
Y833866D01*
Y835075D02*
X957300D01*
X959300D02*
X957300Y835837D01*
X959300Y836598D02*
X957300Y835837D01*
X959300Y836598D02*
X957300D01*
X960100Y895800D02*
Y893800D01*
Y895800D02*
X959243D01*
X958957Y895704D01*
X958862Y895609D01*
X958767Y895419D01*
Y895228D01*
X958862Y895038D01*
X958957Y894943D01*
X959243Y894847D01*
X960100D02*
X959243D01*
X958957Y894752D01*
X958862Y894657D01*
X958767Y894466D01*
Y894181D01*
X958862Y893990D01*
X958957Y893895D01*
X959243Y893800D01*
X960100D01*
X958319Y895800D02*
X956986Y893800D01*
Y895800D02*
X958319Y893800D01*
X959400Y878800D02*
X957400D01*
X959400D02*
Y879467D01*
X959304Y879752D01*
X959114Y879943D01*
X958924Y880038D01*
X958638Y880133D01*
X958162D01*
X957876Y880038D01*
X957686Y879943D01*
X957495Y879752D01*
X957400Y879467D01*
Y878800D01*
Y882104D02*
X959400Y881342D01*
X957400Y880581D01*
X958066Y880866D02*
Y881818D01*
X959400Y883237D02*
X957400D01*
X959400Y882571D02*
Y883904D01*
X957400Y885665D02*
X959400Y884903D01*
X957400Y884142D01*
X958066Y884427D02*
Y885380D01*
X959400Y870900D02*
X957400D01*
Y872043D01*
X959400Y873499D02*
Y872262D01*
X957400D01*
Y873499D01*
X958447Y872262D02*
Y873023D01*
X959124Y861328D02*
X959314Y861233D01*
X959504Y861043D01*
X959600Y860852D01*
Y860471D01*
X959504Y860281D01*
X959314Y860090D01*
X959124Y859995D01*
X958838Y859900D01*
X958362D01*
X958076Y859995D01*
X957886Y860090D01*
X957695Y860281D01*
X957600Y860471D01*
Y860852D01*
X957695Y861043D01*
X957886Y861233D01*
X958076Y861328D01*
X959600Y861890D02*
X957600D01*
Y863033D01*
X959600Y863252D02*
X957600D01*
X959600Y864585D02*
X958267Y863252D01*
X958743Y863728D02*
X957600Y864585D01*
X959514Y853033D02*
X959704Y852843D01*
X959800Y852557D01*
Y852176D01*
X959704Y851890D01*
X959514Y851700D01*
X959324D01*
X959133Y851795D01*
X959038Y851890D01*
X958943Y852081D01*
X958752Y852652D01*
X958657Y852843D01*
X958562Y852938D01*
X958371Y853033D01*
X958086D01*
X957895Y852843D01*
X957800Y852557D01*
Y852176D01*
X957895Y851890D01*
X958086Y851700D01*
X959114Y840557D02*
X957400D01*
X958257Y839700D02*
Y841414D01*
X959400Y843147D02*
Y842195D01*
X958543Y842099D01*
X958638Y842195D01*
X958733Y842480D01*
Y842766D01*
X958638Y843052D01*
X958447Y843242D01*
X958162Y843337D01*
X957971D01*
X957686Y843242D01*
X957495Y843052D01*
X957400Y842766D01*
Y842480D01*
X957495Y842195D01*
X957590Y842099D01*
X957781Y842004D01*
X959400Y843785D02*
X957400Y844547D01*
X959400Y845308D02*
X957400Y844547D01*
X957300Y820523D02*
X959300Y819762D01*
X957300Y819000D01*
X957967Y819286D02*
Y820238D01*
X959014Y822133D02*
X959204Y822037D01*
X959300Y821752D01*
Y821561D01*
X959204Y821276D01*
X958919Y821085D01*
X958443Y820990D01*
X957967D01*
X957586Y821085D01*
X957395Y821276D01*
X957300Y821561D01*
Y821657D01*
X957395Y821942D01*
X957586Y822133D01*
X957871Y822228D01*
X957967D01*
X958252Y822133D01*
X958443Y821942D01*
X958538Y821657D01*
Y821561D01*
X958443Y821276D01*
X958252Y821085D01*
X957967Y820990D01*
X957490Y822761D02*
X957395Y822666D01*
X957300Y822761D01*
X957395Y822856D01*
X957490Y822761D01*
X959300Y824437D02*
Y823485D01*
X958443Y823390D01*
X958538Y823485D01*
X958633Y823770D01*
Y824056D01*
X958538Y824342D01*
X958347Y824532D01*
X958062Y824627D01*
X957871D01*
X957586Y824532D01*
X957395Y824342D01*
X957300Y824056D01*
Y823770D01*
X957395Y823485D01*
X957490Y823390D01*
X957681Y823294D01*
X959300Y825075D02*
X957300D01*
X959300D02*
X957300Y825837D01*
X959300Y826598D02*
X957300Y825837D01*
X959300Y826598D02*
X957300D01*
X959600Y810000D02*
X957600Y810762D01*
X959600Y811524D02*
X957600Y810762D01*
X959600Y811971D02*
X959504Y812066D01*
X959600Y812161D01*
X959695Y812066D01*
X959600Y811971D01*
X958933Y812066D02*
X957600D01*
X959600Y813656D02*
X957600D01*
X958647D02*
X958838Y813466D01*
X958933Y813276D01*
Y812990D01*
X958838Y812799D01*
X958647Y812609D01*
X958362Y812514D01*
X958171D01*
X957886Y812609D01*
X957695Y812799D01*
X957600Y812990D01*
Y813276D01*
X957695Y813466D01*
X957886Y813656D01*
X958362Y814190D02*
Y815332D01*
X958552D01*
X958743Y815237D01*
X958838Y815142D01*
X958933Y814951D01*
Y814666D01*
X958838Y814475D01*
X958647Y814285D01*
X958362Y814190D01*
X958171D01*
X957886Y814285D01*
X957695Y814475D01*
X957600Y814666D01*
Y814951D01*
X957695Y815142D01*
X957886Y815332D01*
X958933Y816237D02*
X958838Y816046D01*
X958647Y815856D01*
X958362Y815761D01*
X958171D01*
X957886Y815856D01*
X957695Y816046D01*
X957600Y816237D01*
Y816522D01*
X957695Y816713D01*
X957886Y816903D01*
X958171Y816998D01*
X958362D01*
X958647Y816903D01*
X958838Y816713D01*
X958933Y816522D01*
Y816237D01*
X959872Y801923D02*
X959967Y802114D01*
X960157Y802304D01*
X960348Y802400D01*
X960729D01*
X960919Y802304D01*
X961110Y802114D01*
X961205Y801923D01*
X961300Y801638D01*
Y801162D01*
X961205Y800876D01*
X961110Y800686D01*
X960919Y800495D01*
X960729Y800400D01*
X960348D01*
X960157Y800495D01*
X959967Y800686D01*
X959872Y800876D01*
Y801162D01*
X960348D02*
X959872D01*
X959415Y802400D02*
Y800400D01*
Y802400D02*
X958082Y800400D01*
Y802400D02*
Y800400D01*
X957529Y802400D02*
Y800400D01*
Y802400D02*
X956863D01*
X956577Y802304D01*
X956387Y802114D01*
X956291Y801923D01*
X956196Y801638D01*
Y801162D01*
X956291Y800876D01*
X956387Y800686D01*
X956577Y800495D01*
X956863Y800400D01*
X957529D01*
D77*
X1032000Y847150D02*
D03*
M02*
