%FSLAX25Y25*%
%MOIN*%
G70*
G01*
G75*
%ADD10C,0.01000*%
%ADD11C,0.02000*%
%ADD12C,0.00800*%
%ADD13R,0.01969X0.02000*%
%ADD14R,0.03000X0.03000*%
%ADD15R,0.02000X0.01969*%
%ADD16R,0.03150X0.00984*%
%ADD17R,0.00984X0.03150*%
%ADD18R,0.00984X0.03150*%
%ADD19R,0.05906X0.05906*%
%ADD20O,0.03150X0.00984*%
%ADD21C,0.00800*%
%ADD22R,0.05906X0.05118*%
%ADD23R,0.02000X0.03150*%
%ADD24R,0.05118X0.05906*%
%ADD25R,0.02756X0.00984*%
%ADD26R,0.00984X0.02756*%
%ADD27R,0.06299X0.06299*%
%ADD28C,0.00700*%
%ADD29C,0.01500*%
%ADD30C,0.02900*%
%ADD31C,0.00600*%
%ADD32C,0.03000*%
%ADD33R,0.00900X0.00700*%
%ADD34R,0.03000X0.02247*%
%ADD35R,0.01600X0.02900*%
%ADD36R,0.07500X0.07700*%
%ADD37R,0.04500X0.03500*%
%ADD38R,0.03900X0.03000*%
%ADD39R,0.07700X0.04600*%
%ADD40R,0.02078X0.02277*%
%ADD41R,0.04100X0.02700*%
%ADD42R,0.04000X0.03000*%
%ADD43R,0.02300X0.04800*%
%ADD44C,0.04724*%
%ADD45C,0.06000*%
%ADD46O,0.09000X0.04500*%
%ADD47C,0.04331*%
%ADD48C,0.01500*%
%ADD49C,0.06200*%
%ADD50R,0.06200X0.06200*%
%ADD51R,0.06000X0.06000*%
%ADD52C,0.02200*%
%ADD53C,0.02400*%
%ADD54C,0.02000*%
%ADD55R,0.08026X0.06000*%
%ADD56R,0.08126X0.05900*%
%ADD57R,0.07700X0.06100*%
%ADD58R,0.05600X0.04400*%
%ADD59R,0.06200X0.05400*%
%ADD60C,0.01200*%
%ADD61R,0.08100X0.04600*%
%ADD62C,0.08661*%
%ADD63C,0.00394*%
%ADD64C,0.00500*%
%ADD65C,0.00787*%
%ADD66C,0.00300*%
%ADD67R,0.03000X0.05500*%
%ADD68R,0.03000X0.05000*%
%ADD69R,0.03000X0.06000*%
%ADD70R,0.03000X0.07000*%
%ADD71R,0.01800X0.07000*%
%ADD72R,0.01800X0.19500*%
%ADD73R,0.19500X0.01800*%
%ADD74R,0.01800X0.19500*%
%ADD75R,0.19500X0.01800*%
%ADD76R,0.07654X0.02619*%
%ADD77R,0.14800X0.14700*%
%ADD78C,0.05500*%
%ADD79C,0.06000*%
%ADD80R,0.06800X0.06800*%
%ADD81R,0.04600X0.76500*%
%ADD82R,0.04900X0.06100*%
%ADD83R,0.04300X0.06500*%
%ADD84R,0.04600X0.06700*%
%ADD85R,0.04300X0.06500*%
%ADD86R,0.07600X0.05100*%
%ADD87R,0.15900X0.08900*%
%ADD88R,0.11700X0.10600*%
%ADD89R,0.11300X0.14000*%
%ADD90R,0.14500X0.14500*%
%ADD91R,0.09300X0.05100*%
%ADD92R,0.01900X0.00800*%
%ADD93R,0.04500X0.03000*%
%ADD94R,0.02768X0.02800*%
%ADD95R,0.03800X0.03800*%
%ADD96R,0.02800X0.02768*%
%ADD97R,0.03950X0.01784*%
%ADD98R,0.01784X0.03950*%
%ADD99R,0.01784X0.03950*%
%ADD100R,0.06706X0.06706*%
%ADD101O,0.03950X0.01784*%
%ADD102C,0.01600*%
%ADD103R,0.06706X0.05918*%
%ADD104R,0.02800X0.03950*%
%ADD105R,0.05918X0.06706*%
%ADD106R,0.03556X0.01784*%
%ADD107R,0.01784X0.03556*%
%ADD108C,0.05524*%
%ADD109C,0.06800*%
%ADD110O,0.09800X0.05300*%
%ADD111C,0.05131*%
%ADD112C,0.07000*%
%ADD113R,0.07000X0.07000*%
%ADD114R,0.06800X0.06800*%
%ADD115R,0.08800X0.05000*%
%ADD116R,0.16500X0.10700*%
%ADD117R,0.16600X0.13300*%
%ADD118R,0.09900X0.05200*%
%ADD119C,0.09461*%
%ADD120C,0.00100*%
D66*
X1050747Y862410D02*
X1050366Y863307D01*
X1049671Y863991D01*
X1048767Y864356D01*
X1047792Y864348D01*
X1046894Y863967D01*
X1046210Y863272D01*
X1045844Y862369D01*
X1045852Y861394D01*
X1046232Y860496D01*
X1046926Y859811D01*
X1047830Y859445D01*
X1048805Y859451D01*
X1049703Y859831D01*
X1050388Y860525D01*
X1050755Y861428D01*
X1006748Y863710D02*
X1006366Y864607D01*
X1005671Y865291D01*
X1004767Y865656D01*
X1003792Y865648D01*
X1002894Y865267D01*
X1002210Y864572D01*
X1001844Y863669D01*
X1001852Y862694D01*
X1002232Y861796D01*
X1002926Y861111D01*
X1003830Y860745D01*
X1004805Y860752D01*
X1005703Y861131D01*
X1006388Y861825D01*
X1006755Y862728D01*
X1010048Y886510D02*
X1009666Y887407D01*
X1008971Y888091D01*
X1008067Y888456D01*
X1007092Y888448D01*
X1006194Y888067D01*
X1005510Y887372D01*
X1005144Y886469D01*
X1005152Y885494D01*
X1005532Y884596D01*
X1006226Y883911D01*
X1007130Y883545D01*
X1008105Y883552D01*
X1009003Y883931D01*
X1009688Y884625D01*
X1010055Y885528D01*
X1012047Y875810D02*
X1011666Y876707D01*
X1010971Y877391D01*
X1010067Y877756D01*
X1009092Y877748D01*
X1008194Y877367D01*
X1007510Y876672D01*
X1007144Y875769D01*
X1007152Y874794D01*
X1007532Y873896D01*
X1008226Y873211D01*
X1009130Y872845D01*
X1010105Y872851D01*
X1011003Y873231D01*
X1011688Y873925D01*
X1012055Y874828D01*
X1033613Y871392D02*
X1033312Y872303D01*
X1032642Y872988D01*
X1031738Y873308D01*
X1030786Y873197D01*
X1029979Y872679D01*
X1029484Y871859D01*
X1029399Y870904D01*
X1029744Y870009D01*
X1030448Y869358D01*
X1031366Y869083D01*
X1032312Y869240D01*
X1033092Y869798D01*
X1033547Y870642D01*
X1025848Y872010D02*
X1025466Y872907D01*
X1024771Y873591D01*
X1023867Y873956D01*
X1022892Y873948D01*
X1021994Y873567D01*
X1021310Y872872D01*
X1020944Y871969D01*
X1020952Y870994D01*
X1021332Y870096D01*
X1022026Y869411D01*
X1022930Y869045D01*
X1023905Y869051D01*
X1024803Y869431D01*
X1025488Y870125D01*
X1025855Y871028D01*
X1044093Y868702D02*
X1043591Y869562D01*
X1042774Y870130D01*
X1041793Y870300D01*
X1040833Y870040D01*
X1040071Y869398D01*
X1039652Y868496D01*
X1039653Y867500D01*
X1040074Y866599D01*
X1040836Y865958D01*
X1041797Y865700D01*
X1042778Y865872D01*
X1043594Y866441D01*
X1044094Y867302D01*
D120*
X944000Y799200D02*
Y896200D01*
X1100000Y799200D02*
Y896200D01*
X944000Y799200D02*
Y896200D01*
Y799200D02*
Y896200D01*
X1100000Y799200D02*
Y896200D01*
X957500D02*
X1100000D01*
X1027500Y804700D02*
Y806700D01*
Y804700D02*
X1033500D01*
Y806700D01*
X1027500D02*
X1033500D01*
Y889700D02*
Y891700D01*
X1027500D02*
X1033500D01*
X1027500Y889700D02*
Y891700D01*
Y889700D02*
X1033500D01*
X1082500Y845200D02*
Y851200D01*
Y845200D02*
X1084500D01*
X1082500Y851200D02*
X1084500D01*
Y845200D02*
Y851200D01*
X976500Y845200D02*
Y851200D01*
Y845200D02*
X978500D01*
X976500Y851200D02*
X978500D01*
Y845200D02*
Y851200D01*
Y845200D02*
Y851200D01*
X976500D02*
X978500D01*
X976500Y845200D02*
X978500D01*
X976500D02*
Y851200D01*
X944000Y799200D02*
X954000D01*
X944000Y896200D02*
X957500D01*
X954000Y799200D02*
X1100000D01*
Y896200D01*
X944000Y799200D02*
Y896200D01*
X1100000D01*
Y799200D02*
Y896200D01*
X944000Y799200D02*
X1100000D01*
M02*
