%FSLAX25Y25*%
%MOIN*%
G70*
G01*
G75*
%ADD10C,0.01000*%
%ADD11C,0.02000*%
%ADD12C,0.00800*%
%ADD13R,0.01969X0.02000*%
%ADD14R,0.03000X0.03000*%
%ADD15R,0.02000X0.01969*%
%ADD16R,0.03150X0.00984*%
%ADD17R,0.00984X0.03150*%
%ADD18R,0.00984X0.03150*%
%ADD19R,0.05906X0.05906*%
%ADD20O,0.03150X0.00984*%
%ADD21C,0.00800*%
%ADD22R,0.05906X0.05118*%
%ADD23R,0.02000X0.03150*%
%ADD24R,0.05118X0.05906*%
%ADD25R,0.02756X0.00984*%
%ADD26R,0.00984X0.02756*%
%ADD27R,0.06299X0.06299*%
%ADD28C,0.00700*%
%ADD29C,0.01500*%
%ADD30C,0.02900*%
%ADD31C,0.00600*%
%ADD32C,0.03000*%
%ADD33R,0.00900X0.00700*%
%ADD34R,0.03000X0.02247*%
%ADD35R,0.01600X0.02900*%
%ADD36R,0.07500X0.07700*%
%ADD37R,0.04500X0.03500*%
%ADD38R,0.03900X0.03000*%
%ADD39R,0.07700X0.04600*%
%ADD40R,0.02078X0.02277*%
%ADD41R,0.04100X0.02700*%
%ADD42R,0.04000X0.03000*%
%ADD43R,0.02300X0.04800*%
%ADD44C,0.04724*%
%ADD45C,0.06000*%
%ADD46O,0.09000X0.04500*%
%ADD47C,0.04331*%
%ADD48C,0.01500*%
%ADD49C,0.06200*%
%ADD50R,0.06200X0.06200*%
%ADD51R,0.06000X0.06000*%
%ADD52C,0.02200*%
%ADD53C,0.02400*%
%ADD54C,0.02000*%
%ADD55R,0.08026X0.06000*%
%ADD56R,0.08126X0.05900*%
%ADD57R,0.07700X0.06100*%
%ADD58R,0.05600X0.04400*%
%ADD59R,0.06200X0.05400*%
%ADD60C,0.01200*%
%ADD61R,0.08100X0.04600*%
%ADD62C,0.08661*%
%ADD63C,0.00394*%
%ADD64C,0.00500*%
%ADD65C,0.00787*%
%ADD66C,0.00300*%
%ADD67R,0.03000X0.05500*%
%ADD68R,0.03000X0.05000*%
%ADD69R,0.03000X0.06000*%
%ADD70R,0.03000X0.07000*%
%ADD71R,0.01800X0.07000*%
%ADD72R,0.01800X0.19500*%
%ADD73R,0.19500X0.01800*%
%ADD74R,0.01800X0.19500*%
%ADD75R,0.19500X0.01800*%
%ADD76R,0.07654X0.02619*%
%ADD77R,0.14800X0.14700*%
%ADD78C,0.05500*%
%ADD79C,0.06000*%
%ADD80R,0.06800X0.06800*%
%ADD81R,0.04600X0.76500*%
%ADD82R,0.04900X0.06100*%
%ADD83R,0.04300X0.06500*%
%ADD84R,0.04600X0.06700*%
%ADD85R,0.04300X0.06500*%
%ADD86R,0.07600X0.05100*%
%ADD87R,0.15900X0.08900*%
%ADD88R,0.11700X0.10600*%
%ADD89R,0.11300X0.14000*%
%ADD90R,0.14500X0.14500*%
%ADD91R,0.09300X0.05100*%
%ADD92R,0.01900X0.00800*%
%ADD93R,0.04500X0.03000*%
%ADD94R,0.02768X0.02800*%
%ADD95R,0.03800X0.03800*%
%ADD96R,0.02800X0.02768*%
%ADD97R,0.03950X0.01784*%
%ADD98R,0.01784X0.03950*%
%ADD99R,0.01784X0.03950*%
%ADD100R,0.06706X0.06706*%
%ADD101O,0.03950X0.01784*%
%ADD102C,0.01600*%
%ADD103R,0.06706X0.05918*%
%ADD104R,0.02800X0.03950*%
%ADD105R,0.05918X0.06706*%
%ADD106R,0.03556X0.01784*%
%ADD107R,0.01784X0.03556*%
%ADD108C,0.05524*%
%ADD109C,0.06800*%
%ADD110O,0.09800X0.05300*%
%ADD111C,0.05131*%
%ADD112C,0.07000*%
%ADD113R,0.07000X0.07000*%
%ADD114R,0.06800X0.06800*%
%ADD115R,0.08800X0.05000*%
%ADD116R,0.16500X0.10700*%
%ADD117R,0.16600X0.13300*%
%ADD118R,0.09900X0.05200*%
%ADD119C,0.09461*%
%ADD120C,0.00100*%
%ADD121C,0.00200*%
%ADD122R,0.01000X0.02000*%
%ADD123R,0.02000X0.03500*%
%ADD124R,0.02000X0.04500*%
%ADD125R,0.02500X0.04000*%
D13*
X1025847Y867812D02*
D03*
X1021847D02*
D03*
X988347Y864812D02*
D03*
X984347D02*
D03*
X1050247Y856712D02*
D03*
X1054247D02*
D03*
X1054347Y842212D02*
D03*
X1050347D02*
D03*
X1011753Y864204D02*
D03*
X1015753D02*
D03*
X1035547Y824212D02*
D03*
X1039547D02*
D03*
X1023653Y826288D02*
D03*
X1019653D02*
D03*
X1012453Y841188D02*
D03*
X1008453D02*
D03*
X995047Y819712D02*
D03*
X999047D02*
D03*
X1015947Y823812D02*
D03*
X1011947D02*
D03*
X991047Y842712D02*
D03*
X987047D02*
D03*
X1014047Y814212D02*
D03*
X1018047D02*
D03*
X1008053Y824288D02*
D03*
X1004053D02*
D03*
X1054253Y852788D02*
D03*
X1050253D02*
D03*
X1054247Y848812D02*
D03*
X1050247D02*
D03*
X1062047Y858212D02*
D03*
X1058047D02*
D03*
X1010547Y844712D02*
D03*
X1006547D02*
D03*
X1004047Y828212D02*
D03*
X1008047D02*
D03*
X999047Y842712D02*
D03*
X1003047D02*
D03*
X994453Y839188D02*
D03*
X998453D02*
D03*
X1048047Y814212D02*
D03*
X1044047D02*
D03*
X1014047Y819212D02*
D03*
X1018047D02*
D03*
X1047953Y810688D02*
D03*
X1043953D02*
D03*
X995047Y823612D02*
D03*
X999047D02*
D03*
X1050347Y838712D02*
D03*
X1054347D02*
D03*
X1062047Y854912D02*
D03*
X1058047D02*
D03*
X999047Y846212D02*
D03*
X1003047D02*
D03*
X994547Y835712D02*
D03*
X998547D02*
D03*
X994547Y832212D02*
D03*
X998547D02*
D03*
X986947Y819912D02*
D03*
X990947D02*
D03*
X983547Y839212D02*
D03*
X987547D02*
D03*
X987547Y832212D02*
D03*
X983547D02*
D03*
X987047Y846812D02*
D03*
X991047D02*
D03*
X1050953Y829188D02*
D03*
X1046953D02*
D03*
X1005953Y852188D02*
D03*
X1001953D02*
D03*
X993653Y854688D02*
D03*
X997653D02*
D03*
X1005953Y857188D02*
D03*
X1001953D02*
D03*
X987547Y835712D02*
D03*
X983547D02*
D03*
X1054347Y834912D02*
D03*
X1050347D02*
D03*
X1023447Y864212D02*
D03*
X1019447D02*
D03*
X1038647Y818312D02*
D03*
X1042647D02*
D03*
X990947Y823612D02*
D03*
X986947D02*
D03*
X987547Y811612D02*
D03*
X983547D02*
D03*
X1035547Y810712D02*
D03*
X1039547D02*
D03*
X1033453Y874988D02*
D03*
X1029453D02*
D03*
X1025447Y871612D02*
D03*
X1021447D02*
D03*
X1006153Y863188D02*
D03*
X1002153D02*
D03*
X997653Y860188D02*
D03*
X993653D02*
D03*
X1024947Y829912D02*
D03*
X1020947D02*
D03*
X1035453Y828188D02*
D03*
X1039453D02*
D03*
X983547Y815712D02*
D03*
X987547D02*
D03*
X1035547Y814212D02*
D03*
X1039547D02*
D03*
X1022447D02*
D03*
X1026447D02*
D03*
X1033453Y871388D02*
D03*
X1029453D02*
D03*
X1039853Y867988D02*
D03*
X1043853D02*
D03*
X1074447Y871512D02*
D03*
X1078447D02*
D03*
X1043847D02*
D03*
X1039847D02*
D03*
X1058827Y861588D02*
D03*
X1054827D02*
D03*
X1046274Y861716D02*
D03*
X1050274Y861716D02*
D03*
D14*
X1067633Y879577D02*
D03*
Y885077D02*
D03*
X1047716Y824576D02*
D03*
Y819076D02*
D03*
X1066976Y859584D02*
D03*
X1072476D02*
D03*
X1009376Y819584D02*
D03*
X1003876D02*
D03*
X999776Y828184D02*
D03*
X994276D02*
D03*
X983776D02*
D03*
X989276D02*
D03*
X1035760Y867016D02*
D03*
X1030260D02*
D03*
X1003484Y838424D02*
D03*
Y832924D02*
D03*
X1062933Y879577D02*
D03*
Y885077D02*
D03*
X1072267Y879423D02*
D03*
Y884923D02*
D03*
X1004903Y886051D02*
D03*
X1010403D02*
D03*
X1009749Y878003D02*
D03*
Y872503D02*
D03*
D15*
X1063500Y871500D02*
D03*
X1063500Y867500D02*
D03*
X1066800Y871500D02*
D03*
X1066800Y867500D02*
D03*
X1058312Y838153D02*
D03*
Y842153D02*
D03*
X1042988Y824247D02*
D03*
Y828247D02*
D03*
X1021388Y879347D02*
D03*
Y875347D02*
D03*
X995112Y849253D02*
D03*
Y845253D02*
D03*
X982912Y859553D02*
D03*
Y855553D02*
D03*
X1023512Y818153D02*
D03*
Y822153D02*
D03*
X1058288Y850847D02*
D03*
Y846847D02*
D03*
X1058312Y830953D02*
D03*
Y826953D02*
D03*
X990988Y839247D02*
D03*
Y835247D02*
D03*
X1027988Y818247D02*
D03*
Y822247D02*
D03*
X994012Y867953D02*
D03*
Y863953D02*
D03*
X986812Y850553D02*
D03*
Y854553D02*
D03*
X1031988Y828247D02*
D03*
Y824247D02*
D03*
Y815947D02*
D03*
Y819947D02*
D03*
X1016112Y831453D02*
D03*
Y827453D02*
D03*
X982688Y881747D02*
D03*
Y877747D02*
D03*
X1012488Y837747D02*
D03*
Y833747D02*
D03*
X1007988Y836247D02*
D03*
Y832247D02*
D03*
X1054588Y826947D02*
D03*
Y830947D02*
D03*
X1057088Y881747D02*
D03*
Y885747D02*
D03*
X1049388Y881747D02*
D03*
Y885747D02*
D03*
X1045588Y881747D02*
D03*
Y885747D02*
D03*
X1053212Y881753D02*
D03*
Y885753D02*
D03*
X1069900Y867500D02*
D03*
X1069900Y871500D02*
D03*
D16*
X1019847Y854058D02*
D03*
X1044257Y842247D02*
D03*
Y850121D02*
D03*
X1019847Y838310D02*
D03*
Y848153D02*
D03*
Y846184D02*
D03*
Y850121D02*
D03*
Y844216D02*
D03*
X1044257Y846184D02*
D03*
Y844216D02*
D03*
Y838310D02*
D03*
Y854058D02*
D03*
Y852090D02*
D03*
Y856027D02*
D03*
Y840279D02*
D03*
X1019847Y842247D02*
D03*
Y840279D02*
D03*
Y852090D02*
D03*
X1044257Y848153D02*
D03*
D17*
X1035005Y859373D02*
D03*
X1025162D02*
D03*
D18*
X1031068Y859373D02*
D03*
X1029099D02*
D03*
X1033036D02*
D03*
X1023194D02*
D03*
X1040910Y834964D02*
D03*
X1031068D02*
D03*
X1029099D02*
D03*
X1036973Y859373D02*
D03*
X1027131D02*
D03*
X1033036Y834964D02*
D03*
X1038942D02*
D03*
X1023194D02*
D03*
X1038942Y859373D02*
D03*
X1036973Y834964D02*
D03*
X1040910Y859373D02*
D03*
X1025162Y834964D02*
D03*
X1035005D02*
D03*
X1027131D02*
D03*
D19*
X1036000Y851200D02*
D03*
Y843200D02*
D03*
X1028000D02*
D03*
Y851200D02*
D03*
D20*
X1019847Y856027D02*
D03*
D21*
X1018000Y859200D02*
D03*
X1047616Y877892D02*
D03*
D22*
X1053900Y820800D02*
D03*
Y813320D02*
D03*
X989500Y874900D02*
D03*
Y882380D02*
D03*
X1015500Y879180D02*
D03*
Y871700D02*
D03*
D23*
X1001026Y881984D02*
D03*
X997226D02*
D03*
X1004726D02*
D03*
X997226Y871984D02*
D03*
X1004726D02*
D03*
D24*
X996920Y813500D02*
D03*
X1004400D02*
D03*
D25*
X1048502Y870609D02*
D03*
Y872577D02*
D03*
Y868640D02*
D03*
X1059722Y870609D02*
D03*
Y872577D02*
D03*
Y868640D02*
D03*
X1048502Y874546D02*
D03*
X1059722D02*
D03*
D26*
X1051159Y877203D02*
D03*
X1055096D02*
D03*
X1051159Y865983D02*
D03*
X1053128Y877203D02*
D03*
X1057065D02*
D03*
X1055096Y865983D02*
D03*
X1057065D02*
D03*
X1053128D02*
D03*
D27*
X1054112Y871593D02*
D03*
D44*
X958526Y806184D02*
D03*
X1078000Y811700D02*
D03*
X958500Y890200D02*
D03*
D45*
X1091984Y844674D02*
D03*
Y834674D02*
D03*
Y884674D02*
D03*
Y814674D02*
D03*
Y824674D02*
D03*
Y854674D02*
D03*
Y864674D02*
D03*
X967484Y875492D02*
D03*
Y867618D02*
D03*
Y859744D02*
D03*
Y836122D02*
D03*
Y828248D02*
D03*
Y891240D02*
D03*
Y883366D02*
D03*
Y812500D02*
D03*
Y820374D02*
D03*
X967484Y851870D02*
D03*
X967484Y843996D02*
D03*
D46*
X1091984Y874674D02*
D03*
D47*
X1070000Y824700D02*
D03*
Y843913D02*
D03*
D48*
X1056474Y869231D02*
D03*
X1054112D02*
D03*
X1051750D02*
D03*
X1051750Y871593D02*
D03*
X1056474D02*
D03*
Y873955D02*
D03*
X1054112D02*
D03*
X1051750D02*
D03*
D49*
X949500Y872700D02*
D03*
Y882700D02*
D03*
Y832700D02*
D03*
Y822700D02*
D03*
Y842700D02*
D03*
Y812700D02*
D03*
Y862700D02*
D03*
Y892700D02*
D03*
Y852700D02*
D03*
D50*
Y802700D02*
D03*
D51*
X967484Y804626D02*
D03*
M02*
