%FSLAX25Y25*%
%MOIN*%
G70*
G01*
G75*
%ADD10C,0.01000*%
%ADD11C,0.02000*%
%ADD12C,0.00800*%
%ADD13R,0.01969X0.02000*%
%ADD14R,0.03000X0.03000*%
%ADD15R,0.02000X0.01969*%
%ADD16R,0.03150X0.00984*%
%ADD17R,0.00984X0.03150*%
%ADD18R,0.00984X0.03150*%
%ADD19R,0.05906X0.05906*%
%ADD20O,0.03150X0.00984*%
%ADD21C,0.00800*%
%ADD22R,0.05906X0.05118*%
%ADD23R,0.02000X0.03150*%
%ADD24R,0.05118X0.05906*%
%ADD25R,0.02756X0.00984*%
%ADD26R,0.00984X0.02756*%
%ADD27R,0.06299X0.06299*%
%ADD28C,0.00700*%
%ADD29C,0.01500*%
%ADD30C,0.02900*%
%ADD31C,0.00600*%
%ADD32C,0.03000*%
%ADD33R,0.00900X0.00700*%
%ADD34R,0.03000X0.02247*%
%ADD35R,0.01600X0.02900*%
%ADD36R,0.07500X0.07700*%
%ADD37R,0.04500X0.03500*%
%ADD38R,0.03900X0.03000*%
%ADD39R,0.07700X0.04600*%
%ADD40R,0.02078X0.02277*%
%ADD41R,0.04100X0.02700*%
%ADD42R,0.04000X0.03000*%
%ADD43R,0.02300X0.04800*%
%ADD44C,0.04724*%
%ADD45C,0.06000*%
%ADD46O,0.09000X0.04500*%
%ADD47C,0.04331*%
%ADD48C,0.01500*%
%ADD49C,0.06200*%
%ADD50R,0.06200X0.06200*%
%ADD51R,0.06000X0.06000*%
%ADD52C,0.02200*%
%ADD53C,0.02400*%
%ADD54C,0.02000*%
%ADD55R,0.08026X0.06000*%
%ADD56R,0.08126X0.05900*%
%ADD57R,0.07700X0.06100*%
%ADD58R,0.05600X0.04400*%
%ADD59R,0.06200X0.05400*%
D10*
X951100Y872700D02*
X951232Y871700D01*
X951618Y870769D01*
X952231Y869969D01*
X952100Y872700D02*
X952177Y871718D01*
X952407Y870760D01*
X952784Y869850D01*
X953299Y869011D01*
X953938Y868262D01*
X952231Y869969D02*
X951431Y870582D01*
X950500Y870968D01*
X949500Y871100D01*
X953938Y868262D02*
X953189Y868901D01*
X952350Y869416D01*
X951440Y869793D01*
X950482Y870023D01*
X949500Y870100D01*
X969984Y843996D02*
X970146Y843183D01*
X970607Y842493D01*
X971063Y842037D02*
X970172Y842630D01*
X969121Y842834D01*
X968072Y842616D01*
X951100Y872700D02*
X951232Y871700D01*
X951618Y870769D01*
X952231Y869969D01*
X952100Y872700D02*
X952177Y871718D01*
X952407Y870760D01*
X952784Y869850D01*
X953299Y869011D01*
X953938Y868262D01*
X952231Y869969D02*
X951431Y870582D01*
X950500Y870968D01*
X949500Y871100D01*
X953938Y868262D02*
X953189Y868901D01*
X952350Y869416D01*
X951440Y869793D01*
X950482Y870023D01*
X949500Y870100D01*
X969984Y843996D02*
X970146Y843183D01*
X970607Y842493D01*
X971063Y842037D02*
X970172Y842630D01*
X969121Y842834D01*
X968072Y842616D01*
X951100Y882700D02*
X951232Y881700D01*
X951618Y880769D01*
X952231Y879969D01*
X952100Y882700D02*
X952177Y881718D01*
X952407Y880760D01*
X952784Y879850D01*
X953299Y879010D01*
X953938Y878261D01*
X952231Y879969D02*
X951431Y880583D01*
X950500Y880968D01*
X949500Y881100D01*
X953938Y878261D02*
X953189Y878901D01*
X952350Y879416D01*
X951440Y879793D01*
X950482Y880023D01*
X949500Y880100D01*
X968984Y851870D02*
X969096Y851024D01*
X969422Y850235D01*
X969942Y849558D01*
X969984Y851870D02*
X970093Y850761D01*
X970417Y849695D01*
X970942Y848712D01*
X971649Y847851D01*
X970294Y849206D02*
X969471Y849838D01*
X968513Y850235D01*
X967484Y850370D01*
X972001Y847499D02*
X971239Y848150D01*
X970384Y848674D01*
X969458Y849057D01*
X968483Y849292D01*
X967484Y849370D01*
X951100Y882700D02*
X951232Y881700D01*
X951618Y880769D01*
X952231Y879969D01*
X952100Y882700D02*
X952177Y881718D01*
X952407Y880760D01*
X952784Y879850D01*
X953299Y879010D01*
X953938Y878261D01*
X952231Y879969D02*
X951431Y880583D01*
X950500Y880968D01*
X949500Y881100D01*
X953938Y878261D02*
X953189Y878901D01*
X952350Y879416D01*
X951440Y879793D01*
X950482Y880023D01*
X949500Y880100D01*
X968984Y851870D02*
X969096Y851024D01*
X969422Y850235D01*
X969942Y849558D01*
X969984Y851870D02*
X970093Y850761D01*
X970417Y849695D01*
X970942Y848712D01*
X971649Y847851D01*
X970294Y849206D02*
X969471Y849838D01*
X968513Y850235D01*
X967484Y850370D01*
X972001Y847499D02*
X971239Y848150D01*
X970384Y848674D01*
X969458Y849057D01*
X968483Y849292D01*
X967484Y849370D01*
X951100Y862700D02*
X951232Y861700D01*
X951618Y860769D01*
X952231Y859969D01*
X952100Y862700D02*
X952177Y861718D01*
X952407Y860760D01*
X952784Y859850D01*
X953299Y859011D01*
X953938Y858261D01*
X952231Y859969D02*
X951431Y860583D01*
X950500Y860968D01*
X949500Y861100D01*
X953938Y858261D02*
X953189Y858901D01*
X952350Y859416D01*
X951440Y859793D01*
X950482Y860023D01*
X949500Y860100D01*
X951100Y862700D02*
X951232Y861700D01*
X951618Y860769D01*
X952231Y859969D01*
X952100Y862700D02*
X952177Y861718D01*
X952407Y860760D01*
X952784Y859850D01*
X953299Y859011D01*
X953938Y858261D01*
X952231Y859969D02*
X951431Y860583D01*
X950500Y860968D01*
X949500Y861100D01*
X953938Y858261D02*
X953189Y858901D01*
X952350Y859416D01*
X951440Y859793D01*
X950482Y860023D01*
X949500Y860100D01*
X967774Y861216D02*
X968802Y861142D01*
X969818Y861320D01*
X970761Y861739D01*
X971573Y862373D01*
X967774Y861216D02*
X968802Y861142D01*
X969818Y861320D01*
X970761Y861739D01*
X971573Y862373D01*
X963908Y862392D02*
X964632Y861817D01*
X965467Y861420D01*
X966371Y861221D01*
X967296Y861232D01*
X970720Y861520D02*
X970175Y860705D01*
X969984Y859744D01*
X962464Y863836D02*
X963255Y863177D01*
X964152Y862673D01*
X965125Y862340D01*
X966143Y862189D01*
X967171Y862224D01*
X963908Y862392D02*
X964632Y861817D01*
X965467Y861420D01*
X966371Y861221D01*
X967296Y861232D01*
X967581Y860235D02*
X968543Y860205D01*
X969464Y860486D01*
X970247Y861047D01*
X970720Y861520D02*
X970175Y860705D01*
X969984Y859744D01*
X967581Y860235D02*
X968543Y860205D01*
X969464Y860486D01*
X970247Y861047D01*
X964984Y859744D02*
X964855Y860726D01*
X964476Y861641D01*
X963873Y862427D01*
X964984Y859744D02*
X964855Y860726D01*
X964476Y861641D01*
X963873Y862427D01*
X952100Y892700D02*
X952164Y891723D01*
X952355Y890763D01*
X952670Y889836D01*
X953103Y888958D01*
X953647Y888144D01*
X954292Y887408D01*
X952100Y892700D02*
X952164Y891723D01*
X952355Y890763D01*
X952670Y889836D01*
X953103Y888958D01*
X953647Y888144D01*
X954292Y887408D01*
X953085Y888615D02*
X952317Y889246D01*
X951440Y889714D01*
X950489Y890003D01*
X949500Y890100D01*
X951100Y892700D02*
X951197Y891711D01*
X951486Y890760D01*
X951954Y889883D01*
X952585Y889115D01*
X951100Y892700D02*
X951197Y891711D01*
X951486Y890760D01*
X951954Y889883D01*
X952585Y889115D01*
X953085Y888615D02*
X952317Y889246D01*
X951440Y889714D01*
X950489Y890003D01*
X949500Y890100D01*
X962464Y863836D02*
X963255Y863177D01*
X964152Y862673D01*
X965125Y862340D01*
X966143Y862189D01*
X967171Y862224D01*
X970582Y866618D02*
X969718Y867191D01*
X968699Y867382D01*
X967686Y867161D01*
X971615Y865585D02*
X970851Y866148D01*
X969954Y866461D01*
X969005Y866494D01*
X968089Y866245D01*
X970582Y866618D02*
X969718Y867191D01*
X968699Y867382D01*
X967686Y867161D01*
X971615Y865585D02*
X970851Y866148D01*
X969954Y866461D01*
X969005Y866494D01*
X968089Y866245D01*
X1059722Y874546D02*
X1065122D01*
X1051159Y867959D02*
X1053200Y870000D01*
X953300Y847300D02*
X957100Y841100D01*
X967300Y838500D02*
X973600Y839000D01*
X982388Y864812D02*
X984347D01*
X984188Y864812D02*
X984347Y864653D01*
X973400Y865600D02*
X979900D01*
X981600D02*
X982388Y864812D01*
X979900Y865600D02*
X981600D01*
X1025100Y834964D02*
Y838300D01*
X1024200Y838400D02*
X1039800D01*
X1041679Y840279D01*
X1044257D01*
X1023200Y839400D02*
Y854727D01*
Y839400D02*
X1024200Y838400D01*
X1019847Y842247D02*
X1023153D01*
X1019847Y840279D02*
X1023021D01*
X1036973Y834964D02*
Y838327D01*
X990700Y809200D02*
X1034000D01*
X1035700Y810900D01*
X988288Y811612D02*
X990700Y809200D01*
X987547Y811612D02*
X988288D01*
X1033200Y817400D02*
X1037600D01*
X1032000Y815700D02*
Y816200D01*
X1037600Y817400D02*
X1038600Y818400D01*
X1032000Y816200D02*
X1033200Y817400D01*
X1042988Y818653D02*
Y824247D01*
X1042647Y818312D02*
X1042988Y818653D01*
X1054347Y831253D02*
Y834912D01*
Y831253D02*
X1054500Y831100D01*
X1018000Y814300D02*
X1021759D01*
X949093Y872259D02*
X954721Y867479D01*
X949941Y873107D02*
X954721Y867479D01*
X948498Y871453D02*
X954721Y867479D01*
X950747Y873702D02*
X954721Y867479D01*
X948014Y870567D02*
X954721Y867479D01*
X951633Y874186D02*
X954721Y867479D01*
X967484Y843996D02*
X973100Y841900D01*
X966968Y842588D02*
X973100Y841900D01*
X968443Y845150D02*
X973100Y841900D01*
X966904Y841564D02*
X973100Y841900D01*
X969295Y845720D02*
X973100Y841900D01*
X961600Y847500D02*
X967484Y843996D01*
X961600Y847500D02*
X967323Y845487D01*
X961600Y847500D02*
X967271Y842511D01*
X961600Y847500D02*
X967500Y846500D01*
X961600Y847500D02*
X965800Y842100D01*
X973100Y841900D02*
X979137Y841800D01*
X969104Y843996D02*
X973100Y841900D01*
X967484Y843996D02*
X969104D01*
X984037Y846700D02*
X987100D01*
X986936D02*
X987047Y846812D01*
X979137Y841800D02*
X984037Y846700D01*
X955600Y861800D02*
X958000Y858900D01*
X955600Y861800D02*
Y866600D01*
X958000Y852800D02*
Y858900D01*
X949500Y872700D02*
X955600Y866600D01*
X958000Y852800D02*
X961600Y847500D01*
X967400Y844100D01*
X949093Y882259D02*
X954721Y877479D01*
X949941Y883107D02*
X954721Y877479D01*
X948498Y881453D02*
X954721Y877479D01*
X950747Y883702D02*
X954721Y877479D01*
X948014Y880567D02*
X954721Y877479D01*
X951633Y884186D02*
X954721Y877479D01*
X961000Y855200D02*
X967484Y851870D01*
X961000Y855200D02*
X967183Y853340D01*
X961000Y855200D02*
X967234Y850391D01*
X961000Y855200D02*
X967500Y854300D01*
X961000Y855200D02*
X965900Y849900D01*
X967484Y851870D02*
X973600Y845900D01*
X966556Y850691D02*
X973600Y845900D01*
X968636Y852831D02*
X973600Y845900D01*
X967600Y849500D02*
X973600Y845900D01*
X969500Y853200D02*
X973600Y845900D01*
X984637Y850100D02*
X986900D01*
X967500Y852000D02*
X975800Y843700D01*
X967500Y851800D02*
X967600Y851900D01*
X978237Y843700D02*
X984637Y850100D01*
X975800Y843700D02*
X978237D01*
X959100Y862200D02*
Y868000D01*
Y862200D02*
X961000Y860300D01*
X955900Y871200D02*
X959100Y868000D01*
X961000Y855200D02*
Y860300D01*
X955900Y871200D02*
Y876300D01*
X949500Y882700D02*
X955900Y876300D01*
X961000Y855200D02*
X967500Y851800D01*
X967484Y820374D02*
X972900Y821700D01*
X968236Y819076D02*
X972900Y821700D01*
X967291Y821861D02*
X972900Y821700D01*
X969018Y818400D02*
X972900Y821700D01*
X967501Y822874D02*
X972900Y821700D01*
X967500Y820200D02*
X967674Y820374D01*
X969874D02*
X972900Y821700D01*
X967484Y812500D02*
X967800D01*
X967600Y812300D02*
Y812600D01*
X983500Y815712D02*
X983547D01*
X1048588Y834912D02*
X1050347D01*
X1045190Y838310D02*
X1048588Y834912D01*
X1044257Y838310D02*
X1045190D01*
X1059947Y842153D02*
X1070100Y832000D01*
Y824700D02*
Y832000D01*
X1058512Y842153D02*
X1059947D01*
X1044500Y831700D02*
X1047000Y829200D01*
X1043300Y831700D02*
X1044500D01*
X1040910Y834090D02*
X1043300Y831700D01*
X1040910Y834090D02*
Y834964D01*
X949093Y862259D02*
X954721Y857479D01*
X949941Y863107D02*
X954721Y857479D01*
X948498Y861453D02*
X954721Y857479D01*
X950747Y863702D02*
X954721Y857479D01*
X948014Y860567D02*
X954721Y857479D01*
X951633Y864186D02*
X954721Y857479D01*
X962900Y839600D02*
X967484Y836122D01*
X962900Y839600D02*
X967291Y837610D01*
X962900Y839600D02*
X967302Y834633D01*
X962900Y839600D02*
X967600Y838500D01*
X962900Y839600D02*
X965500Y834600D01*
X967484Y836122D02*
X973600Y839000D01*
X967778Y834651D02*
X973600Y839000D01*
X967796Y837589D02*
X973600Y839000D01*
X968600Y833900D02*
X973600Y839000D01*
X968339Y838471D02*
X973600Y839000D01*
X974900Y839800D02*
X979400D01*
X962900Y839600D02*
X967300Y838500D01*
X973600Y839000D02*
X974900Y839800D01*
X982200Y842600D02*
X987200D01*
X979400Y839800D02*
X982200Y842600D01*
X955100Y851500D02*
X962900Y839600D01*
X955100Y851500D02*
Y857200D01*
X949500Y862700D02*
X955100Y857200D01*
X1008000Y832200D02*
X1009500D01*
X1008047Y832147D02*
X1008100Y832200D01*
X1008047Y828212D02*
Y832147D01*
X1010900Y833600D02*
X1012700D01*
X1009500Y832200D02*
X1010900Y833600D01*
X973900Y863700D02*
X980000D01*
X983000Y860700D01*
X966412Y862002D02*
X973900Y863700D01*
X966741Y861047D02*
X973900Y863700D01*
X968944Y859744D02*
X973900Y863700D01*
X983400Y858953D02*
X986447D01*
X987900Y857500D01*
X983000Y858800D02*
Y860700D01*
X1002000Y857200D02*
X1002100Y857100D01*
X987900Y857500D02*
X1002200D01*
X968499Y858639D02*
X973900Y863700D01*
X969309Y858035D02*
X973900Y863700D01*
X967484Y859744D02*
X973900Y863700D01*
X967484Y859744D02*
X968944D01*
X951706Y894076D02*
X954404Y887296D01*
X950796Y893639D02*
X954404Y887296D01*
X949961Y893085D02*
X954404Y887296D01*
X949500Y892700D02*
X954404Y887296D01*
X949500Y892200D02*
Y892900D01*
X962143Y864157D02*
X968703Y861927D01*
X962000Y864300D02*
X966556Y859744D01*
X962143Y864157D02*
X968309Y860997D01*
X962143Y864157D02*
X967484Y859744D01*
X962143Y864157D02*
X966409Y858698D01*
X962143Y864157D02*
X965570Y858136D01*
X949073Y892279D02*
X954404Y887296D01*
X949500Y892200D02*
X959600Y882100D01*
X948440Y891501D02*
X954404Y887296D01*
X947917Y890638D02*
X954404Y887296D01*
X959600Y872900D02*
Y882100D01*
X962000Y864300D02*
Y870500D01*
X959600Y872900D02*
X962000Y870500D01*
X967484Y867618D02*
X973400Y865600D01*
X967053Y866181D02*
X973400Y865600D01*
X968356Y868839D02*
X973400Y865600D01*
X967037Y865158D02*
X973400Y865600D01*
X969155Y869478D02*
X973400Y865600D01*
X965518Y867618D02*
X969582D01*
X973400Y865600D01*
X950600Y852700D02*
X951800Y853100D01*
X1054100Y852800D02*
X1054247Y852947D01*
Y856712D01*
X1058047Y854912D02*
Y858212D01*
X1062047D02*
X1065312D01*
X1066900Y859800D01*
X1068362Y825000D02*
X1070100Y829867D01*
X1071649Y824936D01*
X1069337Y824756D02*
X1070100Y829867D01*
X1070665Y824730D01*
X1070000Y824700D02*
X1070100Y829867D01*
X1055096Y877203D02*
Y878796D01*
X1057088Y880788D01*
Y881747D01*
X1059722Y870609D02*
X1063791D01*
X1051159Y877203D02*
Y877841D01*
X1049300Y879700D02*
X1051159Y877841D01*
X1049300Y879700D02*
Y881800D01*
X1048502Y874546D02*
X1050854D01*
X1051800Y873600D01*
X1051159Y865983D02*
Y867959D01*
X1057576Y868640D02*
X1059722D01*
X1056400Y869816D02*
X1057576Y868640D01*
X1057065Y874591D02*
Y877203D01*
X1056174Y873700D02*
X1057065Y874591D01*
X1033036Y859373D02*
Y871436D01*
X1044373Y856027D02*
X1044500Y855900D01*
X1024500Y856027D02*
X1044373D01*
X1044977Y872577D02*
X1048502D01*
X1043900Y871500D02*
X1044977Y872577D01*
X1044750Y870609D02*
X1048502D01*
X1043847Y871512D02*
X1044750Y870609D01*
X1047140Y868640D02*
X1048502D01*
X1043853Y867988D02*
X1046488D01*
X1047140Y868640D01*
X1032712Y871512D02*
X1039847D01*
X1027131Y859373D02*
Y866828D01*
X1026147Y867812D02*
X1027131Y866828D01*
X1022147Y865212D02*
X1023147Y864212D01*
X1022147Y865212D02*
Y867812D01*
X1023147Y864212D02*
X1025162Y862197D01*
Y856189D02*
Y862197D01*
X1019200Y864100D02*
Y864241D01*
X1021388Y868112D02*
X1022000Y867500D01*
X1011900Y873200D02*
X1021388D01*
Y868112D02*
Y875347D01*
X1029453Y871388D02*
Y874988D01*
X1029229Y871612D02*
X1029453Y871388D01*
X1025447Y871612D02*
X1029229D01*
X1038942Y859373D02*
Y862850D01*
X1059722Y872577D02*
X1063623D01*
X994100Y868858D02*
X997226Y871984D01*
X994100Y868300D02*
Y868858D01*
X1023200Y854727D02*
X1024500Y856027D01*
X1006153Y863188D02*
X1008912D01*
X1016073Y856027D01*
X1019847D01*
X1055821Y861384D02*
X1056437Y862000D01*
X1055096Y861496D02*
Y865983D01*
X1040910Y859373D02*
X1041083Y859200D01*
X1046100Y859700D02*
Y861716D01*
X1039853Y864608D02*
X1040910Y863550D01*
X1046100Y861716D02*
X1046274D01*
X1053128Y863828D02*
Y865983D01*
X1051200Y861900D02*
X1053128Y863828D01*
X1051016Y861716D02*
X1051200Y861900D01*
X1050274Y861716D02*
X1051016D01*
X1052800Y859200D02*
X1054900Y861300D01*
Y861600D01*
X1015753Y864204D02*
X1018996D01*
X1023194Y860006D01*
X1045690Y862300D02*
X1046274Y861716D01*
X1040910Y862300D02*
X1045690D01*
X1040910Y856090D02*
Y863550D01*
X1047100Y859200D02*
X1052800D01*
X1046274Y860026D02*
X1047100Y859200D01*
X1046274Y860026D02*
Y861716D01*
D11*
X964483Y821617D02*
X965362Y820943D01*
X966386Y820519D01*
X967484Y820374D01*
X964483Y821617D02*
X965362Y820943D01*
X966386Y820519D01*
X967484Y820374D01*
X963243Y814257D02*
X963959Y813645D01*
X964761Y813154D01*
X965631Y812794D01*
X966546Y812574D01*
X967484Y812500D01*
X963243Y814257D02*
X963959Y813645D01*
X964761Y813154D01*
X965631Y812794D01*
X966546Y812574D01*
X967484Y812500D01*
X1065200Y874800D02*
Y879628D01*
X950065Y830678D02*
X951100Y834100D01*
X950065Y834723D02*
X951100Y834100D01*
X949500Y832700D02*
X951100Y834100D01*
X950065Y830678D02*
X951100Y834100D01*
X950065Y834723D02*
X951100Y834100D01*
X949500Y832700D02*
X958300Y824700D01*
X948638Y830785D02*
X958300Y824700D01*
X950723Y834408D02*
X958300Y824700D01*
X967484Y820374D01*
X958300Y824700D02*
X968556Y822063D01*
X958300Y824700D02*
X966104Y818926D01*
X949500Y832700D02*
X951100Y834100D01*
X949916Y820642D02*
X958200Y816900D01*
X949916Y824758D02*
X958200Y816900D01*
X958000D02*
X967484Y812500D01*
X958000Y816900D02*
X968476Y814237D01*
X958000Y816900D02*
X966178Y810986D01*
X958200Y816900D02*
X965000Y812500D01*
X949500Y822700D02*
X958200Y816900D01*
X989500Y882380D02*
X992820Y885700D01*
X997226Y881984D02*
Y885674D01*
X1004726Y881984D02*
Y885574D01*
Y871984D02*
X1010884D01*
X1012100Y873200D01*
X1063000Y880000D02*
X1067390D01*
X1060500Y885600D02*
X1061177Y884923D01*
X1010700Y885700D02*
X1010800Y885600D01*
X1009800Y878216D02*
Y885700D01*
X1010800Y885600D02*
X1060500D01*
X1061177Y884923D02*
X1072267D01*
X992820Y885700D02*
X1004900D01*
D12*
X967484Y814300D02*
X968481Y814398D01*
X969439Y814689D01*
X970322Y815161D01*
X971096Y815796D01*
X967484Y815100D02*
X968403Y815160D01*
X969306Y815340D01*
X970178Y815636D01*
X971004Y816043D01*
X971770Y816555D01*
X972462Y817162D01*
X970334Y815034D02*
X969764Y814292D01*
X969406Y813427D01*
X969284Y812500D01*
X971700Y816399D02*
X971014Y815564D01*
X970504Y814610D01*
X970190Y813576D01*
X970084Y812500D01*
X967484Y814300D02*
X968481Y814398D01*
X969439Y814689D01*
X970322Y815161D01*
X971096Y815796D01*
X967484Y815100D02*
X968403Y815160D01*
X969306Y815340D01*
X970178Y815636D01*
X971004Y816043D01*
X971770Y816555D01*
X972462Y817162D01*
X970334Y815034D02*
X969764Y814292D01*
X969406Y813427D01*
X969284Y812500D01*
X971700Y816399D02*
X971014Y815564D01*
X970504Y814610D01*
X970190Y813576D01*
X970084Y812500D01*
Y828248D02*
X970227Y827166D01*
X970644Y826157D01*
X971309Y825291D01*
X970587Y826013D02*
X969685Y826700D01*
X968633Y827122D01*
X967507Y827248D01*
X971910Y824690D02*
X971171Y825318D01*
X970341Y825819D01*
X969440Y826180D01*
X968493Y826392D01*
X967525Y826449D01*
X970084Y828248D02*
X970227Y827166D01*
X970644Y826157D01*
X971309Y825291D01*
X970587Y826013D02*
X969685Y826700D01*
X968633Y827122D01*
X967507Y827248D01*
X971910Y824690D02*
X971171Y825318D01*
X970341Y825819D01*
X969440Y826180D01*
X968493Y826392D01*
X967525Y826449D01*
X1099500Y878766D02*
X1098307Y878100D01*
X1060809Y887677D02*
X1060500Y887700D01*
X1060809Y887677D02*
X1060500Y887700D01*
X1059689Y883442D02*
X1060333Y883000D01*
X1059692Y883438D02*
X1060333Y883000D01*
X1089734Y878024D02*
X1088297Y877700D01*
X1081800Y877450D02*
X1080661Y877182D01*
X1079762Y876433D01*
X1088663Y871500D02*
X1089734Y871324D01*
X1075329Y873612D02*
X1074648Y873938D01*
X1073900Y874050D01*
X1098337Y871300D02*
X1099500Y870665D01*
X1079894Y869412D02*
X1080250Y869709D01*
X1077001Y869412D02*
X1077938Y869013D01*
X1078957D01*
X1079894Y869412D01*
X1076532Y869829D02*
X1077001Y869412D01*
X1073900Y868950D02*
X1074667Y869068D01*
X1075364Y869412D01*
X1063356Y869009D02*
X1063900Y868950D01*
X1057568Y860869D02*
X1058037Y862000D01*
X1057747Y862919D01*
X1056981Y863505D01*
X1053966Y879929D02*
X1053763Y879681D01*
X1053965Y879927D02*
X1053763Y879681D01*
X1053504Y878955D01*
X1053763Y879681D02*
X1053504Y878955D01*
X1047700Y879663D02*
X1047731Y879388D01*
X1046789Y879144D01*
X1046195Y878374D01*
X1046198Y877401D01*
X1046797Y876635D01*
X1047740Y876397D01*
X1048631Y876788D01*
X1049095Y877642D01*
X1047700Y879663D02*
X1047731Y879388D01*
X1044977Y874177D02*
X1043846Y873709D01*
X1044977Y874177D02*
X1043844Y873707D01*
X1046488Y866388D02*
X1047620Y866857D01*
X1046488Y866388D02*
X1047621Y866858D01*
X1046202Y863816D02*
X1045690Y863900D01*
X1046202Y863816D02*
X1045690Y863900D01*
X1042472D02*
X1042042Y864681D01*
X1042472Y863900D02*
X1042040Y864683D01*
X1037400Y863278D02*
X1037342Y862850D01*
X1026762Y862197D02*
X1026292Y863330D01*
X1026762Y862197D02*
X1026294Y863328D01*
X1096084Y844674D02*
X1095965Y845655D01*
X1095615Y846579D01*
X1095053Y847393D01*
X1094313Y848048D01*
X1093438Y848508D01*
X1092478Y848744D01*
X1091490D01*
X1090530Y848508D01*
X1089655Y848048D01*
X1088915Y847393D01*
X1088354Y846579D01*
X1088003Y845655D01*
X1087884Y844674D01*
X1088003Y843693D01*
X1088354Y842769D01*
X1088915Y841955D01*
X1089655Y841300D01*
X1090530Y840840D01*
X1091490Y840604D01*
X1092478D01*
X1093438Y840840D01*
X1094313Y841300D01*
X1095053Y841955D01*
X1095615Y842769D01*
X1095965Y843693D01*
X1096084Y844674D01*
X1065312Y856612D02*
X1066338Y856984D01*
X1065312Y856612D02*
X1066338Y856984D01*
X1073265Y843913D02*
X1073105Y844922D01*
X1072641Y845832D01*
X1071919Y846555D01*
X1071008Y847019D01*
X1071003Y847020D02*
X1069971Y847178D01*
X1067241Y842166D02*
X1067936Y841382D01*
X1068843Y840859D01*
X1069870Y840650D01*
X1070909Y840776D01*
X1071856Y841226D01*
X1072611Y841951D01*
X1073097Y842879D01*
X1073265Y843913D01*
X1061080Y843283D02*
X1060412Y843684D01*
X1061079Y843284D02*
X1060412Y843684D01*
X1096084Y834674D02*
X1095965Y835655D01*
X1095615Y836579D01*
X1095053Y837393D01*
X1094313Y838048D01*
X1093438Y838508D01*
X1092478Y838744D01*
X1091490D01*
X1090530Y838508D01*
X1089655Y838048D01*
X1088915Y837393D01*
X1088354Y836579D01*
X1088003Y835655D01*
X1087884Y834674D01*
X1088003Y833693D01*
X1088354Y832769D01*
X1088915Y831955D01*
X1089655Y831300D01*
X1090530Y830840D01*
X1091490Y830604D01*
X1092478D01*
X1093438Y830840D01*
X1094313Y831300D01*
X1095053Y831955D01*
X1095615Y832769D01*
X1095965Y833693D01*
X1096084Y834674D01*
X1071700Y832000D02*
X1071230Y833133D01*
X1071700Y832000D02*
X1071231Y833131D01*
X1073265Y824700D02*
X1072982Y826031D01*
X1067072Y826145D02*
X1066789Y825294D01*
X1066787Y825283D02*
X1066759Y824302D01*
X1067024Y823356D01*
X1067558Y822532D01*
X1068314Y821904D01*
X1069221Y821529D01*
X1070200Y821441D01*
X1071160Y821647D01*
X1072015Y822130D01*
X1072688Y822846D01*
X1073118Y823729D01*
X1073265Y824700D01*
X1059191Y848932D02*
X1057809D01*
X1046931Y852583D02*
X1047719Y852998D01*
X1046931Y852583D02*
X1047718Y852997D01*
X1046658Y852558D02*
X1046931Y852583D01*
X1046658Y852558D02*
X1046931Y852583D01*
X1041582Y841876D02*
X1040547Y841410D01*
X1041582Y841876D02*
X1040546Y841409D01*
X1034000Y807600D02*
X1035133Y808070D01*
X1034000Y807600D02*
X1035131Y808069D01*
X1007803Y886350D02*
X1007700Y885700D01*
X1011447Y875196D02*
X1011212Y875103D01*
X1010884Y869884D02*
X1011165Y869903D01*
X1010884Y869884D02*
X1011165Y869903D01*
X1019500Y859200D02*
X1019149Y860164D01*
X1018260Y860677D01*
X1017250Y860499D01*
X1016590Y859713D01*
Y858687D01*
X1017250Y857901D01*
X1018260Y857723D01*
X1019149Y858236D01*
X1019500Y859200D01*
X1021602Y857470D02*
X1020930Y857619D01*
X1010043Y864320D02*
X1008912Y864788D01*
X1010045Y864318D02*
X1008912Y864788D01*
X992820Y887800D02*
X992016Y887640D01*
X991335Y887185D01*
X992820Y887800D02*
X992014Y887639D01*
X991331Y887181D01*
X953062Y894926D02*
X952538Y895600D01*
X953582Y893690D02*
X953065Y894921D01*
X971090Y885318D02*
X970512Y886131D01*
X969754Y886780D01*
X968863Y887228D01*
X967889Y887446D01*
X966892Y887423D01*
X965930Y887160D01*
X965060Y886672D01*
X964333Y885989D01*
X963793Y885150D01*
X963471Y884206D01*
X963387Y883212D01*
X963546Y882227D01*
X963937Y881310D01*
X964539Y880514D01*
X965314Y879887D01*
X966219Y879466D01*
X967198Y879276D01*
X968194Y879328D01*
Y879328D02*
X969000Y879200D01*
X961200Y882100D02*
X960730Y883233D01*
X961200Y882100D02*
X960731Y883231D01*
X982733Y866730D02*
X982516Y866912D01*
X982731Y866731D02*
X982516Y866912D01*
X990800Y855900D02*
X990639Y855761D01*
X990800Y855900D02*
X990640Y855761D01*
X986767Y856370D02*
X987900Y855900D01*
X982113Y857469D02*
X982882Y857204D01*
X983682Y857353D01*
X986769Y856369D02*
X987900Y855900D01*
X984637Y851700D02*
X983506Y851231D01*
X984637Y851700D02*
X983504Y851230D01*
X982516Y866912D02*
X981600Y867200D01*
X982516Y866912D02*
X981600Y867200D01*
X968194Y879328D02*
X969000Y879200D01*
X963600Y870500D02*
X963130Y871633D01*
X970268Y870628D02*
X969441Y871221D01*
X968493Y871592D01*
X967483Y871718D01*
X966473Y871591D01*
X965525Y871220D01*
X964698Y870626D01*
X964043Y869847D01*
X963600Y868931D01*
Y870500D02*
X963131Y871631D01*
X970480Y856945D02*
X970808Y857344D01*
X968629Y855807D02*
X969628Y856249D01*
X970475Y856939D01*
X971401Y853083D02*
X970985Y854004D01*
X970358Y854795D01*
X969556Y855408D01*
X968629Y855807D01*
X1013025Y843653D02*
X1012487Y843308D01*
X1013025Y843653D02*
X1012487Y843309D01*
X1010388Y835116D02*
X1009769Y834731D01*
X1010388Y835116D02*
X1009767Y834730D01*
X1010088Y830712D02*
X1010633Y831070D01*
X1010088Y830712D02*
X1010631Y831069D01*
X1000537Y838670D02*
X1000850Y839700D01*
X1000537Y838670D02*
X1000850Y839700D01*
X1021412Y823552D02*
X1020892Y823213D01*
X1021412Y823552D02*
X1020893Y823214D01*
X1018047Y821612D02*
X1017450Y821488D01*
X989500Y846250D02*
X989132Y846202D01*
X989500Y846250D02*
X989132Y846202D01*
X979400Y838200D02*
X980531Y838669D01*
X979400Y838200D02*
X980533Y838670D01*
X968629Y832185D02*
X969604Y832613D01*
X970437Y833277D01*
X971070Y834134D01*
X970682Y830814D02*
X970096Y831408D01*
X969402Y831872D01*
X968629Y832185D01*
X971395Y829478D02*
X971102Y830178D01*
X970685Y830811D01*
X947484Y819016D02*
X948486Y818624D01*
X949555Y818500D01*
X944500Y818677D02*
X945270Y819016D01*
X984761Y817812D02*
X984561Y818061D01*
X984761Y817812D02*
X984561Y818060D01*
X989569Y808069D02*
X990700Y807600D01*
X989567Y808070D02*
X990700Y807600D01*
X970823Y810120D02*
X971445Y811440D01*
X964887Y809327D02*
X965693Y808812D01*
X966595Y808498D01*
X967547Y808401D01*
X968495Y808526D01*
X969387Y808869D01*
X970177Y809408D01*
X970820Y810116D01*
X953700Y812700D02*
X953591Y813651D01*
X953269Y814553D01*
X952752Y815358D01*
X952065Y816025D01*
X951246Y816520D01*
X950336Y816816D01*
X949382Y816898D01*
X948434Y816763D01*
X947542Y816416D01*
X947902Y808816D02*
X948893Y808544D01*
X949920Y808521D01*
X950921Y808748D01*
X951838Y809211D01*
X952615Y809882D01*
X953205Y810723D01*
X953574Y811681D01*
X953700Y812700D01*
X945270Y816416D02*
X944500Y816755D01*
Y808677D02*
X944912Y808816D01*
X1046100Y876921D02*
X1046794Y876291D01*
X1047711Y876095D01*
X1048602Y876387D01*
X1049226Y877087D01*
X1046488Y866088D02*
X1047832Y866645D01*
X1046488Y866088D02*
X1047834Y866648D01*
X949200Y852100D02*
X953300Y847300D01*
X951800Y853100D02*
X953300Y847300D01*
X950500Y853500D02*
X953300Y847300D01*
X950200Y852200D02*
X953300Y847300D01*
X951800Y853100D02*
X953300Y847300D01*
X948000Y851800D02*
X953300Y847300D01*
X947400Y851000D02*
X953300Y847300D01*
X950955Y850426D02*
X953300Y847300D01*
X1046658Y854058D02*
X1049312Y856712D01*
X1044257Y854058D02*
X1046658D01*
X1016112Y827453D02*
Y831288D01*
X1016100Y831300D02*
X1016112Y831288D01*
X1016100Y831300D02*
X1018412Y833612D01*
X1022612D01*
X1023194Y834194D01*
Y834964D01*
X984347Y864653D02*
Y864812D01*
Y864053D02*
X988212Y860188D01*
X993653D01*
X1009500Y858000D02*
X1011047Y856453D01*
X1007312Y860188D02*
X1009500Y858000D01*
X997653Y860188D02*
X1007312D01*
X1027131Y832531D02*
Y834964D01*
X1025247Y828147D02*
Y830647D01*
X1027131Y832531D01*
X1023600Y826500D02*
X1025247Y828147D01*
X1024112Y832212D02*
X1025162Y833262D01*
X1021247Y830212D02*
Y830747D01*
X1022712Y832212D01*
X1024112D01*
X1025162Y833262D02*
Y834964D01*
X1009450Y819200D02*
X1013900D01*
X1044257Y848153D02*
X1049353D01*
X1050200Y849000D01*
X1027000Y835200D02*
X1027100Y835300D01*
X1035005Y828695D02*
X1035500Y828200D01*
X1035005Y828695D02*
Y834964D01*
X1011047Y856453D02*
X1015410Y852090D01*
X1019847D01*
X1036973Y831927D02*
Y835100D01*
X1039400Y828100D02*
Y829500D01*
X1036973Y831927D02*
X1039400Y829500D01*
X1047121Y840279D02*
X1048600Y838800D01*
X1050400D01*
X1044257Y840279D02*
X1047121D01*
X1012500Y837700D02*
X1015079Y840279D01*
X1019847D01*
X1012500Y841200D02*
X1013547Y842247D01*
X1019847D01*
X1025162Y859373D02*
Y861338D01*
X1032000Y813700D02*
Y815900D01*
X1029400Y811100D02*
X1032000Y813700D01*
X1017400Y811100D02*
X1029400D01*
X1016000Y812500D02*
X1017400Y811100D01*
X1038942Y833158D02*
Y834964D01*
X1043000Y828200D02*
Y829100D01*
X1038942Y833158D02*
X1043000Y829100D01*
X1053081Y831317D02*
X1054417D01*
X1054417Y831317D02*
X1054600Y831500D01*
X1054347Y831386D02*
X1054417Y831317D01*
X1054300Y831434D02*
X1054347Y831386D01*
X1050953Y829188D02*
X1053081Y831317D01*
X1058483D02*
X1058700Y831100D01*
X1054417Y831317D02*
X1058483D01*
X986700Y850300D02*
X987300D01*
X991700Y854700D01*
X993500D01*
X1032000Y828200D02*
Y830200D01*
X1033036Y831236D01*
Y834964D01*
X967484Y820374D02*
X971300Y821800D01*
X967947Y819487D02*
X971300Y821800D01*
X967252Y821347D02*
X971300Y821800D01*
X968471Y818869D02*
X971300Y821800D01*
X967242Y822158D02*
X971300Y821800D01*
X969124Y818356D02*
X971300Y821800D01*
X967399Y822973D02*
X971300Y821800D01*
X967484Y820374D02*
X969874D01*
X971300Y821800D02*
X986947D01*
X969874Y820374D02*
X971300Y821800D01*
X967484Y812500D02*
X972277Y816977D01*
X968221Y811823D02*
X972277Y816977D01*
X966859Y813281D02*
X972277Y816977D01*
X968882Y811366D02*
X972277Y816977D01*
X966448Y813972D02*
X972277Y816977D01*
X969600Y810989D02*
X972277Y816977D01*
X966121Y814714D02*
X972277Y816977D01*
X974900Y819600D02*
X980900D01*
X983500Y815500D02*
Y817000D01*
X967800Y812500D02*
X974900Y819600D01*
X967600Y812500D02*
X967800D01*
X980900Y819600D02*
X983500Y817000D01*
X967484Y828248D02*
X972378Y824222D01*
X966912Y827428D02*
X972378Y824222D01*
X968178Y828968D02*
X972378Y824222D01*
X966550Y826710D02*
X972378Y824222D01*
X968814Y829462D02*
X972378Y824222D01*
X966279Y825944D02*
X972378Y824222D01*
X969513Y829874D02*
X972378Y824222D01*
X972800Y823800D02*
X979500D01*
X983800Y828100D01*
X968352Y828248D02*
X972800Y823800D01*
X967484Y828248D02*
X968352D01*
X1050300Y832700D02*
Y835200D01*
X1047700Y824550D02*
X1049000Y825850D01*
Y831400D02*
X1050300Y832700D01*
X1058500Y842165D02*
Y842900D01*
X1044257Y844216D02*
X1057184D01*
X1058500Y842165D02*
X1058512Y842153D01*
X1057184Y844216D02*
X1058500Y842900D01*
X1044257Y846184D02*
X1065800Y846200D01*
X1058500Y846184D02*
Y847600D01*
X1065800Y846200D02*
X1070000Y843913D01*
X995500Y849700D02*
X1009100Y849700D01*
X1014600Y844200D01*
X1019847Y844216D01*
X995100Y849300D02*
X995500Y849700D01*
X1015079Y850121D02*
X1019847D01*
X1008000Y857200D02*
X1015079Y850121D01*
X1006000Y857200D02*
X1008000D01*
X1027700Y830900D02*
X1029099Y832299D01*
X1027700Y826500D02*
Y830900D01*
X1023600Y822400D02*
X1027700Y826500D01*
X1029099Y832299D02*
Y834964D01*
X1019912Y820112D02*
X1021953Y822153D01*
X1023512D01*
X1018047Y820112D02*
X1019912D01*
X1023500Y822200D02*
Y822300D01*
X1014800Y846200D02*
X1019847Y846184D01*
X1008800Y852200D02*
X1014800Y846200D01*
X1006000Y852200D02*
X1008800Y852200D01*
X1029900Y830900D02*
X1031068Y832068D01*
X1029900Y825800D02*
Y830900D01*
X1031068Y832068D02*
Y834964D01*
X1028000Y823900D02*
X1029900Y825800D01*
X1028000Y822200D02*
Y823900D01*
X997500Y854700D02*
X1008400D01*
X1014947Y848153D01*
X1019847D01*
X1012300Y833800D02*
X1014500D01*
X1019010Y838310D01*
X1019847D01*
X1044257Y850121D02*
X1047221D01*
X1049488Y852388D02*
X1050253D01*
X1047221Y850121D02*
X1049488Y852388D01*
X1044257Y842247D02*
X1050347D01*
X1050400Y842300D01*
X1049312Y856712D02*
X1058047D01*
X1065800Y846200D02*
X1068884Y842545D01*
X1065800Y846200D02*
X1070544Y845592D01*
X1065800Y846200D02*
X1069455Y843116D01*
X1065800Y846200D02*
X1070374Y844803D01*
X1065800Y846200D02*
X1070000Y843913D01*
X1023194Y859373D02*
Y860006D01*
X1099500Y878766D02*
Y895600D01*
X1074867Y887316D02*
X1099500D01*
X1098874Y878536D02*
Y895600D01*
X1098174Y878100D02*
Y895600D01*
X1097474Y878100D02*
Y895600D01*
X1074867Y886616D02*
X1099500D01*
X1074867Y885916D02*
X1099500D01*
X1074867Y885216D02*
X1099500D01*
X1074867Y884516D02*
X1099500D01*
X1074867Y883816D02*
X1099500D01*
X1074867Y883116D02*
X1099500D01*
X1074867Y882416D02*
X1099500D01*
X1070233Y881716D02*
X1099500D01*
X1070233Y881016D02*
X1099500D01*
X1070233Y880316D02*
X1099500D01*
X1070233Y879616D02*
X1099500D01*
X1070233Y878916D02*
X1099500D01*
X1096774Y878100D02*
Y895600D01*
X1096074Y878100D02*
Y895600D01*
X1074374Y887523D02*
Y895600D01*
X1095374Y878100D02*
Y895600D01*
X1094674Y878100D02*
Y895600D01*
X1073674Y887523D02*
Y895600D01*
X1072974Y887523D02*
Y895600D01*
X1072274Y887523D02*
Y895600D01*
X1071574Y887523D02*
Y895600D01*
X1070874Y887523D02*
Y895600D01*
X1070233Y887523D02*
X1074867D01*
X1070174Y887677D02*
Y895600D01*
X1074867Y882323D02*
Y887523D01*
X1069667Y882323D02*
X1074867D01*
X1069474Y887677D02*
Y895600D01*
X1068774Y887677D02*
Y895600D01*
X1069474Y882177D02*
Y882477D01*
X1068774Y882177D02*
Y882477D01*
X1093974Y878100D02*
Y895600D01*
X1093274Y878100D02*
Y895600D01*
X1092574Y878100D02*
Y895600D01*
X1091874Y878100D02*
Y895600D01*
X1091174Y878100D02*
Y895600D01*
X1090474Y878100D02*
Y895600D01*
X1089774Y878024D02*
Y895600D01*
X1089074Y877958D02*
Y895600D01*
X1088374Y877735D02*
Y895600D01*
X1087674Y877700D02*
Y895600D01*
X1086974Y877700D02*
Y895600D01*
X1086274Y877450D02*
Y895600D01*
X1085574Y877450D02*
Y895600D01*
X1084874Y877450D02*
Y895600D01*
X1070233Y878216D02*
X1098425D01*
X1084174Y877450D02*
Y895600D01*
X1083474Y877450D02*
Y895600D01*
X1082774Y877450D02*
Y895600D01*
X1082074Y877450D02*
Y895600D01*
X1081374Y877414D02*
Y895600D01*
X1080674Y877188D02*
Y895600D01*
X1079974Y876680D02*
Y895600D01*
X1079274Y875945D02*
Y895600D01*
X1078574Y875245D02*
Y895600D01*
X1077874Y874545D02*
Y895600D01*
X1077174Y873845D02*
Y895600D01*
X1075774Y873612D02*
Y895600D01*
X1074374Y874006D02*
Y882323D01*
X1073674Y874050D02*
Y882323D01*
X1075074Y873764D02*
Y895600D01*
X1072974Y874050D02*
Y882323D01*
X1072274Y874050D02*
Y882323D01*
X1070233Y876977D02*
Y882177D01*
X1071574Y874050D02*
Y882323D01*
X1070874Y874050D02*
Y882323D01*
X1068074Y887677D02*
Y895600D01*
X1067374Y887677D02*
Y895600D01*
X1066674Y887677D02*
Y895600D01*
X1065974Y887677D02*
Y895600D01*
X1065274Y887677D02*
Y895600D01*
X1064574Y887677D02*
Y895600D01*
X1063874Y887677D02*
Y895600D01*
X1063174Y887677D02*
Y895600D01*
X1062474Y887677D02*
Y895600D01*
X1065533Y887677D02*
X1070233D01*
X1065033D02*
X1065533D01*
X1065033D02*
X1065533D01*
X1061774D02*
Y895600D01*
X1061074Y887677D02*
Y895600D01*
X1060809Y887677D02*
X1065033D01*
X1059188Y887700D02*
X1060500D01*
X1058974Y887831D02*
Y895600D01*
X1058274Y887831D02*
Y895600D01*
X1057574Y887831D02*
Y895600D01*
X1060374Y887700D02*
Y895600D01*
X1059674Y887700D02*
Y895600D01*
X1056874Y887831D02*
Y895600D01*
X1056174Y887831D02*
Y895600D01*
X1055312Y887831D02*
X1059188D01*
X1055474D02*
Y895600D01*
X1059188Y883500D02*
X1059630D01*
X1054988Y887831D02*
X1055312D01*
X1059188Y883116D02*
X1060107D01*
X1051112Y887837D02*
X1055312D01*
X1054988Y887700D02*
X1055312D01*
X1051488Y883500D02*
X1054988D01*
X1051488Y883116D02*
X1054988D01*
X1065533Y882477D02*
X1069667D01*
X1068074Y882177D02*
Y882477D01*
X1067374Y882177D02*
Y882477D01*
X1066674Y882177D02*
Y882477D01*
X1065974Y882177D02*
Y882477D01*
X1065033D02*
X1065533D01*
X1065033D02*
X1065533D01*
X1060333D02*
X1065033D01*
X1065274Y882177D02*
Y882477D01*
X1065533Y882177D02*
X1070233D01*
X1065033D02*
X1065533D01*
X1065033D02*
X1065533D01*
X1065033Y882100D02*
X1065533D01*
X1064574Y882177D02*
Y882477D01*
X1063874Y882177D02*
Y882477D01*
X1063174Y882177D02*
Y882477D01*
X1060333Y882177D02*
X1065033D01*
X1062474D02*
Y882477D01*
X1061774Y882177D02*
Y882477D01*
X1061074Y882177D02*
Y882477D01*
X1060333D02*
Y883000D01*
X1060374Y882177D02*
Y882477D01*
X1060333Y876977D02*
Y882177D01*
X1059188Y881716D02*
X1060333D01*
X1059188Y881016D02*
X1060333D01*
X1059188Y880316D02*
X1060333D01*
X1059188Y879663D02*
Y883500D01*
X1058179Y879616D02*
X1060333D01*
X1058226Y879663D02*
X1059188D01*
X1058974Y876138D02*
Y879663D01*
X1058274Y876138D02*
Y879663D01*
X1057479Y878916D02*
X1060333D01*
X1056696Y878133D02*
X1058218Y879655D01*
X1056779Y878216D02*
X1060333D01*
X1057574Y876138D02*
Y879011D01*
X1090100Y878100D02*
X1098307D01*
X1089734Y878024D02*
X1090100D01*
X1086500Y877700D02*
X1088297D01*
X1086500Y877450D02*
Y877700D01*
X1081800Y877450D02*
X1086500D01*
X1070233Y877516D02*
X1086500D01*
X1067300Y876816D02*
X1080117D01*
X1086500Y871500D02*
X1088663D01*
X1090100Y871300D02*
X1098337D01*
X1086500Y871500D02*
Y872250D01*
X1089734Y871324D02*
X1090100D01*
X1082792Y872250D02*
X1086500D01*
X1076941Y873612D02*
X1079762Y876433D01*
X1081757Y871216D02*
X1098425D01*
X1082457Y871916D02*
X1086500D01*
X1070174Y874050D02*
Y876977D01*
X1069474Y874050D02*
Y876977D01*
X1068774Y874050D02*
Y876977D01*
X1068074Y874050D02*
Y876977D01*
X1067374Y874050D02*
Y876977D01*
X1067300Y876116D02*
X1079445D01*
X1067300Y876977D02*
X1070233D01*
X1067300Y874800D02*
Y876977D01*
Y874050D02*
Y876977D01*
X1074317Y874016D02*
X1077345D01*
X1076532Y873612D02*
X1076941D01*
X1075329D02*
X1076363D01*
X1076644Y873315D02*
X1076941Y873612D01*
X1076532Y873195D02*
Y873612D01*
X1067300Y875416D02*
X1078745D01*
X1067300Y874716D02*
X1078045D01*
X1067300Y874050D02*
X1073900D01*
X1081057Y870516D02*
X1099500D01*
X1080532Y869990D02*
X1082792Y872250D01*
X1080532Y869816D02*
X1099500D01*
X1080532Y869412D02*
Y869990D01*
X1080250Y869709D02*
X1080532Y869990D01*
X1079894Y869412D02*
X1080532D01*
X1079320Y869116D02*
X1099500D01*
X1069576Y862116D02*
X1099500D01*
X1074804Y869116D02*
X1077575D01*
X1069576Y861416D02*
X1099500D01*
X1069576Y860716D02*
X1099500D01*
X1069576Y860016D02*
X1099500D01*
X1069576Y859316D02*
X1099500D01*
X1069576Y858616D02*
X1099500D01*
X1069576Y857916D02*
X1099500D01*
X1076532Y869412D02*
X1077001D01*
X1076532D02*
Y869829D01*
X1075364Y869412D02*
X1076363D01*
X1069474Y862184D02*
Y868950D01*
X1068774Y862184D02*
Y868950D01*
X1068074Y862184D02*
Y868950D01*
X1067374Y862184D02*
Y868950D01*
X1066674Y862184D02*
Y868950D01*
X1065974Y862184D02*
Y868950D01*
X1065274Y862184D02*
Y868950D01*
X1064574Y862184D02*
Y868950D01*
X1064376Y862184D02*
X1069576D01*
X1064376Y859812D02*
Y862184D01*
X1064132Y859812D02*
Y860312D01*
Y860016D02*
X1064376D01*
X1060333Y876977D02*
X1061000D01*
Y876146D02*
Y876977D01*
X1060374Y876146D02*
Y876977D01*
X1059722Y876146D02*
X1061000D01*
X1057244Y876138D02*
X1059564D01*
X1056688Y876816D02*
X1061000D01*
X1056696Y877516D02*
X1060333D01*
X1056688Y876116D02*
X1057244D01*
Y874169D02*
Y876138D01*
X1063900Y868950D02*
X1073900D01*
X1059722Y869009D02*
X1063356D01*
X1058657Y868416D02*
X1099500D01*
X1058274Y868461D02*
Y869016D01*
X1056688Y875416D02*
X1057244D01*
X1031537Y874716D02*
X1057244D01*
Y869016D02*
X1059564D01*
X1057574Y868461D02*
Y869016D01*
X1057244Y872954D02*
Y874169D01*
Y872954D02*
Y874169D01*
X1056696Y877203D02*
Y878133D01*
X1057244Y872201D02*
Y872954D01*
X1056874Y868461D02*
Y878311D01*
X1056688Y874725D02*
Y877045D01*
X1053504Y874725D02*
X1056688D01*
X1050980Y874016D02*
X1057244D01*
X1050980Y873316D02*
X1057244D01*
X1050980Y872616D02*
X1057244D01*
X1050980Y871916D02*
X1057244D01*
Y870985D02*
Y872201D01*
Y870985D02*
Y872201D01*
Y869016D02*
Y870985D01*
X1050980Y871216D02*
X1057244D01*
X1050980Y870516D02*
X1057244D01*
X1050980Y869816D02*
X1057244D01*
X1050980Y869116D02*
X1057244D01*
X1063874Y860312D02*
Y868950D01*
X1063174Y860312D02*
Y869009D01*
X1062474Y860312D02*
Y869009D01*
X1061774Y860312D02*
Y869009D01*
X1061074Y860312D02*
Y869009D01*
X1058657Y867716D02*
X1099500D01*
X1058657Y867016D02*
X1099500D01*
X1058657Y866316D02*
X1099500D01*
X1058657Y865616D02*
X1099500D01*
X1058657Y864916D02*
X1099500D01*
X1058657Y864216D02*
X1099500D01*
X1058657Y863516D02*
X1099500D01*
X1060131Y860312D02*
X1064132D01*
Y859812D02*
X1064376D01*
X1057813Y862816D02*
X1099500D01*
X1058033Y862116D02*
X1064376D01*
X1057926Y861416D02*
X1064376D01*
X1057415Y860716D02*
X1064376D01*
X1056688Y868461D02*
X1058657D01*
Y863505D02*
Y868461D01*
X1056174D02*
Y874725D01*
X1060374Y860312D02*
Y869009D01*
X1058974Y860312D02*
Y869016D01*
X1055472Y868461D02*
X1056688D01*
X1055474D02*
Y874725D01*
X1055472Y868461D02*
X1056688D01*
X1054720D02*
X1055472D01*
X1057574Y863126D02*
Y863505D01*
X1058274Y860312D02*
Y863505D01*
X1057574Y860312D02*
Y860874D01*
X1056981Y863505D02*
X1058657D01*
X1057012Y860312D02*
X1059963D01*
X1057012D02*
X1057568Y860869D01*
X1054774Y887837D02*
Y895600D01*
X1054988Y880951D02*
Y883500D01*
X1054074Y887837D02*
Y895600D01*
X1054774Y880737D02*
Y883500D01*
X1054074Y880037D02*
Y883500D01*
X1053374Y887837D02*
Y895600D01*
X1052674Y887837D02*
Y895600D01*
X1051488Y882416D02*
X1054988D01*
X1052674Y879681D02*
Y883500D01*
X1053966Y879929D02*
X1054988Y880951D01*
X1053504Y879681D02*
X1053763D01*
X1053504Y879616D02*
X1053722D01*
X1051488Y881716D02*
X1054988D01*
X1051488Y881016D02*
X1054988D01*
X1051488Y880316D02*
X1054353D01*
X1052751Y879616D02*
X1053504D01*
X1051974Y887837D02*
Y895600D01*
X1051274Y887837D02*
Y895600D01*
X1050574Y887831D02*
Y895600D01*
X1049874Y887831D02*
Y895600D01*
X1049174Y887831D02*
Y895600D01*
X1048474Y887831D02*
Y895600D01*
X1047774Y887831D02*
Y895600D01*
X1047074Y887831D02*
Y895600D01*
X1046374Y887831D02*
Y895600D01*
X1051112Y887831D02*
X1051488D01*
X1047688D02*
X1051112D01*
X1047288D02*
X1047688D01*
X1051112Y887700D02*
X1051488D01*
X1047288Y887831D02*
X1047688D01*
X1045674D02*
Y895600D01*
X1044974Y887831D02*
Y895600D01*
X1047288Y887700D02*
X1047688D01*
X1044274Y887831D02*
Y895600D01*
X1053504Y878955D02*
Y879681D01*
X1053496Y877203D02*
Y878796D01*
X1053374Y868461D02*
Y883500D01*
X1051974Y879681D02*
Y883500D01*
X1051488Y879775D02*
Y883500D01*
X1051582Y879681D02*
X1052751D01*
Y877999D02*
Y879681D01*
Y878216D02*
X1053496D01*
X1052759Y877516D02*
X1053496D01*
X1052759Y877203D02*
Y877841D01*
X1053504Y874725D02*
Y877045D01*
X1052751Y874725D02*
Y877045D01*
Y876816D02*
X1053504D01*
X1049095Y877642D02*
X1049559Y877178D01*
X1052751Y876116D02*
X1053504D01*
X1052751Y875416D02*
X1053504D01*
X1047288Y879663D02*
X1047700D01*
X1047288D02*
Y883500D01*
X1047074Y879291D02*
Y883500D01*
X1046374Y878734D02*
Y883500D01*
X1045674Y874177D02*
Y883500D01*
X1044974Y874177D02*
Y883500D01*
X1044274Y874014D02*
Y883500D01*
X1048660Y876816D02*
X1049567D01*
Y874725D02*
Y877045D01*
X1049174Y874169D02*
Y877563D01*
X1048474Y874177D02*
Y876662D01*
X1047774Y874177D02*
Y876400D01*
X1047074Y874177D02*
Y876493D01*
X1046374Y874177D02*
Y877051D01*
X1043574Y887831D02*
Y895600D01*
X1042874Y887700D02*
Y895600D01*
X1042174Y887700D02*
Y895600D01*
X1041474Y887700D02*
Y895600D01*
X1040774Y887700D02*
Y895600D01*
X1040074Y887700D02*
Y895600D01*
X1039374Y887700D02*
Y895600D01*
X1038674Y887700D02*
Y895600D01*
X1037974Y887700D02*
Y895600D01*
X1037274Y887700D02*
Y895600D01*
X1043488Y887831D02*
X1047288D01*
X1036574Y887700D02*
Y895600D01*
X1035874Y887700D02*
Y895600D01*
X1035174Y887700D02*
Y895600D01*
X1034474Y887700D02*
Y895600D01*
X1033774Y887700D02*
Y895600D01*
X1033074Y887700D02*
Y895600D01*
X1032374Y887700D02*
Y895600D01*
X1031674Y887700D02*
Y895600D01*
X1030974Y887700D02*
Y895600D01*
X1030274Y887700D02*
Y895600D01*
X1029574Y887700D02*
Y895600D01*
X1028874Y887700D02*
Y895600D01*
X1028174Y887700D02*
Y895600D01*
X1027474Y887700D02*
Y895600D01*
X1026774Y887700D02*
Y895600D01*
X1026074Y887700D02*
Y895600D01*
X1030974Y877088D02*
Y883500D01*
X1030274Y877088D02*
Y883500D01*
X1025374Y887700D02*
Y895600D01*
X1029574Y877088D02*
Y883500D01*
X1028874Y877088D02*
Y883500D01*
X1024674Y887700D02*
Y895600D01*
X1023974Y887700D02*
Y895600D01*
X1023274Y887700D02*
Y895600D01*
Y877431D02*
Y883500D01*
X1043574Y873612D02*
Y883500D01*
X1042874Y873612D02*
Y883500D01*
X1042174Y873612D02*
Y883500D01*
X1041474Y873612D02*
Y883500D01*
X1040774Y873612D02*
Y883500D01*
X1040074Y873612D02*
Y883500D01*
X1039374Y873612D02*
Y883500D01*
X1038674Y873612D02*
Y883500D01*
X1037974Y873612D02*
Y883500D01*
X1037274Y873112D02*
Y883500D01*
X1035174Y873488D02*
Y883500D01*
X1034474Y873488D02*
Y883500D01*
X1036574Y873112D02*
Y883500D01*
X1035874Y873112D02*
Y883500D01*
X1031537Y876116D02*
X1049567D01*
X1031537Y876816D02*
X1046571D01*
X1031537Y875416D02*
X1049567D01*
X1033774Y873488D02*
Y883500D01*
X1033074Y873488D02*
Y883500D01*
X1028174Y877088D02*
Y883500D01*
X1027474Y877088D02*
Y883500D01*
X1032374Y873488D02*
Y883500D01*
X1031674Y873488D02*
Y883500D01*
X1026774Y873712D02*
Y883500D01*
X1026074Y873712D02*
Y883500D01*
X1025374Y873712D02*
Y883500D01*
X1024674Y873712D02*
Y883500D01*
X1027369Y877088D02*
X1031537D01*
Y873488D02*
Y877088D01*
X1027369Y873712D02*
Y877088D01*
X1023974Y873712D02*
Y883500D01*
X1023488Y876816D02*
X1027369D01*
X1023488Y876116D02*
X1027369D01*
X1023488Y875416D02*
X1027369D01*
X1023488Y873712D02*
Y877431D01*
X1054774Y868461D02*
Y874725D01*
X1054074Y868461D02*
Y874725D01*
X1050980Y872201D02*
Y874169D01*
X1052674Y868461D02*
Y874725D01*
X1051974Y868461D02*
Y874725D01*
X1049567D02*
X1052751D01*
X1048660Y874169D02*
X1050980D01*
Y870985D02*
Y872201D01*
Y870985D02*
Y872201D01*
X1053504Y868461D02*
X1054720D01*
X1053504D02*
X1054720D01*
X1050980Y870232D02*
Y870985D01*
X1051535Y868461D02*
X1053504D01*
X1051535Y866141D02*
Y868461D01*
X1050980Y868416D02*
X1051535D01*
X1050980Y867716D02*
X1051535D01*
X1047779Y867016D02*
X1051535D01*
X1045937Y866316D02*
X1051535D01*
X1050574Y874169D02*
Y874725D01*
X1049874Y874169D02*
Y874725D01*
X1044977Y874177D02*
X1048502D01*
X1050980Y869016D02*
Y870232D01*
X1041932Y873612D02*
X1043749D01*
X1037763D02*
X1041763D01*
X1037763Y873112D02*
Y873612D01*
X1050980Y869016D02*
Y870232D01*
Y867048D02*
Y869016D01*
X1048660Y867048D02*
X1050980D01*
X1047803Y867040D02*
X1048502D01*
X1047621Y866858D02*
X1047803Y867040D01*
X1045937Y866388D02*
X1046488D01*
X1045937Y865888D02*
Y866388D01*
X1051274Y864237D02*
Y874725D01*
X1051528Y864490D02*
Y865983D01*
X1050574Y863816D02*
Y867048D01*
X1049874Y863816D02*
Y867048D01*
X1049174Y863816D02*
Y867048D01*
X1048474Y863816D02*
Y867040D01*
X1047774Y863816D02*
Y867011D01*
X1047074Y863816D02*
Y866499D01*
X1046374Y863816D02*
Y866388D01*
X1050853Y863816D02*
X1051528Y864490D01*
X1048190Y863816D02*
X1050853D01*
X1046202Y863816D02*
X1048190D01*
X1041900Y865616D02*
X1051528D01*
X1041937Y865888D02*
X1045937D01*
X1041900Y864916D02*
X1051528D01*
X1042365Y864216D02*
X1051253D01*
X1045674Y863900D02*
Y865888D01*
X1044974Y863900D02*
Y865888D01*
X1044274Y863900D02*
Y865888D01*
X1043574Y863900D02*
Y865888D01*
X1042874Y863900D02*
Y865888D01*
X1042174Y864531D02*
Y865888D01*
X1041900Y864823D02*
Y865888D01*
X1042472Y863900D02*
X1045690D01*
X1037400Y863278D02*
Y864400D01*
X1037274Y857627D02*
Y864400D01*
X1037342Y859373D02*
Y862850D01*
X1036574Y862048D02*
Y864400D01*
X1037350Y857627D02*
Y859215D01*
X1036597Y857627D02*
Y862048D01*
X1031537Y874016D02*
X1044277D01*
X1035537Y873316D02*
X1037763D01*
X1031537Y873488D02*
X1035537D01*
Y873112D02*
X1037763D01*
X1035537D02*
Y873488D01*
X1027369Y869288D02*
X1031369D01*
X1023932Y869116D02*
X1031436D01*
X1023932Y868416D02*
X1031436D01*
X1023932Y867716D02*
X1031436D01*
X1035300Y864400D02*
X1037400D01*
X1034636Y864416D02*
X1035300D01*
X1025531Y865616D02*
X1031436D01*
X1034636Y864216D02*
X1037400D01*
X1034636Y863516D02*
X1037400D01*
X1023932Y867016D02*
X1031436D01*
X1023932Y866316D02*
X1031436D01*
X1025531Y864916D02*
X1031436D01*
X1025531Y864216D02*
X1031436D01*
X1023488Y874716D02*
X1027369D01*
Y873488D02*
Y873712D01*
Y873212D02*
Y873488D01*
Y873212D02*
Y873488D01*
Y869512D02*
Y870012D01*
X1023488Y874016D02*
X1027369D01*
X1023532Y873712D02*
X1027369D01*
X1023488Y873263D02*
Y873712D01*
X1023363Y873263D02*
Y873712D01*
X1027369Y869288D02*
Y869512D01*
X1025374Y866312D02*
Y869512D01*
X1024674Y866312D02*
Y869512D01*
X1026074Y863548D02*
Y869512D01*
X1025531Y864090D02*
Y866312D01*
X1023932Y869512D02*
X1027369D01*
X1023974Y866312D02*
Y869512D01*
X1023932Y866312D02*
X1025531D01*
X1023932D02*
Y869512D01*
X1035874Y862048D02*
Y864400D01*
X1034636Y862816D02*
X1037342D01*
X1035174Y862048D02*
Y864416D01*
X1034636Y862116D02*
X1037342D01*
X1034636Y862048D02*
Y864416D01*
X1026106Y863516D02*
X1031436D01*
X1026638Y862816D02*
X1031436D01*
Y862048D02*
Y869288D01*
X1030974Y862048D02*
Y869288D01*
X1036597Y861416D02*
X1037342D01*
X1036597Y860716D02*
X1037342D01*
X1036597Y860016D02*
X1037342D01*
X1036597Y858616D02*
X1037350D01*
X1036597Y857916D02*
X1037350D01*
X1034636Y862048D02*
X1036597D01*
X1030691Y862048D02*
X1031436D01*
X1036597Y857627D02*
X1037350D01*
X1026762Y862116D02*
X1031436D01*
X1030274Y862048D02*
Y869288D01*
X1029476Y862048D02*
X1030691D01*
X1029574D02*
Y869288D01*
X1029476Y862048D02*
X1030691D01*
X1028874D02*
Y869288D01*
X1025531Y864090D02*
X1026292Y863330D01*
X1028174Y862048D02*
Y869288D01*
X1027507Y862048D02*
X1029476D01*
X1026762Y861416D02*
X1027507D01*
X1026762Y860716D02*
X1027507D01*
Y857627D02*
Y862048D01*
X1026762Y860016D02*
X1027507D01*
X1026762Y859316D02*
X1027507D01*
X1026762Y858616D02*
X1027507D01*
X1026762Y857916D02*
X1027507D01*
X1094674Y847768D02*
Y871300D01*
X1095033Y847416D02*
X1099500D01*
X1093974Y848259D02*
Y871300D01*
X1096074Y844963D02*
Y871300D01*
X1095374Y846980D02*
Y871300D01*
X1093274Y848566D02*
Y871300D01*
X1092574Y848731D02*
Y871300D01*
X1094212Y848116D02*
X1099500D01*
X1095858Y846016D02*
X1099500D01*
X1096034Y845316D02*
X1099500D01*
X1096084Y844616D02*
X1099500D01*
X1096014Y843916D02*
X1099500D01*
X1095816Y843216D02*
X1099500D01*
X1095540Y846716D02*
X1099500D01*
X1095470Y842516D02*
X1099500D01*
X1094924Y841816D02*
X1099500D01*
X1094021Y841116D02*
X1099500D01*
X1091874Y848773D02*
Y871300D01*
X1091174Y848693D02*
Y871300D01*
X1090474Y848486D02*
Y871300D01*
X1089774Y848127D02*
Y871324D01*
X1089074Y847562D02*
Y871390D01*
X1088374Y846617D02*
Y871500D01*
X1071574Y846774D02*
Y868950D01*
X1072974Y845261D02*
Y868950D01*
X1072274Y846256D02*
Y868950D01*
X1072948Y845316D02*
X1087935D01*
X1073265Y843916D02*
X1087955D01*
X1073189Y844616D02*
X1087885D01*
X1072952Y842516D02*
X1088498D01*
X1073190Y843216D02*
X1088152D01*
X1071675Y846716D02*
X1088429D01*
X1072498Y846016D02*
X1088110D01*
X1071685Y841116D02*
X1089947D01*
X1072503Y841816D02*
X1089045D01*
X1098174Y799700D02*
Y871300D01*
X1097474Y799700D02*
Y871300D01*
X1096774Y799700D02*
Y871300D01*
X1087674Y799700D02*
Y871500D01*
X1086974Y799700D02*
Y871500D01*
X1086274Y799700D02*
Y872250D01*
X1085574Y799700D02*
Y872250D01*
X1084874Y799700D02*
Y872250D01*
X1084174Y799700D02*
Y872250D01*
X1096074Y834963D02*
Y844385D01*
X1095374Y836980D02*
Y842368D01*
X1094674Y837768D02*
Y841580D01*
X1099500Y799800D02*
Y870665D01*
X1098874Y799700D02*
Y870896D01*
X1093974Y838259D02*
Y841089D01*
X1089774Y838127D02*
Y841221D01*
X1089074Y837562D02*
Y841786D01*
X1088374Y836617D02*
Y842731D01*
X1083474Y799700D02*
Y872250D01*
X1082774Y799700D02*
Y872232D01*
X1082074Y799700D02*
Y871532D01*
X1081374Y799700D02*
Y870832D01*
X1080674Y799700D02*
Y870132D01*
X1079974Y799700D02*
Y869412D01*
X1079274Y799700D02*
Y869100D01*
X1077874Y799700D02*
Y869027D01*
X1075774Y799700D02*
Y869412D01*
X1078574Y799700D02*
Y868965D01*
X1077174Y799700D02*
Y869302D01*
X1075074Y799700D02*
Y869236D01*
X1074374Y799700D02*
Y868994D01*
X1072274Y828284D02*
Y841569D01*
X1071574Y832622D02*
Y841052D01*
X1073674Y799700D02*
Y868950D01*
X1072974Y826056D02*
Y842564D01*
X1069576Y856984D02*
Y862184D01*
Y857216D02*
X1099500D01*
X1066338Y856984D02*
X1069576D01*
X1069474Y847241D02*
Y856984D01*
X1066674Y847600D02*
Y856984D01*
X1064132Y856516D02*
X1099500D01*
X1060131Y855816D02*
X1099500D01*
X1060131Y855116D02*
X1099500D01*
X1060131Y854416D02*
X1099500D01*
X1060131Y853716D02*
X1099500D01*
X1060131Y853016D02*
X1099500D01*
X1056337Y852316D02*
X1099500D01*
X1060388Y848816D02*
X1099500D01*
X1060388Y848116D02*
X1089756D01*
X1056337Y851616D02*
X1099500D01*
X1056337Y850916D02*
X1099500D01*
X1052332Y850216D02*
X1099500D01*
X1052332Y849516D02*
X1099500D01*
X1064132Y856612D02*
X1065312D01*
X1065274Y847700D02*
Y856612D01*
X1064574Y847699D02*
Y856612D01*
X1064132Y856112D02*
Y856612D01*
X1060131Y856112D02*
X1064132D01*
X1063874Y847699D02*
Y856112D01*
X1063174Y847698D02*
Y856112D01*
X1062474Y847698D02*
Y856112D01*
X1061774Y847697D02*
Y856112D01*
X1060374Y848932D02*
Y856112D01*
X1061074Y847696D02*
Y856112D01*
X1060388Y847696D02*
Y848932D01*
X1060131Y852812D02*
Y856112D01*
X1056337Y852812D02*
X1060131D01*
X1060388Y847696D02*
X1065799Y847700D01*
X1059191Y848932D02*
X1060388D01*
X1070874Y847059D02*
Y868950D01*
X1070174Y847173D02*
Y868950D01*
X1068774Y847331D02*
Y856984D01*
X1068114Y847416D02*
X1088936D01*
X1068074Y847421D02*
Y856984D01*
X1065994Y847687D02*
X1069971Y847178D01*
X1067374Y847511D02*
Y856984D01*
X1065103Y844699D02*
X1067241Y842166D01*
X1066674Y837689D02*
Y842838D01*
X1068074Y836289D02*
Y841276D01*
X1067374Y836989D02*
Y841972D01*
X1062547Y841816D02*
X1067497D01*
X1061847Y842516D02*
X1066946D01*
X1061080Y843283D02*
X1071230Y833133D01*
X1063247Y841116D02*
X1068315D01*
X1063174Y841189D02*
Y844698D01*
X1062474Y841889D02*
Y844698D01*
X1061774Y842589D02*
Y844697D01*
X1064574Y839789D02*
Y844699D01*
X1063874Y840489D02*
Y844699D01*
X1058826Y844695D02*
X1065103Y844699D01*
X1058906Y844616D02*
X1065174D01*
X1061074Y843289D02*
Y844697D01*
X1060374Y844237D02*
Y844696D01*
X1061147Y843216D02*
X1066355D01*
X1060412Y843684D02*
Y844237D01*
X1065974Y838389D02*
Y843668D01*
X1065274Y839089D02*
Y844497D01*
X1060412Y843916D02*
X1065765D01*
X1059284Y844237D02*
X1060412D01*
X1093868Y838316D02*
X1099500D01*
X1094840Y837616D02*
X1099500D01*
X1095417Y836916D02*
X1099500D01*
X1095783Y836216D02*
X1099500D01*
X1095997Y835516D02*
X1099500D01*
X1092574Y838731D02*
Y840617D01*
X1091874Y838772D02*
Y840576D01*
X1093274Y838566D02*
Y840782D01*
X1096082Y834816D02*
X1099500D01*
X1096046Y834116D02*
X1099500D01*
X1095886Y833416D02*
X1099500D01*
X1095586Y832716D02*
X1099500D01*
X1095106Y832016D02*
X1099500D01*
X1094336Y831316D02*
X1099500D01*
X1092568Y830616D02*
X1099500D01*
X1071762Y829916D02*
X1099500D01*
X1071700Y830616D02*
X1091401D01*
X1091174Y838693D02*
Y840655D01*
X1090474Y838486D02*
Y840862D01*
X1069547Y834816D02*
X1087887D01*
X1070874Y833489D02*
Y840766D01*
X1070174Y834189D02*
Y840652D01*
X1068147Y836216D02*
X1088185D01*
X1068774Y835589D02*
Y840886D01*
X1068847Y835516D02*
X1087971D01*
X1069474Y834889D02*
Y840690D01*
X1071531Y832716D02*
X1088382D01*
X1071700Y832016D02*
X1088863D01*
X1071700Y831316D02*
X1089632D01*
X1071700Y830112D02*
Y832000D01*
X1070247Y834116D02*
X1087922D01*
X1070947Y833416D02*
X1088082D01*
X1068500Y830144D02*
Y831337D01*
X1096074Y799700D02*
Y834385D01*
X1095374Y799700D02*
Y832368D01*
X1094674Y799700D02*
Y831580D01*
X1093974Y799700D02*
Y831089D01*
X1093274Y799700D02*
Y830782D01*
X1071982Y829216D02*
X1099500D01*
X1072201Y828516D02*
X1099500D01*
X1072421Y827816D02*
X1099500D01*
X1092574Y799700D02*
Y830617D01*
X1072861Y826416D02*
X1099500D01*
X1073103Y825716D02*
X1099500D01*
X1073250Y825016D02*
X1099500D01*
X1073243Y824316D02*
X1099500D01*
X1073080Y823616D02*
X1099500D01*
X1072641Y827116D02*
X1099500D01*
X1072735Y822916D02*
X1099500D01*
X1072119Y822216D02*
X1099500D01*
X1070723Y821516D02*
X1099500D01*
X1091874Y799700D02*
Y830575D01*
X1091174Y799700D02*
Y830655D01*
X1090474Y799700D02*
Y830862D01*
X1089774Y799700D02*
Y831221D01*
X1089074Y799700D02*
Y831786D01*
X1071700Y830112D02*
X1072982Y826031D01*
X1068074Y828951D02*
Y831763D01*
X1088374Y799700D02*
Y832731D01*
X1072974Y799700D02*
Y823352D01*
X1072274Y799700D02*
Y822357D01*
X1071574Y799700D02*
Y821839D01*
X1070874Y799700D02*
Y821554D01*
X1070174Y799700D02*
Y821439D01*
X1069474Y799700D02*
Y821477D01*
X1068774Y799700D02*
Y821673D01*
X1068074Y799700D02*
Y822063D01*
X1065347Y839016D02*
X1099500D01*
X1066047Y838316D02*
X1090101D01*
X1066747Y837616D02*
X1089128D01*
X1067447Y836916D02*
X1088551D01*
X1067374Y826991D02*
Y832463D01*
X1063947Y840416D02*
X1099500D01*
X1064647Y839716D02*
X1099500D01*
X1059769Y840069D02*
X1068500Y831337D01*
X1060412Y832016D02*
X1067822D01*
X1060412Y831316D02*
X1068500D01*
X1060412Y830616D02*
X1068500D01*
X1060412Y829916D02*
X1068419D01*
X1067072Y826145D02*
X1068500Y830144D01*
X1060412Y829216D02*
X1068169D01*
X1056688Y828516D02*
X1067919D01*
X1056688Y827816D02*
X1067669D01*
X1056688Y827116D02*
X1067418D01*
X1056688Y826416D02*
X1067169D01*
X1056431Y836216D02*
X1063622D01*
X1056431Y835516D02*
X1064322D01*
X1056431Y836916D02*
X1062922D01*
X1056431Y834816D02*
X1065022D01*
X1060374Y833037D02*
Y839463D01*
X1052431Y838316D02*
X1061522D01*
X1052431Y839016D02*
X1060822D01*
X1056431Y834116D02*
X1065722D01*
X1052431Y837616D02*
X1062222D01*
X1060412Y828868D02*
Y833037D01*
Y832716D02*
X1067122D01*
X1056688Y828868D02*
X1060412D01*
X1057953Y824316D02*
X1066757D01*
X1056431Y833416D02*
X1066422D01*
X1056431Y833037D02*
X1060412D01*
X1056688Y825716D02*
X1066897D01*
X1056688Y825016D02*
X1066750D01*
X1057953Y820816D02*
X1099500D01*
X1057953Y820116D02*
X1099500D01*
X1057953Y819416D02*
X1099500D01*
X1057953Y818716D02*
X1099500D01*
X1057953Y818016D02*
X1099500D01*
X1057953Y817316D02*
X1099500D01*
X1050316Y816616D02*
X1099500D01*
X1050132Y815916D02*
X1099500D01*
X1050132Y815216D02*
X1099500D01*
X1050132Y814516D02*
X1099500D01*
X1050132Y813816D02*
X1099500D01*
X1050132Y813116D02*
X1099500D01*
X1050132Y812416D02*
X1099500D01*
X1046037Y811716D02*
X1099500D01*
X1046037Y811016D02*
X1099500D01*
X1046037Y810316D02*
X1099500D01*
X1046037Y809616D02*
X1099500D01*
X1046037Y808916D02*
X1099500D01*
X1065974Y799700D02*
Y833863D01*
X1066674Y799700D02*
Y833163D01*
X1065274Y799700D02*
Y834563D01*
X1064574Y799700D02*
Y835263D01*
X1063874Y799700D02*
Y835963D01*
X1063174Y799700D02*
Y836663D01*
X1062474Y799700D02*
Y837363D01*
X1061774Y799700D02*
Y838063D01*
X1061074Y799700D02*
Y838763D01*
X1057953Y823616D02*
X1066920D01*
X1067374Y799700D02*
Y822759D01*
X1060374Y799700D02*
Y828868D01*
X1057953Y822216D02*
X1067881D01*
X1057953Y822916D02*
X1067265D01*
X1035279Y808216D02*
X1099500D01*
X1057953Y821516D02*
X1069277D01*
X1059674Y848932D02*
Y852812D01*
X1058974Y849023D02*
Y852812D01*
X1058274Y849083D02*
Y852812D01*
X1057574Y848932D02*
Y852812D01*
X1056874Y848932D02*
Y852812D01*
X1056337Y850688D02*
Y852812D01*
X1052332Y850688D02*
Y850912D01*
X1052337Y850688D02*
X1056337D01*
X1052168D02*
Y850912D01*
X1056188Y848932D02*
X1057809D01*
X1056174Y847693D02*
Y850688D01*
X1056188Y847693D02*
Y848932D01*
X1055474Y847692D02*
Y850688D01*
X1052332Y848816D02*
X1056188D01*
X1052332Y848116D02*
X1056188D01*
X1054774Y847692D02*
Y850688D01*
X1054074Y847691D02*
Y850688D01*
X1048168Y853190D02*
Y853447D01*
X1047719Y852998D02*
X1048168Y853447D01*
X1047737Y853016D02*
X1047994D01*
X1047774Y852795D02*
Y853053D01*
X1041582Y852466D02*
Y854427D01*
X1046692Y851713D02*
X1048168Y853190D01*
X1047074Y852095D02*
Y852617D01*
X1046374Y851713D02*
Y852466D01*
X1045674Y851713D02*
Y852466D01*
X1044974Y851713D02*
Y852466D01*
X1044274Y851713D02*
Y852466D01*
X1043574Y851713D02*
Y852466D01*
X1042874Y851713D02*
Y852466D01*
X1042174Y851713D02*
Y852466D01*
X1059674Y844237D02*
Y844695D01*
X1058826Y844695D02*
X1059284Y844237D01*
X1052431Y842716D02*
X1056212D01*
X1052431Y842516D02*
X1056212D01*
Y840069D02*
Y842716D01*
X1052332Y847690D02*
X1056188Y847693D01*
X1052431Y841816D02*
X1056212D01*
X1052431Y841116D02*
X1056212D01*
X1052431Y840416D02*
X1056212D01*
X1059674Y833037D02*
Y840069D01*
X1058974Y833037D02*
Y840069D01*
X1058274Y833037D02*
Y840069D01*
X1057574Y833037D02*
Y840069D01*
X1056874Y833037D02*
Y840069D01*
X1052431Y839716D02*
X1060122D01*
X1056212Y840069D02*
X1059769D01*
X1056431Y833031D02*
X1056688D01*
X1052431Y837012D02*
X1056431D01*
X1056174D02*
Y842716D01*
X1055474Y837012D02*
Y842716D01*
X1053374Y847691D02*
Y850688D01*
X1054774Y837012D02*
Y842716D01*
X1054074Y837012D02*
Y842716D01*
X1052674Y847690D02*
Y850688D01*
X1052332Y847690D02*
Y850688D01*
X1053374Y837012D02*
Y842716D01*
X1052674Y837012D02*
Y842716D01*
X1052431Y840812D02*
Y842716D01*
Y840112D02*
Y840812D01*
X1056431Y833037D02*
Y837012D01*
X1052431Y840112D02*
Y840812D01*
Y837012D02*
Y840112D01*
Y836612D02*
Y837012D01*
Y836612D02*
Y837012D01*
X1052263Y836612D02*
Y837012D01*
X1025152Y854416D02*
X1041582D01*
Y852466D02*
X1046931D01*
X1025163Y854427D02*
X1041582D01*
Y851713D02*
X1046692D01*
X1041582Y849745D02*
Y851713D01*
X1024800Y853716D02*
X1041582D01*
X1024800Y853016D02*
X1041582D01*
X1024800Y852316D02*
X1047294D01*
X1024800Y851616D02*
X1041582D01*
X1024800Y850916D02*
X1041582D01*
X1024800Y850216D02*
X1041582D01*
Y848529D02*
Y849745D01*
Y848529D02*
Y849745D01*
Y847776D02*
Y848529D01*
X1024800Y849516D02*
X1041582D01*
X1024800Y848816D02*
X1041582D01*
X1024800Y848116D02*
X1041582D01*
X1024800Y847416D02*
X1041582D01*
X1027474Y857627D02*
Y869288D01*
X1041582Y846561D02*
Y847776D01*
X1026774Y857627D02*
Y869512D01*
X1041582Y846561D02*
Y847776D01*
Y845808D02*
Y846561D01*
X1026762Y857627D02*
X1027507D01*
X1026762D02*
Y862197D01*
X1024800Y846716D02*
X1041582D01*
X1024800Y854064D02*
X1025163Y854427D01*
X1024800Y846016D02*
X1041582D01*
Y844592D02*
Y845808D01*
Y844592D02*
Y845808D01*
Y843839D02*
Y844592D01*
Y842624D02*
Y843839D01*
X1024800Y845316D02*
X1041582D01*
X1024800Y844616D02*
X1041582D01*
X1024800Y843916D02*
X1041582D01*
X1024800Y843216D02*
X1041582D01*
X1041474Y841866D02*
Y854427D01*
X1041582Y842624D02*
Y843839D01*
X1040774Y841598D02*
Y854427D01*
X1040074Y840937D02*
Y854427D01*
X1039374Y840237D02*
Y854427D01*
X1038674Y840000D02*
Y854427D01*
X1037974Y840000D02*
Y854427D01*
X1037274Y840000D02*
Y854427D01*
X1036574Y840000D02*
Y854427D01*
X1024800Y842516D02*
X1041582D01*
Y841876D02*
Y842624D01*
X1039137Y840000D02*
X1040546Y841409D01*
X1024800Y841816D02*
X1041234D01*
X1024800Y841116D02*
X1040253D01*
X1024800Y840416D02*
X1039553D01*
X1024863Y840000D02*
X1039137D01*
X1035874D02*
Y854427D01*
X1035174Y840000D02*
Y854427D01*
X1034474Y840000D02*
Y854427D01*
X1033774Y840000D02*
Y854427D01*
X1033074Y840000D02*
Y854427D01*
X1032374Y840000D02*
Y854427D01*
X1031674Y840000D02*
Y854427D01*
X1030974Y840000D02*
Y854427D01*
X1030274Y840000D02*
Y854427D01*
X1029574Y840000D02*
Y854427D01*
X1028874Y840000D02*
Y854427D01*
X1028174Y840000D02*
Y854427D01*
X1027474Y840000D02*
Y854427D01*
X1026774Y840000D02*
Y854427D01*
X1026074Y840000D02*
Y854427D01*
X1025374Y840000D02*
Y854427D01*
X1024800Y840063D02*
Y854064D01*
X1056688Y824863D02*
Y828863D01*
X1056450Y824863D02*
X1056688D01*
X1056431Y832817D02*
Y833031D01*
X1057574Y824459D02*
Y828868D01*
X1056874Y824459D02*
Y828868D01*
X1056212Y833037D02*
X1056431D01*
X1056212Y833031D02*
X1056431D01*
X1056212Y829031D02*
X1056688D01*
X1056212Y828868D02*
X1056688D01*
X1056450Y824459D02*
X1057953D01*
Y817141D02*
Y824459D01*
X1056450D02*
Y824863D01*
X1050316Y817141D02*
X1057953D01*
X1050316Y816476D02*
Y817141D01*
X1049850Y816476D02*
X1050316D01*
X1049850Y816312D02*
X1050132D01*
Y812112D02*
Y816312D01*
X1046132Y812112D02*
X1050132D01*
X1040888Y822163D02*
Y826088D01*
X1040774Y820412D02*
Y826088D01*
X1040074Y820412D02*
Y826088D01*
X1039374Y820412D02*
Y826088D01*
X1038674Y820412D02*
Y826088D01*
X1037632D02*
Y826312D01*
X1037537Y826088D02*
Y826312D01*
X1037632Y826088D02*
X1040888D01*
X1037974Y820412D02*
Y826088D01*
X1040888Y822163D02*
X1041388D01*
X1041632Y809600D02*
X1041868D01*
X1041388Y820412D02*
Y822163D01*
X1046037Y808588D02*
Y812112D01*
X1041632Y808916D02*
X1041868D01*
X1037632Y825716D02*
X1040888D01*
X1037632Y825016D02*
X1040888D01*
X1040732Y820412D02*
X1041388D01*
X1037632Y822112D02*
Y826088D01*
X1059674Y799700D02*
Y828868D01*
X1058974Y799700D02*
Y828868D01*
X1058274Y799700D02*
Y828868D01*
X1057574Y799700D02*
Y817141D01*
X1056874Y799700D02*
Y817141D01*
X1056174Y799700D02*
Y817141D01*
X1055474Y799700D02*
Y817141D01*
X1054774Y799700D02*
Y817141D01*
X1054074Y799700D02*
Y817141D01*
X1053374Y799700D02*
Y817141D01*
X1052674Y799700D02*
Y817141D01*
X1051974Y799700D02*
Y817141D01*
X1051274Y799700D02*
Y817141D01*
X1050574Y799700D02*
Y817141D01*
X1049874Y799700D02*
Y812112D01*
X1049174Y799700D02*
Y812112D01*
X1048474Y799700D02*
Y812112D01*
X1047774Y799700D02*
Y812112D01*
X1047074Y799700D02*
Y812112D01*
X1046374Y799700D02*
Y812112D01*
X1045674Y799700D02*
Y808588D01*
X1044974Y799700D02*
Y808588D01*
X1044274Y799700D02*
Y808588D01*
X1041868D02*
X1046037D01*
X1041868D02*
Y809600D01*
X1043574Y799700D02*
Y808588D01*
X1041632Y808612D02*
Y809600D01*
X1042874Y799700D02*
Y808588D01*
X1042174Y799700D02*
Y808588D01*
X1041474Y799700D02*
Y808612D01*
X1040774Y799700D02*
Y808612D01*
X1040074Y799700D02*
Y808612D01*
X1039374Y799700D02*
Y808612D01*
X1038674Y799700D02*
Y808612D01*
X1037974Y799700D02*
Y808612D01*
X1037632Y824316D02*
X1040888D01*
X1037632Y823616D02*
X1040888D01*
X1037368Y826088D02*
Y826312D01*
X1037632Y822916D02*
X1040888D01*
X1037632Y822216D02*
X1040888D01*
X1033850Y822112D02*
X1037632D01*
X1037350Y826088D02*
Y826312D01*
X1037274Y820412D02*
Y822112D01*
X1036574Y820412D02*
Y822112D01*
X1034088Y821516D02*
X1041388D01*
X1036563Y820412D02*
X1040563D01*
X1036563Y819000D02*
Y820412D01*
X1035874Y819000D02*
Y822112D01*
X1035174Y819000D02*
Y822112D01*
X1034088Y820816D02*
X1041388D01*
X1034088Y820116D02*
X1036563D01*
X1034088Y819416D02*
X1036563D01*
X1034088Y819000D02*
X1036563D01*
X1034474D02*
Y822112D01*
X1033850Y822163D02*
X1034088D01*
X1033850Y822031D02*
X1034088D01*
Y819000D02*
Y822031D01*
X1029888Y813863D02*
Y816163D01*
X1025888D02*
X1029888D01*
X1025612Y816350D02*
X1025888D01*
X1024531Y815916D02*
X1029888D01*
X1025612Y816068D02*
Y816350D01*
X1024531Y815216D02*
X1029888D01*
X1024531Y816068D02*
X1025612D01*
X1029574Y813395D02*
Y816163D01*
X1028874Y812695D02*
Y816163D01*
X1024531Y814516D02*
X1029888D01*
X1024250Y816068D02*
X1024531D01*
Y813816D02*
X1029994D01*
X1024531Y813116D02*
X1029294D01*
X1037632Y808612D02*
X1041632D01*
X1035675D02*
X1037463D01*
X1037274Y799700D02*
Y808612D01*
X1036574Y799700D02*
Y808612D01*
X1035874Y799700D02*
Y808612D01*
X1035133Y808070D02*
X1035675Y808612D01*
X1028779Y812600D02*
X1030042Y813863D01*
X1035174Y799700D02*
Y808111D01*
X1034474Y799700D02*
Y807672D01*
X1033774Y799700D02*
Y807600D01*
X1033074Y799700D02*
Y807600D01*
X1032374Y799700D02*
Y807600D01*
X1031674Y799700D02*
Y807600D01*
X1030974Y799700D02*
Y807600D01*
X1030274Y799700D02*
Y807600D01*
X1029574Y799700D02*
Y807600D01*
X1028174Y812600D02*
Y816163D01*
X1027474Y812600D02*
Y816163D01*
X1026774Y812600D02*
Y816163D01*
X1028874Y799700D02*
Y807600D01*
X1026074Y812600D02*
Y816163D01*
X1025374Y812600D02*
Y816068D01*
X1024674Y812600D02*
Y816068D01*
X1024531Y812600D02*
X1028779D01*
X1024531D02*
Y816068D01*
X1028174Y799700D02*
Y807600D01*
X1027474Y799700D02*
Y807600D01*
X1026774Y799700D02*
Y807600D01*
X1026074Y799700D02*
Y807600D01*
X1025374Y799700D02*
Y807600D01*
X1024674Y799700D02*
Y807600D01*
X1023974Y799700D02*
Y807600D01*
X1023274Y799700D02*
Y807600D01*
X1022574Y887700D02*
Y895600D01*
X1021874Y887700D02*
Y895600D01*
X1021174Y887700D02*
Y895600D01*
X1020474Y887700D02*
Y895600D01*
X1019774Y887700D02*
Y895600D01*
X1019074Y887700D02*
Y895600D01*
X1018374Y887700D02*
Y895600D01*
X1017674Y887700D02*
Y895600D01*
X1016974Y887700D02*
Y895600D01*
X1016274Y887700D02*
Y895600D01*
X1015574Y887700D02*
Y895600D01*
X1014874Y887700D02*
Y895600D01*
X1014174Y887700D02*
Y895600D01*
X1013474Y887700D02*
Y895600D01*
X1013003Y888016D02*
X1099500D01*
X1007803Y888651D02*
X1013003D01*
Y883500D02*
X1047288D01*
X1013003Y887700D02*
X1043488D01*
X1012774Y888651D02*
Y895600D01*
X1012074Y888651D02*
Y895600D01*
X1011374Y888651D02*
Y895600D01*
X1010674Y888651D02*
Y895600D01*
X1009974Y888651D02*
Y895600D01*
X1009274Y888651D02*
Y895600D01*
X1008574Y888651D02*
Y895600D01*
X1007874Y888651D02*
Y895600D01*
X1007174Y888651D02*
Y895600D01*
X1013003Y887700D02*
Y888651D01*
X1007803Y886350D02*
Y888651D01*
X1011900Y883451D02*
X1013003D01*
X1007503D02*
Y888651D01*
Y888016D02*
X1007803D01*
X1007503Y887316D02*
X1007803D01*
X1007503Y886616D02*
X1007803D01*
X1007503Y885916D02*
X1007711D01*
X1022574Y877431D02*
Y883500D01*
X1021874Y877431D02*
Y883500D01*
X1021174Y877431D02*
Y883500D01*
X1020474Y877431D02*
Y883500D01*
X1019774Y877431D02*
Y883500D01*
X1011900Y883116D02*
X1047288D01*
X1011900Y882416D02*
X1047288D01*
X1011900Y881716D02*
X1047288D01*
X1019074Y875359D02*
Y883500D01*
X1012349Y880316D02*
X1047288D01*
X1012349Y879616D02*
X1047702D01*
X1012349Y878916D02*
X1046519D01*
X1019288Y877431D02*
X1023488D01*
X1019288Y875359D02*
Y877431D01*
X1011900Y881016D02*
X1047288D01*
X1012349Y878216D02*
X1046151D01*
X1012349Y877516D02*
X1046164D01*
X1012349Y876816D02*
X1019288D01*
X1018374Y875359D02*
Y883500D01*
X1017674Y875359D02*
Y883500D01*
X1016974Y875359D02*
Y883500D01*
X1016274Y875359D02*
Y883500D01*
X1015574Y875359D02*
Y883500D01*
X1014874Y875359D02*
Y883500D01*
X1007700Y880603D02*
Y885700D01*
X1014174Y875359D02*
Y883500D01*
X1013474Y875359D02*
Y883500D01*
X1012074Y880603D02*
Y883451D01*
X1011900Y880603D02*
Y883451D01*
X1012774Y875359D02*
Y883451D01*
X1012349Y875403D02*
Y880603D01*
X1011900D02*
X1012349D01*
X1007174D02*
Y883451D01*
X1007149Y880603D02*
X1007700D01*
X1007149Y875403D02*
Y880603D01*
X953890Y892916D02*
X1099500D01*
X954168Y892216D02*
X1099500D01*
X1006474Y888651D02*
Y895600D01*
X1005774Y888651D02*
Y895600D01*
X1005074Y888651D02*
Y895600D01*
X952538D02*
X1099500D01*
X953004Y895016D02*
X1099500D01*
X953377Y894316D02*
X1099500D01*
X953611Y893616D02*
X1099500D01*
X955561Y888716D02*
X1099500D01*
X1002303Y888651D02*
X1007503D01*
X1006826Y883451D02*
X1007503D01*
X1006826Y883116D02*
X1007700D01*
X1006826Y882416D02*
X1007700D01*
X954447Y891516D02*
X1099500D01*
X954725Y890816D02*
X1099500D01*
X955004Y890116D02*
X1099500D01*
X955282Y889416D02*
X1099500D01*
X1004374Y888651D02*
Y895600D01*
X1003674Y888651D02*
Y895600D01*
X1002974Y888651D02*
Y895600D01*
X1002274Y887800D02*
Y895600D01*
X1001574Y887800D02*
Y895600D01*
X1000874Y887800D02*
Y895600D01*
X1000174Y887800D02*
Y895600D01*
X999474Y887800D02*
Y895600D01*
X998774Y887800D02*
Y895600D01*
X1002303Y887800D02*
Y888651D01*
Y883600D02*
X1002626D01*
X999326D02*
X1002303D01*
Y883451D02*
X1002626D01*
X999326Y883116D02*
X1002626D01*
X955947Y888016D02*
X1002303D01*
X998074Y887800D02*
Y895600D01*
X992820Y887800D02*
X1002303D01*
X997374D02*
Y895600D01*
X1006826Y881716D02*
X1007700D01*
X1006826Y881016D02*
X1007700D01*
X1006826Y881984D02*
Y883451D01*
Y880316D02*
X1007149D01*
X1006826Y879309D02*
Y883451D01*
X999326Y882416D02*
X1002626D01*
Y881984D02*
Y883451D01*
X1006826Y879616D02*
X1007149D01*
X1002626Y879309D02*
X1006826D01*
X1006474Y874659D02*
Y879309D01*
X1005774Y874659D02*
Y879309D01*
X1005074Y874659D02*
Y879309D01*
X1004374Y874659D02*
Y879309D01*
X1003674Y874659D02*
Y879309D01*
X993553Y878916D02*
X1007149D01*
X961200Y878216D02*
X1007149D01*
X961200Y877516D02*
X1007149D01*
X1002974Y874659D02*
Y879309D01*
X1002626Y881984D02*
Y883451D01*
Y879309D02*
Y881984D01*
X1002274Y861688D02*
Y883600D01*
X1001574Y861688D02*
Y883600D01*
X1000874Y861688D02*
Y883600D01*
X999326Y881984D02*
Y883600D01*
Y879309D02*
Y883600D01*
X1000174Y861688D02*
Y883600D01*
X999474Y862288D02*
Y883600D01*
X999326Y881716D02*
X1002626D01*
X999326Y881016D02*
X1002626D01*
X999326Y880316D02*
X1002626D01*
X999326Y879616D02*
X1002626D01*
X995126Y879309D02*
X999326D01*
X998774Y874659D02*
Y879309D01*
X998074Y874659D02*
Y879309D01*
X997374Y874659D02*
Y879309D01*
X1019553Y869512D02*
X1019763D01*
X1019553Y869116D02*
X1019763D01*
X1019553Y868416D02*
X1019763D01*
Y866312D02*
Y869512D01*
X1019553Y868041D02*
Y869512D01*
X1012349Y876116D02*
X1019288D01*
X1012349Y875416D02*
X1019288D01*
X1011447Y875359D02*
X1019288D01*
X1011447Y868041D02*
X1019553D01*
X1019074Y866312D02*
Y868041D01*
X1018374Y866312D02*
Y868041D01*
X1017674Y866312D02*
Y868041D01*
X1017363Y866312D02*
X1019763D01*
X1017837Y862112D02*
X1018825D01*
X1017363Y866304D02*
X1017837D01*
X1016974D02*
Y868041D01*
X1017363Y862112D02*
X1017837D01*
X1013669Y866304D02*
X1017363D01*
X1011374Y875171D02*
Y875403D01*
X1011165Y869903D02*
X1011447D01*
Y868041D02*
Y869903D01*
X1011374Y862989D02*
Y869903D01*
X1010674Y875103D02*
Y875403D01*
X1009974Y875103D02*
Y875403D01*
X1016274Y866304D02*
Y868041D01*
X1015574Y866304D02*
Y868041D01*
X1014874Y866304D02*
Y868041D01*
X1014174Y866304D02*
Y868041D01*
X1012074Y862289D02*
Y868041D01*
X1010147Y864216D02*
X1013669D01*
X1010674Y863689D02*
Y869884D01*
X1010847Y863516D02*
X1013669D01*
X1011547Y862816D02*
X1013669D01*
X1018825Y862112D02*
X1021602Y859336D01*
X1019259Y860016D02*
X1020922D01*
X1019074Y860247D02*
Y861863D01*
X1020474Y857619D02*
Y860463D01*
X1019774Y857627D02*
Y861163D01*
X1013647Y860716D02*
X1020222D01*
X1012947Y861416D02*
X1019522D01*
X1018374Y860653D02*
Y862112D01*
X1019495Y859316D02*
X1021602D01*
Y857470D02*
Y859336D01*
X1020006Y857619D02*
X1020930D01*
X1021174Y857600D02*
Y859763D01*
X1019382Y858616D02*
X1021602D01*
X1018775Y857916D02*
X1021602D01*
X1016736Y857627D02*
X1019847D01*
X1019074D02*
Y858153D01*
X1017674Y860664D02*
Y862104D01*
X1016974Y860294D02*
Y862104D01*
X1013669D02*
Y866304D01*
X1016274Y858089D02*
Y862104D01*
X1015574Y858789D02*
Y862104D01*
X1013669D02*
X1017837D01*
X1012774Y861589D02*
Y868041D01*
X1010045Y864318D02*
X1016736Y857627D01*
X1013474Y860889D02*
Y868041D01*
X1015747Y858616D02*
X1016619D01*
X1014874Y859489D02*
Y862104D01*
X1016447Y857916D02*
X1017225D01*
X1016974Y857627D02*
Y858106D01*
X1014174Y860189D02*
Y862104D01*
X1012247Y862116D02*
X1013669D01*
X1014347Y860016D02*
X1016741D01*
X1015047Y859316D02*
X1016504D01*
X1007149Y875403D02*
X1012349D01*
X1009274Y875103D02*
Y875403D01*
X1008574Y875103D02*
Y875403D01*
X1007874Y875103D02*
Y875403D01*
X1007174Y875103D02*
Y875403D01*
X961200Y876816D02*
X1007149D01*
X961200Y876116D02*
X1007149D01*
Y875103D02*
X1011212D01*
X961200Y875416D02*
X1007149D01*
X1006826Y869816D02*
X1011447D01*
X996620Y869116D02*
X1011447D01*
X1006826Y869884D02*
X1010884D01*
X996112Y867716D02*
X1019763D01*
X996112Y868416D02*
X1011447D01*
X996112Y867016D02*
X1019763D01*
X961200Y874716D02*
X1007149D01*
X996112Y866316D02*
X1019763D01*
X986432Y865616D02*
X1013669D01*
X1007149Y874084D02*
Y875103D01*
X1002626Y874659D02*
X1006826D01*
Y874084D02*
Y874659D01*
Y874084D02*
X1007149D01*
X1002626Y871984D02*
Y874659D01*
X999326Y874016D02*
X1002626D01*
X995126Y874659D02*
X999326D01*
Y873316D02*
X1002626D01*
X999326Y869309D02*
Y874659D01*
Y872616D02*
X1002626D01*
X1006826Y869309D02*
Y869884D01*
X999326Y871916D02*
X1002626D01*
Y869309D02*
X1006826D01*
X1002626D02*
Y871984D01*
X999326Y871216D02*
X1002626D01*
X999326Y870516D02*
X1002626D01*
X999326Y869816D02*
X1002626D01*
X996814Y869309D02*
X999326D01*
X1009274Y864747D02*
Y869884D01*
X1008574Y864788D02*
Y869884D01*
X1008237Y864788D02*
Y865288D01*
X1009974Y864385D02*
Y869884D01*
X1007874Y865288D02*
Y869884D01*
X1007174Y865288D02*
Y869884D01*
X1008237Y864916D02*
X1013669D01*
X1004068Y865288D02*
X1008237D01*
Y864788D02*
X1008912D01*
X1008574Y846812D02*
Y848105D01*
X1008632Y846716D02*
X1009963D01*
X1007874Y846812D02*
Y848200D01*
X1005132D02*
X1008479D01*
X1005132Y848116D02*
X1008563D01*
X1005132Y847416D02*
X1009263D01*
X1007174Y846812D02*
Y848200D01*
X1006474Y865288D02*
Y869309D01*
X1005774Y865288D02*
Y869309D01*
X1005074Y865288D02*
Y869309D01*
X1004374Y865288D02*
Y869309D01*
X1004068Y861688D02*
Y865288D01*
X998774Y862288D02*
Y869309D01*
X998074Y862288D02*
Y869309D01*
X1003674Y861688D02*
Y869309D01*
X1002974Y861688D02*
Y869309D01*
X999737Y862116D02*
X1004068D01*
X995737Y862288D02*
X999737D01*
Y861688D02*
X1004068D01*
X999737D02*
Y862288D01*
X986432Y864916D02*
X1004068D01*
X986432Y864216D02*
X1004068D01*
X987006Y863516D02*
X1004068D01*
X987706Y862816D02*
X1004068D01*
X996674Y887800D02*
Y895600D01*
X995974Y887800D02*
Y895600D01*
X995274Y887800D02*
Y895600D01*
X994574Y887800D02*
Y895600D01*
X993874Y887800D02*
Y895600D01*
X993174Y887800D02*
Y895600D01*
X992474Y887771D02*
Y895600D01*
X991774Y887521D02*
Y895600D01*
X991074Y886924D02*
Y895600D01*
X990374Y886224D02*
Y895600D01*
X990189Y886039D02*
X991331Y887181D01*
X989674Y886039D02*
Y895600D01*
X988974Y886039D02*
Y895600D01*
X988274Y886039D02*
Y895600D01*
X985447Y886039D02*
X990189D01*
X987574D02*
Y895600D01*
X986874Y886039D02*
Y895600D01*
X986174Y886039D02*
Y895600D01*
X985474Y886039D02*
Y895600D01*
X984774Y884400D02*
Y895600D01*
X984074Y884400D02*
Y895600D01*
X983374Y884400D02*
Y895600D01*
X982674Y884400D02*
Y895600D01*
X981974Y884400D02*
Y895600D01*
X981274Y884400D02*
Y895600D01*
X980574Y884400D02*
Y895600D01*
X985447Y884400D02*
Y886039D01*
X979874Y884400D02*
Y895600D01*
X979174Y884400D02*
Y895600D01*
X978474Y884400D02*
Y895600D01*
X975249Y884516D02*
X985447D01*
X974974Y884569D02*
Y895600D01*
X977774Y884400D02*
Y895600D01*
X977074Y884400D02*
Y895600D01*
X993690Y883600D02*
X995126D01*
Y881984D02*
Y883600D01*
Y881984D02*
Y883600D01*
X994574Y871595D02*
Y883600D01*
X993874Y870895D02*
Y883600D01*
X993553Y883116D02*
X995126D01*
X975849Y884400D02*
X985447D01*
X993553Y882416D02*
X995126D01*
X993553Y878721D02*
Y883463D01*
Y881716D02*
X995126D01*
X996674Y874659D02*
Y879309D01*
X995126D02*
Y881984D01*
X995974Y874659D02*
Y879309D01*
X995274Y874659D02*
Y879309D01*
X993553Y881016D02*
X995126D01*
X993553Y880316D02*
X995126D01*
X993553Y879616D02*
X995126D01*
X975600Y879200D02*
X985447D01*
Y878721D02*
Y879200D01*
X984774Y866912D02*
Y879200D01*
X984074Y866912D02*
Y879200D01*
X983374Y866912D02*
Y879200D01*
X982674Y866912D02*
Y879200D01*
X976374Y884400D02*
Y895600D01*
X975674Y884434D02*
Y895600D01*
X981974Y867156D02*
Y879200D01*
X981274Y867200D02*
Y879200D01*
X980574Y867200D02*
Y879200D01*
X979874Y867200D02*
Y879200D01*
X979174Y867200D02*
Y879200D01*
X978474Y867200D02*
Y879200D01*
X977774Y867200D02*
Y879200D01*
X977074Y867200D02*
Y879200D01*
X976374Y867200D02*
Y879200D01*
X975674Y867200D02*
Y879200D01*
X973574Y884839D02*
Y895600D01*
X972174Y885109D02*
Y895600D01*
X971474Y885244D02*
Y895600D01*
X974274Y884704D02*
Y895600D01*
X972874Y884974D02*
Y895600D01*
X969374Y887005D02*
Y895600D01*
X968674Y887290D02*
Y895600D01*
X970774Y885813D02*
Y895600D01*
X970074Y886545D02*
Y895600D01*
X968585Y887316D02*
X991478D01*
X969984Y886616D02*
X990766D01*
X967974Y887437D02*
Y895600D01*
X970695Y885916D02*
X985447D01*
X971621Y885216D02*
X985447D01*
X967274Y887461D02*
Y895600D01*
X966574Y887364D02*
Y895600D01*
X956647Y887316D02*
X966384D01*
X965874Y887137D02*
Y895600D01*
X965174Y886753D02*
Y895600D01*
X964474Y886150D02*
Y895600D01*
X958174Y885789D02*
Y895600D01*
X963774Y885111D02*
Y895600D01*
X958874Y885089D02*
Y895600D01*
X956074Y887889D02*
Y895600D01*
X955374Y889186D02*
Y895600D01*
X957474Y886489D02*
Y895600D01*
X956774Y887189D02*
Y895600D01*
X954674Y890945D02*
Y895600D01*
X957347Y886616D02*
X964984D01*
X953974Y892704D02*
Y895600D01*
X958047Y885916D02*
X964273D01*
X958747Y885216D02*
X963825D01*
X953274Y894543D02*
Y895600D01*
X953582Y893690D02*
X955768Y888194D01*
X971090Y885318D02*
X975849Y884400D01*
X969000Y879200D02*
X975600D01*
X965874Y871389D02*
Y879596D01*
X974974Y867200D02*
Y879200D01*
X965174Y871005D02*
Y879979D01*
X961200Y879616D02*
X965828D01*
X961200Y880316D02*
X964745D01*
X964474Y870402D02*
Y880583D01*
X972874Y868248D02*
Y879200D01*
X972174Y868887D02*
Y879200D01*
X971474Y869526D02*
Y879200D01*
X974274Y867200D02*
Y879200D01*
X973574Y867608D02*
Y879200D01*
X969374Y871257D02*
Y879200D01*
X970774Y870166D02*
Y879200D01*
X970074Y870797D02*
Y879200D01*
X961674Y873089D02*
Y895600D01*
X960974Y882920D02*
Y895600D01*
X960274Y883689D02*
Y895600D01*
X963074Y871689D02*
Y895600D01*
X962374Y872389D02*
Y895600D01*
X959447Y884516D02*
X963549D01*
X959574Y884389D02*
Y895600D01*
X960147Y883816D02*
X963409D01*
X955768Y888194D02*
X960730Y883233D01*
X961200Y881716D02*
X963731D01*
X961168Y882416D02*
X963496D01*
X963774Y869363D02*
Y881621D01*
X961200Y873563D02*
Y882100D01*
X960836Y883116D02*
X963392D01*
X961200Y881016D02*
X964125D01*
X995126Y872147D02*
Y874659D01*
X996112Y868607D02*
X996814Y869309D01*
X993174Y870195D02*
Y878721D01*
X997374Y862288D02*
Y869309D01*
X996674Y862288D02*
Y869170D01*
X993016Y870037D02*
X995126Y872147D01*
X985447Y878721D02*
X993553D01*
X991912Y870037D02*
X993016D01*
X992474D02*
Y878721D01*
X996112Y865868D02*
Y868607D01*
X995974Y862288D02*
Y865868D01*
X995274Y862288D02*
Y865868D01*
X994574Y862288D02*
Y865868D01*
X993874Y862288D02*
Y865868D01*
X991912D02*
X996112D01*
X993174Y862288D02*
Y865868D01*
X991568Y862288D02*
X995568D01*
X992474D02*
Y865868D01*
X991774Y862288D02*
Y878721D01*
X991074Y861688D02*
Y878721D01*
X988274Y862247D02*
Y878721D01*
X990374Y861688D02*
Y878721D01*
X989674Y861688D02*
Y878721D01*
X986174Y866912D02*
Y878721D01*
X985474Y866912D02*
Y878721D01*
X987574Y862947D02*
Y878721D01*
X986874Y863647D02*
Y878721D01*
X991912Y865868D02*
Y870037D01*
X986432Y866316D02*
X991912D01*
X986432Y864090D02*
Y866912D01*
X988406Y862116D02*
X991568D01*
Y861688D02*
Y862288D01*
X982345Y867016D02*
X991912D01*
X982516Y866912D02*
X986432D01*
X988974Y861688D02*
Y878721D01*
X990374Y855495D02*
Y855900D01*
X989674Y854795D02*
Y855900D01*
X988833Y861688D02*
X991568D01*
X986432Y864090D02*
X988833Y861688D01*
X987900Y855900D02*
X990800D01*
X992466Y850216D02*
X993012D01*
X991766Y849516D02*
X993012D01*
X991066Y848816D02*
X993012D01*
X990366Y848116D02*
X993012D01*
Y847337D02*
Y850750D01*
X988974Y854095D02*
Y855900D01*
X988274Y853395D02*
Y855900D01*
X989666Y847416D02*
X993012D01*
X987516Y852637D02*
X990639Y855760D01*
X985785Y857353D02*
X986767Y856370D01*
X983682Y857353D02*
X985785D01*
X985474Y852637D02*
Y857353D01*
X984774Y852637D02*
Y857353D01*
X984074Y851598D02*
Y857353D01*
X983224Y857216D02*
X985921D01*
X983374Y851099D02*
Y857244D01*
X982674Y850399D02*
Y857234D01*
X987574Y852695D02*
Y855934D01*
X986874Y852637D02*
Y856272D01*
X986174Y852637D02*
Y856963D01*
X984712Y852637D02*
X987516D01*
X984712Y851700D02*
Y852637D01*
X962847Y871916D02*
X994895D01*
X969451Y871216D02*
X994195D01*
X970391Y870516D02*
X993495D01*
X971157Y869816D02*
X991912D01*
X971924Y869116D02*
X991912D01*
X961200Y874016D02*
X995126D01*
X961200Y878916D02*
X985447D01*
X961447Y873316D02*
X995126D01*
X962147Y872616D02*
X995126D01*
X973456Y867716D02*
X991912D01*
X979900Y867200D02*
X981600D01*
X979337Y862100D02*
X980812Y860625D01*
X972690Y868416D02*
X991912D01*
X973541Y860716D02*
X980721D01*
X972974Y860016D02*
X980812D01*
X972406Y859316D02*
X980812D01*
X967974Y871689D02*
Y879296D01*
X967274Y871713D02*
Y879272D01*
X968674Y871542D02*
Y879220D01*
X966574Y871616D02*
Y879368D01*
X961200Y873563D02*
X963130Y871633D01*
X974021Y867200D02*
X979900D01*
X970268Y870628D02*
X974021Y867200D01*
X974108Y861416D02*
X980021D01*
X974663Y862100D02*
X979337D01*
X963431Y871216D02*
X965518D01*
X963600Y870516D02*
X964584D01*
X963600Y869816D02*
X964023D01*
X963600Y868931D02*
Y870500D01*
X971839Y858616D02*
X980812D01*
Y857469D02*
X982113D01*
X980812D02*
Y860625D01*
X981974Y849699D02*
Y857469D01*
X981274Y849000D02*
Y857469D01*
X970712Y857216D02*
X982776D01*
X971272Y857916D02*
X980812D01*
X968658Y855816D02*
X990697D01*
X970012Y856516D02*
X986621D01*
X971832Y852316D02*
X984712D01*
X972225Y851616D02*
X984125D01*
X972618Y850916D02*
X983190D01*
X973011Y850216D02*
X982490D01*
X973404Y849516D02*
X981790D01*
X969989Y855116D02*
X989994D01*
X970698Y854416D02*
X989294D01*
X971145Y853716D02*
X988594D01*
X971439Y853016D02*
X987894D01*
X980574Y848300D02*
Y860863D01*
X973574Y849214D02*
Y860757D01*
X972874Y850460D02*
Y859893D01*
X979874Y847600D02*
Y861563D01*
X974274Y847967D02*
Y861620D01*
X970808Y857344D02*
X974663Y862100D01*
X972174Y851706D02*
Y859029D01*
X971474Y852953D02*
Y858165D01*
X973798Y848816D02*
X981090D01*
X970774Y854317D02*
Y857297D01*
X974191Y848116D02*
X980390D01*
X974584Y847416D02*
X979690D01*
X969374Y855509D02*
Y856106D01*
X970074Y855049D02*
Y856566D01*
X1008479Y848200D02*
X1013025Y843653D01*
X1012774Y843533D02*
Y843905D01*
X1012074Y843288D02*
Y844605D01*
X1011374Y843288D02*
Y845305D01*
X1010674Y843288D02*
Y846005D01*
X1008632Y845316D02*
X1011363D01*
X1008632Y846016D02*
X1010663D01*
X1008632Y843916D02*
X1012763D01*
X1008632Y844616D02*
X1012063D01*
X1019033Y832112D02*
X1020490D01*
X1018933Y832012D02*
X1020391D01*
X1011226Y831663D02*
X1014012D01*
X1010369Y843288D02*
X1012467D01*
X1008632Y843216D02*
X1010369D01*
X1006084Y840416D02*
X1010369D01*
X1006084Y839716D02*
X1010369D01*
X1009974Y834905D02*
Y846705D01*
X1010369Y839088D02*
Y843288D01*
X1008632Y842612D02*
Y846812D01*
X1009274Y834332D02*
Y847405D01*
X1008574Y834332D02*
Y842612D01*
X1007874Y834332D02*
Y842612D01*
X1006474Y846812D02*
Y848200D01*
X1007174Y834332D02*
Y842612D01*
X1006474Y834332D02*
Y842612D01*
X1010388Y839088D02*
Y839832D01*
Y835832D02*
Y839088D01*
Y835116D02*
Y835663D01*
X1006084Y839016D02*
X1010388D01*
X1006084Y838316D02*
X1010388D01*
X1009369Y834332D02*
X1009767Y834730D01*
X1006084Y835824D02*
Y841024D01*
X1018212Y831291D02*
X1018863Y831942D01*
X1018237Y831316D02*
X1018863D01*
X1018212Y829537D02*
Y831291D01*
X1018863Y827812D02*
Y831942D01*
X1018374Y821612D02*
Y831453D01*
X1018212Y830616D02*
X1018863D01*
X1010878Y831316D02*
X1014012D01*
X1018212Y829916D02*
X1018863D01*
X1010088Y830616D02*
X1014012D01*
X1018863Y827812D02*
X1021568D01*
Y824237D02*
Y827812D01*
X1018212Y825368D02*
Y829368D01*
X1021174Y823435D02*
Y827812D01*
X1020474Y822795D02*
Y827812D01*
X1018212Y829216D02*
X1018863D01*
X1010131Y829916D02*
X1014012D01*
X1018212Y828516D02*
X1018863D01*
X1018212Y827816D02*
X1018863D01*
X1014012Y829537D02*
Y831663D01*
X1013474Y821312D02*
Y831663D01*
X1011374Y822184D02*
Y831663D01*
X1012774Y821312D02*
Y831663D01*
X1012074Y821312D02*
Y831663D01*
X1010633Y831070D02*
X1011226Y831663D01*
X1010674Y822184D02*
Y831111D01*
X1010131Y829216D02*
X1014012D01*
X1010088Y830312D02*
Y830712D01*
X1014012Y825912D02*
Y829368D01*
X1010131Y826112D02*
Y830312D01*
X1009647D02*
X1010088D01*
X1009647Y830163D02*
X1010088D01*
X1010131Y828516D02*
X1014012D01*
X1010131Y827816D02*
X1014012D01*
X1005774Y846812D02*
Y848200D01*
X1005132Y846812D02*
X1008632D01*
X1005132D02*
Y848200D01*
Y842516D02*
X1010369D01*
X1005774Y841024D02*
Y842612D01*
X1005132D02*
X1008632D01*
X993012Y843169D02*
X996963D01*
X1005132Y841024D02*
Y842612D01*
X989266Y842516D02*
X996963D01*
X1005132Y841816D02*
X1010369D01*
X1005132Y841116D02*
X1010369D01*
X1005132Y841024D02*
X1006084D01*
X1000963Y840612D02*
Y841024D01*
X1000850Y839700D02*
Y840612D01*
X1000537Y838316D02*
X1000884D01*
X1000537Y837812D02*
Y838670D01*
X996963Y841288D02*
Y843169D01*
X996674Y841288D02*
Y843169D01*
X995974Y837812D02*
Y843169D01*
X995274Y837812D02*
Y843169D01*
X994574Y837812D02*
Y843169D01*
X989132Y846716D02*
X993012D01*
Y846250D02*
Y847169D01*
X993874Y837812D02*
Y843169D01*
X989500Y846250D02*
X993012D01*
X989132Y841816D02*
X996963D01*
X996369Y841288D02*
X996963D01*
X990101Y843350D02*
X993012D01*
X989132Y841116D02*
X996369D01*
Y837812D02*
Y841288D01*
X985631Y840416D02*
X996369D01*
X985631Y839716D02*
X996369D01*
X985631Y839016D02*
X996369D01*
X985631Y838316D02*
X996369D01*
X1006084Y837616D02*
X1010388D01*
X1006084Y836916D02*
X1010388D01*
X1006084Y836216D02*
X1010388D01*
X1005774Y835524D02*
Y835824D01*
X1005074Y835524D02*
Y835824D01*
X1000632Y837616D02*
X1000884D01*
X1000632Y836916D02*
X1000884D01*
Y835824D02*
X1006084D01*
X1004374Y835524D02*
Y835824D01*
X1006084Y835516D02*
X1010388D01*
X1006084Y834816D02*
X1009860D01*
X1003674Y835524D02*
Y835824D01*
X1006084Y834332D02*
X1009369D01*
X1006084D02*
Y835524D01*
X1002974D02*
Y835824D01*
X1002274Y835524D02*
Y835824D01*
X1000884Y835524D02*
X1006084D01*
X1001574D02*
Y835824D01*
X1000884D02*
Y840612D01*
X1000632Y836216D02*
X1000884D01*
X1000632Y835516D02*
X1000884D01*
Y830784D02*
Y835524D01*
X1000632Y834312D02*
Y837812D01*
X992463D02*
X996369D01*
X993174D02*
Y843169D01*
X1000632Y834816D02*
X1000884D01*
X1000632Y833612D02*
Y834312D01*
Y834116D02*
X1000884D01*
X1000632Y833612D02*
Y834312D01*
Y833416D02*
X1000884D01*
X1000632Y830784D02*
Y833612D01*
Y832716D02*
X1000884D01*
X1000632Y832016D02*
X1000884D01*
X1000632Y831316D02*
X1000884D01*
X1000632Y830784D02*
X1000884D01*
X1018212Y827116D02*
X1021568D01*
X1018212Y826416D02*
X1021568D01*
X1021412Y823552D02*
Y824237D01*
X1019774Y822095D02*
Y827812D01*
X1019074Y821612D02*
Y827812D01*
X1018212Y825716D02*
X1021568D01*
X1018032Y825016D02*
X1021568D01*
X1018032Y824316D02*
X1021568D01*
X1018032Y821712D02*
Y825368D01*
Y823616D02*
X1021412D01*
X1019291Y821612D02*
X1020891Y823213D01*
X1018032Y822916D02*
X1020594D01*
X1018032Y822216D02*
X1019894D01*
X1018047Y821612D02*
X1019291D01*
X1017450Y821712D02*
X1018032D01*
X1010131Y827116D02*
X1014012D01*
X1010131Y826416D02*
X1014012D01*
X1009974Y822184D02*
Y826112D01*
X1009274Y822184D02*
Y826112D01*
X1008574Y822184D02*
Y826112D01*
X1007874Y822184D02*
Y826112D01*
X1006131D02*
Y826388D01*
X1007174Y822184D02*
Y826112D01*
X1006474Y822184D02*
Y826112D01*
X1014012Y825368D02*
Y825912D01*
X1017450Y821488D02*
Y821712D01*
X1013863D02*
Y825912D01*
X1014550Y821312D02*
Y821712D01*
X1014174Y821312D02*
Y821712D01*
X1013863D02*
X1014550D01*
X1006776Y822184D02*
X1011976D01*
Y821516D02*
X1014550D01*
X1011976Y821312D02*
Y822184D01*
X1022574Y799700D02*
Y807600D01*
X1021874Y799700D02*
Y807600D01*
X1021174Y799700D02*
Y807600D01*
X1020474Y799700D02*
Y807600D01*
X1019774Y799700D02*
Y807600D01*
X1011976Y821312D02*
X1014550D01*
X1011976Y820700D02*
Y821312D01*
X1019074Y799700D02*
Y807600D01*
X1018374Y799700D02*
Y807600D01*
X1017674Y799700D02*
Y807600D01*
X1016974Y799700D02*
Y807600D01*
X1016274Y799700D02*
Y807600D01*
X1015574Y799700D02*
Y807600D01*
X1014874Y799700D02*
Y807600D01*
X1014174Y799700D02*
Y807600D01*
X1013474Y799700D02*
Y807600D01*
X1012774Y799700D02*
Y807600D01*
X1012074Y799700D02*
Y807600D01*
X1006476Y821516D02*
X1006776D01*
X1006476Y820816D02*
X1006776D01*
X1006476Y820116D02*
X1006776D01*
Y817553D02*
Y822184D01*
X1006476Y817553D02*
Y822184D01*
Y819416D02*
X1006776D01*
X1006476Y818716D02*
X1006776D01*
X1006476Y818016D02*
X1006776D01*
X1006476Y817553D02*
X1006776D01*
X1011374Y799700D02*
Y807600D01*
X1010674Y799700D02*
Y807600D01*
X1009974Y799700D02*
Y807600D01*
X1009274Y799700D02*
Y807600D01*
X1008574Y799700D02*
Y807600D01*
X1007874Y799700D02*
Y807600D01*
X1007174Y799700D02*
Y807600D01*
X1006474Y799700D02*
Y807600D01*
X1006137Y826112D02*
X1010131D01*
X1006137Y825716D02*
X1013863D01*
X1006137Y826112D02*
Y826388D01*
Y825016D02*
X1013863D01*
X1006137Y822188D02*
Y826112D01*
Y824316D02*
X1013863D01*
X1005963Y826112D02*
Y826388D01*
X1006137Y823616D02*
X1013863D01*
X1006137Y822916D02*
X1013863D01*
X1006137Y822216D02*
X1013863D01*
X1005903Y822184D02*
X1006476D01*
X1005903Y822188D02*
X1006137D01*
X1001276Y817553D02*
Y819650D01*
X1001132Y817612D02*
Y819650D01*
X1000741Y817553D02*
X1001276D01*
X997132Y817612D02*
X1001132D01*
X985631Y817316D02*
X1000741D01*
X985631Y816616D02*
X1000741D01*
Y810800D02*
Y817553D01*
X1000174Y810800D02*
Y817612D01*
X999474Y810800D02*
Y817612D01*
X998774Y810800D02*
Y817612D01*
X998074Y810800D02*
Y817612D01*
X997374Y810800D02*
Y817612D01*
X992963D02*
X996963D01*
X996674Y810800D02*
Y817612D01*
X995974Y810800D02*
Y817612D01*
X989631Y813116D02*
X1000741D01*
X989747Y812416D02*
X1000741D01*
X990447Y811716D02*
X1000741D01*
X991147Y811016D02*
X1000741D01*
X995274Y810800D02*
Y817612D01*
X985631Y815916D02*
X1000741D01*
X985631Y815216D02*
X1000741D01*
X985631Y814516D02*
X1000741D01*
X985631Y813816D02*
X1000741D01*
X990700Y807600D02*
X1034000D01*
X1005774Y799700D02*
Y807600D01*
X1005074Y799700D02*
Y807600D01*
X1004374Y799700D02*
Y807600D01*
X1003674Y799700D02*
Y807600D01*
X944500Y807516D02*
X1099500D01*
X944500Y806816D02*
X1099500D01*
X944500Y806116D02*
X1099500D01*
X944500Y805416D02*
X1099500D01*
X944500Y804716D02*
X1099500D01*
X944500Y804016D02*
X1099500D01*
X944500Y803316D02*
X1099500D01*
X944500Y802616D02*
X1099500D01*
X944500Y801916D02*
X1099500D01*
X944500Y801216D02*
X1099500D01*
X944500Y800516D02*
X1099500D01*
X944500Y799816D02*
X1099500D01*
X944500Y799700D02*
X1099400D01*
X1002974D02*
Y807600D01*
X1002274Y799700D02*
Y807600D01*
X1001574Y799700D02*
Y807600D01*
X1000874Y799700D02*
Y807600D01*
X1000174Y799700D02*
Y807600D01*
X994574Y810800D02*
Y817612D01*
X993874Y810800D02*
Y817612D01*
X991363Y810800D02*
X1000741D01*
X999474Y799700D02*
Y807600D01*
X998774Y799700D02*
Y807600D01*
X998074Y799700D02*
Y807600D01*
X997374Y799700D02*
Y807600D01*
X996674Y799700D02*
Y807600D01*
X995974Y799700D02*
Y807600D01*
X995274Y799700D02*
Y807600D01*
X994574Y799700D02*
Y807600D01*
X993874Y799700D02*
Y807600D01*
X992474Y846250D02*
Y850223D01*
X991774Y846250D02*
Y849523D01*
X991074Y846250D02*
Y848823D01*
X992474Y837812D02*
Y843350D01*
X990374Y846250D02*
Y848123D01*
X989132Y846881D02*
X993001Y850750D01*
X989674Y846250D02*
Y847423D01*
X991774Y837331D02*
Y843350D01*
X992463Y837331D02*
Y837812D01*
X991074Y837331D02*
Y843350D01*
X990374Y837331D02*
Y843350D01*
X989674Y837331D02*
Y842923D01*
X989132Y842381D02*
X990101Y843350D01*
X985631Y837812D02*
X989631D01*
Y837616D02*
X992463D01*
X989631Y837331D02*
X992463D01*
X989132Y846202D02*
Y846881D01*
Y840612D02*
Y842381D01*
X988974Y837812D02*
Y840612D01*
X988274Y837812D02*
Y840612D01*
X987574Y837812D02*
Y840612D01*
X985631D02*
X989132D01*
X979174Y846900D02*
Y862100D01*
X986874Y837812D02*
Y840612D01*
X986174Y837812D02*
Y840612D01*
X985631Y837812D02*
Y840612D01*
X989631Y837331D02*
Y837812D01*
X981463D02*
Y839600D01*
Y837112D02*
Y837812D01*
X981463Y834312D02*
Y837812D01*
X980879Y839016D02*
X981463D01*
X980533Y838670D02*
X981463Y839600D01*
X979998Y838316D02*
X981463D01*
X981463Y833612D02*
Y834312D01*
X993197Y821512D02*
Y821762D01*
X993032Y821512D02*
Y821762D01*
X992963Y821512D02*
Y821762D01*
Y821512D02*
Y821762D01*
Y817612D02*
Y821512D01*
X989032D02*
Y822012D01*
Y821512D02*
Y822012D01*
Y821512D02*
X992963D01*
X988863D02*
Y822012D01*
X991074Y811089D02*
Y821512D01*
X990374Y811789D02*
Y821512D01*
X989674Y812489D02*
Y821512D01*
X992474Y810800D02*
Y821512D01*
X991774Y810800D02*
Y821512D01*
X989032Y820816D02*
X992963D01*
X989032Y820116D02*
X992963D01*
X989032Y819416D02*
X992963D01*
X989032Y818716D02*
X992963D01*
X981463Y833612D02*
Y834312D01*
Y830784D02*
Y833612D01*
X981274Y830784D02*
Y839411D01*
X989032Y817812D02*
Y821512D01*
X982321Y820300D02*
X984863D01*
X981176Y830784D02*
X981463D01*
X981176Y827597D02*
Y830784D01*
X980574Y826995D02*
Y838711D01*
X979874Y826295D02*
Y838272D01*
X984074Y818547D02*
Y820300D01*
X983374Y819247D02*
Y820300D01*
X983906Y818716D02*
X984863D01*
Y817812D02*
Y820300D01*
X982506Y820116D02*
X984863D01*
X982674Y819947D02*
Y820300D01*
X983206Y819416D02*
X984863D01*
X982321Y820300D02*
X984560Y818061D01*
X977575Y845300D02*
X983504Y851230D01*
X978474Y846200D02*
Y862100D01*
X975353Y838200D02*
X979400D01*
X974484Y837616D02*
X981463D01*
X975047Y846716D02*
X978990D01*
X973797Y836916D02*
X981463D01*
X973111Y836216D02*
X981463D01*
X972425Y835516D02*
X981463D01*
X971739Y834816D02*
X981463D01*
X971060Y834116D02*
X981463D01*
X970831Y830616D02*
X981176D01*
X971230Y829916D02*
X981176D01*
X970564Y833416D02*
X981463D01*
X969766Y832716D02*
X981463D01*
X969101Y832016D02*
X981463D01*
X970204Y831316D02*
X981463D01*
X977774Y845500D02*
Y862100D01*
X977074Y845300D02*
Y862100D01*
X975674Y846089D02*
Y862100D01*
X976447Y845316D02*
X977590D01*
X976374Y845389D02*
Y862100D01*
X974974Y846789D02*
Y862100D01*
X971401Y853083D02*
X974887Y846876D01*
X975747Y846016D02*
X978290D01*
X974887Y846876D02*
X976463Y845300D01*
X977575D01*
X974605Y837740D02*
X975353Y838200D01*
X971070Y834134D02*
X974605Y837740D01*
X971474Y829323D02*
Y834546D01*
X970774Y830695D02*
Y833675D01*
X969374Y831886D02*
Y832483D01*
X970074Y831427D02*
Y832944D01*
X979174Y825595D02*
Y838200D01*
X978474Y825300D02*
Y838200D01*
X977774Y825300D02*
Y838200D01*
X977074Y825300D02*
Y838200D01*
X976374Y825300D02*
Y838200D01*
X975674Y825300D02*
Y838200D01*
X974974Y825300D02*
Y837967D01*
X974274Y825300D02*
Y837402D01*
X973574Y825300D02*
Y836688D01*
X972593Y827116D02*
X980694D01*
X972948Y826416D02*
X979994D01*
X973302Y825716D02*
X979294D01*
X978879Y825300D02*
X981176Y827597D01*
X973513Y825300D02*
X978879D01*
X971528Y829216D02*
X981176D01*
X971883Y828516D02*
X981176D01*
X972238Y827816D02*
X981176D01*
X971395Y829478D02*
X973513Y825300D01*
X972874Y826561D02*
Y835974D01*
X972174Y827942D02*
Y835260D01*
X946974Y816416D02*
Y819016D01*
X945270D02*
X947484D01*
X946274Y816416D02*
Y819016D01*
X945574Y816416D02*
Y819016D01*
X949774Y816891D02*
Y818402D01*
X949074Y816878D02*
Y818522D01*
X949555Y818500D02*
X956639Y815301D01*
X948374Y816746D02*
Y818654D01*
X944645Y818716D02*
X948171D01*
X944500Y816755D02*
Y818677D01*
X947674Y816482D02*
Y818918D01*
X944874Y816632D02*
Y818799D01*
X989032Y818016D02*
X992963D01*
X988974Y813712D02*
Y817812D01*
X988274Y813712D02*
Y817812D01*
X987574Y813712D02*
Y817812D01*
X986874Y813712D02*
Y817812D01*
X985631D02*
X989032D01*
X986174Y813712D02*
Y817812D01*
X985631Y813712D02*
X989631D01*
Y812531D02*
Y813712D01*
X985631D02*
Y817812D01*
X993174Y810800D02*
Y817612D01*
X989631Y812531D02*
X991363Y810800D01*
X984863Y817812D02*
X985631D01*
X984604Y818016D02*
X984863D01*
X985631Y809512D02*
X988125D01*
X984863Y817812D02*
X985631D01*
X975521Y818100D02*
X980279D01*
X974737Y817316D02*
X981063D01*
X975437Y818016D02*
X980363D01*
X980279Y818100D02*
X981463Y816916D01*
Y813712D02*
Y816916D01*
X974037Y816616D02*
X981463D01*
X973533Y816112D02*
X975521Y818100D01*
X973446Y815916D02*
X981463D01*
X971445Y811440D02*
X973533Y816112D01*
X973133Y815216D02*
X981463D01*
X972820Y814516D02*
X981463D01*
X972507Y813816D02*
X981463D01*
X972194Y813116D02*
X981463D01*
Y809512D02*
Y813612D01*
X971881Y812416D02*
X981463D01*
X971568Y811716D02*
X981463D01*
X971306Y811016D02*
X981463D01*
X970954Y810316D02*
X981463D01*
X988125Y809512D02*
X989567Y808070D01*
X988274Y799700D02*
Y809363D01*
X987574Y799700D02*
Y809512D01*
X986874Y799700D02*
Y809512D01*
X986174Y799700D02*
Y809512D01*
X981463D02*
X985463D01*
X984774Y799700D02*
Y809512D01*
X984074Y799700D02*
Y809512D01*
X983374Y799700D02*
Y809512D01*
X993174Y799700D02*
Y807600D01*
X992474Y799700D02*
Y807600D01*
X991774Y799700D02*
Y807600D01*
X991074Y799700D02*
Y807600D01*
X990374Y799700D02*
Y807634D01*
X989674Y799700D02*
Y807972D01*
X988974Y799700D02*
Y808663D01*
X979874Y799700D02*
Y818100D01*
X980574Y799700D02*
Y817805D01*
X979174Y799700D02*
Y818100D01*
X978474Y799700D02*
Y818100D01*
X977774Y799700D02*
Y818100D01*
X977074Y799700D02*
Y818100D01*
X976374Y799700D02*
Y818100D01*
X975674Y799700D02*
Y818100D01*
X974974Y799700D02*
Y817553D01*
X982674Y799700D02*
Y809512D01*
X981974Y799700D02*
Y809512D01*
X981274Y799700D02*
Y817105D01*
X974274Y799700D02*
Y816853D01*
X973574Y799700D02*
Y816153D01*
X972874Y799700D02*
Y814637D01*
X972174Y799700D02*
Y813071D01*
X971474Y799700D02*
Y811505D01*
X953679Y813116D02*
X959649D01*
X953549Y813816D02*
X958681D01*
X956773Y815196D02*
X964887Y809327D01*
X953583Y811716D02*
X961585D01*
X953690Y812416D02*
X960617D01*
X952958Y810316D02*
X963521D01*
X953347Y811016D02*
X962553D01*
X970398Y809616D02*
X981463D01*
X969475Y808916D02*
X988721D01*
X970774Y799700D02*
Y810053D01*
X970074Y799700D02*
Y809321D01*
X969374Y799700D02*
Y808862D01*
X951322Y808916D02*
X965493D01*
X952351Y809616D02*
X964489D01*
X944500Y808216D02*
X989421D01*
X968674Y799700D02*
Y808576D01*
X951874Y816165D02*
Y817453D01*
X951019Y816616D02*
X953728D01*
X951174Y816552D02*
Y817769D01*
X953274Y814543D02*
Y816821D01*
X952574Y815562D02*
Y817137D01*
X944500Y817316D02*
X952178D01*
X944500Y818016D02*
X950628D01*
X950474Y816786D02*
Y818085D01*
X952202Y815916D02*
X955278D01*
X945270Y816416D02*
X947542D01*
X953287Y814516D02*
X957713D01*
X944912Y816616D02*
X947981D01*
X944912Y808816D02*
X947902D01*
X960974Y799700D02*
Y812158D01*
X961674Y799700D02*
Y811651D01*
X960274Y799700D02*
Y812664D01*
X959574Y799700D02*
Y813170D01*
X958874Y799700D02*
Y813676D01*
X958174Y799700D02*
Y814182D01*
X957474Y799700D02*
Y814689D01*
X956774Y799700D02*
Y815195D01*
X956074Y799700D02*
Y815556D01*
X967974Y799700D02*
Y808429D01*
X967274Y799700D02*
Y808405D01*
X966574Y799700D02*
Y808502D01*
X965874Y799700D02*
Y808729D01*
X965174Y799700D02*
Y809113D01*
X964474Y799700D02*
Y809626D01*
X963774Y799700D02*
Y810133D01*
X963074Y799700D02*
Y810639D01*
X962374Y799700D02*
Y811145D01*
X954674Y799700D02*
Y816188D01*
X955374Y799700D02*
Y815872D01*
X953974Y799700D02*
Y816504D01*
X953274Y799700D02*
Y810857D01*
X952574Y799700D02*
Y809838D01*
X951874Y799700D02*
Y809235D01*
X951174Y799700D02*
Y808848D01*
X950474Y799700D02*
Y808615D01*
X948374Y799700D02*
Y808654D01*
X949774Y799700D02*
Y808509D01*
X949074Y799700D02*
Y808522D01*
X947674Y799700D02*
Y808816D01*
X946974Y799700D02*
Y808816D01*
X946274Y799700D02*
Y808816D01*
X945574Y799700D02*
Y808816D01*
X944874Y799700D02*
Y808799D01*
X944500Y799700D02*
Y808677D01*
X1060033Y876677D02*
Y877700D01*
X1058974Y876438D02*
Y877700D01*
X1058274Y876438D02*
Y877700D01*
X1056996D02*
X1060033D01*
X1056996Y877516D02*
X1060033D01*
X1057574Y876438D02*
Y877700D01*
X1060033Y876677D02*
X1060700D01*
X1059722Y876446D02*
X1060700D01*
X1059722Y868709D02*
X1061400D01*
X1056988Y876816D02*
X1060033D01*
X1056988Y876438D02*
X1059549D01*
X1058957Y868717D02*
X1059549D01*
X1056996Y877203D02*
Y877700D01*
X1053196Y877203D02*
Y877700D01*
X1056988Y876438D02*
Y877030D01*
X1053204Y874425D02*
Y877030D01*
X1053059Y877203D02*
Y877700D01*
X1053051Y874425D02*
Y877030D01*
X1056944Y872653D02*
Y874425D01*
Y872653D02*
Y874425D01*
X1056874Y868761D02*
Y874425D01*
X1053204D02*
X1056944D01*
Y870685D02*
Y872501D01*
Y870685D02*
Y872501D01*
X1061400Y865500D02*
Y868709D01*
X1061074Y865491D02*
Y868709D01*
X1060374Y865473D02*
Y868709D01*
X1058957Y865436D02*
Y868717D01*
X1056944Y868761D02*
Y870685D01*
X1058974Y865437D02*
Y868717D01*
X1058957Y868416D02*
X1061400D01*
X1058957Y867716D02*
X1061400D01*
X1058957Y867016D02*
X1061400D01*
X1058957Y866316D02*
X1061400D01*
X1058957Y865616D02*
X1061400D01*
X1058957Y865436D02*
X1061400Y865500D01*
X1056174Y868761D02*
Y874425D01*
X1055474Y868761D02*
Y874425D01*
X1054774Y868761D02*
Y874425D01*
X1054074Y868761D02*
Y874425D01*
X1053374Y868761D02*
Y874425D01*
X1052674Y868761D02*
Y874425D01*
X1055172Y868761D02*
X1056944D01*
X1055172D02*
X1056944D01*
X1053204D02*
X1055020D01*
X1053204D02*
X1055020D01*
X1051974D02*
Y874425D01*
X1051280Y874016D02*
X1056944D01*
X1051280Y874425D02*
X1053051D01*
X1051280Y872501D02*
Y874425D01*
X1047906Y876116D02*
X1049267D01*
X1046100Y875416D02*
X1049267D01*
X1051280Y873316D02*
X1056944D01*
X1051280Y870685D02*
Y872501D01*
Y870685D02*
Y872501D01*
Y871916D02*
X1056944D01*
X1051280Y871216D02*
X1056944D01*
X1051280Y870516D02*
X1056944D01*
X1049174Y874469D02*
Y876991D01*
X1049267Y874469D02*
Y877030D01*
X1048474Y874477D02*
Y876310D01*
X1047774Y874477D02*
Y876099D01*
X1046374Y874477D02*
Y876589D01*
X1046100Y874477D02*
Y876921D01*
X1048674Y874469D02*
X1049267D01*
X1046100Y876116D02*
X1047325D01*
X1047074Y874477D02*
Y876176D01*
X1046100Y874716D02*
X1049267D01*
X1046100Y874477D02*
X1048502D01*
X1051280Y869816D02*
X1056944D01*
X1051280Y868761D02*
Y870532D01*
Y868761D02*
Y870532D01*
Y869116D02*
X1056944D01*
X1051280Y868761D02*
X1053204D01*
X1048674Y866748D02*
X1051235D01*
Y866155D02*
Y866748D01*
X1051228Y865234D02*
Y865983D01*
X1050574Y865217D02*
Y866748D01*
X1047390Y866316D02*
X1051235D01*
X1046237Y865616D02*
X1051228D01*
X1046100Y865100D02*
X1051228Y865234D01*
X1049874Y865199D02*
Y866748D01*
X1049174Y865180D02*
Y866748D01*
X1048474Y865162D02*
Y866740D01*
X1047927D02*
X1048502D01*
X1047774Y865144D02*
Y866589D01*
X1046237Y865588D02*
Y866088D01*
X1047074Y865125D02*
Y866181D01*
X1046100Y865588D02*
Y866088D01*
Y865100D02*
Y865588D01*
D13*
X1025847Y867812D02*
D03*
X1021847D02*
D03*
X988347Y864812D02*
D03*
X984347D02*
D03*
X1050247Y856712D02*
D03*
X1054247D02*
D03*
X1054347Y842212D02*
D03*
X1050347D02*
D03*
X1011753Y864204D02*
D03*
X1015753D02*
D03*
X1035547Y824212D02*
D03*
X1039547D02*
D03*
X1023653Y826288D02*
D03*
X1019653D02*
D03*
X1012453Y841188D02*
D03*
X1008453D02*
D03*
X995047Y819712D02*
D03*
X999047D02*
D03*
X1015947Y823812D02*
D03*
X1011947D02*
D03*
X991047Y842712D02*
D03*
X987047D02*
D03*
X1014047Y814212D02*
D03*
X1018047D02*
D03*
X1008053Y824288D02*
D03*
X1004053D02*
D03*
X1054253Y852788D02*
D03*
X1050253D02*
D03*
X1054247Y848812D02*
D03*
X1050247D02*
D03*
X1062047Y858212D02*
D03*
X1058047D02*
D03*
X1010547Y844712D02*
D03*
X1006547D02*
D03*
X1004047Y828212D02*
D03*
X1008047D02*
D03*
X999047Y842712D02*
D03*
X1003047D02*
D03*
X994453Y839188D02*
D03*
X998453D02*
D03*
X1048047Y814212D02*
D03*
X1044047D02*
D03*
X1014047Y819212D02*
D03*
X1018047D02*
D03*
X1047953Y810688D02*
D03*
X1043953D02*
D03*
X995047Y823612D02*
D03*
X999047D02*
D03*
X1050347Y838712D02*
D03*
X1054347D02*
D03*
X1062047Y854912D02*
D03*
X1058047D02*
D03*
X999047Y846212D02*
D03*
X1003047D02*
D03*
X994547Y835712D02*
D03*
X998547D02*
D03*
X994547Y832212D02*
D03*
X998547D02*
D03*
X986947Y819912D02*
D03*
X990947D02*
D03*
X983547Y839212D02*
D03*
X987547D02*
D03*
X987547Y832212D02*
D03*
X983547D02*
D03*
X987047Y846812D02*
D03*
X991047D02*
D03*
X1050953Y829188D02*
D03*
X1046953D02*
D03*
X1005953Y852188D02*
D03*
X1001953D02*
D03*
X993653Y854688D02*
D03*
X997653D02*
D03*
X1005953Y857188D02*
D03*
X1001953D02*
D03*
X987547Y835712D02*
D03*
X983547D02*
D03*
X1054347Y834912D02*
D03*
X1050347D02*
D03*
X1023447Y864212D02*
D03*
X1019447D02*
D03*
X1038647Y818312D02*
D03*
X1042647D02*
D03*
X990947Y823612D02*
D03*
X986947D02*
D03*
X987547Y811612D02*
D03*
X983547D02*
D03*
X1035547Y810712D02*
D03*
X1039547D02*
D03*
X1033453Y874988D02*
D03*
X1029453D02*
D03*
X1025447Y871612D02*
D03*
X1021447D02*
D03*
X1006153Y863188D02*
D03*
X1002153D02*
D03*
X997653Y860188D02*
D03*
X993653D02*
D03*
X1024947Y829912D02*
D03*
X1020947D02*
D03*
X1035453Y828188D02*
D03*
X1039453D02*
D03*
X983547Y815712D02*
D03*
X987547D02*
D03*
X1035547Y814212D02*
D03*
X1039547D02*
D03*
X1022447D02*
D03*
X1026447D02*
D03*
X1033453Y871388D02*
D03*
X1029453D02*
D03*
X1039853Y867988D02*
D03*
X1043853D02*
D03*
X1074447Y871512D02*
D03*
X1078447D02*
D03*
X1043847D02*
D03*
X1039847D02*
D03*
X1058827Y861588D02*
D03*
X1054827D02*
D03*
X1046274Y861716D02*
D03*
X1050274Y861716D02*
D03*
D14*
X1067633Y879577D02*
D03*
Y885077D02*
D03*
X1047716Y824576D02*
D03*
Y819076D02*
D03*
X1066976Y859584D02*
D03*
X1072476D02*
D03*
X1009376Y819584D02*
D03*
X1003876D02*
D03*
X999776Y828184D02*
D03*
X994276D02*
D03*
X983776D02*
D03*
X989276D02*
D03*
X1035760Y867016D02*
D03*
X1030260D02*
D03*
X1003484Y838424D02*
D03*
Y832924D02*
D03*
X1062933Y879577D02*
D03*
Y885077D02*
D03*
X1072267Y879423D02*
D03*
Y884923D02*
D03*
X1004903Y886051D02*
D03*
X1010403D02*
D03*
X1009749Y878003D02*
D03*
Y872503D02*
D03*
D15*
X1063500Y871500D02*
D03*
X1063500Y867500D02*
D03*
X1066800Y871500D02*
D03*
X1066800Y867500D02*
D03*
X1058312Y838153D02*
D03*
Y842153D02*
D03*
X1042988Y824247D02*
D03*
Y828247D02*
D03*
X1021388Y879347D02*
D03*
Y875347D02*
D03*
X995112Y849253D02*
D03*
Y845253D02*
D03*
X982912Y859553D02*
D03*
Y855553D02*
D03*
X1023512Y818153D02*
D03*
Y822153D02*
D03*
X1058288Y850847D02*
D03*
Y846847D02*
D03*
X1058312Y830953D02*
D03*
Y826953D02*
D03*
X990988Y839247D02*
D03*
Y835247D02*
D03*
X1027988Y818247D02*
D03*
Y822247D02*
D03*
X994012Y867953D02*
D03*
Y863953D02*
D03*
X986812Y850553D02*
D03*
Y854553D02*
D03*
X1031988Y828247D02*
D03*
Y824247D02*
D03*
Y815947D02*
D03*
Y819947D02*
D03*
X1016112Y831453D02*
D03*
Y827453D02*
D03*
X982688Y881747D02*
D03*
Y877747D02*
D03*
X1012488Y837747D02*
D03*
Y833747D02*
D03*
X1007988Y836247D02*
D03*
Y832247D02*
D03*
X1054588Y826947D02*
D03*
Y830947D02*
D03*
X1057088Y881747D02*
D03*
Y885747D02*
D03*
X1049388Y881747D02*
D03*
Y885747D02*
D03*
X1045588Y881747D02*
D03*
Y885747D02*
D03*
X1053212Y881753D02*
D03*
Y885753D02*
D03*
X1069900Y867500D02*
D03*
X1069900Y871500D02*
D03*
D16*
X1019847Y854058D02*
D03*
X1044257Y842247D02*
D03*
Y850121D02*
D03*
X1019847Y838310D02*
D03*
Y848153D02*
D03*
Y846184D02*
D03*
Y850121D02*
D03*
Y844216D02*
D03*
X1044257Y846184D02*
D03*
Y844216D02*
D03*
Y838310D02*
D03*
Y854058D02*
D03*
Y852090D02*
D03*
Y856027D02*
D03*
Y840279D02*
D03*
X1019847Y842247D02*
D03*
Y840279D02*
D03*
Y852090D02*
D03*
X1044257Y848153D02*
D03*
D17*
X1035005Y859373D02*
D03*
X1025162D02*
D03*
D18*
X1031068Y859373D02*
D03*
X1029099D02*
D03*
X1033036D02*
D03*
X1023194D02*
D03*
X1040910Y834964D02*
D03*
X1031068D02*
D03*
X1029099D02*
D03*
X1036973Y859373D02*
D03*
X1027131D02*
D03*
X1033036Y834964D02*
D03*
X1038942D02*
D03*
X1023194D02*
D03*
X1038942Y859373D02*
D03*
X1036973Y834964D02*
D03*
X1040910Y859373D02*
D03*
X1025162Y834964D02*
D03*
X1035005D02*
D03*
X1027131D02*
D03*
D19*
X1036000Y851200D02*
D03*
Y843200D02*
D03*
X1028000D02*
D03*
Y851200D02*
D03*
D20*
X1019847Y856027D02*
D03*
D21*
X1018000Y859200D02*
D03*
X1047616Y877892D02*
D03*
D22*
X1053900Y820800D02*
D03*
Y813320D02*
D03*
X989500Y874900D02*
D03*
Y882380D02*
D03*
X1015500Y879180D02*
D03*
Y871700D02*
D03*
D23*
X1001026Y881984D02*
D03*
X997226D02*
D03*
X1004726D02*
D03*
X997226Y871984D02*
D03*
X1004726D02*
D03*
D24*
X996920Y813500D02*
D03*
X1004400D02*
D03*
D25*
X1048502Y870609D02*
D03*
Y872577D02*
D03*
Y868640D02*
D03*
X1059722Y870609D02*
D03*
Y872577D02*
D03*
Y868640D02*
D03*
X1048502Y874546D02*
D03*
X1059722D02*
D03*
D26*
X1051159Y877203D02*
D03*
X1055096D02*
D03*
X1051159Y865983D02*
D03*
X1053128Y877203D02*
D03*
X1057065D02*
D03*
X1055096Y865983D02*
D03*
X1057065D02*
D03*
X1053128D02*
D03*
D27*
X1054112Y871593D02*
D03*
D28*
X1016000Y812500D02*
Y827500D01*
X1016100Y827600D01*
X987000Y846400D02*
Y846800D01*
X992400Y852200D02*
X1002000D01*
X987000Y846800D02*
X992400Y852200D01*
X986700Y850000D02*
Y850300D01*
X986600D02*
X986700D01*
X983500Y815700D02*
Y816100D01*
X982800Y828200D02*
X983750D01*
X1049000Y825850D02*
Y831400D01*
X987400Y842700D02*
X989500Y844800D01*
X994600D01*
X995100Y845300D01*
D29*
X1022400Y814100D02*
Y817041D01*
X1023512Y818153D01*
X1054600Y821200D02*
Y827100D01*
X1047700Y819050D02*
X1048000Y818750D01*
Y814200D02*
Y818750D01*
X1035500Y824200D02*
Y828200D01*
X1012500Y837700D02*
Y841200D01*
X1035500Y810700D02*
Y814200D01*
X995047Y819712D02*
Y823376D01*
X994812Y823612D02*
X995047Y823376D01*
X990947Y823612D02*
X994812D01*
X1004400Y813500D02*
X1005100Y814200D01*
X1014000D01*
X1032000Y815900D02*
Y816100D01*
X1023500Y818200D02*
X1028000D01*
X986947Y819947D02*
Y823612D01*
X983500Y812200D02*
Y815700D01*
X948900Y842700D02*
X949500D01*
X983500Y828450D02*
Y839200D01*
Y828450D02*
X983750Y828200D01*
X999000Y839700D02*
Y846200D01*
X998500Y829450D02*
X999750Y828200D01*
X998500Y829450D02*
Y839200D01*
X999000Y839700D01*
X1003000Y838950D02*
Y846200D01*
X1003100Y844700D02*
X1006500D01*
X1003000Y838950D02*
X1003500Y838450D01*
Y832950D02*
X1004000Y832450D01*
Y828200D02*
Y832450D01*
X1004053Y819547D02*
Y824288D01*
X999000Y819600D02*
Y823300D01*
Y821500D02*
X1004053D01*
X1032000Y819900D02*
Y824200D01*
D30*
X1081800Y874900D02*
X1091800D01*
X1063900Y871500D02*
X1073900D01*
X1078447Y871512D02*
X1081735Y874800D01*
X1081735D02*
X1092000D01*
D31*
X1001900Y852300D02*
X1002000Y852200D01*
X987000Y842700D02*
X987400D01*
X982700Y842700D02*
X987000D01*
D32*
X967484Y883366D02*
X975600Y881800D01*
X967400Y883400D02*
X969000Y881800D01*
X989500D01*
D33*
X1013950Y839950D02*
D03*
D34*
X1015400Y841124D02*
D03*
D35*
X1013300Y840550D02*
D03*
D36*
X991250Y831850D02*
D03*
D37*
X1041750Y812450D02*
D03*
D38*
X1056150Y855800D02*
D03*
D39*
X1095050Y874700D02*
D03*
D40*
X1060761Y871439D02*
D03*
D41*
X1064150Y875150D02*
D03*
D42*
X1038400Y867000D02*
D03*
D43*
X1039650Y864600D02*
D03*
D44*
X958526Y806184D02*
D03*
X1078000Y811700D02*
D03*
X958500Y890200D02*
D03*
D45*
X1091984Y844674D02*
D03*
Y834674D02*
D03*
Y884674D02*
D03*
Y814674D02*
D03*
Y824674D02*
D03*
Y854674D02*
D03*
Y864674D02*
D03*
X967484Y875492D02*
D03*
Y867618D02*
D03*
Y859744D02*
D03*
Y836122D02*
D03*
Y828248D02*
D03*
Y891240D02*
D03*
Y883366D02*
D03*
Y812500D02*
D03*
Y820374D02*
D03*
X967484Y851870D02*
D03*
X967484Y843996D02*
D03*
D46*
X1091984Y874674D02*
D03*
D47*
X1070000Y824700D02*
D03*
Y843913D02*
D03*
D48*
X1056474Y869231D02*
D03*
X1054112D02*
D03*
X1051750D02*
D03*
X1051750Y871593D02*
D03*
X1056474D02*
D03*
Y873955D02*
D03*
X1054112D02*
D03*
X1051750D02*
D03*
D49*
X949500Y872700D02*
D03*
Y882700D02*
D03*
Y832700D02*
D03*
Y822700D02*
D03*
Y842700D02*
D03*
Y812700D02*
D03*
Y862700D02*
D03*
Y892700D02*
D03*
Y852700D02*
D03*
D50*
Y802700D02*
D03*
D51*
X967484Y804626D02*
D03*
D52*
X1019500Y823900D02*
D03*
X957100Y841100D02*
D03*
X1010000Y824200D02*
D03*
X1011700Y826000D02*
D03*
X1055700Y849200D02*
D03*
X1027600Y863300D02*
D03*
X1001000Y879300D02*
D03*
X1009100Y867200D02*
D03*
X1009800Y843200D02*
D03*
X991100Y818000D02*
D03*
X1028300Y814100D02*
D03*
X1039600Y821900D02*
D03*
X1049500Y810300D02*
D03*
X1054274Y809700D02*
D03*
X1057700Y813800D02*
D03*
X984700Y854500D02*
D03*
X1008300Y838900D02*
D03*
X992900Y841200D02*
D03*
X989300Y839100D02*
D03*
X1015800Y882000D02*
D03*
X1056200Y837800D02*
D03*
X1054400Y840400D02*
D03*
X1036500Y862800D02*
D03*
X1027700Y866800D02*
D03*
X985300Y873900D02*
D03*
X1001900Y868200D02*
D03*
X988700Y871200D02*
D03*
X991200Y847000D02*
D03*
X1072700Y856500D02*
D03*
X1075800Y859100D02*
D03*
X1059600Y824700D02*
D03*
X993200Y875000D02*
D03*
X993100Y813400D02*
D03*
X989800Y815500D02*
D03*
X1032274Y847300D02*
D03*
X1028000Y851200D02*
D03*
X1036000D02*
D03*
Y843200D02*
D03*
X1028000D02*
D03*
X1027900Y847300D02*
D03*
X1032300Y851200D02*
D03*
Y843200D02*
D03*
X1035900Y847200D02*
D03*
X977500Y836300D02*
D03*
Y831900D02*
D03*
Y827100D02*
D03*
X977400Y860700D02*
D03*
X977300Y876500D02*
D03*
X977400Y870600D02*
D03*
Y857400D02*
D03*
Y854400D02*
D03*
X1083500Y846000D02*
D03*
Y846800D02*
D03*
Y847600D02*
D03*
Y848500D02*
D03*
Y849300D02*
D03*
Y850100D02*
D03*
Y850800D02*
D03*
X977500Y851000D02*
D03*
Y850300D02*
D03*
Y849600D02*
D03*
Y849000D02*
D03*
Y848400D02*
D03*
Y847800D02*
D03*
Y847100D02*
D03*
Y846500D02*
D03*
X1027800Y890800D02*
D03*
X1028400D02*
D03*
X1029000D02*
D03*
X1029700D02*
D03*
X1030400D02*
D03*
X1031100D02*
D03*
X1031800D02*
D03*
X1032500D02*
D03*
X1027600Y805700D02*
D03*
X1028400D02*
D03*
X1029200D02*
D03*
X1030100D02*
D03*
X1031000D02*
D03*
X1031900D02*
D03*
X1032600D02*
D03*
X1033200D02*
D03*
X977600Y815200D02*
D03*
Y811200D02*
D03*
X977500Y807400D02*
D03*
Y804100D02*
D03*
X983000D02*
D03*
X987300D02*
D03*
X991500D02*
D03*
X996100D02*
D03*
X1000500D02*
D03*
X1004300D02*
D03*
X1008400Y804200D02*
D03*
X1013200D02*
D03*
X1017800Y804300D02*
D03*
X1022700Y804200D02*
D03*
X1037500Y804300D02*
D03*
X1042300Y804200D02*
D03*
X1047000D02*
D03*
X1051600D02*
D03*
X1057900D02*
D03*
X1063100Y804300D02*
D03*
X1069000D02*
D03*
X1075000D02*
D03*
X1080000Y804400D02*
D03*
X1083700Y804500D02*
D03*
X1084000Y808500D02*
D03*
Y820200D02*
D03*
Y825200D02*
D03*
Y836800D02*
D03*
Y842200D02*
D03*
X977000Y887500D02*
D03*
Y891300D02*
D03*
X982000D02*
D03*
X987800D02*
D03*
X992800D02*
D03*
X997900D02*
D03*
X1004100D02*
D03*
X1010600D02*
D03*
X1016800D02*
D03*
X1021600D02*
D03*
X1037500Y891200D02*
D03*
X1042400D02*
D03*
X1047000D02*
D03*
X1052300D02*
D03*
X1059100D02*
D03*
X1064400D02*
D03*
X1070200D02*
D03*
X1076000D02*
D03*
X1080300D02*
D03*
X1084000D02*
D03*
Y885800D02*
D03*
Y882400D02*
D03*
Y868200D02*
D03*
Y864700D02*
D03*
Y860300D02*
D03*
X1071400Y876816D02*
D03*
X1064600Y853200D02*
D03*
X1060000Y866900D02*
D03*
X1067700Y811100D02*
D03*
X1063300Y812300D02*
D03*
X1058800Y835700D02*
D03*
X1061200Y827200D02*
D03*
X1074600Y879500D02*
D03*
X982500Y875800D02*
D03*
X1015700Y860716D02*
D03*
X1049400Y865700D02*
D03*
X1084000Y864700D02*
D03*
Y882400D02*
D03*
Y885800D02*
D03*
X1053100Y879900D02*
D03*
X1060400Y862200D02*
D03*
X1072100Y866000D02*
D03*
X1074800Y875416D02*
D03*
X1047074Y865200D02*
D03*
X1032600Y878400D02*
D03*
X1024500Y879200D02*
D03*
X1019600Y880500D02*
D03*
X1013100Y879800D02*
D03*
X996500Y864300D02*
D03*
X1058900Y878200D02*
D03*
D53*
X1099974Y816516D02*
D03*
Y812916D02*
D03*
Y814716D02*
D03*
Y815616D02*
D03*
Y813816D02*
D03*
Y826516D02*
D03*
X1099974Y822916D02*
D03*
X1099974Y824716D02*
D03*
Y825616D02*
D03*
Y823816D02*
D03*
Y886516D02*
D03*
Y882916D02*
D03*
Y884716D02*
D03*
Y885616D02*
D03*
Y883816D02*
D03*
Y866516D02*
D03*
Y862916D02*
D03*
Y864716D02*
D03*
Y865616D02*
D03*
Y863816D02*
D03*
Y876516D02*
D03*
Y872916D02*
D03*
Y874716D02*
D03*
Y875616D02*
D03*
Y873816D02*
D03*
X943974Y894516D02*
D03*
Y890916D02*
D03*
Y892716D02*
D03*
Y893616D02*
D03*
Y891816D02*
D03*
Y884516D02*
D03*
Y880916D02*
D03*
Y882716D02*
D03*
Y883616D02*
D03*
Y881816D02*
D03*
Y874616D02*
D03*
Y871016D02*
D03*
Y872816D02*
D03*
Y873716D02*
D03*
Y871916D02*
D03*
Y864516D02*
D03*
Y860916D02*
D03*
Y862716D02*
D03*
Y863616D02*
D03*
Y861816D02*
D03*
Y854516D02*
D03*
Y850916D02*
D03*
Y852716D02*
D03*
Y853616D02*
D03*
Y851816D02*
D03*
Y844516D02*
D03*
Y840916D02*
D03*
Y842716D02*
D03*
Y843616D02*
D03*
Y841816D02*
D03*
Y834516D02*
D03*
Y830916D02*
D03*
Y832716D02*
D03*
Y833616D02*
D03*
Y831816D02*
D03*
Y824516D02*
D03*
Y820916D02*
D03*
Y822716D02*
D03*
Y823616D02*
D03*
Y821816D02*
D03*
Y814516D02*
D03*
Y810916D02*
D03*
Y812716D02*
D03*
Y813616D02*
D03*
Y811816D02*
D03*
Y804516D02*
D03*
Y800916D02*
D03*
Y802716D02*
D03*
Y803616D02*
D03*
Y801816D02*
D03*
X991000Y865700D02*
D03*
X1046100Y875600D02*
D03*
X1043300Y881400D02*
D03*
X1068700Y865500D02*
D03*
X1065000Y865400D02*
D03*
X1072600Y862900D02*
D03*
X1035500Y876400D02*
D03*
X1000100Y863500D02*
D03*
X1054100Y871600D02*
D03*
X1070100Y827400D02*
D03*
X1067900Y845100D02*
D03*
X1045500Y879400D02*
D03*
X1061900Y865400D02*
D03*
D54*
X1060700Y851600D02*
D03*
X1040700Y851900D02*
D03*
D55*
X1095987Y814716D02*
D03*
Y884716D02*
D03*
D56*
X1095937Y824666D02*
D03*
D57*
X1095824Y864666D02*
D03*
D58*
X1097174Y874716D02*
D03*
D59*
X946274Y802816D02*
D03*
X946274Y842816D02*
D03*
Y852816D02*
D03*
Y862816D02*
D03*
Y872816D02*
D03*
Y882816D02*
D03*
Y892816D02*
D03*
Y812616D02*
D03*
Y822816D02*
D03*
Y832716D02*
D03*
M02*
