%FSLAX25Y25*%
%MOIN*%
G70*
G01*
G75*
%ADD10C,0.01000*%
%ADD11C,0.02000*%
%ADD12C,0.00800*%
%ADD13R,0.01969X0.02000*%
%ADD14R,0.03000X0.03000*%
%ADD15R,0.02000X0.01969*%
%ADD16R,0.03150X0.00984*%
%ADD17R,0.00984X0.03150*%
%ADD18R,0.00984X0.03150*%
%ADD19R,0.05906X0.05906*%
%ADD20O,0.03150X0.00984*%
%ADD21C,0.00800*%
%ADD22R,0.05906X0.05118*%
%ADD23R,0.02000X0.03150*%
%ADD24R,0.05118X0.05906*%
%ADD25R,0.02756X0.00984*%
%ADD26R,0.00984X0.02756*%
%ADD27R,0.06299X0.06299*%
%ADD28C,0.00700*%
%ADD29C,0.01500*%
%ADD30C,0.02900*%
%ADD31C,0.00600*%
%ADD32C,0.03000*%
%ADD33R,0.00900X0.00700*%
%ADD34R,0.03000X0.02247*%
%ADD35R,0.01600X0.02900*%
%ADD36R,0.07500X0.07700*%
%ADD37R,0.04500X0.03500*%
%ADD38R,0.03900X0.03000*%
%ADD39R,0.07700X0.04600*%
%ADD40R,0.02078X0.02277*%
%ADD41R,0.04100X0.02700*%
%ADD42R,0.04000X0.03000*%
%ADD43R,0.02300X0.04800*%
%ADD44C,0.04724*%
%ADD45C,0.06000*%
%ADD46O,0.09000X0.04500*%
%ADD47C,0.04331*%
%ADD48C,0.01500*%
%ADD49C,0.06200*%
%ADD50R,0.06200X0.06200*%
%ADD51R,0.06000X0.06000*%
%ADD52C,0.02200*%
%ADD53C,0.02400*%
%ADD54C,0.02000*%
%ADD55R,0.08026X0.06000*%
%ADD56R,0.08126X0.05900*%
%ADD57R,0.07700X0.06100*%
%ADD58R,0.05600X0.04400*%
%ADD59R,0.06200X0.05400*%
%ADD60C,0.01200*%
%ADD61R,0.08100X0.04600*%
%ADD62C,0.08661*%
%ADD63C,0.00394*%
%ADD64C,0.00500*%
%ADD65C,0.00787*%
%ADD66C,0.00300*%
%ADD67R,0.03000X0.05500*%
%ADD68R,0.03000X0.05000*%
%ADD69R,0.03000X0.06000*%
%ADD70R,0.03000X0.07000*%
%ADD71R,0.01800X0.07000*%
%ADD72R,0.01800X0.19500*%
%ADD73R,0.19500X0.01800*%
%ADD74R,0.01800X0.19500*%
%ADD75R,0.19500X0.01800*%
%ADD76R,0.07654X0.02619*%
%ADD77R,0.14800X0.14700*%
%ADD78C,0.05500*%
%ADD79C,0.06000*%
%ADD80R,0.06800X0.06800*%
%ADD81R,0.04600X0.76500*%
%ADD82R,0.04900X0.06100*%
%ADD83R,0.04300X0.06500*%
%ADD84R,0.04600X0.06700*%
%ADD85R,0.04300X0.06500*%
%ADD86R,0.07600X0.05100*%
%ADD87R,0.15900X0.08900*%
%ADD88R,0.11700X0.10600*%
%ADD89R,0.11300X0.14000*%
%ADD90R,0.14500X0.14500*%
%ADD91R,0.09300X0.05100*%
%ADD92R,0.01900X0.00800*%
%ADD93R,0.04500X0.03000*%
%ADD94R,0.02768X0.02800*%
%ADD95R,0.03800X0.03800*%
%ADD96R,0.02800X0.02768*%
%ADD97R,0.03950X0.01784*%
%ADD98R,0.01784X0.03950*%
%ADD99R,0.01784X0.03950*%
%ADD100R,0.06706X0.06706*%
%ADD101O,0.03950X0.01784*%
%ADD102C,0.01600*%
%ADD103R,0.06706X0.05918*%
%ADD104R,0.02800X0.03950*%
%ADD105R,0.05918X0.06706*%
%ADD106R,0.03556X0.01784*%
%ADD107R,0.01784X0.03556*%
%ADD108C,0.05524*%
%ADD109C,0.06800*%
%ADD110O,0.09800X0.05300*%
%ADD111C,0.05131*%
%ADD112C,0.07000*%
%ADD113R,0.07000X0.07000*%
%ADD114R,0.06800X0.06800*%
%ADD115R,0.08800X0.05000*%
%ADD116R,0.16500X0.10700*%
%ADD117R,0.16600X0.13300*%
%ADD118R,0.09900X0.05200*%
%ADD119C,0.09461*%
%ADD120C,0.00100*%
%ADD121C,0.00200*%
%ADD122R,0.01000X0.02000*%
%ADD123R,0.02000X0.03500*%
%ADD124R,0.02000X0.04500*%
%ADD125R,0.02500X0.04000*%
%ADD126C,0.00667*%
%ADD127C,0.00400*%
D120*
X956164Y806184D02*
X960888D01*
X958526Y803822D02*
Y808547D01*
X1075638Y811700D02*
X1080362D01*
X1078000Y809338D02*
Y814062D01*
X956138Y890200D02*
X960862D01*
X958500Y887838D02*
Y892562D01*
X1090311Y844674D02*
X1093657D01*
X1091984Y843001D02*
Y846347D01*
X1090311Y834674D02*
X1093657D01*
X1091984Y833001D02*
Y836347D01*
X1090311Y884674D02*
X1093657D01*
X1091984Y883001D02*
Y886347D01*
X1090334Y874674D02*
X1093634D01*
X1091984Y873024D02*
Y876324D01*
X1090311Y814674D02*
X1093657D01*
X1091984Y813001D02*
Y816347D01*
X1090311Y824674D02*
X1093657D01*
X1091984Y823001D02*
Y826347D01*
X1090311Y854674D02*
X1093657D01*
X1091984Y853001D02*
Y856347D01*
X1090311Y864674D02*
X1093657D01*
X1091984Y863001D02*
Y866347D01*
X1068819Y824700D02*
X1071181D01*
X1070000Y823519D02*
Y825881D01*
X1068819Y843913D02*
X1071181D01*
X1070000Y842731D02*
Y845094D01*
X1055874Y869231D02*
X1057074D01*
X1056474Y868631D02*
Y869831D01*
X1053512Y869231D02*
X1054712D01*
X1054112Y868631D02*
Y869831D01*
X1051150Y869231D02*
X1052350D01*
X1051750Y868631D02*
Y869831D01*
X1051150Y871593D02*
X1052350D01*
X1051750Y870993D02*
Y872193D01*
X1055874Y871593D02*
X1057074D01*
X1056474Y870993D02*
Y872193D01*
X1055874Y873955D02*
X1057074D01*
X1056474Y873355D02*
Y874555D01*
X1053512Y873955D02*
X1054712D01*
X1054112Y873355D02*
Y874555D01*
X1051150Y873955D02*
X1052350D01*
X1051750Y873355D02*
Y874555D01*
X947728Y872700D02*
X951272D01*
X949500Y870928D02*
Y874472D01*
X947728Y882700D02*
X951272D01*
X949500Y880928D02*
Y884472D01*
X947728Y832700D02*
X951272D01*
X949500Y830928D02*
Y834472D01*
X947728Y822700D02*
X951272D01*
X949500Y820928D02*
Y824472D01*
X947728Y842700D02*
X951272D01*
X949500Y840928D02*
Y844472D01*
X947728Y802700D02*
X951272D01*
X949500Y800928D02*
Y804472D01*
X947728Y812700D02*
X951272D01*
X949500Y810928D02*
Y814472D01*
X947728Y862700D02*
X951272D01*
X949500Y860928D02*
Y864472D01*
X947728Y892700D02*
X951272D01*
X949500Y890928D02*
Y894472D01*
X947728Y852700D02*
X951272D01*
X949500Y850928D02*
Y854472D01*
X966084Y875492D02*
X968884D01*
X967484Y874092D02*
Y876892D01*
X966084Y867618D02*
X968884D01*
X967484Y866218D02*
Y869018D01*
X966084Y859744D02*
X968884D01*
X967484Y858344D02*
Y861144D01*
X966084Y836122D02*
X968884D01*
X967484Y834722D02*
Y837522D01*
X966084Y828248D02*
X968884D01*
X967484Y826848D02*
Y829648D01*
X966084Y891240D02*
X968884D01*
X967484Y889840D02*
Y892640D01*
X966084Y804626D02*
X968884D01*
X967484Y803226D02*
Y806026D01*
X966084Y883366D02*
X968884D01*
X967484Y881966D02*
Y884766D01*
X966084Y812500D02*
X968884D01*
X967484Y811100D02*
Y813900D01*
X966084Y820374D02*
X968884D01*
X967484Y818974D02*
Y821774D01*
X966084Y851870D02*
X968884D01*
X967484Y850470D02*
Y853270D01*
X966084Y843996D02*
X968884D01*
X967484Y842596D02*
Y845396D01*
X1018900Y823900D02*
X1020100D01*
X1019500Y823300D02*
Y824500D01*
X1099074Y816516D02*
X1100874D01*
X1099974Y815616D02*
Y817416D01*
X1099074Y812916D02*
X1100874D01*
X1099974Y812016D02*
Y813816D01*
X1099074Y814716D02*
X1100874D01*
X1099974Y813816D02*
Y815616D01*
X1099074D02*
X1100874D01*
X1099974Y814716D02*
Y816516D01*
X1099074Y813816D02*
X1100874D01*
X1099974Y812916D02*
Y814716D01*
X1099074Y826516D02*
X1100874D01*
X1099974Y825616D02*
Y827416D01*
X1099074Y822916D02*
X1100874D01*
X1099974Y822016D02*
Y823816D01*
X1099074Y824716D02*
X1100874D01*
X1099974Y823816D02*
Y825616D01*
X1099074D02*
X1100874D01*
X1099974Y824716D02*
Y826516D01*
X1099074Y823816D02*
X1100874D01*
X1099974Y822916D02*
Y824716D01*
X1099074Y886516D02*
X1100874D01*
X1099974Y885616D02*
Y887416D01*
X1099074Y882916D02*
X1100874D01*
X1099974Y882016D02*
Y883816D01*
X1099074Y884716D02*
X1100874D01*
X1099974Y883816D02*
Y885616D01*
X1099074D02*
X1100874D01*
X1099974Y884716D02*
Y886516D01*
X1099074Y883816D02*
X1100874D01*
X1099974Y882916D02*
Y884716D01*
X1099074Y866516D02*
X1100874D01*
X1099974Y865616D02*
Y867416D01*
X1099074Y862916D02*
X1100874D01*
X1099974Y862016D02*
Y863816D01*
X1099074Y864716D02*
X1100874D01*
X1099974Y863816D02*
Y865616D01*
X1099074D02*
X1100874D01*
X1099974Y864716D02*
Y866516D01*
X1099074Y863816D02*
X1100874D01*
X1099974Y862916D02*
Y864716D01*
X1099074Y876516D02*
X1100874D01*
X1099974Y875616D02*
Y877416D01*
X1099074Y872916D02*
X1100874D01*
X1099974Y872016D02*
Y873816D01*
X1099074Y874716D02*
X1100874D01*
X1099974Y873816D02*
Y875616D01*
X1099074D02*
X1100874D01*
X1099974Y874716D02*
Y876516D01*
X1099074Y873816D02*
X1100874D01*
X1099974Y872916D02*
Y874716D01*
X943074Y894516D02*
X944874D01*
X943974Y893616D02*
Y895416D01*
X943074Y890916D02*
X944874D01*
X943974Y890016D02*
Y891816D01*
X943074Y892716D02*
X944874D01*
X943974Y891816D02*
Y893616D01*
X943074D02*
X944874D01*
X943974Y892716D02*
Y894516D01*
X943074Y891816D02*
X944874D01*
X943974Y890916D02*
Y892716D01*
X943074Y884516D02*
X944874D01*
X943974Y883616D02*
Y885416D01*
X943074Y880916D02*
X944874D01*
X943974Y880016D02*
Y881816D01*
X943074Y882716D02*
X944874D01*
X943974Y881816D02*
Y883616D01*
X943074D02*
X944874D01*
X943974Y882716D02*
Y884516D01*
X943074Y881816D02*
X944874D01*
X943974Y880916D02*
Y882716D01*
X943074Y874616D02*
X944874D01*
X943974Y873716D02*
Y875516D01*
X943074Y871016D02*
X944874D01*
X943974Y870116D02*
Y871916D01*
X943074Y872816D02*
X944874D01*
X943974Y871916D02*
Y873716D01*
X943074D02*
X944874D01*
X943974Y872816D02*
Y874616D01*
X943074Y871916D02*
X944874D01*
X943974Y871016D02*
Y872816D01*
X943074Y864516D02*
X944874D01*
X943974Y863616D02*
Y865416D01*
X943074Y860916D02*
X944874D01*
X943974Y860016D02*
Y861816D01*
X943074Y862716D02*
X944874D01*
X943974Y861816D02*
Y863616D01*
X943074D02*
X944874D01*
X943974Y862716D02*
Y864516D01*
X943074Y861816D02*
X944874D01*
X943974Y860916D02*
Y862716D01*
X943074Y854516D02*
X944874D01*
X943974Y853616D02*
Y855416D01*
X943074Y850916D02*
X944874D01*
X943974Y850016D02*
Y851816D01*
X943074Y852716D02*
X944874D01*
X943974Y851816D02*
Y853616D01*
X943074D02*
X944874D01*
X943974Y852716D02*
Y854516D01*
X943074Y851816D02*
X944874D01*
X943974Y850916D02*
Y852716D01*
X943074Y844516D02*
X944874D01*
X943974Y843616D02*
Y845416D01*
X943074Y840916D02*
X944874D01*
X943974Y840016D02*
Y841816D01*
X943074Y842716D02*
X944874D01*
X943974Y841816D02*
Y843616D01*
X943074D02*
X944874D01*
X943974Y842716D02*
Y844516D01*
X943074Y841816D02*
X944874D01*
X943974Y840916D02*
Y842716D01*
X943074Y834516D02*
X944874D01*
X943974Y833616D02*
Y835416D01*
X943074Y830916D02*
X944874D01*
X943974Y830016D02*
Y831816D01*
X943074Y832716D02*
X944874D01*
X943974Y831816D02*
Y833616D01*
X943074D02*
X944874D01*
X943974Y832716D02*
Y834516D01*
X943074Y831816D02*
X944874D01*
X943974Y830916D02*
Y832716D01*
X943074Y824516D02*
X944874D01*
X943974Y823616D02*
Y825416D01*
X943074Y820916D02*
X944874D01*
X943974Y820016D02*
Y821816D01*
X943074Y822716D02*
X944874D01*
X943974Y821816D02*
Y823616D01*
X943074D02*
X944874D01*
X943974Y822716D02*
Y824516D01*
X943074Y821816D02*
X944874D01*
X943974Y820916D02*
Y822716D01*
X943074Y814516D02*
X944874D01*
X943974Y813616D02*
Y815416D01*
X943074Y810916D02*
X944874D01*
X943974Y810016D02*
Y811816D01*
X943074Y812716D02*
X944874D01*
X943974Y811816D02*
Y813616D01*
X943074D02*
X944874D01*
X943974Y812716D02*
Y814516D01*
X943074Y811816D02*
X944874D01*
X943974Y810916D02*
Y812716D01*
X943074Y804516D02*
X944874D01*
X943974Y803616D02*
Y805416D01*
X943074Y800916D02*
X944874D01*
X943974Y800016D02*
Y801816D01*
X943074Y802716D02*
X944874D01*
X943974Y801816D02*
Y803616D01*
X943074D02*
X944874D01*
X943974Y802716D02*
Y804516D01*
X943074Y801816D02*
X944874D01*
X943974Y800916D02*
Y802716D01*
X956500Y841100D02*
X957700D01*
X957100Y840500D02*
Y841700D01*
X1009400Y824200D02*
X1010600D01*
X1010000Y823600D02*
Y824800D01*
X1011100Y826000D02*
X1012300D01*
X1011700Y825400D02*
Y826600D01*
X1060200Y851600D02*
X1061200D01*
X1060700Y851100D02*
Y852100D01*
X1040200Y851900D02*
X1041200D01*
X1040700Y851400D02*
Y852400D01*
X1055100Y849200D02*
X1056300D01*
X1055700Y848600D02*
Y849800D01*
X1027000Y863300D02*
X1028200D01*
X1027600Y862700D02*
Y863900D01*
X1000400Y879300D02*
X1001600D01*
X1001000Y878700D02*
Y879900D01*
X1008500Y867200D02*
X1009700D01*
X1009100Y866600D02*
Y867800D01*
X1009200Y843200D02*
X1010400D01*
X1009800Y842600D02*
Y843800D01*
X990500Y818000D02*
X991700D01*
X991100Y817400D02*
Y818600D01*
X1027700Y814100D02*
X1028900D01*
X1028300Y813500D02*
Y814700D01*
X1039000Y821900D02*
X1040200D01*
X1039600Y821300D02*
Y822500D01*
X1048900Y810300D02*
X1050100D01*
X1049500Y809700D02*
Y810900D01*
X1053674Y809700D02*
X1054874D01*
X1054274Y809100D02*
Y810300D01*
X1057100Y813800D02*
X1058300D01*
X1057700Y813200D02*
Y814400D01*
X984100Y854500D02*
X985300D01*
X984700Y853900D02*
Y855100D01*
X1007700Y838900D02*
X1008900D01*
X1008300Y838300D02*
Y839500D01*
X992300Y841200D02*
X993500D01*
X992900Y840600D02*
Y841800D01*
X988700Y839100D02*
X989900D01*
X989300Y838500D02*
Y839700D01*
X1015200Y882000D02*
X1016400D01*
X1015800Y881400D02*
Y882600D01*
X1055600Y837800D02*
X1056800D01*
X1056200Y837200D02*
Y838400D01*
X1053800Y840400D02*
X1055000D01*
X1054400Y839800D02*
Y841000D01*
X1035900Y862800D02*
X1037100D01*
X1036500Y862200D02*
Y863400D01*
X1027100Y866800D02*
X1028300D01*
X1027700Y866200D02*
Y867400D01*
X984700Y873900D02*
X985900D01*
X985300Y873300D02*
Y874500D01*
X1001300Y868200D02*
X1002500D01*
X1001900Y867600D02*
Y868800D01*
X988100Y871200D02*
X989300D01*
X988700Y870600D02*
Y871800D01*
X990600Y847000D02*
X991800D01*
X991200Y846400D02*
Y847600D01*
X1072100Y856500D02*
X1073300D01*
X1072700Y855900D02*
Y857100D01*
X1075200Y859100D02*
X1076400D01*
X1075800Y858500D02*
Y859700D01*
X1059000Y824700D02*
X1060200D01*
X1059600Y824100D02*
Y825300D01*
X992600Y875000D02*
X993800D01*
X993200Y874400D02*
Y875600D01*
X992500Y813400D02*
X993700D01*
X993100Y812800D02*
Y814000D01*
X989200Y815500D02*
X990400D01*
X989800Y814900D02*
Y816100D01*
X1031674Y847300D02*
X1032874D01*
X1032274Y846700D02*
Y847900D01*
X1027400Y851200D02*
X1028600D01*
X1028000Y850600D02*
Y851800D01*
X1035400Y851200D02*
X1036600D01*
X1036000Y850600D02*
Y851800D01*
X1035400Y843200D02*
X1036600D01*
X1036000Y842600D02*
Y843800D01*
X1027400Y843200D02*
X1028600D01*
X1028000Y842600D02*
Y843800D01*
X1027300Y847300D02*
X1028500D01*
X1027900Y846700D02*
Y847900D01*
X1031700Y851200D02*
X1032900D01*
X1032300Y850600D02*
Y851800D01*
X1031700Y843200D02*
X1032900D01*
X1032300Y842600D02*
Y843800D01*
X1035300Y847200D02*
X1036500D01*
X1035900Y846600D02*
Y847800D01*
X976900Y836300D02*
X978100D01*
X977500Y835700D02*
Y836900D01*
X976900Y831900D02*
X978100D01*
X977500Y831300D02*
Y832500D01*
X976900Y827100D02*
X978100D01*
X977500Y826500D02*
Y827700D01*
X976800Y860700D02*
X978000D01*
X977400Y860100D02*
Y861300D01*
X976700Y876500D02*
X977900D01*
X977300Y875900D02*
Y877100D01*
X976800Y870600D02*
X978000D01*
X977400Y870000D02*
Y871200D01*
X976800Y857400D02*
X978000D01*
X977400Y856800D02*
Y858000D01*
X976800Y854400D02*
X978000D01*
X977400Y853800D02*
Y855000D01*
X1082400Y846000D02*
X1084600D01*
X1083500Y844900D02*
Y847100D01*
X1082400Y846800D02*
X1084600D01*
X1083500Y845700D02*
Y847900D01*
X1082400Y847600D02*
X1084600D01*
X1083500Y846500D02*
Y848700D01*
X1082400Y848500D02*
X1084600D01*
X1083500Y847400D02*
Y849600D01*
X1082400Y849300D02*
X1084600D01*
X1083500Y848200D02*
Y850400D01*
X1082400Y850100D02*
X1084600D01*
X1083500Y849000D02*
Y851200D01*
X1082400Y850800D02*
X1084600D01*
X1083500Y849700D02*
Y851900D01*
X976400Y851000D02*
X978600D01*
X977500Y849900D02*
Y852100D01*
X976400Y850300D02*
X978600D01*
X977500Y849200D02*
Y851400D01*
X976400Y849600D02*
X978600D01*
X977500Y848500D02*
Y850700D01*
X976400Y849000D02*
X978600D01*
X977500Y847900D02*
Y850100D01*
X976400Y848400D02*
X978600D01*
X977500Y847300D02*
Y849500D01*
X976400Y847800D02*
X978600D01*
X977500Y846700D02*
Y848900D01*
X976400Y847100D02*
X978600D01*
X977500Y846000D02*
Y848200D01*
X976400Y846500D02*
X978600D01*
X977500Y845400D02*
Y847600D01*
X1026700Y890800D02*
X1028900D01*
X1027800Y889700D02*
Y891900D01*
X1027300Y890800D02*
X1029500D01*
X1028400Y889700D02*
Y891900D01*
X1027900Y890800D02*
X1030100D01*
X1029000Y889700D02*
Y891900D01*
X1028600Y890800D02*
X1030800D01*
X1029700Y889700D02*
Y891900D01*
X1029300Y890800D02*
X1031500D01*
X1030400Y889700D02*
Y891900D01*
X1030000Y890800D02*
X1032200D01*
X1031100Y889700D02*
Y891900D01*
X1030700Y890800D02*
X1032900D01*
X1031800Y889700D02*
Y891900D01*
X1031400Y890800D02*
X1033600D01*
X1032500Y889700D02*
Y891900D01*
X1026500Y805700D02*
X1028700D01*
X1027600Y804600D02*
Y806800D01*
X1027300Y805700D02*
X1029500D01*
X1028400Y804600D02*
Y806800D01*
X1028100Y805700D02*
X1030300D01*
X1029200Y804600D02*
Y806800D01*
X1029000Y805700D02*
X1031200D01*
X1030100Y804600D02*
Y806800D01*
X1029900Y805700D02*
X1032100D01*
X1031000Y804600D02*
Y806800D01*
X1030800Y805700D02*
X1033000D01*
X1031900Y804600D02*
Y806800D01*
X1031500Y805700D02*
X1033700D01*
X1032600Y804600D02*
Y806800D01*
X1032100Y805700D02*
X1034300D01*
X1033200Y804600D02*
Y806800D01*
X977000Y815200D02*
X978200D01*
X977600Y814600D02*
Y815800D01*
X977000Y811200D02*
X978200D01*
X977600Y810600D02*
Y811800D01*
X976900Y807400D02*
X978100D01*
X977500Y806800D02*
Y808000D01*
X976900Y804100D02*
X978100D01*
X977500Y803500D02*
Y804700D01*
X982400Y804100D02*
X983600D01*
X983000Y803500D02*
Y804700D01*
X986700Y804100D02*
X987900D01*
X987300Y803500D02*
Y804700D01*
X990900Y804100D02*
X992100D01*
X991500Y803500D02*
Y804700D01*
X995500Y804100D02*
X996700D01*
X996100Y803500D02*
Y804700D01*
X999900Y804100D02*
X1001100D01*
X1000500Y803500D02*
Y804700D01*
X1003700Y804100D02*
X1004900D01*
X1004300Y803500D02*
Y804700D01*
X1007800Y804200D02*
X1009000D01*
X1008400Y803600D02*
Y804800D01*
X1012600Y804200D02*
X1013800D01*
X1013200Y803600D02*
Y804800D01*
X1017200Y804300D02*
X1018400D01*
X1017800Y803700D02*
Y804900D01*
X1022100Y804200D02*
X1023300D01*
X1022700Y803600D02*
Y804800D01*
X1036900Y804300D02*
X1038100D01*
X1037500Y803700D02*
Y804900D01*
X1041700Y804200D02*
X1042900D01*
X1042300Y803600D02*
Y804800D01*
X1046400Y804200D02*
X1047600D01*
X1047000Y803600D02*
Y804800D01*
X1051000Y804200D02*
X1052200D01*
X1051600Y803600D02*
Y804800D01*
X1057300Y804200D02*
X1058500D01*
X1057900Y803600D02*
Y804800D01*
X1062500Y804300D02*
X1063700D01*
X1063100Y803700D02*
Y804900D01*
X1068400Y804300D02*
X1069600D01*
X1069000Y803700D02*
Y804900D01*
X1074400Y804300D02*
X1075600D01*
X1075000Y803700D02*
Y804900D01*
X1079400Y804400D02*
X1080600D01*
X1080000Y803800D02*
Y805000D01*
X1083100Y804500D02*
X1084300D01*
X1083700Y803900D02*
Y805100D01*
X1083400Y808500D02*
X1084600D01*
X1084000Y807900D02*
Y809100D01*
X1083400Y820200D02*
X1084600D01*
X1084000Y819600D02*
Y820800D01*
X1083400Y825200D02*
X1084600D01*
X1084000Y824600D02*
Y825800D01*
X1083400Y836800D02*
X1084600D01*
X1084000Y836200D02*
Y837400D01*
X1083400Y842200D02*
X1084600D01*
X1084000Y841600D02*
Y842800D01*
X976400Y887500D02*
X977600D01*
X977000Y886900D02*
Y888100D01*
X976400Y891300D02*
X977600D01*
X977000Y890700D02*
Y891900D01*
X981400Y891300D02*
X982600D01*
X982000Y890700D02*
Y891900D01*
X987200Y891300D02*
X988400D01*
X987800Y890700D02*
Y891900D01*
X992200Y891300D02*
X993400D01*
X992800Y890700D02*
Y891900D01*
X997300Y891300D02*
X998500D01*
X997900Y890700D02*
Y891900D01*
X1003500Y891300D02*
X1004700D01*
X1004100Y890700D02*
Y891900D01*
X1010000Y891300D02*
X1011200D01*
X1010600Y890700D02*
Y891900D01*
X1016200Y891300D02*
X1017400D01*
X1016800Y890700D02*
Y891900D01*
X1021000Y891300D02*
X1022200D01*
X1021600Y890700D02*
Y891900D01*
X1036900Y891200D02*
X1038100D01*
X1037500Y890600D02*
Y891800D01*
X1041800Y891200D02*
X1043000D01*
X1042400Y890600D02*
Y891800D01*
X1046400Y891200D02*
X1047600D01*
X1047000Y890600D02*
Y891800D01*
X1051700Y891200D02*
X1052900D01*
X1052300Y890600D02*
Y891800D01*
X1058500Y891200D02*
X1059700D01*
X1059100Y890600D02*
Y891800D01*
X1063800Y891200D02*
X1065000D01*
X1064400Y890600D02*
Y891800D01*
X1069600Y891200D02*
X1070800D01*
X1070200Y890600D02*
Y891800D01*
X1075400Y891200D02*
X1076600D01*
X1076000Y890600D02*
Y891800D01*
X1079700Y891200D02*
X1080900D01*
X1080300Y890600D02*
Y891800D01*
X1083400Y891200D02*
X1084600D01*
X1084000Y890600D02*
Y891800D01*
X1083400Y885800D02*
X1084600D01*
X1084000Y885200D02*
Y886400D01*
X1083400Y882400D02*
X1084600D01*
X1084000Y881800D02*
Y883000D01*
X1083400Y868200D02*
X1084600D01*
X1084000Y867600D02*
Y868800D01*
X1083400Y864700D02*
X1084600D01*
X1084000Y864100D02*
Y865300D01*
X1083400Y860300D02*
X1084600D01*
X1084000Y859700D02*
Y860900D01*
X1070800Y876816D02*
X1072000D01*
X1071400Y876216D02*
Y877416D01*
X1064000Y853200D02*
X1065200D01*
X1064600Y852600D02*
Y853800D01*
X1059250Y866900D02*
X1060750D01*
X1060000Y866150D02*
Y867650D01*
X1067100Y811100D02*
X1068300D01*
X1067700Y810500D02*
Y811700D01*
X1062700Y812300D02*
X1063900D01*
X1063300Y811700D02*
Y812900D01*
X1058200Y835700D02*
X1059400D01*
X1058800Y835100D02*
Y836300D01*
X1060600Y827200D02*
X1061800D01*
X1061200Y826600D02*
Y827800D01*
X1074000Y879500D02*
X1075200D01*
X1074600Y878900D02*
Y880100D01*
X981900Y875800D02*
X983100D01*
X982500Y875200D02*
Y876400D01*
X990400Y865700D02*
X991600D01*
X991000Y865100D02*
Y866300D01*
X1015100Y860716D02*
X1016300D01*
X1015700Y860116D02*
Y861316D01*
X1048650Y865700D02*
X1050150D01*
X1049400Y864950D02*
Y866450D01*
X1083400Y864700D02*
X1084600D01*
X1084000Y864100D02*
Y865300D01*
X1083400Y882400D02*
X1084600D01*
X1084000Y881800D02*
Y883000D01*
X1083400Y885800D02*
X1084600D01*
X1084000Y885200D02*
Y886400D01*
X1045350Y875600D02*
X1046850D01*
X1046100Y874850D02*
Y876350D01*
X1042700Y881400D02*
X1043900D01*
X1043300Y880800D02*
Y882000D01*
X1068100Y865500D02*
X1069300D01*
X1068700Y864900D02*
Y866100D01*
X1064400Y865400D02*
X1065600D01*
X1065000Y864800D02*
Y866000D01*
X1072000Y862900D02*
X1073200D01*
X1072600Y862300D02*
Y863500D01*
X1034900Y876400D02*
X1036100D01*
X1035500Y875800D02*
Y877000D01*
X999500Y863500D02*
X1000700D01*
X1000100Y862900D02*
Y864100D01*
X1053500Y871600D02*
X1054700D01*
X1054100Y871000D02*
Y872200D01*
X1069500Y827400D02*
X1070700D01*
X1070100Y826800D02*
Y828000D01*
X1067300Y845100D02*
X1068500D01*
X1067900Y844500D02*
Y845700D01*
X1044900Y879400D02*
X1046100D01*
X1045500Y878800D02*
Y880000D01*
X1061300Y865400D02*
X1062500D01*
X1061900Y864800D02*
Y866000D01*
X1052500Y879900D02*
X1053700D01*
X1053100Y879300D02*
Y880500D01*
X1059650Y862200D02*
X1061150D01*
X1060400Y861450D02*
Y862950D01*
X1071350Y866000D02*
X1072850D01*
X1072100Y865250D02*
Y866750D01*
X1074050Y875416D02*
X1075550D01*
X1074800Y874666D02*
Y876166D01*
X1046324Y865200D02*
X1047824D01*
X1047074Y864450D02*
Y865950D01*
X1031850Y878400D02*
X1033350D01*
X1032600Y877650D02*
Y879150D01*
X1023750Y879200D02*
X1025250D01*
X1024500Y878450D02*
Y879950D01*
X1018850Y880500D02*
X1020350D01*
X1019600Y879750D02*
Y881250D01*
X1012350Y879800D02*
X1013850D01*
X1013100Y879050D02*
Y880550D01*
X995750Y864300D02*
X997250D01*
X996500Y863550D02*
Y865050D01*
X1058150Y878200D02*
X1059650D01*
X1058900Y877450D02*
Y878950D01*
M02*
