M72
M48
T1F00S00C0.010
T2F00S00C0.012
T3F00S00C0.015
T4F00S00C0.018
T5F00S00C0.022
T6F00S00C0.024
T7F00S00C0.028
T8F00S00C0.033
T9F00S00C0.035
T10F00S00C0.047
%
T01
X10199Y10024
X10399Y10021
T02
X09363Y09916
X09567Y09868
Y09824
Y09776
X09568Y09657
Y09617
X09567Y09579
Y09546
X09622
X09665
X09707
X09753
X09797
X09835
X09876Y09547
X09924
X0997Y09548
X10019Y09547
X10167Y09548
X10215Y09547
X10262
X10308
X10371
X10423Y09548
X10482
X10542
X10592Y09549
X10629Y0955
X10632Y0959
Y09707
Y09757
Y09873
Y09927
Y10108
Y10152
Y10187
Y10329
Y10363
Y10417
X10595
X10552
X10494
X10436
X10383
X10315
X10262
X10216
X10167
X10225Y10319
X10247Y10299
X10323Y10304
X10333Y10245
X10357
Y10221
X10357Y10197
X10333
X10309
X10309Y10221
X10333Y10221
X10309Y10245
X10147Y10269
X10157Y10133
X10068Y10138
X10069Y10173
X10072Y10017
X10071Y09978
X10072Y09937
X10115
X10152
X10151Y09977
X10115Y09978
X10115Y10017
X10152
X10349Y09997
X10336Y09909
X10354Y09883
X1038Y09862
X10404Y09777
X10388Y09752
X10369Y09643
X10425Y09628
X10469Y09616
X10335Y09602
X10287Y09608
X10188Y09724
X10075Y09646
X09987Y09744
X09892Y09747
X09909Y09765
X09875Y09894
X0989Y09937
X09721Y09917
X09685Y09896
X09704Y09975
X09639Y1005
X09566Y10049
Y10079
Y10112
Y10211
X09565Y1027
X09617Y10263
X09645Y10244
X09679Y10217
X09702Y10162
X09793Y1014
X09811Y10187
X09883Y10177
X09949Y10112
X0995Y10325
X0996Y10418
X10008
X09898
X09833
X09771
X0972
X0967
X09612
X09562
Y1038
X09724Y10255
X09802Y10298
X09703Y09685
X0969Y0966
X09723Y09639
X10493Y09779
X10471Y09956
X10438Y10037
X10519Y1007
X1055Y10096
X10518Y10134
X10479Y1016
X10442Y10159
X10411
X10506Y10273
X10538Y103
T03
X09757Y10148
X09923Y10303
X09988Y1031
X10037Y10297
X10118Y10289
X10253Y10261
X10263Y10157
X10286Y10162
X10392Y10174
X10396Y10127
X10513Y10165
X1054Y10259
X10381Y10287
T04
X09232Y09514
Y09523
Y09532
Y09541
Y0955
Y09614
Y09623
Y09632
Y09641
Y0965
Y09714
Y09723
Y09732
Y09741
Y0975
Y09814
Y09823
Y09832
Y09841
Y0985
Y09914
Y09923
Y09932
Y09941
Y0995
Y10014
Y10023
Y10032
Y10041
Y1005
Y10114
Y10123
Y10132
Y10141
Y1015
Y10215
Y10224
Y10233
Y10242
Y10251
Y10314
Y10323
Y10332
Y10341
Y1035
Y10414
Y10423
Y10432
Y10441
Y1045
X10792Y1037
Y10361
Y10352
Y10343
Y10334
Y1027
Y10261
Y10252
Y10243
Y10234
Y1017
Y10161
Y10152
Y10143
Y10134
Y0977
Y09761
Y09752
Y09743
X10792Y09734
X10792Y0967
Y09661
Y09652
Y09643
Y09634
T05
X09567Y0997
Y09976
Y09983
Y09989
Y09995
Y10001
Y10008
Y10015
X1007Y10413
X10076
X10082
X10089
X10096
X10103
X1011
X10117
X10118Y09562
X10124
X10111
X10102
X10093
X10084
X10076
X10068
X10627Y09965
Y09973
Y09981
Y0999
Y09998
Y10006
Y10013
T06
X10492Y09752
Y09944
T07
X09467Y09551
Y0963
Y09709
Y09787
Y09866
Y09945
X09467Y10024
X09467Y10102
Y10181
Y1026
Y10339
Y10417
T08
X10712Y09652
Y09752
Y09852
Y09952
Y10052
Y10152
Y10252
Y10352
T09
X09287Y09532
Y09632
Y09732
Y09832
Y09932
Y10032
Y10132
Y10232
Y10332
Y10432
T10
X09377Y09567
X09377Y10407
X10572Y09622
M30
