%FSLAX25Y25*%
%MOIN*%
G70*
G01*
G75*
%ADD10C,0.01000*%
%ADD11C,0.02000*%
%ADD12C,0.00800*%
%ADD13R,0.01969X0.02000*%
%ADD14R,0.03000X0.03000*%
%ADD15R,0.02000X0.01969*%
%ADD16R,0.03150X0.00984*%
%ADD17R,0.00984X0.03150*%
%ADD18R,0.00984X0.03150*%
%ADD19R,0.05906X0.05906*%
%ADD20O,0.03150X0.00984*%
%ADD21C,0.00800*%
%ADD22R,0.05906X0.05118*%
%ADD23R,0.02000X0.03150*%
%ADD24R,0.05118X0.05906*%
%ADD25R,0.02756X0.00984*%
%ADD26R,0.00984X0.02756*%
%ADD27R,0.06299X0.06299*%
%ADD28C,0.00700*%
%ADD29C,0.01500*%
%ADD30C,0.02900*%
%ADD31C,0.00600*%
%ADD32C,0.03000*%
%ADD33R,0.00900X0.00700*%
%ADD34R,0.03000X0.02247*%
%ADD35R,0.01600X0.02900*%
%ADD36R,0.07500X0.07700*%
%ADD37R,0.04500X0.03500*%
%ADD38R,0.03900X0.03000*%
%ADD39R,0.07700X0.04600*%
%ADD40R,0.02078X0.02277*%
%ADD41R,0.04100X0.02700*%
%ADD42R,0.04000X0.03000*%
%ADD43R,0.02300X0.04800*%
%ADD44C,0.04724*%
%ADD45C,0.06000*%
%ADD46O,0.09000X0.04500*%
%ADD47C,0.04331*%
%ADD48C,0.01500*%
%ADD49C,0.06200*%
%ADD50R,0.06200X0.06200*%
%ADD51R,0.06000X0.06000*%
%ADD52C,0.02200*%
%ADD53C,0.02400*%
%ADD54C,0.02000*%
%ADD55R,0.08026X0.06000*%
%ADD56R,0.08126X0.05900*%
%ADD57R,0.07700X0.06100*%
%ADD58R,0.05600X0.04400*%
%ADD59R,0.06200X0.05400*%
%ADD60C,0.01200*%
%ADD61R,0.08100X0.04600*%
%ADD62C,0.08661*%
D10*
X961400Y845300D02*
Y863800D01*
X957100Y841100D02*
X961400Y845300D01*
Y863800D02*
X967484Y867618D01*
X961400Y863800D02*
X966632Y865268D01*
X961400Y863800D02*
X966632Y869968D01*
X961400Y863800D02*
X967177Y866150D01*
X961400Y863800D02*
X967177Y869086D01*
X949500Y892700D02*
X949900D01*
D11*
X949500Y814800D02*
X950406Y814871D01*
X951291Y815084D01*
X952131Y815431D01*
X952906Y815907D01*
X953597Y816497D01*
X952873Y815773D02*
X952182Y814873D01*
X951748Y813825D01*
X951600Y812700D01*
X967484Y828248D02*
X966478Y828149D01*
X965511Y827855D01*
X964619Y827379D01*
X963838Y826737D01*
X967484Y826248D02*
X966506Y826200D01*
X965536Y826056D01*
X964586Y825818D01*
X963663Y825488D01*
X962777Y825069D01*
X961936Y824565D01*
X961149Y823981D01*
X960423Y823323D01*
X949500Y814800D02*
X950406Y814871D01*
X951291Y815084D01*
X952131Y815431D01*
X952906Y815907D01*
X953597Y816497D01*
X952873Y815773D02*
X952182Y814873D01*
X951748Y813825D01*
X951600Y812700D01*
X967484Y828248D02*
X966478Y828149D01*
X965511Y827855D01*
X964619Y827379D01*
X963838Y826737D01*
X967484Y826248D02*
X966506Y826200D01*
X965536Y826056D01*
X964586Y825818D01*
X963663Y825488D01*
X962777Y825069D01*
X961936Y824565D01*
X961149Y823981D01*
X960423Y823323D01*
X949500Y812700D02*
X949800D01*
X965100Y828000D01*
X967500D01*
X959112Y822013D02*
X968520Y826537D01*
X959112Y822013D02*
X966141Y829730D01*
X959112Y822013D02*
X967484Y828248D01*
X948207Y814355D02*
X956965Y819865D01*
X951100Y811340D02*
X956965Y819865D01*
X949500Y812700D02*
X956965Y819865D01*
D29*
X949500Y892200D02*
Y892700D01*
D32*
Y844300D02*
X950540Y844368D01*
X951562Y844571D01*
X952549Y844906D01*
X953483Y845367D01*
X954350Y845946D01*
X955134Y846634D01*
X963220Y883100D02*
X964104Y883187D01*
X964954Y883445D01*
X965737Y883863D01*
X966424Y884427D01*
X949500Y844300D02*
X950540Y844368D01*
X951562Y844571D01*
X952549Y844906D01*
X953483Y845367D01*
X954350Y845946D01*
X955134Y846634D01*
X963220Y883100D02*
X964104Y883187D01*
X964954Y883445D01*
X965737Y883863D01*
X966424Y884427D01*
X949500Y842700D02*
X951200D01*
X957200Y848700D02*
Y878000D01*
X962300Y883100D01*
X951200Y842700D02*
X957200Y848700D01*
X962300Y883100D02*
X967700D01*
X962300D02*
X967484Y883366D01*
X948623Y844038D02*
X957200Y848700D01*
X950584Y841523D02*
X957200Y848700D01*
X949500Y842700D02*
X957200Y848700D01*
D44*
X958526Y806184D02*
D03*
X1078000Y811700D02*
D03*
X958500Y890200D02*
D03*
D45*
X1091984Y844674D02*
D03*
Y834674D02*
D03*
Y884674D02*
D03*
Y814674D02*
D03*
Y824674D02*
D03*
Y854674D02*
D03*
Y864674D02*
D03*
X967484Y875492D02*
D03*
Y867618D02*
D03*
Y859744D02*
D03*
Y836122D02*
D03*
Y828248D02*
D03*
Y891240D02*
D03*
Y883366D02*
D03*
Y812500D02*
D03*
Y820374D02*
D03*
X967484Y851870D02*
D03*
X967484Y843996D02*
D03*
D46*
X1091984Y874674D02*
D03*
D48*
X1056474Y869231D02*
D03*
X1054112D02*
D03*
X1051750D02*
D03*
X1051750Y871593D02*
D03*
X1056474D02*
D03*
Y873955D02*
D03*
X1054112D02*
D03*
X1051750D02*
D03*
D49*
X949500Y872700D02*
D03*
Y882700D02*
D03*
Y832700D02*
D03*
Y822700D02*
D03*
Y842700D02*
D03*
Y812700D02*
D03*
Y862700D02*
D03*
Y892700D02*
D03*
Y852700D02*
D03*
D50*
Y802700D02*
D03*
D51*
X967484Y804626D02*
D03*
D52*
X1019500Y823900D02*
D03*
X957100Y841100D02*
D03*
X1010000Y824200D02*
D03*
X1011700Y826000D02*
D03*
X1055700Y849200D02*
D03*
X1027600Y863300D02*
D03*
X1001000Y879300D02*
D03*
X1009100Y867200D02*
D03*
X1009800Y843200D02*
D03*
X991100Y818000D02*
D03*
X1028300Y814100D02*
D03*
X1039600Y821900D02*
D03*
X1049500Y810300D02*
D03*
X1054274Y809700D02*
D03*
X1057700Y813800D02*
D03*
X984700Y854500D02*
D03*
X1008300Y838900D02*
D03*
X992900Y841200D02*
D03*
X989300Y839100D02*
D03*
X1015800Y882000D02*
D03*
X1056200Y837800D02*
D03*
X1054400Y840400D02*
D03*
X1036500Y862800D02*
D03*
X1027700Y866800D02*
D03*
X985300Y873900D02*
D03*
X1001900Y868200D02*
D03*
X988700Y871200D02*
D03*
X991200Y847000D02*
D03*
X1072700Y856500D02*
D03*
X1075800Y859100D02*
D03*
X1059600Y824700D02*
D03*
X993200Y875000D02*
D03*
X993100Y813400D02*
D03*
X989800Y815500D02*
D03*
X1032274Y847300D02*
D03*
X1028000Y851200D02*
D03*
X1036000D02*
D03*
Y843200D02*
D03*
X1028000D02*
D03*
X1027900Y847300D02*
D03*
X1032300Y851200D02*
D03*
Y843200D02*
D03*
X1035900Y847200D02*
D03*
X977500Y836300D02*
D03*
Y831900D02*
D03*
Y827100D02*
D03*
X977400Y860700D02*
D03*
X977300Y876500D02*
D03*
X977400Y870600D02*
D03*
Y857400D02*
D03*
Y854400D02*
D03*
X1083500Y846000D02*
D03*
Y846800D02*
D03*
Y847600D02*
D03*
Y848500D02*
D03*
Y849300D02*
D03*
Y850100D02*
D03*
Y850800D02*
D03*
X977500Y851000D02*
D03*
Y850300D02*
D03*
Y849600D02*
D03*
Y849000D02*
D03*
Y848400D02*
D03*
Y847800D02*
D03*
Y847100D02*
D03*
Y846500D02*
D03*
X1027800Y890800D02*
D03*
X1028400D02*
D03*
X1029000D02*
D03*
X1029700D02*
D03*
X1030400D02*
D03*
X1031100D02*
D03*
X1031800D02*
D03*
X1032500D02*
D03*
X1027600Y805700D02*
D03*
X1028400D02*
D03*
X1029200D02*
D03*
X1030100D02*
D03*
X1031000D02*
D03*
X1031900D02*
D03*
X1032600D02*
D03*
X1033200D02*
D03*
X977600Y815200D02*
D03*
Y811200D02*
D03*
X977500Y807400D02*
D03*
Y804100D02*
D03*
X983000D02*
D03*
X987300D02*
D03*
X991500D02*
D03*
X996100D02*
D03*
X1000500D02*
D03*
X1004300D02*
D03*
X1008400Y804200D02*
D03*
X1013200D02*
D03*
X1017800Y804300D02*
D03*
X1022700Y804200D02*
D03*
X1037500Y804300D02*
D03*
X1042300Y804200D02*
D03*
X1047000D02*
D03*
X1051600D02*
D03*
X1057900D02*
D03*
X1063100Y804300D02*
D03*
X1069000D02*
D03*
X1075000D02*
D03*
X1080000Y804400D02*
D03*
X1083700Y804500D02*
D03*
X1084000Y808500D02*
D03*
Y820200D02*
D03*
Y825200D02*
D03*
Y836800D02*
D03*
Y842200D02*
D03*
X977000Y887500D02*
D03*
Y891300D02*
D03*
X982000D02*
D03*
X987800D02*
D03*
X992800D02*
D03*
X997900D02*
D03*
X1004100D02*
D03*
X1010600D02*
D03*
X1016800D02*
D03*
X1021600D02*
D03*
X1037500Y891200D02*
D03*
X1042400D02*
D03*
X1047000D02*
D03*
X1052300D02*
D03*
X1059100D02*
D03*
X1064400D02*
D03*
X1070200D02*
D03*
X1076000D02*
D03*
X1080300D02*
D03*
X1084000D02*
D03*
Y885800D02*
D03*
Y882400D02*
D03*
Y868200D02*
D03*
Y864700D02*
D03*
Y860300D02*
D03*
X1071400Y876816D02*
D03*
X1064600Y853200D02*
D03*
X1060000Y866900D02*
D03*
X1067700Y811100D02*
D03*
X1063300Y812300D02*
D03*
X1058800Y835700D02*
D03*
X1061200Y827200D02*
D03*
X1074600Y879500D02*
D03*
X982500Y875800D02*
D03*
X1015700Y860716D02*
D03*
X1049400Y865700D02*
D03*
X1084000Y864700D02*
D03*
Y882400D02*
D03*
Y885800D02*
D03*
X1053100Y879900D02*
D03*
X1060400Y862200D02*
D03*
X1072100Y866000D02*
D03*
X1074800Y875416D02*
D03*
X1047074Y865200D02*
D03*
X1032600Y878400D02*
D03*
X1024500Y879200D02*
D03*
X1019600Y880500D02*
D03*
X1013100Y879800D02*
D03*
X996500Y864300D02*
D03*
X1058900Y878200D02*
D03*
D53*
X1099974Y816516D02*
D03*
Y812916D02*
D03*
Y814716D02*
D03*
Y815616D02*
D03*
Y813816D02*
D03*
Y826516D02*
D03*
X1099974Y822916D02*
D03*
X1099974Y824716D02*
D03*
Y825616D02*
D03*
Y823816D02*
D03*
Y886516D02*
D03*
Y882916D02*
D03*
Y884716D02*
D03*
Y885616D02*
D03*
Y883816D02*
D03*
Y866516D02*
D03*
Y862916D02*
D03*
Y864716D02*
D03*
Y865616D02*
D03*
Y863816D02*
D03*
Y876516D02*
D03*
Y872916D02*
D03*
Y874716D02*
D03*
Y875616D02*
D03*
Y873816D02*
D03*
X943974Y894516D02*
D03*
Y890916D02*
D03*
Y892716D02*
D03*
Y893616D02*
D03*
Y891816D02*
D03*
Y884516D02*
D03*
Y880916D02*
D03*
Y882716D02*
D03*
Y883616D02*
D03*
Y881816D02*
D03*
Y874616D02*
D03*
Y871016D02*
D03*
Y872816D02*
D03*
Y873716D02*
D03*
Y871916D02*
D03*
Y864516D02*
D03*
Y860916D02*
D03*
Y862716D02*
D03*
Y863616D02*
D03*
Y861816D02*
D03*
Y854516D02*
D03*
Y850916D02*
D03*
Y852716D02*
D03*
Y853616D02*
D03*
Y851816D02*
D03*
Y844516D02*
D03*
Y840916D02*
D03*
Y842716D02*
D03*
Y843616D02*
D03*
Y841816D02*
D03*
Y834516D02*
D03*
Y830916D02*
D03*
Y832716D02*
D03*
Y833616D02*
D03*
Y831816D02*
D03*
Y824516D02*
D03*
Y820916D02*
D03*
Y822716D02*
D03*
Y823616D02*
D03*
Y821816D02*
D03*
Y814516D02*
D03*
Y810916D02*
D03*
Y812716D02*
D03*
Y813616D02*
D03*
Y811816D02*
D03*
Y804516D02*
D03*
Y800916D02*
D03*
Y802716D02*
D03*
Y803616D02*
D03*
Y801816D02*
D03*
X991000Y865700D02*
D03*
X1046100Y875600D02*
D03*
X1043300Y881400D02*
D03*
X1068700Y865500D02*
D03*
X1065000Y865400D02*
D03*
X1072600Y862900D02*
D03*
X1035500Y876400D02*
D03*
X1000100Y863500D02*
D03*
X1054100Y871600D02*
D03*
X1070100Y827400D02*
D03*
X1067900Y845100D02*
D03*
X1045500Y879400D02*
D03*
X1061900Y865400D02*
D03*
D54*
X1060700Y851600D02*
D03*
X1040700Y851900D02*
D03*
D55*
X1095987Y814716D02*
D03*
Y884716D02*
D03*
D56*
X1095937Y824666D02*
D03*
D57*
X1095824Y864666D02*
D03*
D58*
X1097174Y874716D02*
D03*
D59*
X946274Y802816D02*
D03*
X946274Y842816D02*
D03*
Y852816D02*
D03*
Y862816D02*
D03*
Y872816D02*
D03*
Y882816D02*
D03*
Y892816D02*
D03*
Y812616D02*
D03*
Y822816D02*
D03*
Y832716D02*
D03*
D60*
X1099300Y878923D02*
X1098223Y878300D01*
X1098256Y871100D02*
X1099300Y870508D01*
X1096284Y844674D02*
X1096168Y845666D01*
X1095827Y846604D01*
X1095278Y847438D01*
X1094552Y848123D01*
X1093687Y848622D01*
X1092731Y848909D01*
X1091734Y848967D01*
X1090751Y848793D01*
X1089834Y848398D01*
X1089033Y847802D01*
X1088392Y847037D01*
X1087943Y846145D01*
X1087713Y845173D01*
X1087713Y844175D01*
X1087943Y843203D01*
X1088392Y842311D01*
X1089033Y841546D01*
X1089834Y840950D01*
X1090751Y840555D01*
X1091734Y840381D01*
X1092731Y840439D01*
X1093687Y840726D01*
X1094552Y841225D01*
X1095278Y841910D01*
X1095827Y842744D01*
X1096168Y843682D01*
X1096284Y844674D01*
Y834674D02*
X1096168Y835666D01*
X1095827Y836604D01*
X1095278Y837438D01*
X1094552Y838123D01*
X1093687Y838622D01*
X1092731Y838909D01*
X1091734Y838967D01*
X1090751Y838793D01*
X1089834Y838398D01*
X1089033Y837802D01*
X1088392Y837037D01*
X1087943Y836145D01*
X1087713Y835173D01*
X1087713Y834175D01*
X1087943Y833203D01*
X1088392Y832311D01*
X1089033Y831546D01*
X1089834Y830950D01*
X1090751Y830555D01*
X1091734Y830381D01*
X1092731Y830439D01*
X1093687Y830726D01*
X1094552Y831225D01*
X1095278Y831910D01*
X1095827Y832744D01*
X1096168Y833682D01*
X1096284Y834674D01*
X1089500Y878216D02*
X1088552Y878021D01*
X1087691Y877577D01*
X1086983Y876917D01*
X1086479Y876090D01*
X1086217Y875158D01*
X1086217Y874190D01*
X1086479Y873258D01*
X1086983Y872431D01*
X1087691Y871771D01*
X1088552Y871327D01*
X1089500Y871132D01*
X1075631Y843913D02*
X1075540Y844918D01*
X1075272Y845891D01*
X1074834Y846801D01*
X1074240Y847617D01*
X1073511Y848315D01*
X1072668Y848871D01*
X1071740Y849268D01*
X1070756Y849492D01*
X1069747Y849538D01*
X1068747Y849402D01*
X1067787Y849090D01*
X1066898Y848612D01*
X1066109Y847982D01*
X1065445Y847222D01*
X1064927Y846356D01*
X1064572Y845411D01*
X1064392Y844417D01*
Y843408D01*
X1064572Y842415D01*
X1064927Y841469D01*
X1065445Y840603D01*
X1066109Y839843D01*
X1066898Y839213D01*
X1067787Y838735D01*
X1068747Y838423D01*
X1069747Y838288D01*
X1070756Y838333D01*
X1071740Y838558D01*
X1072668Y838954D01*
X1073511Y839510D01*
X1074240Y840208D01*
X1074834Y841025D01*
X1075272Y841934D01*
X1075540Y842907D01*
X1075631Y843913D01*
Y824700D02*
X1075540Y825705D01*
X1075272Y826678D01*
X1074834Y827588D01*
X1074240Y828405D01*
X1073511Y829102D01*
X1072668Y829658D01*
X1071740Y830055D01*
X1070756Y830280D01*
X1069747Y830325D01*
X1068747Y830190D01*
X1067787Y829878D01*
X1066898Y829399D01*
X1066109Y828770D01*
X1065445Y828010D01*
X1064927Y827143D01*
X1064572Y826198D01*
X1064392Y825205D01*
Y824195D01*
X1064572Y823202D01*
X1064927Y822257D01*
X1065445Y821390D01*
X1066109Y820630D01*
X1066898Y820001D01*
X1067787Y819522D01*
X1068747Y819211D01*
X1069747Y819075D01*
X1070756Y819120D01*
X1071740Y819345D01*
X1072668Y819742D01*
X1073511Y820298D01*
X1074240Y820995D01*
X1074834Y821812D01*
X1075272Y822721D01*
X1075540Y823695D01*
X1075631Y824700D01*
X963731Y885977D02*
X964444Y886407D01*
X963731Y885977D02*
X964444Y886407D01*
X962156Y885896D02*
X961162Y885658D01*
X960320Y885080D01*
X962156Y885896D02*
X961162Y885658D01*
X960320Y885080D01*
X964470Y880300D02*
X965265Y879683D01*
X966183Y879268D01*
X967172Y879078D01*
X968178Y879123D01*
X969147Y879400D01*
X970024Y879896D01*
X970761Y880582D01*
X971319Y881421D01*
X971666Y882366D01*
X971784Y883366D01*
X962156Y885896D02*
X961162Y885658D01*
X960320Y885080D01*
X971784Y867618D02*
X971665Y868624D01*
X971314Y869573D01*
X970751Y870415D01*
X970006Y871101D01*
X969122Y871594D01*
X968147Y871867D01*
X967135Y871904D01*
X966142Y871703D01*
X965224Y871276D01*
X964431Y870646D01*
X963808Y869848D01*
X963388Y868927D01*
X969213Y863681D02*
X970070Y864183D01*
X970789Y864867D01*
X971332Y865699D01*
X971670Y866632D01*
X971784Y867618D01*
X953900Y892700D02*
X953784Y893703D01*
X953443Y894653D01*
X952894Y895500D01*
X953900Y882700D02*
X953799Y883637D01*
X953501Y884532D01*
X953018Y885342D01*
X952375Y886031D01*
X951599Y886567D01*
X950727Y886925D01*
X949799Y887090D01*
X948857Y887053D01*
X947944Y886816D01*
X955220Y879980D02*
X954613Y879072D01*
X954400Y878000D01*
X955220Y879980D02*
X954613Y879072D01*
X954400Y878000D01*
X947433Y888816D02*
X948368Y888448D01*
X949362Y888302D01*
X950364Y888386D01*
X951320Y888694D01*
X952181Y889211D01*
X952903Y889911D01*
X953447Y890755D01*
X953785Y891702D01*
X953900Y892700D01*
X944600Y888495D02*
X945331Y888816D01*
X947433Y878816D02*
X948368Y878448D01*
X949362Y878302D01*
X950364Y878386D01*
X951320Y878694D01*
X952181Y879211D01*
X952903Y879911D01*
X953447Y880756D01*
X953785Y881702D01*
X953900Y882700D01*
X944954Y886816D02*
X944600Y886936D01*
Y878495D02*
X945331Y878816D01*
X953900Y872700D02*
X953799Y873637D01*
X953501Y874532D01*
X953018Y875342D01*
X952375Y876031D01*
X951599Y876567D01*
X950727Y876925D01*
X949799Y877090D01*
X948857Y877053D01*
X947944Y876816D01*
X947433Y868816D02*
X948368Y868448D01*
X949362Y868302D01*
X950364Y868386D01*
X951320Y868694D01*
X952181Y869211D01*
X952903Y869911D01*
X953447Y870755D01*
X953785Y871702D01*
X953900Y872700D01*
X945161Y876816D02*
X944600Y877036D01*
Y868595D02*
X945162Y868816D01*
X953900Y862700D02*
X953799Y863637D01*
X953501Y864532D01*
X953018Y865342D01*
X952375Y866031D01*
X951599Y866567D01*
X950727Y866925D01*
X949799Y867090D01*
X948857Y867053D01*
X947944Y866816D01*
X944954D02*
X944600Y866936D01*
X971784Y859744D02*
X971670Y860730D01*
X971332Y861664D01*
X970789Y862495D01*
X970070Y863180D01*
X969213Y863681D01*
X969712Y824570D02*
X970572Y825256D01*
X971231Y826137D01*
X971644Y827157D01*
X971784Y828248D01*
X969213Y855807D02*
X970070Y856309D01*
X970789Y856993D01*
X971332Y857824D01*
X971670Y858758D01*
X971784Y859744D01*
X971784Y851870D02*
X971670Y852856D01*
X971332Y853790D01*
X970789Y854621D01*
X970070Y855306D01*
X969213Y855807D01*
Y847933D02*
X970070Y848435D01*
X970789Y849119D01*
X971332Y849950D01*
X971670Y850884D01*
X971784Y851870D01*
X971784Y843996D02*
X971670Y844982D01*
X971332Y845916D01*
X970789Y846747D01*
X970070Y847432D01*
X969213Y847933D01*
X969213Y840059D02*
X970070Y840561D01*
X970789Y841245D01*
X971332Y842076D01*
X971670Y843010D01*
X971784Y843996D01*
Y836122D02*
X971670Y837108D01*
X971332Y838042D01*
X970789Y838873D01*
X970070Y839558D01*
X969213Y840059D01*
Y832185D02*
X970070Y832687D01*
X970789Y833371D01*
X971332Y834202D01*
X971670Y835136D01*
X971784Y836122D01*
Y828248D02*
X971670Y829234D01*
X971332Y830168D01*
X970789Y830999D01*
X970070Y831684D01*
X969213Y832185D01*
X969213Y824311D02*
X969709Y824568D01*
X971784Y820374D02*
X971670Y821360D01*
X971332Y822294D01*
X970789Y823125D01*
X970070Y823810D01*
X969213Y824311D01*
X963332Y821489D02*
X963186Y820485D01*
X963279Y819475D01*
X963607Y818514D01*
X964151Y817657D01*
X964880Y816952D01*
X965755Y816437D01*
X969213D02*
X970070Y816938D01*
X970789Y817623D01*
X971332Y818454D01*
X971670Y819388D01*
X971784Y820374D01*
Y812500D02*
X971670Y813486D01*
X971332Y814420D01*
X970789Y815251D01*
X970070Y815936D01*
X969213Y816437D01*
X965755D02*
X964873Y815916D01*
X964139Y815202D01*
X963595Y814334D01*
X963271Y813361D01*
X963187Y812341D01*
X963347Y811329D01*
X963741Y810383D01*
X964348Y809558D01*
X965133Y808900D01*
X966052Y808446D01*
X967051Y808222D01*
X968076Y808241D01*
X969066Y808502D01*
X969967Y808989D01*
X970727Y809676D01*
X971303Y810524D01*
X971662Y811483D01*
X971784Y812500D01*
X951837Y848972D02*
X952695Y849675D01*
X953350Y850570D01*
X953760Y851600D01*
X953900Y852700D01*
X947433Y858816D02*
X948368Y858448D01*
X949362Y858302D01*
X950364Y858386D01*
X951320Y858694D01*
X952181Y859211D01*
X952903Y859911D01*
X953447Y860756D01*
X953785Y861702D01*
X953900Y862700D01*
X944600Y858495D02*
X945331Y858816D01*
X953900Y852700D02*
X953799Y853637D01*
X953501Y854532D01*
X953018Y855342D01*
X952375Y856031D01*
X951599Y856567D01*
X950727Y856925D01*
X949799Y857090D01*
X948857Y857053D01*
X947944Y856816D01*
X947433Y848816D02*
X948378Y848446D01*
X949382Y848302D01*
X950393Y848392D01*
X951357Y848711D01*
X944954Y856816D02*
X944600Y856936D01*
Y848495D02*
X945331Y848816D01*
X947863Y808616D02*
X948866Y808346D01*
X949905Y808319D01*
X950920Y808535D01*
X951857Y808984D01*
X952662Y809640D01*
X953291Y810467D01*
X944954Y846816D02*
X944600Y846936D01*
Y808495D02*
X944954Y808616D01*
X1099300Y878923D02*
Y895500D01*
X1099274Y878916D02*
Y895500D01*
X1098274Y878349D02*
Y895500D01*
X1097274Y878300D02*
Y895500D01*
X1096274Y878300D02*
Y895500D01*
X1095274Y878300D02*
Y895500D01*
X1094274Y878300D02*
Y895500D01*
X1093274Y878300D02*
Y895500D01*
X1092274Y878300D02*
Y895500D01*
X1096274Y844970D02*
Y871100D01*
X1089500Y878300D02*
X1098223D01*
X1095274Y847443D02*
Y871100D01*
X1094274Y848314D02*
Y871100D01*
X1093274Y848776D02*
Y871100D01*
X1091274Y878300D02*
Y895500D01*
X1092274Y848964D02*
Y871100D01*
X1091274Y848915D02*
Y871100D01*
X971749Y882816D02*
X1099300D01*
X971495Y881816D02*
X1099300D01*
X970946Y880816D02*
X1099300D01*
X971614Y868816D02*
X1099300D01*
X971180Y869816D02*
X1099300D01*
X1089500Y871100D02*
X1098256D01*
X971780Y867816D02*
X1099300D01*
X971709Y866816D02*
X1099300D01*
X971388Y865816D02*
X1099300D01*
X971649Y860816D02*
X1099300D01*
X971784Y859816D02*
X1099300D01*
X971252Y861816D02*
X1099300D01*
X971683Y858816D02*
X1099300D01*
X971328Y857816D02*
X1099300D01*
X971679Y852816D02*
X1099300D01*
X971319Y853816D02*
X1099300D01*
X971784Y851816D02*
X1099300D01*
X971653Y850816D02*
X1099300D01*
X1095713Y846816D02*
X1099300D01*
X1096130Y845816D02*
X1099300D01*
X1094920Y847816D02*
X1099300D01*
X1096282Y844816D02*
X1099300D01*
X1096198Y843816D02*
X1099300D01*
X1095862Y842816D02*
X1099300D01*
X1095197Y841816D02*
X1099300D01*
X1094274Y838314D02*
Y841034D01*
X1093883Y840816D02*
X1099300D01*
X1095713Y836816D02*
X1099300D01*
X1096130Y835816D02*
X1099300D01*
X1094920Y837816D02*
X1099300D01*
X1096282Y834816D02*
X1099300D01*
X1096198Y833816D02*
X1099300D01*
X1096274Y834970D02*
Y844378D01*
X1095274Y837443D02*
Y841905D01*
X1095862Y832816D02*
X1099300D01*
X1095197Y831816D02*
X1099300D01*
X1093140Y848816D02*
X1099300D01*
X1073863Y839816D02*
X1099300D01*
X971262Y849816D02*
X1099300D01*
X1093883Y830816D02*
X1099300D01*
X1093140Y838816D02*
X1099300D01*
X1093274Y838776D02*
Y840572D01*
X1092274Y838964D02*
Y840384D01*
X1073843Y828816D02*
X1099300D01*
X1074690Y827816D02*
X1099300D01*
X1072352Y829816D02*
X1099300D01*
X1075519Y825816D02*
X1099300D01*
X1075218Y826816D02*
X1099300D01*
X1075630Y824816D02*
X1099300D01*
X1075561Y823816D02*
X1099300D01*
X1075306Y822816D02*
X1099300D01*
X1074836Y821816D02*
X1099300D01*
X1090274Y878300D02*
Y895500D01*
X1089274Y878194D02*
Y895500D01*
X1090274Y848619D02*
Y871100D01*
X1089274Y848012D02*
Y871154D01*
X1088274Y877910D02*
Y895500D01*
X1087274Y877233D02*
Y895500D01*
X1086274Y875467D02*
Y895500D01*
X1073274Y848494D02*
Y895500D01*
X1088274Y846848D02*
Y871438D01*
X1074825Y846816D02*
X1088256D01*
X1074058Y847816D02*
X1089048D01*
X1075523Y842816D02*
X1088107D01*
X1075299Y845816D02*
X1087839D01*
X1075274Y845885D02*
Y895500D01*
X1074274Y847578D02*
Y895500D01*
X1075558Y844816D02*
X1087687D01*
X1075630Y843816D02*
X1087771D01*
X1071274Y849397D02*
Y895500D01*
X1072274Y849064D02*
Y895500D01*
X1070274Y849537D02*
Y895500D01*
X1072768Y848816D02*
X1090828D01*
X1069274Y849496D02*
Y895500D01*
X1068274Y849272D02*
Y895500D01*
X971274Y869650D02*
Y881334D01*
Y861776D02*
Y865586D01*
Y853902D02*
Y857712D01*
X1067274Y848839D02*
Y895500D01*
X1066274Y848134D02*
Y895500D01*
X1065274Y846974D02*
Y895500D01*
X971380Y845816D02*
X1064701D01*
X971705Y844816D02*
X1064442D01*
X971274Y846028D02*
Y849839D01*
X971780Y843816D02*
X1064370D01*
X971619Y842816D02*
X1064477D01*
X1091274Y838915D02*
Y840433D01*
X1089274Y838012D02*
Y841336D01*
X1074703Y840816D02*
X1090086D01*
X1090274Y838619D02*
Y840729D01*
X1072393Y838816D02*
X1090828D01*
X1088274Y836848D02*
Y842500D01*
X1075226Y841816D02*
X1088772D01*
X1071274Y830185D02*
Y838428D01*
X1070274Y830324D02*
Y838289D01*
X1074274Y828366D02*
Y840247D01*
X1075274Y826672D02*
Y841940D01*
X1073274Y829281D02*
Y839332D01*
X1072274Y829851D02*
Y838762D01*
X1069274Y830284D02*
Y838329D01*
X1066274Y828922D02*
Y839691D01*
X1065274Y827761D02*
Y840852D01*
X1068274Y830060D02*
Y838553D01*
X1067274Y829627D02*
Y838986D01*
X971437Y837816D02*
X1089048D01*
X971773Y835816D02*
X1087839D01*
X971728Y836816D02*
X1088256D01*
X971113Y833816D02*
X1087771D01*
X970933Y830816D02*
X1090086D01*
X971274Y838154D02*
Y841964D01*
X971190Y841816D02*
X1064774D01*
X971581Y834816D02*
X1087687D01*
X970836Y838816D02*
X1067607D01*
X971747Y828816D02*
X1066157D01*
X971762Y827816D02*
X1065310D01*
X971488Y829816D02*
X1067648D01*
X971539Y826816D02*
X1064782D01*
X971535Y821816D02*
X1065164D01*
X971274Y830280D02*
Y834090D01*
Y822406D02*
Y826216D01*
X971030Y825816D02*
X1064481D01*
X971024Y822816D02*
X1064694D01*
X1086274Y799900D02*
Y873880D01*
X1085274Y799900D02*
Y895500D01*
X1084274Y799900D02*
Y895500D01*
X1098274Y799900D02*
Y871083D01*
X1087274Y799900D02*
Y872115D01*
X1083274Y799900D02*
Y895500D01*
X1082274Y799900D02*
Y895500D01*
X1081274Y799900D02*
Y895500D01*
X1080274Y799900D02*
Y895500D01*
X1079274Y799900D02*
Y895500D01*
X1078274Y799900D02*
Y895500D01*
X1077274Y799900D02*
Y895500D01*
X1076274Y799900D02*
Y895500D01*
X1064274Y799900D02*
Y895500D01*
X1063274Y799900D02*
Y895500D01*
X1062274Y799900D02*
Y895500D01*
X1061274Y799900D02*
Y895500D01*
X1060274Y799900D02*
Y895500D01*
X1059274Y799900D02*
Y895500D01*
X1058274Y799900D02*
Y895500D01*
X1057274Y799900D02*
Y895500D01*
X1056274Y799900D02*
Y895500D01*
X1055274Y799900D02*
Y895500D01*
X1054274Y799900D02*
Y895500D01*
X1053274Y799900D02*
Y895500D01*
X1052274Y799900D02*
Y895500D01*
X1051274Y799900D02*
Y895500D01*
X1050274Y799900D02*
Y895500D01*
X1049274Y799900D02*
Y895500D01*
X1048274Y799900D02*
Y895500D01*
X1047274Y799900D02*
Y895500D01*
X1046274Y799900D02*
Y895500D01*
X1045274Y799900D02*
Y895500D01*
X1044274Y799900D02*
Y895500D01*
X1043274Y799900D02*
Y895500D01*
X1042274Y799900D02*
Y895500D01*
X1099300Y799900D02*
Y870508D01*
X1099274Y799900D02*
Y870516D01*
X1097274Y799900D02*
Y871100D01*
X1074076Y820816D02*
X1099300D01*
X1072802Y819816D02*
X1099300D01*
X1096274Y799900D02*
Y834378D01*
X1095274Y799900D02*
Y831905D01*
X1094274Y799900D02*
Y831034D01*
X1093274Y799900D02*
Y830572D01*
X1090274Y799900D02*
Y830729D01*
X1089274Y799900D02*
Y831336D01*
X1088274Y799900D02*
Y832500D01*
X1092274Y799900D02*
Y830384D01*
X1091274Y799900D02*
Y830433D01*
X1075274Y799900D02*
Y822728D01*
X1074274Y799900D02*
Y821034D01*
X1073274Y799900D02*
Y820119D01*
X1072274Y799900D02*
Y819549D01*
X971492Y818816D02*
X1099300D01*
X970940Y817816D02*
X1099300D01*
X971107Y814816D02*
X1099300D01*
X971773Y812816D02*
X1099300D01*
X971578Y813816D02*
X1099300D01*
X971762Y820816D02*
X1065924D01*
X971748Y819816D02*
X1067198D01*
X971729Y811816D02*
X1099300D01*
X1071274Y799900D02*
Y819215D01*
X1070274Y799900D02*
Y819076D01*
X1069274Y799900D02*
Y819116D01*
X971441Y810816D02*
X1099300D01*
X970844Y809816D02*
X1099300D01*
X1066274Y799900D02*
Y820478D01*
X1065274Y799900D02*
Y821639D01*
X1068274Y799900D02*
Y819340D01*
X1067274Y799900D02*
Y819773D01*
X1041274Y799900D02*
Y895500D01*
X1040274Y799900D02*
Y895500D01*
X1039274Y799900D02*
Y895500D01*
X1038274Y799900D02*
Y895500D01*
X1037274Y799900D02*
Y895500D01*
X1036274Y799900D02*
Y895500D01*
X1035274Y799900D02*
Y895500D01*
X1034274Y799900D02*
Y895500D01*
X1033274Y799900D02*
Y895500D01*
X1032274Y799900D02*
Y895500D01*
X1031274Y799900D02*
Y895500D01*
X1030274Y799900D02*
Y895500D01*
X1029274Y799900D02*
Y895500D01*
X1028274Y799900D02*
Y895500D01*
X1027274Y799900D02*
Y895500D01*
X1026274Y799900D02*
Y895500D01*
X1025274Y799900D02*
Y895500D01*
X1024274Y799900D02*
Y895500D01*
X1023274Y799900D02*
Y895500D01*
X1022274Y799900D02*
Y895500D01*
X1021274Y799900D02*
Y895500D01*
X1020274Y799900D02*
Y895500D01*
X1019274Y799900D02*
Y895500D01*
X1018274Y799900D02*
Y895500D01*
X1017274Y799900D02*
Y895500D01*
X1016274Y799900D02*
Y895500D01*
X1015274Y799900D02*
Y895500D01*
X1014274Y799900D02*
Y895500D01*
X1013274Y799900D02*
Y895500D01*
X1012274Y799900D02*
Y895500D01*
X1011274Y799900D02*
Y895500D01*
X1010274Y799900D02*
Y895500D01*
X1009274Y799900D02*
Y895500D01*
X1008274Y799900D02*
Y895500D01*
X1007274Y799900D02*
Y895500D01*
X1006274Y799900D02*
Y895500D01*
X1005274Y799900D02*
Y895500D01*
X1004274Y799900D02*
Y895500D01*
X1003274Y799900D02*
Y895500D01*
X1002274Y799900D02*
Y895500D01*
X1001274Y799900D02*
Y895500D01*
X1000274Y799900D02*
Y895500D01*
X999274Y799900D02*
Y895500D01*
X998274Y799900D02*
Y895500D01*
X997274Y799900D02*
Y895500D01*
X996274Y799900D02*
Y895500D01*
X995274Y799900D02*
Y895500D01*
X994274Y799900D02*
Y895500D01*
X993274Y799900D02*
Y895500D01*
X992274Y799900D02*
Y895500D01*
X991274Y799900D02*
Y895500D01*
X990274Y799900D02*
Y895500D01*
X989274Y799900D02*
Y895500D01*
X988274Y799900D02*
Y895500D01*
X987274Y799900D02*
Y895500D01*
X986274Y799900D02*
Y895500D01*
X985274Y799900D02*
Y895500D01*
X984274Y799900D02*
Y895500D01*
X983274Y799900D02*
Y895500D01*
X982274Y799900D02*
Y895500D01*
X981274Y799900D02*
Y895500D01*
X980274Y799900D02*
Y895500D01*
X971274Y814532D02*
Y818342D01*
X979274Y799900D02*
Y895500D01*
X978274Y799900D02*
Y895500D01*
X977274Y799900D02*
Y895500D01*
X976274Y799900D02*
Y895500D01*
X975274Y799900D02*
Y895500D01*
X974274Y799900D02*
Y895500D01*
X973274Y799900D02*
Y895500D01*
X972274Y799900D02*
Y895500D01*
X971274Y799900D02*
Y810468D01*
X964274Y886258D02*
Y895500D01*
X963274Y885954D02*
Y895500D01*
X962156Y885896D02*
X963731Y885977D01*
X962274Y885902D02*
Y895500D01*
X961274Y885705D02*
Y895500D01*
X960274Y885034D02*
Y895500D01*
X964274Y870479D02*
Y880300D01*
X963460D02*
X964470D01*
X963274Y868792D02*
Y880114D01*
X960000Y876840D02*
X963460Y880300D01*
X959274Y884034D02*
Y895500D01*
X958274Y883034D02*
Y895500D01*
X957274Y882034D02*
Y895500D01*
X953358Y894816D02*
X1099300D01*
X953756Y893816D02*
X1099300D01*
X952894Y895500D02*
X1099300D01*
X953899Y892816D02*
X1099300D01*
X953810Y891816D02*
X1099300D01*
X953476Y890816D02*
X1099300D01*
X952823Y889816D02*
X1099300D01*
X951567Y888816D02*
X1099300D01*
X944600Y887816D02*
X1099300D01*
X953358Y884816D02*
X960056D01*
X955220Y879980D02*
X960320Y885080D01*
X952607Y885816D02*
X961618D01*
X953756Y883816D02*
X959056D01*
X953899Y882816D02*
X958056D01*
X956274Y881034D02*
Y895500D01*
X955274Y880034D02*
Y895500D01*
X953810Y881816D02*
X957056D01*
X953476Y880816D02*
X956056D01*
X969910Y879816D02*
X1099300D01*
X969274Y871528D02*
Y879456D01*
X968274Y871845D02*
Y879139D01*
X968417Y871816D02*
X1087629D01*
X961975Y878816D02*
X1098994D01*
X965274Y871307D02*
Y879678D01*
X962976Y879816D02*
X965058D01*
X967274Y871913D02*
Y879071D01*
X966274Y871744D02*
Y879240D01*
X970359Y870816D02*
X1098617D01*
X970746Y864816D02*
X1099300D01*
X970493Y862816D02*
X1099300D01*
X969492Y863816D02*
X1099300D01*
X970274Y870890D02*
Y880094D01*
X962274Y867613D02*
Y879114D01*
X970274Y863016D02*
Y864346D01*
X960975Y877816D02*
X1088081D01*
X960000Y876816D02*
X1086903D01*
X960000Y875816D02*
X1086373D01*
X960000Y873816D02*
X1086290D01*
X960000Y872816D02*
X1086709D01*
X960000Y874816D02*
X1086187D01*
X952823Y879816D02*
X955069D01*
X960000Y871816D02*
X966551D01*
X960000Y870816D02*
X964609D01*
X960000Y869816D02*
X963788D01*
X960000Y868816D02*
X963294D01*
X960027Y864964D02*
X963388Y868927D01*
X960000Y867816D02*
X962446D01*
X960000Y866816D02*
X961598D01*
X961274Y866434D02*
Y878114D01*
X960274Y865255D02*
Y877114D01*
X960000Y864931D02*
Y876840D01*
Y865816D02*
X960750D01*
X953274Y894962D02*
Y895500D01*
Y884962D02*
Y890438D01*
X952274Y886115D02*
Y889285D01*
X951274Y886726D02*
Y888673D01*
X950274Y887031D02*
Y888369D01*
X949274Y887094D02*
Y888306D01*
X948274Y886926D02*
Y888474D01*
X953274Y874962D02*
Y880438D01*
X952274Y876115D02*
Y879285D01*
X951567Y878816D02*
X954521D01*
X951274Y876727D02*
Y878673D01*
X950274Y877031D02*
Y878369D01*
X949274Y877094D02*
Y878306D01*
X948274Y876926D02*
Y878474D01*
X945331Y888816D02*
X947433D01*
X945331Y888816D02*
X947433D01*
X947274Y886816D02*
Y888816D01*
X944954Y886816D02*
X947944D01*
X946274D02*
Y888816D01*
X945274Y886816D02*
Y888780D01*
X944600Y886936D02*
Y888495D01*
X945331Y878816D02*
X947433D01*
X945331Y878816D02*
X947433D01*
X947274Y876816D02*
Y878816D01*
X946274Y876816D02*
Y878816D01*
X945274Y876816D02*
Y878780D01*
X944600Y877036D02*
Y878495D01*
X952607Y875816D02*
X954400D01*
X953358Y874816D02*
X954400D01*
X951056Y876816D02*
X954400D01*
X953756Y873816D02*
X954400D01*
X953899Y872816D02*
X954400D01*
X953810Y871816D02*
X954400D01*
X953476Y870816D02*
X954400D01*
X952823Y869816D02*
X954400D01*
X951567Y868816D02*
X954400D01*
X952607Y865816D02*
X954400D01*
X953358Y864816D02*
X954400D01*
X951056Y866816D02*
X954400D01*
X953756Y863816D02*
X954400D01*
X953899Y862816D02*
X954400D01*
X953274Y864962D02*
Y870438D01*
X952274Y866115D02*
Y869285D01*
X951274Y866726D02*
Y868674D01*
X950274Y867031D02*
Y868369D01*
X945161Y876816D02*
X947944D01*
X944600Y877816D02*
X954400D01*
X944600Y867816D02*
X954400D01*
X945161Y868816D02*
X947433D01*
X945162Y868816D02*
X947433D01*
X949274Y867094D02*
Y868306D01*
X948274Y866926D02*
Y868474D01*
X947274Y866816D02*
Y868816D01*
X944954Y866816D02*
X947944D01*
X946274D02*
Y868816D01*
X945274Y866816D02*
Y868816D01*
X944600Y866936D02*
Y868595D01*
X970633Y856816D02*
X1099300D01*
X970617Y854816D02*
X1099300D01*
X970511Y848816D02*
X1067232D01*
X970731Y846816D02*
X1065175D01*
X969459Y847816D02*
X1065942D01*
X970274Y855142D02*
Y856472D01*
Y847268D02*
Y848598D01*
X970378Y840816D02*
X1065297D01*
X969686Y839816D02*
X1066137D01*
X970234Y832816D02*
X1088107D01*
X969884Y831816D02*
X1088772D01*
X970074Y824816D02*
X1064371D01*
X970062Y823816D02*
X1064439D01*
X970274Y839394D02*
Y840724D01*
Y831520D02*
Y832850D01*
Y823646D02*
Y824976D01*
X969233Y855816D02*
X1099300D01*
X961931Y820816D02*
X963207D01*
X962274Y799900D02*
Y820981D01*
X960462Y820109D02*
X963332Y821489D01*
X963274Y813374D02*
Y819500D01*
X960168Y819816D02*
X963221D01*
X969899Y816816D02*
X1099300D01*
X970274Y815772D02*
Y817102D01*
X970222Y815816D02*
X1099300D01*
X969701Y808816D02*
X1099300D01*
X959168Y818816D02*
X963476D01*
X958347Y817816D02*
X964028D01*
X965274Y816189D02*
Y816685D01*
X964274Y815361D02*
Y817513D01*
X970274Y799900D02*
Y809228D01*
X969274Y799900D02*
Y808590D01*
X968274Y799900D02*
Y808273D01*
X967274Y799900D02*
Y808205D01*
X964274Y799900D02*
Y809639D01*
X963274Y799900D02*
Y811626D01*
X966274Y799900D02*
Y808374D01*
X965274Y799900D02*
Y808811D01*
X957659Y816816D02*
X965070D01*
X956971Y815816D02*
X964746D01*
X956283Y814816D02*
X963861D01*
X952823Y809816D02*
X964125D01*
X951567Y808816D02*
X965267D01*
X955595Y813816D02*
X963391D01*
X954907Y812816D02*
X963196D01*
X954219Y811816D02*
X963239D01*
X953531Y810816D02*
X963528D01*
X944600Y807816D02*
X1099300D01*
X944600Y806816D02*
X1099300D01*
X944600Y805816D02*
X1099300D01*
X944600Y804816D02*
X1099300D01*
X944600Y803816D02*
X1099300D01*
X944600Y802816D02*
X1099300D01*
X944600Y801816D02*
X1099300D01*
X944600Y800816D02*
X1099300D01*
X944600Y799900D02*
X1099300D01*
X953810Y861816D02*
X954400D01*
X953476Y860816D02*
X954400D01*
X952823Y859816D02*
X954400D01*
X952607Y855816D02*
X954400D01*
X951567Y858816D02*
X954400D01*
X953274Y854962D02*
Y860438D01*
X952274Y856115D02*
Y859285D01*
X953756Y853816D02*
X954400D01*
X953358Y854816D02*
X954400D01*
X953899Y852816D02*
X954400D01*
Y850365D02*
Y878000D01*
X953810Y851816D02*
X954400D01*
X953476Y850816D02*
X954400D01*
X951837Y848972D02*
X954400Y850365D01*
X954274Y850296D02*
Y895500D01*
X953274Y849753D02*
Y850438D01*
X952823Y849816D02*
X953389D01*
X950274Y857031D02*
Y858369D01*
X948274Y856926D02*
Y858474D01*
X949274Y857094D02*
Y858306D01*
X944600Y857816D02*
X954400D01*
X945331Y858816D02*
X947433D01*
X945331Y858816D02*
X947433D01*
X944600Y856936D02*
Y858495D01*
X951274Y856726D02*
Y858673D01*
X951056Y856816D02*
X954400D01*
X944954Y856816D02*
X947944D01*
X947274D02*
Y858816D01*
X946274Y856816D02*
Y858816D01*
X945274Y856816D02*
Y858780D01*
X961274Y799900D02*
Y820500D01*
X960274Y799900D02*
Y819921D01*
X958741Y818388D02*
X960462Y820109D01*
X959274Y799900D02*
Y818921D01*
X953291Y810467D02*
X958741Y818388D01*
X949274Y847579D02*
Y848306D01*
X948274Y847035D02*
Y848474D01*
X958274Y799900D02*
Y817710D01*
X957274Y799900D02*
Y816256D01*
X956274Y799900D02*
Y814802D01*
X955274Y799900D02*
Y813349D01*
X954274Y799900D02*
Y811895D01*
X953274Y799900D02*
Y810438D01*
X952274Y799900D02*
Y809285D01*
X951274Y799900D02*
Y808673D01*
X948274Y799900D02*
Y808474D01*
X950274Y799900D02*
Y808369D01*
X949274Y799900D02*
Y808306D01*
X945331Y848816D02*
X947433D01*
X947870Y846816D02*
X951357Y848711D01*
X945331Y848816D02*
X947433D01*
X947274Y846816D02*
Y848816D01*
X944600Y847816D02*
X949710D01*
X946274Y846816D02*
Y848816D01*
X945274Y846816D02*
Y848780D01*
X944600Y846936D02*
Y848495D01*
X944954Y846816D02*
X947870D01*
X944954Y808616D02*
X947863D01*
X947274Y799900D02*
Y808616D01*
X946274Y799900D02*
Y808616D01*
X945274Y799900D02*
Y808616D01*
X944600Y799900D02*
Y808495D01*
D61*
X1094850Y874700D02*
D03*
D62*
X1070000Y824700D02*
D03*
Y843913D02*
D03*
M02*
